<svg transform="scale(1)" version="1.1" id="VPVtKnwoDN" xmlns="http://www.w3.org/2000/svg" xmlns:xlink="http://www.w3.org/1999/xlink" x="0px" y="0px" viewBox="0 0 500 500" xml:space="preserve" class="pbimage_pbimage__wrapper__image__0LEis false"><title>Add to Cart 2</title><style type="text/css"> .st0{fill:#FFFFFF;} .st1{fill:#000005;} .st2{fill:#59BE4C;} .st3{fill:none;}
 .st2{fill:#3560ba;}
 .st1{fill:#000005;}
 .st0{fill:#FFFFFF;}</style><g id="device"><path class="st0" d="M306.6,452.4c0,0,90.2-33.2,98.1-44.8s10.1-28,10.1-28l-260.2-54.7c0,0-1.9,11.6,2.8,20.3
		S280.2,459.2,306.6,452.4z" fill="#FFFFFF"></path><path class="st1" d="M307.4,454.4c4.2-1.5,8.4-3.1,12.6-4.8c9.6-3.7,19.2-7.5,28.8-11.4c10.8-4.4,21.6-9,32.1-14
		c4.5-2.1,9-4.4,13.5-6.8c3.1-1.6,6.2-3.5,9-5.7c4-3.1,6.3-7.7,8.2-12.4c2.5-6,4.4-12.2,5.4-18.6c0.1-0.4,0.1-0.7,0.2-1.1
		c0.2-1.1-0.5-2.2-1.7-2.5c-0.1,0-0.1,0-0.2,0l-7-1.5l-18.9-4l-28-5.9l-34.2-7.2l-37.3-7.8l-37.7-8l-35.3-7.4l-29.6-6.2l-21.5-4.5
		c-3.4-0.7-6.7-1.5-10.1-2.1c-0.1,0-0.3-0.1-0.4-0.1c-1.3-0.2-2.6,0.6-2.9,1.9c-0.6,3.8-0.6,7.7-0.1,11.5c0.5,3.8,1.4,8.1,3.8,11.2
		c2,2.5,4.2,4.8,6.6,7c9.5,9.4,19.5,18.3,29.5,27c13.4,11.5,27,22.8,41,33.5c13.2,10.1,26.6,20,41,28.4c5.5,3.3,11.2,6.3,17.1,8.7
		c4.2,1.7,8.8,3.2,13.4,3C305.5,454.9,306.5,454.7,307.4,454.4c1.2-0.4,2-1.6,1.6-2.9c-0.5-1.3-1.9-1.5-3.1-1.2c-0.1,0,0.7-0.1,0,0
		l-0.6,0.1c-0.4,0-0.8,0-1.2,0.1c-0.6,0,0.6,0-0.1,0h-0.6c-0.5,0-0.9-0.1-1.4-0.1s-1-0.1-1.5-0.2l-0.6-0.1l-0.4-0.1
		c-0.4-0.1,0.6,0.2-0.1,0c-1.1-0.3-2.2-0.6-3.3-1c-2.5-0.9-5-1.9-7.5-3.1c-3-1.4-5.3-2.6-8-4.1c-13.9-7.8-27-17.2-39.7-26.8
		c-14-10.6-27.7-21.7-41.1-33.1c-10.6-9-21-18.2-31-27.8c0.4,0.4-0.1-0.1-0.3-0.3l-0.7-0.6l-1.3-1.2c-0.8-0.8-1.5-1.5-2.3-2.3
		c-1.2-1.2-2.3-2.4-3.4-3.6c-0.4-0.4-0.7-0.8-1.1-1.3l-0.3-0.5c-0.2-0.3-0.6-0.6,0,0c-0.4-0.7-0.8-1.4-1-2.2
		c-0.2-0.6-0.5-1.2-0.7-1.9c-0.5-1.5-0.8-3.1-1-4.7c-0.3-2.5-0.4-5.1-0.2-7.7c0-0.4,0.1-0.8,0.1-1.1c0-0.1,0.1-0.8,0-0.2
		c0-0.2,0-0.3,0-0.5s0.1-0.6,0.1-0.9l-2.9,1.8l7,1.5l18.9,4l28,5.9l34.2,7.2l37.4,7.9l37.7,7.9l35.3,7.4l29.6,6.2l21.5,4.5
		c3.4,0.7,6.7,1.5,10.1,2.1l0.4,0.1l-1.9-2.5c-0.7,4.6-1.8,9.1-3.3,13.5c-1.2,3.9-2.9,7.7-4.9,11.3c-0.5,0.9-1.3,1.8-1.7,2.7
		c0.2-0.4,0.3-0.3-0.1,0.1s-0.7,0.8-1.1,1.1s-0.2,0.2,0.1,0l-0.4,0.3l-0.8,0.6c-0.6,0.5-1.2,0.9-1.8,1.3c-1.5,1-3.1,1.9-4.6,2.8
		c-1.9,1.1-3.8,2.1-5.7,3.1l-0.8,0.4l0,0l-0.4,0.2l-1.6,0.8c-1.1,0.6-2.3,1.1-3.4,1.7c-10.3,4.9-20.8,9.4-31.3,13.8
		c-9.8,4-19.6,7.9-29.5,11.7c-5,1.9-10,3.7-15,5.7l-0.2,0.1c-1.1,0.4-1.7,1.7-1.3,2.8C305,454.3,306.2,454.8,307.4,454.4z" fill="#000005"></path><path class="st1" d="M154.6,324.8c0,0,90.7-30.8,98.7-31c8-0.2,160.6,71.5,161.6,85.8s-96.6,57.5-107.7,58S148.8,336.6,154.6,324.8
		z" fill="#000005"></path><path class="st1" d="M155.9,326.1c5.8-2,11.6-3.9,17.4-5.8c12.4-4.2,24.7-8.2,37.1-12.2c11.4-3.7,22.8-7.4,34.3-10.6
		c1.8-0.5,3.7-1,5.5-1.5c0.7-0.2,1.4-0.3,2.1-0.5c0.5-0.1-0.5,0.1-0.1,0l0.4-0.1c0.2,0,0.5-0.1,0.7-0.1s0.4,0,0.5,0s-0.8,0-0.3,0
		c-1.1,0-0.2,0,0.2,0.1s0.4,0.2,0,0c0.2,0.1,0.4,0.1,0.6,0.2l1.4,0.5c7.1,2.4,13.9,5.5,20.7,8.5c10.8,4.8,21.5,9.8,32.1,14.8
		c12.4,5.9,24.7,12,37,18.3c11.6,5.9,23,12,34.3,18.4c8.6,4.7,16.9,9.9,24.9,15.6l1.1,0.8c0.1,0.1,0.5,0.4,0.1,0.1l0.6,0.5
		c0.6,0.5,1.2,1,1.8,1.5c1,0.8,1.9,1.7,2.7,2.7c0.2,0.2,0.3,0.4,0.5,0.6s0.1,0.2,0.2,0.2c0.2,0.3-0.2-0.4,0,0.1
		c0.2,0.3,0.4,0.7,0.5,1c0.1,0.1,0.1,0.3,0.1,0.4c-0.1-0.4,0-0.1,0,0.2s0,0.5,0,0.7c0,0.1,0,0.2-0.1,0.3c0.1-0.5,0,0,0,0.1
		c-0.2,0.6-0.5,1.1-0.8,1.6c-0.2,0.3-0.4,0.5-0.6,0.8s-0.2,0.3-0.1,0.2l-0.4,0.5c-1.3,1.4-2.6,2.7-4.1,3.9
		c-3.9,3.2-8.1,6.1-12.4,8.6c-11.6,7-23.7,13.4-36,19.2c-6.2,3-12.5,5.9-18.9,8.7c-5.4,2.4-11.1,4.8-16.3,6.8c-4,1.6-8,3.1-12.1,4.3
		c-0.7,0.2-1.4,0.4-2.1,0.6l-0.9,0.2c0.8-0.2,0.1,0-0.2,0c-0.2,0-0.4,0-0.6,0.1c-0.4,0.1,0.9,0,0.2,0c0.2,0,0.7,0.2,0.2,0
		s-0.6-0.4,0,0c-0.8-0.4-1.7-0.7-2.6-1l-0.8-0.4l-0.4-0.2c0.4,0.2,0.2,0.1-0.1,0c-0.6-0.3-1.3-0.6-1.9-1c-3.3-1.7-6.5-3.5-9.8-5.5
		c-9.3-5.5-18.3-11.3-27.3-17.2c-11.1-7.3-22-14.8-32.8-22.5c-11-7.8-21.9-15.7-32.6-23.9c-9-6.9-17.9-13.9-26.3-21.3
		c-3.2-2.8-6.3-5.6-9.2-8.6c-1.1-1.1-2.2-2.3-3.2-3.5c-0.4-0.5-0.9-1-1.2-1.6l-0.4-0.6c0.1,0.1-0.3-0.5-0.4-0.6
		c-0.4-0.7-0.8-1.5-1.1-2.2c-0.2-0.5,0,0.2,0-0.2c0-0.1,0-0.3,0-0.4c0-0.1,0-0.3,0-0.4c0,0-0.1,0.3,0,0c0.9-1.9-4-2.5-4.8-0.9
		s0.2,3.4,1.1,4.7c1.7,2.5,3.6,4.9,5.7,7c6.8,6.8,14,13.1,21.6,19c10.1,8.1,20.4,16,30.9,23.6c11.1,8.2,22.4,16.1,33.8,23.9
		c10.2,7,20.5,13.9,31,20.5c7.2,4.6,14.5,9.1,22.2,13c2.2,1.2,4.5,2.2,6.9,2.8c2.5,0.5,5-0.2,7.4-0.9c10-3,19.7-7.2,29.3-11.4
		c13-5.7,25.9-11.8,38.4-18.5c5.8-3.1,11.5-6.3,17.1-9.8c4.5-2.7,8.9-5.8,13-9.1c2.4-2,5.3-4.5,6.4-7.5c0.8-2.2,0-3.8-1.4-5.5
		c-2-2.3-4.3-4.3-6.7-6c-3.4-2.6-7.1-5-10.7-7.3c-10-6.3-20.3-12-30.7-17.6c-12.2-6.6-24.6-12.9-37-19c-12-5.9-24.1-11.7-36.3-17.3
		c-9.2-4.2-18.4-8.4-27.7-12.2c-2.8-1.1-5.6-2.3-8.4-3.2c-1.9-0.8-3.9-1.1-5.9-1c-3.2,0.5-6.3,1.3-9.4,2.2c-5.2,1.5-10.3,3-15.5,4.6
		c-13,4-26,8.3-39,12.6c-10.1,3.3-20.2,6.7-30.3,10.1l-4.6,1.5c-0.9,0.3-1.7,1-1,1.9C153.4,326.2,154.7,326.5,155.9,326.1z" fill="#000005"></path><path class="st0" d="M306.1,428.1c0,0,94.4-43.3,95-47s-142.6-79.7-148.9-79.9s-85.4,24-84.9,28.8S296.4,428.2,306.1,428.1z" fill="#FFFFFF"></path><path class="st1" d="M307.5,430.2l13.8-6.4c10.3-4.8,20.6-9.6,30.8-14.5c10.8-5.1,21.5-10.3,32.1-15.6c3.9-2,7.8-4,11.7-6.1
		c2.2-1.1,4.2-2.3,6.1-3.8c3.9-3.4-3.5-7.3-5.9-8.9c-6.8-4.3-13.7-8.2-20.7-12.1c-10-5.6-20-11.1-30.1-16.6
		c-11.1-6-22.3-12-33.5-17.9c-10.2-5.3-20.4-10.6-30.7-15.9c-7.3-3.7-14.6-7.4-22.1-10.9c-1.8-0.9-3.7-1.7-5.6-2.4
		c-1.6-0.4-3.4-0.4-5,0.1c-9.4,1.9-18.7,4.9-27.9,7.7c-12,3.6-23.9,7.5-35.6,11.8c-4.5,1.6-8.9,3.3-13.3,5.3
		c-1.9,0.9-5.3,2.1-6.1,4.3c-0.7,2,1.1,3.8,2.4,5c1.8,1.7,3.7,3.3,5.7,4.9c6.9,5.7,14.1,11.2,21.3,16.6c9.6,7.2,19.2,14.4,29,21.4
		c10.4,7.5,20.8,14.9,31.3,22.2c9.2,6.4,18.5,12.7,27.9,18.9c6.1,4.2,12.5,8,19.1,11.4c1.4,0.7,3,1.6,4.6,1.6c2.9,0,1.5-4.6-0.8-4.6
		h-0.3c-0.5-0.1,0.2,0.1,0.1,0c-0.3-0.1-0.6-0.2-0.9-0.3c-0.9-0.4-1.8-0.8-2.7-1.2l-0.4-0.2l-0.9-0.5c-0.6-0.3-1.3-0.7-1.9-1
		c-1.5-0.8-2.9-1.7-4.4-2.6c-8.1-4.9-16-10.2-23.9-15.6c-10-6.8-19.9-13.7-29.8-20.8c-10.2-7.2-20.3-14.6-30.4-22
		c-8.6-6.3-17.1-12.7-25.5-19.2c-1.6-1.3-3.3-2.6-4.9-3.9l-2.1-1.7l-1-0.8l-0.3-0.2l-0.4-0.3c-2-1.6-3.9-3.2-5.7-5
		c-0.3-0.3-0.6-0.5-0.9-0.8s-0.8-1-0.2-0.2l-0.2-0.2c-0.2-0.4,0.3,0.7,0.2,0.4c0.2,0.5,0.2,1,0.1,1.4c0.1-0.4-0.1,0.5-0.1,0.1
		c0-0.2,0.6-0.5,0,0c0.2-0.1,0.3-0.3,0.5-0.4c0.4-0.3,0.9-0.6,1.3-0.9c1.4-0.8,2.8-1.5,4.3-2.1c1.1-0.5,1.4-0.6,2.6-1.1
		c1-0.4,2.1-0.9,3.1-1.3c2.4-1,4.9-1.9,7.4-2.8c5.7-2.1,11.5-4,17.3-5.9c11.3-3.7,22.6-7.2,34.1-10.3c3.5-1,7.1-1.9,10.7-2.6
		c0.5-0.1,1-0.2,1.5-0.3c0.3,0,0.8,0.1,0.1,0c0.1,0,0.3,0,0.4,0c0,0,0.2,0,0.2,0s-0.6-0.2-0.2,0l0.8,0.3c5.2,2.1,10.4,4.4,15.4,7.1
		c9.1,4.5,17.4,8.8,26.6,13.5c10.8,5.6,21.6,11.3,32.4,17.1c10.8,5.8,21.4,11.5,32,17.4c8.7,4.8,17.4,9.6,25.9,14.6
		c2.9,1.7,5.9,3.5,8.8,5.3c1,0.6,2,1.3,3,2l1.1,0.8l0.5,0.3c0.4,0.3,0.4,0.5,0,0c0.2,0.2,0.3,0.3,0.5,0.5c0.4,0.3-0.4-0.6-0.2-0.3
		c0.1,0.1,0.1,0.3-0.1-0.2c-0.2-0.2-0.3-0.5-0.3-0.8c0-0.4,0-0.8,0.1-1.2c0-0.2,0.1-0.2-0.1,0s0.5-0.4,0,0l-0.4,0.3
		c-2.2,1.6-4.6,2.9-7,4.2c-9,4.9-18.2,9.3-27.4,13.8c-10.9,5.3-21.9,10.5-32.9,15.6c-7.8,3.6-15.5,7.2-23.3,10.8l-3.5,1.5
		c-1.1,0.5-0.6,2.4-0.1,3.1C305.1,430.2,306.4,430.6,307.5,430.2z" fill="#000005"></path><path class="st1" d="M322.5,401.8c0,0,30.2-18.2,34.1-18.2s7.5,2.9,5.5,5.5s-32.2,19.5-35.8,18.5S320.5,404.1,322.5,401.8z" fill="#000005"></path><path class="st1" d="M323.9,403.3c3.9-2.4,7.9-4.7,11.8-6.9c6.1-3.5,12.2-7.1,18.7-10c0.2-0.1,1-0.4,0.3-0.1
		c0.2-0.1,0.4-0.2,0.7-0.3c0.4-0.2,0.9-0.3,1.3-0.5c0.6-0.2-0.3,0.1-0.2,0c0.4-0.2-0.2-0.1,0.4,0c1.1,0.1,2.1,0.5,2.8,1.3
		c0.3,0.2,0.4,0.6,0.5,0.9c0,0.4-0.2,0.5-0.3,0.8c0.1-0.4,0.4-0.4,0.1-0.1l-0.4,0.3c-0.2,0.1-0.3,0.3-0.5,0.4l-0.2,0.1
		c-0.4,0.3,0.5-0.3,0,0s-1,0.7-1.5,1c-6.1,3.9-12.4,7.5-18.9,10.7c-1.8,0.9-3.6,1.8-5.5,2.7c-0.4,0.2-0.8,0.4-1.2,0.5l-0.6,0.2
		c-0.5,0.2,0.3-0.1-0.2,0.1c-0.7,0.3-1.4,0.6-2.2,0.9c-0.5,0.2-1.1,0.4-1.6,0.5c-0.1,0-0.2,0-0.3,0.1c-0.4,0.1,0.7-0.1,0.2,0
		c-0.3,0.1-0.9,0,0,0.1H327c-0.2,0-0.1,0,0.4,0.1c-0.3-0.1-0.5-0.1-0.8-0.2c-0.6-0.2-1.1-0.5-1.6-0.8c-0.9-0.7-1.1-1.4-0.4-2.3
		s-0.2-2.1-1.1-2.4c-1.2-0.4-2.5,0-3.3,1c-3.5,4.4,3.2,9,7.4,8.4c3.1-0.5,6-2,8.8-3.3c7.4-3.5,14.6-7.4,21.6-11.7
		c2-1.2,4.4-2.5,6-4.2c2-2.2,1.2-5-1-6.6c-2-1.5-4.5-2.2-7-1.9c-2.8,0.4-5.5,2-7.9,3.3c-3.6,1.8-7.1,3.8-10.7,5.8
		c-5.5,3.1-10.9,6.2-16.3,9.5c-0.9,0.6-1.5,1.7-0.6,2.6C321.4,403.8,322.8,403.9,323.9,403.3z" fill="#000005"></path><path class="st0" d="M327.4,401.6c0.3,1,1.1,1.7,2,2.1c0.5,0.2,1,0.3,1.5,0.2c0.5-0.1,1-0.3,1.4-0.6c0.4-0.3,0.6-0.8,0.7-1.3
		c0.1-0.5,0-0.9-0.1-1.4c-0.2-0.5-0.4-0.9-0.8-1.3c-0.4-0.5-0.9-0.8-1.5-1c-0.3-0.1-0.5-0.2-0.8-0.2c-0.3,0-0.6,0-0.9,0
		c-0.5,0.1-1.1,0.3-1.5,0.7c-0.2,0.2-0.4,0.5-0.6,0.7c-0.1,0.3-0.2,0.5-0.3,0.8c0,0.1-0.1,0.3-0.1,0.4c0,0.3,0,0.6,0,0.9
		c0,0.4,0.2,0.8,0.4,1.2c0.2,0.3,0.4,0.5,0.7,0.8c0.2,0.2,0.5,0.4,0.8,0.5c0.4,0.2,0.7,0.2,1.1,0.2c0.3,0,0.7-0.1,1-0.2
		c0.2-0.1,0.3-0.1,0.5-0.2c0.3-0.2,0.6-0.4,0.8-0.6c0.1-0.1,0.1-0.1,0.2-0.2c0.2-0.2,0.3-0.4,0.5-0.6c0.1-0.2,0.2-0.5,0.2-0.8
		c0-0.3,0-0.6-0.1-0.9c-0.1-0.3-0.3-0.6-0.5-0.8c-0.2-0.3-0.4-0.5-0.7-0.7l-0.6-0.3c-0.4-0.1-0.7-0.2-1.1-0.2l-0.5,0.1
		c-0.3,0.1-0.6,0.4-0.8,0.7c0,0.1-0.1,0.1-0.1,0.2l0.3-0.4c-0.2,0.2-0.3,0.4-0.5,0.5l0.4-0.3c-0.2,0.1-0.4,0.2-0.6,0.3l0.5-0.1
		c-0.1,0-0.3,0.1-0.4,0.1l3,2.6v-0.2v0.6c0-0.2,0-0.4,0.1-0.5l-0.2,0.5c0.1-0.2,0.1-0.3,0.2-0.4l-0.3,0.4c0.1-0.1,0.2-0.2,0.3-0.3
		l-0.5,0.3c0.1-0.1,0.2-0.1,0.3-0.1l-0.5,0.1h0.3H330h0.2l-0.6-0.2l0.2,0.1l-0.5-0.3l0.2,0.1l-0.5-0.4c0,0,0.1,0.1,0.1,0.1l-0.4-0.5
		c0,0,0.1,0.1,0.1,0.1l-0.3-0.6c0,0,0,0.1,0,0.1l-0.1-0.6c0,0.1,0,0.1,0,0.2v-0.6v0.1l0.2-0.5c0,0.1,0,0.1-0.1,0.1l0.3-0.4
		c0,0.1-0.1,0.1-0.2,0.1l0.5-0.3c-0.1,0-0.2,0.1-0.2,0.1l0.5-0.1c-0.1,0-0.2,0-0.2,0h0.6h-0.1l0.6,0.1h-0.1l0.5,0.3l-0.1,0l0.5,0.4
		l-0.1-0.1l0.4,0.5c0,0,0-0.1,0-0.1l0.3,0.6c0,0,0,0,0-0.1c-0.1-0.3-0.3-0.6-0.5-0.8c-0.2-0.3-0.4-0.5-0.7-0.7
		c-0.2-0.2-0.5-0.3-0.8-0.4c-0.3-0.1-0.6-0.1-0.9-0.1l-0.5,0.1c-0.3,0.1-0.6,0.4-0.8,0.7l-0.2,0.5
		C327.3,400.9,327.3,401.3,327.4,401.6L327.4,401.6z" fill="#FFFFFF"></path></g><g id="item"><g id="bag"><path class="st2" d="M230.2,75c0,0,7.8,41.2,11.1,42.2s59.3-20.4,57.1-24.9s-15.2-36-19.1-37S229.7,72.4,230.2,75z"></path><path class="st2" d="M228.2,74.1c1.1,5.7,2.3,11.4,3.5,17c1,4.5,2,9,3.2,13.4c0.8,3.4,1.9,6.8,3.2,10.1c0.9,2.2,2.9,4.6,5.5,4.2
			c2.4-0.4,4.7-1,6.9-1.8c8.1-2.6,16-5.7,23.9-8.9c7.4-3,15-6.1,21.8-10.2c1.4-0.8,4-2.1,4.4-3.8c0.2-0.8-0.4-1.7-0.8-2.4
			c-0.6-1.4-1.3-2.9-1.9-4.3c-3.8-8.6-7.5-17.3-12.2-25.6c-1.6-2.8-3.5-6.5-6.6-7.9c-2-0.9-4.6,0.1-6.6,0.7
			c-8.2,2.5-16.3,5.4-24.2,8.8c-4,1.6-8,3.3-11.9,5.2c-2.6,1.1-5,2.4-7.3,4C228.5,73,228.1,73.4,228.2,74.1c0.2,1.4,4.4,3.9,4.1,1.8
			c0,0.2,0.1,0.3,0,0.4s0.1-0.2,0.2-0.3l0.3-0.3c0.1-0.1,0.2-0.2,0.3-0.2c0.9-0.6,1.9-1.2,2.9-1.7c3.2-1.7,6.6-3.2,9.9-4.6
			c8-3.5,16.2-6.7,24.4-9.5c2.8-1,5.7-1.9,8.6-2.6l0.6-0.1c0.3,0,0,0,0,0h0.3c0.1,0,0.3,0,0.4,0c0.2,0-0.4-0.1-0.5-0.2
			c-0.3-0.1-0.5-0.3-0.8-0.5c-0.4-0.2-0.1-0.1,0,0.1c0.3,0.3-0.1-0.2,0-0.1c0.4,0.5,0.8,1,1.2,1.6c-0.2-0.4,0.3,0.5,0.4,0.7l0.6,1.1
			c0.5,0.9,1,1.7,1.4,2.6c1.1,2,2.1,4,3,6c2.1,4.3,4.1,8.7,6,13.1c1.4,3.2,2.8,6.4,4.2,9.6c0.1,0.2,0.2,0.4,0.3,0.6s0.2,0.5,0,0.1
			c-0.1-0.2,0.1-0.2,0,0s0.1-0.2,0,0.1c-0.4,0.6-1,1.1-1.6,1.6c-2.2,1.6-4.6,3-7.1,4.1c-3.6,1.8-7.3,3.5-11,5.1
			c-7.9,3.4-16,6.6-24.1,9.5c-3,1-5.9,2.1-9,2.9c-0.9,0.3-1.9,0.5-2.8,0.7c-0.4,0.1,0.1,0-0.1,0c-0.1,0-0.3,0-0.4,0
			c-0.3,0.1,0.1,0,0.2,0c0.8,0.3,1.5,0.7,2,1.3c-0.4-0.4,0.1,0.3,0,0c-0.1-0.2-0.2-0.4-0.3-0.6s-0.2-0.5-0.3-0.7
			c0.2,0.4-0.2-0.4-0.2-0.6c-0.6-1.5-1-3-1.4-4.5c-1.2-4-2.1-8.1-3.1-12.2c-1.6-7-3.1-14.1-4.4-21.1c-0.1-0.4-0.2-0.8-0.2-1.2
			c-0.2-1.1-1.5-2-2.5-2.4C229.1,73.2,228,73.1,228.2,74.1z"></path><path class="st1" d="M268.2,66.8c0,0,1.2,3.5,2,3.9s4.3-0.5,4.7-2s-2.9-5.9-4.5-5.2C269.1,64.1,268.2,65.3,268.2,66.8z"></path><path class="st1" d="M270.8,71.3c-0.3,0-0.6,0-0.8-0.2c-0.9-0.5-2-3.3-2.3-4.2v-0.1c-0.2-1.1,0.8-3,2.5-3.8
			c0.5-0.2,1.3-0.2,2.5,0.8s3.1,3.7,2.7,5c-0.4,0.8-1,1.5-1.9,1.8C272.6,71,271.7,71.3,270.8,71.3z M268.6,66.6
			c0.4,1.3,1,2.5,1.8,3.6c0.9,0.1,1.8-0.1,2.6-0.5c0.6-0.2,1.1-0.6,1.4-1.2c0.2-0.7-1-2.8-2.4-4c-0.6-0.5-1.1-0.7-1.4-0.6
			C269.5,64.4,268.8,65.5,268.6,66.6z"></path><path class="st1" d="M239.4,77.3c0,0,1.2,3.5,2,3.9s4.3-0.5,4.7-2s-2.9-5.9-4.5-5.2C240.2,74.6,239.4,75.9,239.4,77.3z"></path><path class="st1" d="M242,81.8c-0.3,0-0.6,0-0.8-0.2c-0.9-0.5-2-3.3-2.3-4.2v-0.1c-0.2-1.1,0.8-3.1,2.5-3.8
			c0.5-0.2,1.3-0.2,2.5,0.8s3.1,3.7,2.7,5c-0.3,0.8-1,1.5-1.9,1.8C243.8,81.6,242.9,81.8,242,81.8z M239.9,77.2
			c0.4,1.3,1,2.5,1.8,3.6c0.9,0.1,1.8-0.1,2.6-0.5c0.6-0.2,1.1-0.6,1.4-1.2c0.2-0.7-1-2.8-2.4-4c-0.6-0.5-1.1-0.7-1.4-0.6
			C240.7,75,240,76,239.9,77.2L239.9,77.2z"></path><path class="st1" d="M280.2,56.1c0,0,9.4,3.4,8.9-1.1S283.3,49.7,280.2,56.1z"></path><path class="st1" d="M286.2,57.8c-2.1-0.1-4.2-0.5-6.1-1.2l-0.5-0.2l0.2-0.5c1.9-4.1,4.6-5.2,6.5-4.9c1.9,0.4,3.2,2,3.3,3.9
			c0.2,0.8-0.1,1.7-0.8,2.2C288.1,57.6,287.1,57.8,286.2,57.8z M281,55.8c2,0.6,5.9,1.6,7.3,0.5c0.4-0.3,0.5-0.8,0.4-1.3
			c0-1.4-1.1-2.7-2.5-3C284.7,51.7,282.6,52.6,281,55.8L281,55.8z"></path></g><path class="st2" d="M64,226.7c1.6-3.9,14.7-19,14.7-19s17.5,8.9,24.5-7l25.2,6.2l-1.2,21.7l-11.6-0.8l7.8,14.8l-40.8,12l-0.8-17.9
		L74,243L64,226.7z"></path><path class="st2" d="M66,225.9c0.8-1.6,1.7-3.1,2.8-4.4c1.6-2.1,3.3-4.2,5-6.3c2.2-2.7,4.4-5.3,6.7-7.9l-3.7,2
		c6.7,3.4,15.1,3.5,21.3-0.8c3.1-2.1,5.5-5.1,7-8.5l-3.9,2.3l22.1,5.4l3.2,0.8l-0.2-0.4l-1,19l-0.1,2.7l3.7-2.7l-11.6-0.8
		c-0.8-0.1-4.3,1.8-3.7,2.9l7.7,14.7l3.2-2.8l-35.7,10.6l-5,1.5l1,0.3L84,235.7c-0.1-1.2-2.8,0.6-3.1,0.8l-7.9,6.2l3.1-1.1L66,225.4
		c-0.6-1-4.8,1.7-4.2,2.7l10.1,16.3c0.5,0.8,2.8-0.8,3.1-1.1l7.8-6.2l-3.1,0.8l0.8,17.9c0,0.5,0.6,0.4,1,0.3l35.7-10.5l5-1.5
		c0.7-0.2,3.8-1.7,3.2-2.8l-7.8-14.7l-3.7,2.9l11.6,0.8c1.1,0.1,3.6-1.5,3.7-2.7l1-19l0.1-2.7c0-0.2-0.1-0.3-0.2-0.4c0,0,0,0,0,0
		l-22-5.4l-3.2-0.8c-1.2-0.3-3.4,1.2-3.9,2.3c-0.6,1.3-1.3,2.5-2.1,3.7c-0.3,0.4-0.6,0.8-1,1.1c-0.2,0.2-0.4,0.4-0.5,0.4
		s-0.7,0.5-0.4,0.3c-0.1,0.1-0.6,0.4-0.3,0.2l-0.7,0.4c0.2-0.1-0.3,0.1-0.4,0.1c-0.2,0.1-0.4,0.2-0.6,0.2c-0.9,0.3-1.8,0.5-2.8,0.6
		c-3.3,0.2-6.7-0.3-9.8-1.6c-0.7-0.2-1.4-0.5-2-0.9c-1.1-0.5-3.1,1.3-3.7,2c-2.3,2.7-4.6,5.4-6.9,8.2c-1.7,2.1-3.4,4.1-4.9,6.3
		c-1.2,1.5-2.3,3.2-3.2,4.9c-0.4,1,0.9,0.7,1.4,0.5C64.4,227.7,65.4,226.9,66,225.9z"></path><path class="st1" d="M112.2,93.7l25.3-14.3c1.5-0.9,3.5-0.3,4.4,1.2l30.6,54c0.9,1.5,0.3,3.5-1.2,4.4L146,153.3
		c-1.5,0.9-3.5,0.3-4.4-1.2l-30.6-54C110.2,96.5,110.7,94.6,112.2,93.7z"></path><path class="st1" d="M147.4,154l18.6-10.5c2.2-1.3,4.5-2.5,6.8-3.8s3.4-3.5,2.1-5.9c-0.2-0.4-0.5-0.9-0.7-1.3l-10.3-18.1
		l-13.6-23.9l-4.6-8.1c-1-1.7-1.7-3.6-3.7-4.3c-3.6-1.2-6.8,1.2-9.8,2.8l-11.8,6.7l-9,5.1c-1.5,0.9-3,1.9-3.2,3.8
		c-0.1,1,0.2,2.1,0.8,2.9l9,15.9l13.7,24.2c2.5,4.4,4.9,9,7.6,13.3C141,155.6,145,155.2,147.4,154c0.7-0.4,1.5-1.2,0.6-1.7
		s-2.6-0.1-3.4,0.3c0.2-0.1,0.4,0,0.6-0.1c0.5-0.1,0.2,0.1,0-0.1c-0.3-0.1-0.5-0.3-0.7-0.5c-0.2-0.2-0.4-0.4-0.5-0.7
		c-0.1-0.1-0.1-0.2-0.2-0.4l-1.1-1.9l-4.3-7.6l-12.9-22.8l-10.6-18.7c-0.7-1.3-2.1-2.9-1.7-4.5c0.1-0.3,0.3-0.6,0.5-0.9
		c0.1-0.1,0.4-0.4,0.1-0.2l0.2-0.1c0.3-0.2,0.7-0.4,1-0.6l3.9-2.2c6.6-3.7,13.3-7.3,19.8-11.2c0.1,0,0.2-0.1,0.3-0.2
		c0.1-0.2,0.1,0.1,0,0l-0.7,0.1c0,0,0.3,0.1,0.3,0.1c0.3,0.2,0.6,0.4,0.8,0.6c0.2,0.2,0.3,0.4,0.4,0.6c0.2,0.4,0.4,0.8,0.7,1.2
		L144,89l12.5,22l11.4,20.2c0.8,1.3,1.6,2.6,2.3,4c0.3,0.6,0.4,1.4,0.2,2.1c-0.1,0.3-0.3,0.6-0.5,0.9c-0.1,0.2-0.1,0.1,0,0
		c-0.1,0-0.1,0.1-0.2,0.1c-0.9,0.5-1.8,1-2.7,1.5l-20.8,11.9l-1.6,0.9c-0.6,0.4-1.5,1.1-0.6,1.7S146.6,154.4,147.4,154z"></path><rect class="st0" x="125.9" y="89.7" transform="matrix(0.8702 -0.4927 0.4927 0.8702 -38.1234 84.3402)" width="30.1" height="49.6"></rect><path class="st1" d="M140.8,144.9l23-13l3.3-1.9c0.7-0.4,2.1-1.5,1.5-2.5l-8.3-14.5l-13.2-23.3l-3-5.3c-0.6-1-2.2-0.6-2.9-0.2
		l-23,13L115,99c-0.7,0.4-2.1,1.5-1.5,2.5l8.2,14.5l13.2,23.3l3,5.3c1,1.8,5.4-0.5,4.4-2.3l-8.2-14.5l-13.2-23.3l-3-5.3l-1.5,2.5
		l23-13l3.3-1.9l-2.9-0.2l8.2,14.5l13.2,23.3l3,5.3l1.5-2.5l-23,13l-3.3,1.9c-0.8,0.4-2,1.5-1.5,2.5S140.1,145.3,140.8,144.9z"></path><circle class="st1" cx="156" cy="141" r="2.3"></circle><path class="st0" d="M151.9,141.6c0.3,0.5,0.6,0.9,1,1.3c0.5,0.4,1,0.8,1.6,1.1c1,0.6,2.2,0.9,3.4,0.8c1.2-0.1,2.3-1,2.6-2.2
		c0.1-0.3,0.1-0.7,0.1-1c0-0.4-0.1-0.7-0.3-1.1c-0.6-1.1-1.4-1.9-2.5-2.5c-0.6-0.3-1.1-0.6-1.8-0.7c-0.4-0.1-0.8-0.2-1.2-0.2
		c-0.8,0-1.5,0.2-2.1,0.6c-0.5,0.4-0.9,0.9-1,1.6c-0.1,0.4-0.1,0.7-0.1,1.1C151.6,140.8,151.7,141.2,151.9,141.6
		c0.3,0.4,0.7,0.8,1.1,1.1c0.5,0.4,1.1,0.7,1.8,0.8l0.5,0.1c0.3,0,0.6,0,0.8-0.1l0.2-0.2c0.1-0.2,0.1-0.5,0-0.7
		c-0.1-0.2-0.2-0.3-0.2-0.5l0.1,0.4c-0.1-0.3-0.1-0.7,0-1.1l-0.1,0.3c0.1-0.5,0.3-0.9,0.6-1.2l-0.2,0.2c0.2-0.2,0.5-0.4,0.9-0.6
		l-0.4,0.1c0.2-0.1,0.4-0.1,0.6-0.1h-0.4c0.2,0,0.3,0,0.5,0l-0.5-0.1l0.3,0.1l-0.6-0.2l0.3,0.1l-0.6-0.3c0.1,0,0.2,0.1,0.2,0.1
		l-0.6-0.4l0.2,0.1l-0.5-0.4l0.2,0.2l-0.4-0.4c0.1,0.1,0.2,0.2,0.3,0.3l-0.2-0.4c0.1,0.2,0.2,0.4,0.3,0.6l-0.1-0.4
		c0.1,0.3,0.1,0.7,0,1l0.1-0.3c-0.1,0.5-0.3,0.9-0.6,1.2l0.2-0.2c-0.2,0.2-0.5,0.4-0.9,0.5l0.3-0.1c-0.2,0.1-0.4,0.1-0.6,0.1h0.4
		c-0.2,0-0.3,0-0.5,0l0.5,0.1l-0.3-0.1l0.6,0.2l-0.3-0.1l0.6,0.3l-0.2-0.1l0.6,0.4l-0.2-0.1l0.5,0.4l-0.2-0.2l0.4,0.4
		c-0.1-0.1-0.2-0.2-0.3-0.3l0.2,0.4l-0.1-0.1c-0.3-0.5-0.6-0.9-1.1-1.1c-0.5-0.4-1.1-0.7-1.8-0.8l-0.5-0.1c-0.3,0-0.6,0-0.8,0.1
		l-0.2,0.2C151.8,141.1,151.8,141.3,151.9,141.6z"></path><circle class="st1" cx="130.8" cy="87.7" r="0.7"></circle><path class="st0" d="M129.4,87.8c0,0,0,0.1,0.1,0.2l-0.2-0.6c0,0.1,0,0.1,0,0.2V87c0,0.1,0,0.1,0,0.2l0.1-0.5
		c0,0.1-0.1,0.1-0.1,0.2l0.3-0.4c0,0.1-0.1,0.1-0.2,0.2l0.4-0.3c-0.1,0.1-0.1,0.1-0.2,0.1l0.5-0.2c-0.1,0-0.1,0-0.2,0h0.6h-0.2
		l0.6,0.1h-0.1l0.6,0.2l-0.1-0.1l0.5,0.4c0,0-0.1-0.1-0.1-0.1l0.4,0.5l-0.1-0.1l0.3,0.6l-0.1-0.2l0.2,0.6c0-0.1,0-0.1,0-0.2v0.6
		c0-0.1,0-0.1,0-0.2l-0.1,0.5c0-0.1,0.1-0.1,0.1-0.2l-0.3,0.4c0-0.1,0.1-0.1,0.2-0.2l-0.4,0.3c0-0.1,0.1-0.1,0.2-0.2l-0.5,0.2
		c0.1,0,0.1,0,0.2,0h-0.6h0.2l-0.6-0.1h0.2l-0.6-0.2l0.1,0.1l-0.5-0.4l0.1,0.1l-0.4-0.5l0.1,0.1c0.2,0.3,0.4,0.5,0.7,0.7
		c0.2,0.2,0.5,0.4,0.8,0.4c0.3,0.1,0.6,0.1,0.9,0.1c0.3,0,0.5-0.1,0.8-0.2l0.4-0.3c0.2-0.3,0.4-0.6,0.4-1v-0.6
		c-0.1-0.4-0.2-0.8-0.5-1.1l-0.1-0.1c-0.1-0.2-0.3-0.3-0.5-0.5l0,0l0,0c-0.2-0.1-0.4-0.3-0.6-0.4l-0.1-0.1l-0.6-0.2l0,0l0,0h-0.1
		l-0.3-0.1l-0.3-0.1h-0.1c-0.2,0-0.4,0-0.7,0h-0.1l-0.5,0.2h-0.1l-0.1,0.1c-0.1,0.1-0.3,0.2-0.4,0.3l0,0c0,0-0.1,0.1-0.1,0.1
		c-0.1,0.2-0.2,0.4-0.4,0.5c0,0,0,0.1,0,0.1l0,0c-0.1,0.2-0.1,0.4-0.1,0.6c0,0,0,0.1,0,0.1c0,0.2,0,0.4,0,0.7v0.1
		c0,0.2,0.1,0.4,0.2,0.6v0.1c0.1,0.1,0.1,0.2,0.2,0.3l0.2,0.3v0.1l0,0c0.1,0.2,0.3,0.4,0.5,0.5c0,0,0.1,0.1,0.1,0.1
		c0.2,0.1,0.4,0.3,0.6,0.4h0.1l0,0l0.3,0.1l0.3,0.1h0.1l0,0l0.6,0.1l0,0c0.1,0,0.3,0,0.4,0h0.4h0.1c0.2-0.1,0.4-0.1,0.6-0.2
		c0.2-0.1,0.4-0.3,0.6-0.4l0.1-0.1c0.1-0.2,0.2-0.4,0.4-0.6l0.1-0.1c0,0,0,0,0-0.1c0.1-0.2,0.1-0.4,0.1-0.6s0-0.1,0-0.1
		c0-0.2,0-0.4,0-0.6v-0.1c0,0,0,0,0-0.1l0,0c-0.1-0.2-0.1-0.4-0.2-0.6c0,0,0-0.1-0.1-0.1c-0.1-0.3-0.3-0.6-0.5-0.8
		c-0.2-0.3-0.5-0.5-0.8-0.7c-0.3-0.2-0.6-0.3-0.9-0.3c-0.3-0.1-0.6-0.1-0.9,0l-0.5,0.2c-0.3,0.2-0.6,0.4-0.7,0.8l-0.1,0.5
		C129.1,86.9,129.2,87.4,129.4,87.8z"></path><line class="st3" x1="123.8" y1="91.7" x2="127.5" y2="89.6"></line><path class="st0" d="M125.1,93l3.2-1.8l0.5-0.2c0.5-0.3,0.9-0.8,1.1-1.3c0.2-0.5,0.1-1-0.2-1.4c-0.4-0.4-0.9-0.6-1.5-0.6
		c-0.7,0-1.3,0.2-1.9,0.5l-3.2,1.7l-0.5,0.2c-0.5,0.3-0.9,0.8-1.1,1.3c-0.2,0.5-0.1,1,0.3,1.4c0.4,0.4,0.9,0.6,1.4,0.6
		C123.8,93.5,124.5,93.3,125.1,93L125.1,93z"></path><path class="st0" d="M343.9,88.3c0,0,71.9,32.7,71.6,34.2s-21.3,48.4-21.3,48.4s-73.1-28.4-73.3-30.8S343.9,88.3,343.9,88.3z"></path><path class="st1" d="M341.9,89.3c5.9,2.7,11.7,5.3,17.5,8c11.1,5.1,22.3,10.3,33.4,15.5c4.6,2.2,9.1,4.3,13.6,6.6
		c2.3,1.1,4.5,2.3,6.6,3.6l0.2,0.2c-0.3,0.1,0.1-0.5-0.1-0.3c-0.2,0.3-0.3,0.7-0.4,1c-0.6,1.5-1.3,3-1.9,4.5
		c-2.2,5.1-4.5,10.2-6.7,15.3c-4,9-8,18-12,26.9l-0.2,0.5l4.4-1.3c-6.2-2.4-12.5-4.9-18.7-7.3c-11.6-4.6-23.3-9.3-34.8-14.1
		c-4.6-1.9-9.2-3.9-13.7-6c-1.5-0.7-2.7-1.3-4-2c-0.4-0.2-0.8-0.4-1.2-0.7l-0.4-0.3c-0.2-0.1-0.1-0.2-0.1,0c-0.1-0.2-0.1,0.1,0,0
		c0.1-0.2,0.1-0.4,0.1-0.5c0.2-0.6,0.4-1.1,0.6-1.7c0.7-1.8,1.5-3.7,2.2-5.5c2.4-5.5,4.8-11,7.3-16.4c4.1-9,8.2-18,12.4-26.9
		l0.2-0.5c0.4-0.9-1.6-0.7-2-0.7c-0.9,0.1-2.4,0.5-2.8,1.4c-3.7,7.8-7.3,15.6-10.9,23.3c-2.6,5.8-5.3,11.6-7.8,17.4
		c-1,2.2-1.9,4.4-2.8,6.6c-0.6,1.3-1.1,2.6-1.5,3.9c-0.3,0.6,0,1.3,0.5,1.6c1,0.7,2.1,1.3,3.2,1.8c3.9,2,8,3.7,12,5.4
		c11.6,4.9,23.2,9.6,34.9,14.3c7.5,3,15,6.2,22.6,8.9l0.4,0.1c1.1,0.4,3.9-0.1,4.4-1.3c3.5-7.8,7-15.7,10.5-23.5
		c2.4-5.4,4.8-10.9,7.2-16.4c0.9-1.9,1.7-3.9,2.5-5.8c0.5-0.8,0.8-1.7,1-2.6c0.1-0.7-0.6-1-1.1-1.3c-1.1-0.7-2.3-1.3-3.5-1.9
		c-4-2.1-8.2-4.1-12.3-6c-11.2-5.3-22.4-10.6-33.6-15.7l-13.9-6.4c-2.4-1.1-4.8-2.3-7.2-3.3l-0.3-0.2c-1-0.4-2.5,0.1-3.4,0.5
		C341.9,88.2,340.9,88.9,341.9,89.3z"></path><path class="st1" d="M393.1,111.1l-20.6,51.3c0,0,19,9.2,21.7,8.5s21.7-45.5,21.3-48.4S393.1,111.1,393.1,111.1z"></path><path class="st1" d="M391.5,109.3l-7,17.3l-11.1,27.6l-2.6,6.3c-0.5,1.3,0.8,3.2,1.9,3.8c2.7,1.3,5.4,2.5,8.1,3.7
		c4,1.8,8.1,3.8,12.4,4.8c0.9,0.2,2,0.5,2.8-0.1c0.7-0.7,1.2-1.4,1.6-2.3c1.8-2.9,3.2-6,4.7-9.1c3.9-8.4,7.6-16.9,11-25.6
		c1.2-3.1,2.4-6.1,3.4-9.3c0.3-0.8,0.5-1.6,0.6-2.5c0.1-1.8-1.3-3.5-2.7-4.6c-3.3-2.6-7.4-4.3-11.1-6c-3.4-1.5-6.9-3-10.4-4.3
		l-0.6-0.2c-1.1-0.4-1.1,1.1-0.9,1.7c0.4,1.2,1.2,2.1,2.3,2.6c6.4,2.3,12.6,5.1,18.5,8.4c0.4,0.2,0.7,0.4,1,0.6l0.5,0.3
		c-0.3-0.2,0,0,0.1,0.1s0.8,0.8,0.3,0.2c0.1,0.1,0.1,0.2,0.2,0.2c-0.3-0.3-0.5-0.7-0.7-1.2c0,0-0.1-0.6-0.1-0.3c0-0.1,0.1-0.5,0-0.3
		c0,0.1-0.1,0.3-0.1,0.4c0,0.2-0.1,0.3-0.1,0.5s0,0.2-0.1,0.3s0.1-0.3,0,0.1c-0.8,2.9-1.9,5.7-3,8.4c-3.2,8.2-6.7,16.4-10.4,24.4
		c-1.5,3.3-3.1,6.6-4.8,9.8c-0.5,1-1.1,2-1.7,2.9l-0.3,0.4c-0.2,0.2,0.1-0.2-0.1,0.1c-0.1,0.1-0.2,0.1-0.2,0.2c0.2-0.1,0.2,0-0.1,0
		s0.1,0.1-0.4-0.1c-0.3-0.1-0.7-0.1-1-0.2c-0.8-0.2-1.7-0.5-2.5-0.8c-2-0.7-4-1.5-5.9-2.4c-3.4-1.5-6.8-3-10.1-4.6l-0.6-0.3l1.9,3.8
		l7-17.3l11.1-27.6l2.5-6.3c0.4-1-0.3-2.3-1-3C393.4,109.5,391.9,108.3,391.5,109.3z"></path><path class="st2" d="M347.3,152.1c3.5-9,7.2-17.9,11.3-26.7c2-4.3,4.1-8.6,6.3-12.8c1.1-2.1,2.2-4.2,3.3-6.3
		c0.6-1.1,1.1-2.3,1.8-3.3c0.3-0.4,0.6-0.8,1-1.2c0.2-0.2,0.4-0.3,0.6-0.4c0.3,0,0.3-0.1-0.1-0.2c0.8,0.3,1.9,0.5,1.9-0.6
		c-0.2-1.2-1-2.2-2.1-2.7c-1.5-0.8-3.3-0.4-4.3,1c-1.1,1.5-2,3.1-2.7,4.8c-1.9,3.5-3.8,7.1-5.6,10.8c-3.6,7.2-7,14.6-10.1,22
		c-1.8,4.2-3.5,8.5-5.1,12.8C342.8,150.9,346.6,154,347.3,152.1L347.3,152.1z"></path><path class="st2" d="M375.8,101.8c-1-2.3-2.1-4.8-1.7-7.3c0.2-1,0.6-2,1.3-2.8c0.6-0.7,1.4-1.2,2.3-1.4c1-0.3-0.8,2.3-1.5-1.1
		c0.1,0.2,0.2,0.5,0.3,0.7c0.2,0.6,0.4,1.2,0.5,1.8c0.1,1.2,0,2.4-0.3,3.5c-0.7,2.2-2.2,4-4.2,5l3.8,3.1c1.2-3,4.4-4.7,7.4-5.5
		c1.5-0.4,3.1-0.7,4.6-0.7c0.8,0,1.6,0,2.4,0c0.3,0.1,0.7,0.1,1,0.1c-0.9-1-1.2-1.2-1.1-0.7l0.1,0.3c0,0.8-0.2,1.5-0.5,2.2
		c-0.4,0.7-1,1.2-1.6,1.7c-1.3,0.9-2.8,1.4-4.3,1.6c-3.8,0.4-7.7-0.6-11.4-1.2c-1-0.2-1.4,0.4-0.9,1.3c0.6,1,1.7,1.8,2.9,2.1
		c3.7,0.6,7.4,1.5,11.2,1.4c3-0.1,6.5-1.1,8.3-3.8c2.1-3.4-0.8-7.1-4.2-8c-1.6-0.3-3.2-0.4-4.8-0.2c-1.6,0.1-3.2,0.3-4.7,0.8
		c-3.2,0.9-6.8,2.8-8.2,6c-0.6,1.4,2.5,3.8,3.8,3.1c2.7-1.3,4.5-3.8,5.1-6.7c0.7-3.5-0.6-7.9-4-9.4c-2.9-1.3-5.8,0.6-6.8,3.3
		c-1.2,3.2,0.1,6.6,1.4,9.6c0.5,1.1,1.4,1.9,2.5,2.3C374.8,102.7,376.3,102.9,375.8,101.8L375.8,101.8z"></path><path class="st2" d="M383.1,169.4c3.7-14.8,14-26.8,18.8-41.2c1.2-3.5,2-7.2,2.2-10.9c0.3-2.2-0.4-4.3-2-5.9
		c-1.5-1.4-3.2-2.5-5-3.3c-3.7-1.7-7.6-3.1-11.6-4c-4.1-1.1-8.2-2.4-12.3-3.8c-9.3-3.4-18.2-7.6-26.6-12.8c-0.9-0.6-2.5-0.7-3.1,0.4
		s0.4,2.3,1.3,2.8c7.3,4.4,15,8.3,23,11.5c3.9,1.6,8,3,12,4.2c3.8,1.2,7.7,2,11.5,3.3c1.7,0.6,3.4,1.3,5,2.2
		c1.3,0.7,3.1,1.5,3.1,3.2c0.1,3.5-0.9,7.3-1.9,10.6c-2.1,6.9-5.8,13.3-9.2,19.6c-4,7.2-7.9,14.6-9.9,22.7
		C377.9,170.1,382.5,172,383.1,169.4L383.1,169.4z"></path><path class="st2" d="M399.1,194.3l11,4.5l26,6.5c0.5,1.8-22.4,70.6-22.4,70.6c-5.1-2-9.2-5.9-11.4-10.9c-3.8-8.4,1.2-34.6,1.2-34.6
		l-12.3-6.9L399.1,194.3"></path><path class="st1" d="M403.8,232.6c2.6-0.1,5.2-1.2,7-3.1c0.8-0.8,1.4-1.8,1.8-2.9c0.3-1,0.8-2.5-0.2-3.3c-1.4-1.1-3.9-0.8-5.4-0.2
		c-1.3,0.6-2.5,1.5-3.3,2.8c-0.7,1.1-1.3,2.2-1.7,3.4c-0.4,1.2-1.1,2.7-0.9,3.9c0.5,1.4,1.3,2.6,2.4,3.6c1,1.1,2.2,2.1,3.5,2.9
		c1.1,0.6,2.3,0.7,3.5,0.2c0.6-0.2,1.8-1.2,0.8-1.8c-1.1-0.6-2-1.4-2.9-2.2c-0.9-0.8-1.6-1.8-2.1-2.9c-0.4-1,0.4-2.5,0.7-3.5
		c0.4-1.1,0.9-2.2,1.5-3.1c0.3-0.4,0.6-0.8,1-1.1l0.4-0.2c0,0-0.1,0.1-0.1,0.1c0,0-2,0.3-1.7-0.3c0,0.3-0.1,0.5,0,0.8
		c0,0.2-0.1,0.4-0.2,0.7c-0.1,0.5-0.3,0.9-0.6,1.3c-0.5,0.8-1.1,1.4-1.8,1.9l-0.5,0.3c0.3-0.2-0.4,0.1-0.5,0.2l0,0
		c-0.1,0-0.3,0.1-0.4,0.1c0.6-0.1-0.2,0-0.4,0c-0.7,0-2.5,0.4-2.4,1.4S403.1,232.6,403.8,232.6L403.8,232.6z"></path><path class="st1" d="M410.8,272.8c0.9-2.3,1.6-4.7,2.2-7.2c1.5-5.1,3-10.3,4.5-15.4c3.3-11.6,6.6-23.1,10-34.6c0.6-2,1.2-4,1.8-6
		c0.2-0.9,0.5-1.8,0.9-2.7c0.5-1.2-0.8-2.2-1.8-2.4c-1.2-0.3-2.5,0.3-3,1.5c-0.9,2.3-1.6,4.7-2.2,7.2c-1.5,5.1-3,10.3-4.5,15.4
		c-3.3,11.6-6.6,23.1-10,34.6c-0.6,2-1.2,4-1.8,6c-0.2,0.9-0.5,1.8-0.9,2.7c-0.5,1.2,0.8,2.2,1.8,2.5
		C409,274.5,410.3,273.9,410.8,272.8L410.8,272.8z"></path><path class="st1" d="M244.4,76.7c-2.1-7.6-4.4-16.9,0.8-23.8c1.8-2.4,5.4-5.1,8.6-4.6c1.5,0.2,2.9,1.5,4,2.4c1.5,1.3,2.8,2.8,4,4.3
		c2.9,3.6,5.4,7.6,7.3,11.8c0.4,0.8,2.1,1.1,2.9,1.2c0.3,0,2.3,0.3,1.9-0.5c-2-4.4-4.6-8.5-7.6-12.2c-2.8-3.5-6-6.7-10.3-8.1
		s-8.8-1.3-12.6,1.3c-3.6,2.5-5.5,6.6-6,10.9c-0.7,5.6,0.8,11.1,2.2,16.5C240,77.1,244.7,77.7,244.4,76.7L244.4,76.7z"></path><path class="st0" d="M97.7,230.6c-0.9-0.1-1.9-0.2-2.8-0.3c-0.3-0.1-0.7-0.1-1-0.2c-0.3-0.1-0.7-0.2-1-0.4l-0.4-0.2
		c-0.6-0.3,0.3,0.3-0.2-0.1c0,0-0.5-0.4-0.3-0.2s-0.2-0.2-0.2-0.2c-0.3-0.3,0,0.1-0.1-0.1s-0.2-0.3-0.3-0.5c0.2,0.3-0.1-0.3-0.1-0.3
		c-0.1-0.2,0-0.1-0.1-0.2c-0.1-0.5,0-1,0.3-1.4c0,0,0.3-0.3,0.1-0.2l0.2-0.1c0.1,0,0.1,0,0,0s-0.7-0.4-0.1,0c1.2,0.9,2.3,2,3.1,3.3
		c0.6,0.9,1.5,1.5,2.6,1.6c0.7,0.2,1.3-0.3,1.5-0.9c0-0.1,0-0.2,0-0.4c-0.2-2-0.1-4,0.4-5.9c0.2-0.9,0.6-1.7,1.1-2.5
		c0.3-0.4,0.6-0.8,0.9-1.1c0.1-0.1,0.2-0.2,0.4-0.4l0.3-0.3c0.3-0.2,0.3-0.2-0.1-0.1l-1.1-0.3l-0.9-0.8l-0.1-0.1
		c0,0.2,0.1,0.3,0.1,0.4c0,0.2,0.1,0.5,0.1,0.7c0.1,0.7,0.1,1.4,0.1,2.1c-0.2,1.4-0.5,2.8-1,4.1c-0.5,1.3-1,2.6-1.6,3.9
		c-0.2,0.5-0.5,1-0.8,1.4c-0.2-0.2,0.7,0.1,0.6,0.1c0.2,0,0,0-0.1-0.1l-0.7-0.5c-0.5-0.4-1-0.8-1.5-1.2l-0.8-0.7
		c0.1,0.1,0.3,0.2-0.1-0.1l-0.5-0.5c-0.2-0.2-0.5-0.4-0.7-0.7s-0.6-0.7-0.8-0.8l-0.7,0.6c-0.4,0.8-0.8,0.8-1.2,0.2
		c0,0.1,0.4,0.4,0.4,0.4l0.8,0.8c1.1,1.3,2.4,2.5,3.8,3.4c1.5,0.8,3.3,0.5,4.5-0.7c0.9-1,1.4-2.2,1.6-3.4c0.2-1.3,0.3-2.8,1-4
		c0.6-1-0.3-2.2-1-2.8s-2.3-1.2-3-0.2c-1.2,1.8-1,4-1.7,5.9c-0.1,0.4-0.3,0.7-0.5,1c-0.1,0.1-0.2,0.3-0.3,0.4s-0.4,0.2-0.5,0.3
		c0.1-0.2,0.7,0.3,0.9,0.4s0,0-0.1-0.1l-0.3-0.3l-1.4-1.5c-0.9-1.1-2.1-2.1-3.4-2.7c-1.4-0.5-3.3-0.2-3.1,1.7
		c0.2,1.4,1.4,2.5,2.4,3.4s1.9,1.8,2.9,2.6c1.8,1.4,5,4.2,7.2,2c0.7-0.9,1.2-2,1.6-3.1c0.5-1.2,1-2.3,1.4-3.5
		c0.8-2.3,1.1-4.7,0.7-7.1c-0.2-1.5-0.9-2.9-2-3.9c-1.1-1.1-2.9-1.1-4.1-0.2c-3.6,2.9-4.2,7.8-3.8,12.2l4,0.3
		c-1.5-2.4-3.6-4.4-6.1-5.9c-1.3-0.7-3.1-1-4.3,0c-0.9,0.8-1.4,2-1.4,3.2c0,2.7,2.1,5.1,4.2,6.4c2.5,1.5,5.3,1.9,8.1,2.2
		c0.7,0.1,1.3-0.4,1.5-1.1c0-0.3,0-0.5-0.1-0.7C100,231.5,98.9,230.7,97.7,230.6L97.7,230.6z"></path></g><g id="cart"><path class="st2" d="M184.6,232.5l26.3-6.1l41.7-9.6l9.6-2.2l-1.8-0.1l10.5,3.3l25.4,7.9l30.6,9.6l26.5,8.3l8.7,2.7
		c1.4,0.4,2.7,1,4.1,1.3l0.2,0.1l-0.8-4l-20.9,5.3l-33.2,8.4l-7.6,1.9l1.1-0.1l-12.1-3.1l-29.1-7.4l-35.1-8.9l-30.5-7.7l-10-2.5
		c-1.6-0.4-3.2-0.9-4.8-1.2l-0.2-0.1c-1-0.2-2,0.4-2.2,1.4c0,0.1,0,0.3,0,0.4c0.2,1.3,1.2,2.3,2.5,2.5l7.2,1.8l18.3,4.7l24.9,6.3
		l26.6,6.8l23.9,6.1l16.3,4.1c2.1,0.5,4.1,1.4,6.2,0.9l16.6-4.2l26.2-6.6l17.5-4.4l0.9-0.2c2.2-0.6,0.7-3.5-0.8-4l-8-2.5l-19.9-6.2
		l-25.7-8.1l-25.6-8l-19.5-6.1l-5.5-1.7c-1.1-0.5-2.3-0.7-3.5-0.6l-11.2,2.6l-24.5,5.7l-25.9,6l-15.2,3.5l-0.7,0.2
		c-1.2,0.3-1.3,1.9-0.7,2.8C182,232.4,183.4,232.9,184.6,232.5z"></path><path class="st2" d="M208.6,308.4l19.1,1.7c13,1.2,26.1,2.4,39.1,3.5c10.6,0.9,21.1,1.9,31.7,2.7c2.7,0.3,5.5,0.3,8.2-0.1
		c5.7-1.1,11.4-2.5,17-4.2c10.8-3.1,21.5-6.4,32.2-10l0.6-0.2c0.5-0.2,1.5-0.5,1.6-1.1L362,282l6-30l1.4-6.9c0.1-0.6-2.4-0.1-2.6,0
		c-0.7,0.2-2.1,0.5-2.2,1.3l-3.7,18.8l-6,30l-1.4,6.9l1.5-1.2c-8.9,2.9-18.3,5.9-26.8,8.4c-3.3,1-6.6,1.9-9.9,2.8
		c-1.4,0.4-2.9,0.8-4.3,1.1c-0.7,0.2-1.3,0.3-2,0.5l-0.9,0.2l-0.5,0.1h0.2l-0.4,0.1c-1,0.2-2,0.4-3,0.6l-0.4,0c-0.3,0,0.6-0.1,0.1,0
		l-0.6,0.1h-0.4c-0.5,0.1,0.5,0-0.1,0c-0.9-0.1-1.9-0.1-2.8-0.2c-9.8-0.8-19.5-1.6-29.2-2.5c-13.1-1.2-26.2-2.3-39.3-3.5
		c-7.5-0.7-15.1-1.6-22.6-2h-0.3c-1.2,0-2.4,0.3-3.4,0.9C207.6,308,207.7,308.4,208.6,308.4L208.6,308.4z"></path><path class="st2" d="M258.9,211.6l2.3,33.5l0.3,4.8c0.2,1.2,1,2.3,2.1,2.8c0.7,0.4,2.1,0.4,2-0.8l-2.3-33.5l-0.3-4.8
		c-0.2-1.2-1-2.3-2.1-2.8C260.1,210.5,258.8,210.4,258.9,211.6L258.9,211.6z"></path><path class="st2" d="M302.7,261l-0.1,17.2l-0.2,27.5v6.4c0,0.8,4.9,1.2,4.9,1l0.1-17.2l0.2-27.5V262
		C307.6,261.2,302.7,260.8,302.7,261L302.7,261z"></path><path class="st2" d="M280.7,315.8c3.9,2.2,7.8,4.4,11.7,6.7c8.2,4.7,16.4,9.5,24.6,14.3c4.2,2.5,8.3,5,12.4,7.5
		c1.8,1.1,3.6,2.2,5.4,3.3l2.4,1.5l1,0.7l0.1,0.1l0.5,0.4c1.1,0.8,2.3,1.5,3.4,2.4c0.2,0.1,0.8,0.6,0.4,0.3s0.2,0.2,0.3,0.3
		s0.3,0.3,0.5,0.4c-0.5-0.4-0.3-0.3,0,0c0,0-0.3-0.4-0.3-0.4s0.1,0,0,0s-0.1,0.2-0.2,0.3c-0.7,0.7-1.5,1.3-2.4,1.7
		c-3.4,1.9-7,3.6-10.6,5.1c-4.8,2.1-9.8,4-14.7,5.9c-4.7,1.8-9.5,3.4-14.3,4.9c-3.2,1.1-6.5,1.9-9.9,2.2c-0.3,0-0.6,0-0.9-0.1
		c-0.4,0,0.4,0.1,0,0l-0.5-0.2c-0.3-0.1-0.7-0.3-0.2-0.1c-0.2-0.1-0.5-0.2-0.7-0.3c-0.5-0.2-1-0.5-1.5-0.8l-0.9-0.5l-0.4-0.2
		c-0.6-0.3,0.3,0.2-0.2-0.1l-2-1.1c-1.6-0.9-3.1-1.9-4.7-2.8c-8.1-5-16.1-10.2-23.7-15.3c-8.2-5.5-16.4-11-24.5-16.6
		c-4.7-3.2-9.4-6.5-14.1-9.8l-0.7-0.5l1.6,1.9c-1.8-5.9-3.6-11.8-5.5-17.6c-4.3-13.7-8.8-27.3-13.4-40.9
		c-5.4-15.8-10.8-31.7-17.3-47.1c-2.3-5.6-5-11.1-8.1-16.3c-1.7-2.9-3.8-5.6-6.3-7.8c-1.6-1.4-5.2-4.1-7.4-2.2l-0.1,0.1l4.1,2.7
		c0.2-2.2,0.9-4.8,2.5-6.4c0.5-0.5,1.1-0.9,1.8-1c0.4-0.1,0.8-0.1,1.1,0c0.1,0-0.1,0-0.1,0s-0.8-0.5-0.3-0.2c-0.7-0.5,0.3,0.4-0.1,0
		c0.2,0.2,0.5,0.5,0.7,0.7s0.2,0.2,0.5,0.6c2.3,3,4.3,6.2,5.9,9.6c2.1,4.2,4,8.5,5.5,12.9c1.6,4.4,2.7,9,3.1,13.6
		c0.1,0.9,1.5,1.8,2.2,2.2c0.2,0.1,2,1.1,2,0.3c-0.4-4.7-1.5-9.3-3.1-13.6c-1.7-4.8-3.7-9.5-6-14c-1.8-3.7-4-7.2-6.6-10.4
		c-2.1-2.4-5.8-6-9.3-4.5c-2.8,1.2-3.7,5-4,7.8c-0.1,0.9,3.4,3.6,4.1,2.7c0-0.1,0.1-0.1,0.1-0.1c0.4-0.2,0-0.1,0.2-0.2
		c0.2-0.1,0.4-0.1,0.7-0.1c0.1,0-0.2-0.1,0.2,0c0.6,0.1-0.2-0.1,0.2,0s-0.5-0.2,0.2,0.1c-0.8-0.4-0.3-0.2-0.1-0.1s-0.6-0.5-0.1,0
		s-0.5-0.5-0.1-0.1c0.1,0.1,0.3,0.3,0.4,0.4c-0.7-0.6,0.4,0.4,0.6,0.6s0.3,0.3,0-0.1c0.1,0.1,0.2,0.2,0.3,0.3
		c0.1,0.2,0.3,0.4,0.4,0.6c0.4,0.5,0.8,1,1.2,1.5c0.9,1.2,1.6,2.4,2.4,3.8c5.5,9.6,9.4,20.1,13.3,30.4c4.3,11.7,8.4,23.4,12.4,35.2
		c5.8,17,11.3,34.1,16.6,51.3c0.3,1,0.5,2,0.9,3c0.5,1.2,1.8,1.9,2.8,2.7c3.4,2.4,6.7,4.7,10.1,7c12.2,8.4,24.5,16.8,36.9,25
		c5.7,3.7,11.4,7.4,17.2,10.9c3.7,2.2,7.5,4.8,11.6,6.2c1.5,0.4,3,0.5,4.5,0.2c2.8-0.5,5.5-1.2,8.2-2c7.5-2.2,14.9-5,22.1-7.9
		c6.1-2.3,12-5,17.6-8c0.8-0.5,3-1.4,2.9-2.5s-1.9-2.5-2.7-3.1c-4.1-3.2-8.4-6.1-12.9-8.7c-6.1-3.8-12.3-7.5-18.5-11.2
		c-10.3-6.1-20.7-12.1-31.1-18l-1.8-1c-0.4-0.2-1.8-1.1-2-0.3S280.2,315.6,280.7,315.8L280.7,315.8z"></path><path class="st2" d="M265.2,213.2c0.1-4.3-0.2-8.6-0.7-12.9c-0.8-7.7-2.3-15.7-6.1-22.6c-1.7-3.4-4.3-6.3-7.5-8.3
		c-1.4-0.9-3.5-2.1-5.2-1.5c-1.6,0.4-2.9,1.8-3.1,3.5c-0.2,2.7,1.9,4.9,3.6,6.7l0.9,1c-0.6-0.6,0,0,0.1,0.1s0.4,0.4,0.6,0.7
		c0.8,1,1.5,2,2.1,3c0.2,0.3,0.4,0.7,0.6,1.1s0,0,0,0c0.1,0.2,0.2,0.4,0.4,0.7c0.4,0.9,0.9,1.7,1.2,2.6c0.8,2,1.5,4,2.1,6
		c1.6,6.6,2.5,13.3,2.7,20.1c0.1,2.2,4.7,3.6,4.6,0.8c-0.4-9.5-1.5-19.5-5.5-28.2c-1.1-2.4-2.5-4.7-4.1-6.8
		c-0.7-0.9-1.4-1.7-2.1-2.5l-0.7-0.8l-0.4-0.4c0-0.1-0.1-0.1-0.1-0.1c-0.4-0.4,0.3,0.4,0.1,0.1c-0.6-0.6-1-1.3-1.3-2.1
		c-0.2-1,0.5-1.4,1.4-1.6l-1.7-0.2c0.4,0.1,0.8,0.3,1.1,0.4c0.1,0,0.7,0.4,0.1,0l0.5,0.3c0.3,0.2,0.6,0.4,0.9,0.6l0.5,0.4
		c-0.5-0.4,0.2,0.2,0.3,0.2c0.3,0.3,0.6,0.6,0.9,0.9c0.1,0.1,0.8,0.9,0.4,0.5c0.6,0.7,1.2,1.5,1.7,2.3c0.4,0.6,0.8,1.2,1.1,1.9
		c0.4,0.9,0.8,1.7,1.2,2.6c0.7,1.8,1.3,3.6,1.8,5.4c1.8,6.9,2.7,13.9,2.9,21c0,1.5,0.1,3,0.1,4.5C260.5,214.5,265.1,216,265.2,213.2
		L265.2,213.2z"></path><path class="st2" d="M178.1,199.7c0,0-3.4-16.2-11.1-19.9s-13.1,5-12.9,6.8s6.5,18.1,9,18.8S178.5,201.6,178.1,199.7z"></path><path class="st2" d="M179.9,200.9c-1-5-2.8-9.8-5.4-14.2c-3.6-6.1-11.4-13.2-18.4-7.6c-1.6,1.2-4,3.8-3.8,6
		c0.1,0.8,0.3,1.6,0.7,2.4c0.4,1.3,0.9,2.6,1.5,3.9c1.2,3.2,2.6,6.2,4.2,9.2c1.2,2.3,3.1,5.7,5.9,6.5c1.2,0.2,2.5,0.1,3.6-0.3
		c1.8-0.4,3.5-0.9,5.2-1.6c1.6-0.6,3.2-1.2,4.7-2.1c0.6-0.4,2.1-1.1,1.9-2c-0.3-1-1-1.9-1.9-2.5c-0.2-0.1-2-1.3-1.9-0.5
		c0.2,1.2-3.8,2.6-4.7,3c-2.6,1.1-5.3,1.9-8.1,2.3c-0.4,0.1-0.9,0.1-1.3,0.1c-0.2,0-0.2,0-0.3,0l0.5,0.3c0.3,0.2,0.6,0.4,0.8,0.7
		c0.2,0.2-0.1-0.2,0.1,0.1l-0.3-0.4c-0.1-0.2-0.6-0.9-0.8-1.4c-1.4-2.5-2.6-5.1-3.6-7.8c-0.9-2.1-1.7-4.3-2.4-6.6
		c-0.1-0.3-0.1-0.7-0.1-0.5c0-0.3,0-0.6,0.1-0.9c0.4-1,1-2,1.7-2.8c1.9-2.3,4.7-4.1,7.8-3.7c0.8,0.1,1.6,0.4,2.4,0.7
		c0.2,0.1,0.4,0.2,0.6,0.4c-0.1-0.1,0.6,0.5,0.3,0.2c0.3,0.3,0.6,0.6,0.9,1c0.5,0.6,0.9,1.2,1.3,1.8c2.5,4.3,4.2,8.9,5.2,13.7
		c0.2,1,1.5,2,2.3,2.6C179,201.3,180.1,201.9,179.9,200.9z"></path><path class="st2" d="M259.6,182.2c0,0-2.8-13.4-9.2-16.6s-10.9,4.2-10.7,5.7s5.4,15,7.5,15.6S260,183.8,259.6,182.2z"></path><path class="st2" d="M261.2,183.2c-0.9-4.3-2.5-8.5-4.6-12.3c-1.6-2.9-3.8-5.7-6.8-7.2c-2.8-1.5-6.1-1.1-8.5,0.9
		c-1.4,1.1-3.3,3.3-3.1,5.2c0.1,0.7,0.3,1.4,0.6,2.1c0.4,1.2,0.9,2.4,1.3,3.5c1,2.7,2.2,5.3,3.6,7.9c0.6,1.1,1.2,2.2,2,3.2
		c1,2.2,3.6,3.2,5.8,2.2c0,0,0,0,0,0c1.5-0.4,3-0.8,4.5-1.3c1.4-0.5,2.7-1.1,3.9-1.8c0.7-0.4,1.7-1,1.5-2c-0.2-1.2-0.8-2.2-1.8-3
		c-0.4-0.3-1.8-1.1-1.6,0c0,0.1,0.1-0.2,0,0c0.1-0.2-0.1,0.1-0.1,0.1c-0.3,0.3-0.6,0.5-0.9,0.7c-0.9,0.5-1.9,1-2.9,1.4
		c-2.1,0.9-4.3,1.5-6.6,1.9c-0.3,0-0.7,0.1-1,0.1c-0.3,0-0.1,0-0.1,0c0.2,0.3,0.4,0.3,0.7,0.6c-0.2-0.2-0.2-0.5,0,0.1
		c-0.1-0.1-0.2-0.3-0.3-0.4c-0.2-0.2,0.2,0.5,0.1,0.2c-0.1-0.1-0.1-0.2-0.2-0.3s-0.3-0.5-0.4-0.7s-0.2-0.4-0.4-0.7s-0.1-0.2-0.2-0.4
		c0,0.1,0.2,0.4,0,0c-0.3-0.6-0.6-1.1-0.8-1.7c-0.5-1.1-1-2.3-1.5-3.5s-0.8-2.1-1.2-3.1l-0.1-0.3c0.1,0.4,0,0.1,0,0l-0.2-0.6
		c-0.1-0.3-0.2-0.7-0.3-1c0-0.1-0.1-0.2-0.1-0.3c-0.1-0.3,0,0.1,0,0.2c-0.1-0.2,0,0,0-0.1s0.1-0.4,0.2-0.6c0.3-0.8,0.8-1.6,1.4-2.3
		c1.6-1.9,4-3.3,6.5-2.8c1.1,0.2,2.1,0.7,2.9,1.4l0.3,0.3c-0.1-0.1-0.3-0.3,0,0c0.1,0.1,0.6,0.7,0.3,0.3c0.2,0.2,0.4,0.5,0.6,0.7
		l0.3,0.4c-0.2-0.3,0,0,0.1,0.1c1.3,2.2,2.3,4.5,3,6.9c0.4,1.3,0.8,2.6,1.1,3.9c0.3,1.2,1.1,2.2,2.1,2.9
		C261,184.5,261.4,184.1,261.2,183.2z"></path><path class="st2" d="M277.8,387.1c-0.2,4.4,0.9,8.7,3.2,12.4c1.9,2.9,4.9,4.9,8.4,5.5c3,0.5,6-0.6,7.9-2.8
		c3.6-4.3,3.9-11.4,2.6-16.6c-0.9-3.6-3.3-6.6-6.7-8.1c-1.2-0.5-2.4-0.8-3.7-0.9c-0.6-0.1-1.2-0.1-1.8,0.1c-0.6,0.5-1.2,1.2-1.8,1.8
		l-3.2,3.3l-4.5,4.7c-1.3,1.4,1.7,5.3,2.9,4.1l8.1-8.4c0.3-0.3,1.3-1,1.4-1.5c0.1-0.2-0.3,0-0.2,0s0.2,0,0.3,0c0.4,0.1,0,0,0.2,0
		c1,0.1,1.9,0.3,2.8,0.6c0.5,0.2,1,0.5,1.5,0.8c0.3,0.2,0.6,0.5,0.8,0.9c0.4,0.8,0.7,1.6,0.8,2.4c0.2,1.1,0.3,2.3,0.3,3.4
		c0,2.5-0.5,5-1.5,7.4c-0.9,2.1-2.6,3.7-4.8,4.3c-1.3,0.3-2.7,0.2-4-0.2c-0.6-0.2-1.1-0.4-1.6-0.7c-0.2-0.1-0.4-0.2-0.5-0.4
		l-0.3-0.2c-0.2-0.2,0.2,0.2-0.1-0.1c-0.1-0.1-0.8-0.9-0.5-0.5c-0.2-0.2-0.4-0.5-0.5-0.7c0.3,0.4-0.2-0.4-0.3-0.6s-0.4-0.8-0.2-0.4
		c-0.4-1.1-0.7-2.2-0.9-3.3c-0.1-0.9-0.2-1.9-0.3-2.8c0-0.2,0-0.3,0-0.5s0,0.5,0,0c0-0.1,0-0.2,0-0.3c0-1.2-0.6-2.4-1.6-3.1
		C279.2,386.4,277.8,385.9,277.8,387.1z"></path><path class="st0" d="M293.6,379.6c0,0,0,19.7-7.9,19.7s-8.7-25.4-8.7-25.4s3.3-3.4,4.5-3s16.3,3,17.5,4.6s-1.2,8.2-1.2,8.2
		l-1.3-2.8c0,0,1.1-3.1,0.1-3.1S293.6,379.6,293.6,379.6z"></path><path class="st2" d="M291.7,378.1c0.1,4.9-0.7,9.8-2.3,14.4c-0.9,2.3-2.5,5.1-5.3,5.1c-0.4,0-0.9-0.1-1.3-0.2c0,0-0.1,0-0.1,0
		s0.8,0.6,1,0.7c0.4,0.3,0.4,0.5,0.1,0.1c-0.7-1.1-1.3-2.2-1.7-3.5c-2-5.6-2.7-11.8-3.1-17.7c-0.1-0.5-0.1-1.1-0.1-1.6
		c0,0.2,0.2-0.2,0.4-0.3c0.6-0.6,1.2-1.1,1.9-1.6c0.5-0.5,1.2-0.9,1.9-1c0.3,0,0.7,0.1,1,0.2l4,0.8c3.7,0.8,7.6,1.4,11.1,2.8
		l0.3,0.1c0.3,0.1,0.1,0.1,0.2,0.1c-0.1,0-2.4-2.3-2.4-2.1c0,0.2,0.1,0.4,0.1,0.6c0.1,1-0.1,1.9-0.3,2.9c-0.3,1.4-0.7,2.8-1.3,4.2
		l3.8,3.1c-0.5-0.8-0.9-1.7-1.2-2.6c-0.1-0.3,0,0.1,0-0.1c0.1-0.2,0.1-0.4,0.2-0.6c0.2-0.6,0.3-1.2,0.3-1.8c-0.2-0.8-0.6-1.5-1.3-2
		c-0.6-0.6-1.8-1.8-2.8-1.9s-2.4,1-3.2,1.7c-0.3,0.3,3.1,3.9,3.8,3.3c0.4-0.3,0.7-0.6,1.1-0.8c0.3-0.2,0.6-0.4,1-0.6
		c0.5-0.2,1,0,0.4-0.4l-2.7-2.3c-0.4-0.5-0.1-0.1-0.2,0.4c0,0.3-0.1,0.7-0.2,1c-0.1,0.3-0.2,0.7-0.3,1c0.1,0.5,0.3,0.9,0.6,1.4
		l0.6,1.4c0.5,0.8,1.1,1.5,1.9,2c0.1,0.1,1.8,1.4,1.9,1.1c0.5-1.4,0.9-2.8,1.3-4.2c0.4-1.6,0.7-3.5-0.4-4.9c-2.5-3.1-6.5-4-10.2-4.9
		c-3.4-0.8-6.8-1.5-10.2-2.2c-1.4-0.3-2.5,0.7-3.5,1.6c-0.6,0.5-1.4,1-1.5,1.8c0,0.9,0,1.7,0.1,2.6c0.1,1.5,0.2,2.9,0.4,4.4
		c0.4,3.6,1.1,7.2,2.1,10.7c1,3.6,3,6.8,5.9,9.1c1.1,1.1,2.6,1.7,4.2,1.7c1.3-0.1,2.6-0.8,3.4-1.8c2.5-2.9,3.2-7.2,3.7-10.8
		c0.3-2.4,0.5-4.8,0.5-7.3c0-0.8-1.6-1.8-2.1-2.2C293.2,378.7,291.7,377.5,291.7,378.1z"></path><path class="st2" d="M330.5,368c-0.1,3.9,1.1,7.7,3.5,10.8c1.9,2.7,4.8,4.5,8,5c2.8,0.5,5.6-0.3,7.6-2.3c3.3-3.5,3.7-9.5,2.2-13.9
		c-1.2-3.5-3.9-6.3-7.3-7.6c-1.1-0.4-2.2-0.6-3.3-0.7c-0.4-0.1-0.8,0-1.2,0.1c-0.7,0.5-1.3,1-1.8,1.6l-3.2,2.9l-4.3,3.8
		c-0.8,0.7,2.3,4.6,3,4l8-7c0.5-0.4,1-0.8,1.4-1.2c0.2-0.2,0-0.1,0-0.1c0.2,0,0.4,0,0.7,0c0.9,0,1.8,0.2,2.7,0.4
		c0.5,0.1,1.1,0.4,1.6,0.6c0.2,0.1,0.5,0.2,0.7,0.4c0.2,0.1,0.3,0.2,0.4,0.4c-0.1-0.1-0.2-0.2-0.3-0.3c-0.2-0.2,0.2,0.1,0.1,0.2
		s-0.2-0.5,0-0.1c0,0.1,0.1,0.2,0.1,0.3c0.1,0.4,0.2,0.7,0.3,1.1c0.2,0.9,0.3,1.9,0.3,2.9c0,2.2-0.5,4.5-1.5,6.5c-1,2-2.8,3.5-5,4
		c-2.5,0.6-5.2,0.1-7.4-1.4c-0.2-0.1-0.4-0.3-0.5-0.4c-0.1-0.1-0.3-0.3,0,0c-0.1-0.1-0.4-0.6-0.1-0.1c-0.1-0.1-0.3-0.4,0.1,0.1
		c-0.1-0.1-0.2-0.3-0.2-0.4c-0.2-0.3,0.2,0.4,0,0c-0.1-0.1-0.2-0.3-0.2-0.5s0.1,0.3,0,0s-0.1-0.3-0.2-0.4s-0.2-0.5-0.3-0.8
		c0,0.2-0.1-0.4-0.1-0.5s-0.1-0.5-0.2-0.7c-0.1-0.4-0.1-0.9-0.2-1.3c0-0.2,0-0.4,0-0.5s0-0.6,0-0.3c0-0.3,0-0.6,0-1
		c0.1-1-0.8-2.1-1.4-2.8C332.1,368.7,330.5,367.2,330.5,368z"></path><path class="st0" d="M346,362.3c0,0,0,16.5-7.8,16.5s-8-17.4-8-17.4s11.4-5.2,12.6-4.9s7.2,1,8.5,2.3s-1.2,6.9-1.2,6.9l-1.2-2.3
		c0,0,1.1-2.6,0.1-2.6S346,362.3,346,362.3z"></path><path class="st2" d="M343.6,361.4c0.1,3.9-0.6,7.8-2,11.4c-0.9,2.1-2.2,4.4-4.6,4.9c-0.3,0.1-1.2,0-1.3,0.1
		c0.4-0.3,1.2,0.5,1.6,0.6c-0.1,0-0.3-0.2-0.5-0.4c-0.9-0.9-1.5-1.9-2-3c-1.8-3.9-2.1-8.3-2.4-12.5c0-0.1,0-0.3-0.1-0.1
		c0.1-0.1,0.5-0.2,0.6-0.3c1-0.5,2-0.9,3-1.3c2.5-1.1,5-2.2,7.5-3c0.2-0.1,0.5-0.1,0.7-0.2c0.1,0,0.2,0,0.3-0.1c0.2-0.1,0.1,0,0,0
		s-0.5,0-0.6-0.1c0.2,0.1,0.5,0.1,0.7,0.1l1,0.2c0.8,0.1,1.7,0.3,2.5,0.4c0.4,0.1,0.8,0.2,1.2,0.3c0.1,0,0.8,0.3,0.4,0.1
		c-0.2-0.1-0.4-0.2-0.6-0.3c-0.4-0.1-0.1-0.1,0,0.1c0.1,0.3,0.1,0.5,0.2,0.8c0,0.8-0.2,1.6-0.4,2.4c-0.3,1.1-0.7,2.2-1.2,3.3
		l4.6,1.6c-0.5-0.7-0.9-1.4-1.2-2.2c0-0.1,0,0.2,0.1-0.1s0.2-0.4,0.2-0.6c0.2-0.5,0.3-1,0.2-1.5c-0.2-0.8-1.1-1.1-1.8-1.4
		c-1-0.6-2.2-0.8-3.3-0.8c-1,0.3-2,0.7-2.8,1.4c-0.5,0.4,1.2,1.1,1.4,1.2c0.5,0.2,2.4,1.2,3,0.8c0.3-0.2,0.7-0.4,1-0.6
		c0.3-0.2,0.6-0.3,0.9-0.5c0.1,0,0.9-0.2,0.5-0.3l-2.9-1l0.1,0l-1-0.7c0.6,0.7-0.5,1.8-0.4,2.5c0.3,0.8,0.7,1.6,1.2,2.3
		c0.3,0.6,4.3,2.4,4.6,1.6c0.8-1.8,1.8-4.1,1.6-6.1c-0.2-1.4-1.6-2-2.8-2.5c-1.7-0.7-3.4-1.3-5.2-1.6c-1.4-0.3-2.7-0.5-4.1-0.7
		l-0.4-0.1c-0.3-0.1,0.8,0.1,0,0c-0.3-0.1-0.5-0.1-0.8-0.1c-0.4,0-0.7,0.1-1.1,0.2c-2.2,0.7-4.4,1.5-6.5,2.5
		c-1.8,0.8-3.5,1.5-5.2,2.3l-0.1,0.1c0,2,0.2,4.1,0.5,6.1c0.5,3.2,1.3,6.9,3.5,9.5c1.5,1.6,3.5,2.8,5.6,3.3c1.7,0.6,3.6,0.5,5.3-0.2
		c2.9-1.6,4-5.4,4.7-8.4c0.5-2.5,0.8-5,0.8-7.6C348.3,362,343.6,361.2,343.6,361.4z"></path><path class="st2" d="M208.1,341.2c-0.2,3.8,0.7,8.1,3.1,11c2,2.3,4.9,3.6,7.9,3.4c2.2-0.1,4.4-0.6,6.5-1.5c1.3-0.5,2.4-1.3,3.3-2.3
		c3.4-4,3.9-10.8,2.5-15.7c-0.8-3-3.3-5.2-6.3-5.8c-0.9-0.2-1.7-0.3-2.6-0.3c-0.6,0-1.3,0.1-1.9,0.2c-1.1,0.1-2.1,0.5-3,1
		c-0.6,0.6-1.2,1.2-1.8,1.8l-3.2,3.3L208.1,341.2c-0.2,0.2,1.7-0.2,1.8-0.2c0.8-0.2,2.4-0.3,2.9-0.9l9.6-9.9l-4.4,1.2
		c0.2,0-0.2,0,0.1,0h0.7c0.8,0.1,1.6,0.2,2.4,0.5c2.2,0.6,4,2.2,5,4.3c1.4,3.2,1.4,7.2,0.7,10.6c-0.3,1.9-1,3.8-2,5.4
		c-0.5,0.8-1.1,1.4-1.8,2c-0.3,0.3-0.7,0.4-1.1,0.7l-0.2,0.1c0.6-0.2,1.2-0.4,1.8-0.5c0.3,0,0.2,0,0,0c-0.2,0-0.3,0-0.5,0
		c-4.2,0-7.4-2.9-8.9-6.7c-0.9-2.5-1.3-5.1-1.2-7.7c0-0.2-2.3,0.3-2.5,0.4S208.1,340.7,208.1,341.2z"></path><path class="st0" d="M227.6,330c-1,0-3,1.7-3,1.7s0,19.7-7.9,19.7s-8.8-25.4-8.8-25.4s3.3-3.4,4.5-3s16.3,3,17.5,4.6
		s-1.3,8.2-1.3,8.2l-1.3-2.8C227.4,333,228.6,329.9,227.6,330"></path><path class="st2" d="M225.9,328c-0.9,0.1-2.8,1-3,1.9c-0.1,0.7-0.1,1.5-0.1,2.2c-0.1,3.1-0.6,6.2-1.3,9.3c-0.7,2.6-1.8,6-4.3,7.5
		c-1,0.6-2.3,0.7-3.4,0.3c-1-0.4-1.3-1.1,0.1,0.6c0.3,0.3,0.2,0.4,0,0s-0.4-0.7-0.6-1c-1.3-3.1-2.2-6.4-2.7-9.8
		c-0.5-2.9-0.8-5.9-1-8.8c-0.1-0.7-0.2-1.5-0.1-2.3c0.1-0.4-0.1,0,0.1-0.2c0.5-0.6,1-1,1.6-1.5c1-0.8,2-1.6,3.3-1.4l4,0.8
		c3.9,0.8,7.9,1.5,11.6,3c0.3,0.1,0.5,0.2,0.8,0.4c0.1,0,0.1,0.1,0.2,0.1c-1.9-0.8-2.6-4.5-2.5-2.7c0.1,1,0,2-0.2,2.9
		c-0.3,1.5-0.8,3-1.3,4.4l3.2,3.7l-0.9-1.9c-0.4-0.8-0.4-0.7-0.1-1.5c0.3-0.7,0.4-1.6,0.2-2.4c-0.4-0.8-1-1.6-1.6-2.2
		C227.4,329.1,226.7,328.2,225.9,328c-0.3-0.1,0.8,1.5,0.9,1.6c0.4,0.5,0.8,1,1.3,1.5c0.2,0.2,0.6,0.7,0.9,0.8c0.1,0,0.2,0,0.2,0.1
		l-2.1-2.2l0.1,0.1l-1-1.5c0.4,1-0.5,2-0.4,2.9c0.1,0.5,0.3,0.9,0.6,1.4l0.6,1.4c0.4,0.8,1,1.6,1.6,2.2c0.5,0.5,1,1,1.6,1.5
		c0.5-1.4,0.9-2.8,1.3-4.2c0.2-0.9,0.4-1.9,0.4-2.8c-0.1-1.1-0.6-2-1.3-2.8c-1-1.5-2.5-2.6-4.3-3.3c-1.8-0.6-3.7-1.1-5.6-1.5
		c-3.2-0.8-6.5-1.5-9.7-2.1c-1.5-0.3-3,1.4-4.1,2.4c-0.6,0.6-0.6,0.6-0.6,1.4c0.3,6.4,1,13.1,3.3,19.1c0.6,1.7,1.5,3.2,2.5,4.6
		c1.2,1.6,2.6,3.5,4.5,4.4c2.9,1.3,5.4-1,6.6-3.4c1.8-3.6,2.4-7.8,2.7-11.7c0.1-1.3,0.1-2.5,0.2-3.8c0-0.1,0-0.2,0-0.4
		c0.1-0.2-0.1,0.1,0.1-0.1c0.8-0.8,1.8-1.4,2.9-1.6c-0.4-0.7-0.9-1.4-1.4-2.1C227.4,329.4,226.5,328,225.9,328L225.9,328z"></path><path class="st2" d="M274,324c-0.1,2.8,0.8,5.5,2.6,7.6c1.6,2.2,4.1,3.6,6.8,4c1.9,0.3,3.9-0.2,5.4-1.6c2.4-2.4,2.7-6.7,1.5-9.8
		c-1.1-2.8-3.4-4.9-6.2-5.8c-0.8-0.2-1.6-0.4-2.5-0.4c-0.3-0.1-0.6,0-0.9,0.1c-0.5,0.4-0.9,0.7-1.3,1.1l-2.2,1.9l-3,2.6
		c-0.6,0.5,0.7,2.1,1.1,2.4s1.7,1.8,2.3,1.2l5.4-4.7c0.4-0.2,0.7-0.5,1-0.8c0.1-0.2,0,0.1-0.1,0s0.4,0,0.5,0h0.4h0.4
		c0.4,0.1,0.7,0.1,1.1,0.2c0.2,0,0.4,0.1,0.5,0.2s0.3,0.1,0,0l0.3,0.1l0.3,0.1c-0.4-0.2-0.1-0.1,0,0s-0.3-0.3-0.1-0.1
		s-0.4-0.4-0.1-0.1c0.1,0.1-0.5-0.7-0.3-0.4s-0.1-0.2,0,0s0.1,0.3,0.2,0.4s-0.1-0.4,0,0.1c0,0.2,0.1,0.3,0.1,0.5
		c0.1,0.3,0.1,0.6,0.1,1v0.2c0,0.2,0-0.3,0,0.1c0,0.2,0,0.4,0,0.6c0,1.5-0.3,3-1,4.3c-0.7,1.3-1.9,2.3-3.4,2.6
		c-0.9,0.2-1.9,0.2-2.8,0c-0.4-0.1-0.8-0.2-1.2-0.4c0.3,0.1-0.3-0.1-0.3-0.2s-0.3-0.2-0.1,0s-0.1-0.1-0.2-0.1
		c-0.3-0.1,0.4,0.3,0.2,0.1c-0.4-0.4,0.3,0.3,0.1,0.1c-0.5-0.5,0.2,0.3,0,0c-0.4-0.5,0.2,0.4-0.1-0.1c0-0.1-0.1-0.2-0.1-0.3
		s0.2,0.4,0.1,0.1l-0.2-0.5c0-0.1,0-0.1-0.1-0.2c-0.1-0.3,0.1,0.3,0,0s-0.2-0.7-0.3-1s-0.1-0.6-0.1-0.9v-0.4c0-0.2,0,0.3,0-0.1
		c0-0.2,0-0.4,0-0.6c0.1-1-1-2.1-1.6-2.7C275.7,324.4,274,323.1,274,324z"></path><path class="st0" d="M285.5,320.5c0,0,0,11.2-5.5,11.2s-6-14.5-6-14.5s2.3-1.9,3.1-1.7s11.2,1.7,12.1,2.6s-0.9,4.7-0.9,4.7
		l-0.9-1.6c0,0,0.8-1.7,0.1-1.7C286.8,319.8,286.1,320.1,285.5,320.5z"></path><path class="st2" d="M283.1,319.9c0,1.6-0.2,3.3-0.5,4.9c-0.2,1.3-0.6,2.5-1.2,3.7c-0.3,0.5-0.6,1-1,1.4c-0.3,0.3-0.7,0.6-1.2,0.8
		c-0.1,0.1-0.4,0.1-0.1,0c-0.2,0-0.5,0-0.3,0h0.4c0.2,0,0.4,0.1,0.7,0.2c-0.1,0,0.5,0.3,0.2,0.1c-0.1,0,0.3,0.3,0.1,0
		s-0.3-0.3-0.1,0c-0.1-0.1-0.2-0.2-0.3-0.3c-0.7-0.9-1.3-1.9-1.6-3c-0.8-2.4-1.3-5-1.5-7.5c0-0.5-0.1-1-0.1-1.5c0-0.2,0-0.3,0-0.5
		s0-0.1,0-0.2s-0.1,0.2,0,0.1s-0.3,0.2-0.1,0.1c0.2-0.1,0.4-0.3,0.6-0.5c0.3-0.2,0.7-0.5,1-0.7c0.1-0.1,0.3-0.2,0.4-0.2l0.2-0.1
		c0.2-0.1-0.4,0,0,0l-1.1-0.1c2.1,0.3,4.2,0.7,6.3,1.1l2.1,0.4c0.3,0,0.7,0.1,1,0.2c-0.2-0.1-0.5-0.1-0.1,0l0.5,0.1l0.7,0.2
		c0.4,0.1-0.4-0.1-0.2-0.1s0.2,0.1,0.3,0.1c-0.1-0.1-0.3-0.1-0.4-0.2c0.1,0.1,0.2,0.1-0.1-0.1s-0.5-0.4-0.5-0.4c0,0.2,0,0.5,0.1,0.7
		c-0.2,1.2-0.5,2.4-1.1,3.5l4.8,1.1l-0.4-0.7c-0.1-0.3-0.2-0.5-0.4-0.8c0,0-0.1,0.3,0,0.1c0.1-0.1,0.1-0.3,0.2-0.5
		c0.1-0.4,0.2-0.8,0.1-1.2c-0.2-0.7-1-1.1-1.7-1.4c-1-0.4-2.1-0.6-3.1-0.4c-0.8,0.2-1.5,0.6-2.2,1.1c-0.8,0.5,1,1.5,1.4,1.6
		c0.8,0.3,2.3,0.8,3.1,0.2c0.2-0.1,0.4-0.3,0.6-0.4l0.4-0.2c0.1,0,0.7-0.2,0.4-0.1l-1.1-0.1h0.1l-1.8-0.6h0.1l-0.8-0.6
		c-0.2-0.2,0-0.1-0.1,0.1s-0.1,0.4-0.2,0.6s-0.2,0.5-0.2,0.7c0.2,0.5,0.5,1.1,0.9,1.5c0.6,0.8,1.5,1.3,2.4,1.4
		c0.6,0.1,2,0.5,2.3-0.3c0.7-1.6,2-4.3,0.3-5.6c-1-0.7-2.1-1.1-3.2-1.4c-1.3-0.3-2.5-0.6-3.8-0.9c-2.2-0.4-4.4-0.8-6.5-1.2
		c-1-0.3-2-0.3-3,0c-1,0.4-1.9,1-2.6,1.7c-0.3,0.3-0.1,0.8-0.1,1.2c0,0.7,0.1,1.5,0.2,2.2c0.2,2.1,0.6,4.3,1.3,6.3
		c0.5,2.1,1.7,4,3.3,5.3c2.2,1.6,5.8,2.4,8.1,0.6c1.9-1.5,2.6-4.1,3-6.3c0.3-1.4,0.4-2.9,0.4-4.4
		C287.9,319.7,283.1,318.8,283.1,319.9z"></path><path class="st2" d="M203.1,238.5c2,18.4,6.2,36.5,11.2,54.4c1.3,4.9,2.8,9.7,4.3,14.6c0.2,0.6,2,0.6,2.4,0.7
		c0.2,0,2.6,0.1,2.5-0.2c-5.6-17.7-10.1-35.7-13.3-53.9c-0.9-5-1.6-10-2.1-15C207.9,238.1,203.1,238.2,203.1,238.5L203.1,238.5z"></path><path class="st2" d="M243.1,247.9c1.4,17,3.9,33.9,7.3,50.6c1,4.8,2,9.6,3.2,14.3c0.6,2.5,5.4,2,4.7-0.9
		c-3.9-16.3-6.8-32.9-8.8-49.6c-0.6-4.8-1-9.5-1.5-14.3C247.8,245.5,242.8,245.1,243.1,247.9L243.1,247.9z"></path><path class="st2" d="M280.4,258c1,18.9,2.3,37.9,4,56.8c0.2,2.7,4.5,3.5,4.2,0.2c-1.7-18.9-3-37.8-4-56.8
		C284.5,255.5,280.3,254.8,280.4,258z"></path><path class="st2" d="M199.7,274.9c1.2,0.1,2.5,0.2,3.7,0.4c2.7,0.3,5.4,0.6,8.1,1c8.3,1,16.6,2.1,24.9,3.1l29.7,3.8
		c8.6,1.1,17.3,2.2,25.9,3.2c4.6,0.6,9.3,1.3,14,1.6h0.5c3.1,0,1.3-4.2-1-4.2c-1.2-0.1-2.5-0.2-3.7-0.4c-2.7-0.3-5.4-0.6-8.1-1
		c-8.3-1-16.6-2.1-24.9-3.1l-29.8-3.8c-8.6-1.1-17.3-2.2-25.9-3.2c-4.6-0.6-9.3-1.3-14-1.6h-0.5
		C195.5,270.7,197.3,274.9,199.7,274.9L199.7,274.9z"></path><path class="st2" d="M304.7,287.9c2.3-0.2,4.5-0.7,6.8-1.3c4.3-1,8.6-2,12.9-3c9.5-2.3,19-4.6,28.5-7c3-0.8,6.4-1.3,9.1-2.8
		c0.5-0.3,1.4-0.8,0.5-1.1s-2.6,0.6-3.3,1c0,0,1.2-0.5,0.9-0.4s0.8-0.2,0.1,0l-1.3,0.4l-1.8,0.5l-1.1,0.3c-0.5,0.1-0.1,0-0.1,0
		l-0.7,0.2c-4.2,1.1-8.3,2.2-12.5,3.2c-9.2,2.3-18.5,4.5-27.8,6.7c-1.6,0.4-3.3,0.7-4.9,1.1l-1.6,0.3c-0.5,0.1,0.5,0,0,0
		c-0.4,0-0.2,0,0.1,0c-1.2,0.1-2.3,0.4-3.3,1C305.1,287,303.7,287.9,304.7,287.9L304.7,287.9z"></path><path class="st2" d="M331.5,257.1l0.4,51c0,2,4.8,0.6,4.8-1l-0.4-51C336.3,254.1,331.5,255.4,331.5,257.1z"></path><path class="st1" d="M248,135.9c9.2-1.2,18.4,1.8,25.2,8.1c6.7,6.6,10,15.8,9.2,25.1c-0.2,2.1-0.5,4.5-1.9,6.2
		c-0.8,1-2.6,1.9-3.5,1.2c0.3,0.2,0,0-0.1-0.1c-0.1-0.3-0.1-0.7,0-1c0.3-0.7,0.8-1.3,1.5-1.6c1.4-0.8,3.2-0.8,4.5,0.1
		c3.1,1.7,4.8,5.8,5.8,9.1c1.4,5,2.3,10.2,2.6,15.5c1,12.5-0.6,25-4.6,36.9c-0.4,1.2,1.1,2.4,2,2.7c1,0.4,2.2-0.1,2.6-1.1
		c0-0.1,0.1-0.1,0.1-0.2c4.1-12.4,5.7-25.6,4.6-38.6c-0.5-5.9-1.4-12.1-3.5-17.6c-1.8-4.7-4.9-9.2-9.8-10.9
		c-2.5-0.9-5.2-0.7-7.5,0.6c-2.1,1.3-3.8,3.6-3.1,6.2c0.8,2.7,3.3,4.6,6.2,4.6c2.7,0.1,5.2-1.2,6.6-3.6c1.3-2.4,2-5,2-7.7
		c0.2-2.8,0.1-5.6-0.4-8.3c-3.2-19.3-21.2-32.4-40.6-29.6c-0.9,0.1-1.6,1-1.5,2c0,0.2,0.1,0.3,0.1,0.5
		C245.4,135.3,246.7,136,248,135.9L248,135.9z"></path></g></svg>