<svg transform="scale(1)" version="1.1" id="ptT1zUg9fe" xmlns="http://www.w3.org/2000/svg" xmlns:xlink="http://www.w3.org/1999/xlink" x="0px" y="0px" viewBox="0 0 500 500" xml:space="preserve" class="pbimage_pbimage__wrapper__image__0LEis false"><title>Free Shipping 1</title><style type="text/css"> .st0{fill:#59BE4C;} .st1{opacity:0.11;} .st2{fill:#000005;} .st3{fill:#FFFFFF;}
 .st3{fill:#FFFFFF;}
 .st2{fill:#000005;}
 .st0{fill:#3560ba;}</style><g id="truck"><path class="st0" d="M198.2,273.1c4.5-5,7.8-11,9.5-17.5c0.9-3.3,1.8-7-0.3-10.1c-1.7-2.6-4.8-4-7.9-3.7c-2.9,0.5-5.3,2.5-6.3,5.3
		c-0.6,1.4-0.7,2.9-0.4,4.3c0.6,1.7,2,3,3.7,3.4c6.5,1.6,7.5-8.6,6.9-12.8c-1-6.6-5-12.3-10.9-15.4c-0.9-0.5-2.1-0.2-2.3,0.9
		c0,1.3,0.8,2.4,1.9,2.9c3.2,1.7,5.5,4.6,6.6,8c1.1,3.4,1.2,7.9-0.8,10.9c-0.4,0.6-1,1.1-1.7,1.2l-0.3-0.1l0.6,0.4
		c0.8,0.8,0.2,0.7,0.4,0.2s0.2-1.1,0.5-1.6c0.7-1.9,2.3-3.2,4.2-3.6c1.5-0.2,2.8,0.3,2.9,1.8c0.2,2.3-0.7,5.1-1.4,7.3
		c-1.7,5.3-4.6,10.2-8.3,14.4C193.2,271.2,196.7,274.8,198.2,273.1L198.2,273.1z" fill="#3560ba"></path><g class="st1" id="street"><g id="street-2"><path class="st2" d="M97.1,383.3c0,0-45.8,16.3-23.1,22.8s390.5-9.9,370.2,0S166,435,100.9,423S34.9,396.3,97.1,383.3z"></path><path class="st2" d="M96.7,382.3c-4.4,1.6-8.8,3.4-13,5.4c-3.6,1.6-7.1,3.5-10.5,5.6c-2.5,1.6-5.2,3.5-6.8,6
				c-4.8,7.4,9.1,8.8,13.7,9.1c8.6,0.6,17.2,0.6,25.7,0.6c13,0.1,26-0.1,39-0.2c16.1-0.2,32.1-0.5,48.1-0.8
				c17.8-0.4,35.6-0.7,53.3-1.1c18.1-0.4,36.1-0.8,54.2-1.2c16.9-0.4,33.8-0.7,50.7-1c14.5-0.2,28.9-0.4,43.4-0.5
				c10.6,0,21.2,0,31.8,0.3c3.5,0.1,6.9,0.3,10.4,0.5l1.9,0.2l0.8,0.1c0.4,0-0.4-0.1,0,0l0.4,0c0.8,0.1,1.5,0.3,2.3,0.5l0.4,0.1
				c0.4,0.1-0.3-0.2,0,0s0.1,0.1,0.2,0.1s0.4-0.7,0.9-0.9l-0.3,0.2c0.9-0.5,0.2-0.1-0.1,0l-0.7,0.2c-0.6,0.2,0.4-0.1,0.2,0l-0.5,0.1
				c-1.4,0.4-2.9,0.8-4.4,1.1l-1.2,0.3c-0.6,0.1,0,0-0.2,0l-0.8,0.2l-3.1,0.6c-2.5,0.4-4.9,0.8-7.4,1.2c-6.1,0.9-12.3,1.7-18.4,2.5
				c-16.3,2-32.7,3.5-49.1,4.9c-19.8,1.7-39.7,3.2-59.5,4.4c-21,1.3-42.1,2.4-63.1,3.2c-19.9,0.8-39.7,1.3-59.6,1.3
				c-16.3,0-32.6-0.1-48.8-1.2c-17.2-1.1-34.2-4-50.8-8.8c-4.9-1.3-9.7-3.1-14.3-5.3c-2.5-1.2-5.3-2.8-6.8-5.2
				c-3.1-5,3.6-8.3,7.2-10.1c11-5.2,23.4-7.8,35.2-10.3c0.7-0.2,2.5-0.9,2.6-1.9s-1.5-0.7-2.1-0.6c-12.6,2.6-25.7,5.5-37.4,11.1
				c-4.1,2-12.4,6.2-10.8,12c0.7,2.4,3,4.2,5,5.5c3.7,2.3,7.7,4.1,11.9,5.4c11.8,3.9,23.8,6.8,36.1,8.6c13.2,2.1,26.6,2.7,40,3.1
				c18.1,0.5,36.3,0.4,54.4,0.1c20.8-0.4,41.6-1.2,62.4-2.2c21.1-1,42.1-2.3,63.1-3.8c18.9-1.4,37.7-2.9,56.5-4.7
				c14.3-1.4,28.6-2.9,42.8-5c4.9-0.7,9.7-1.5,14.5-2.5c2.9-0.5,5.8-1.3,8.5-2.4c1-0.5,4.2-2,2.6-3.4c-1.1-1-3.4-1-4.7-1.2
				c-7.2-0.7-14.4-1.1-21.6-1.1c-12.1-0.2-24.2-0.2-36.3-0.1c-15.6,0.1-31.1,0.3-46.7,0.6c-17.6,0.3-35.2,0.7-52.8,1.1l-54.5,1.2
				c-17.5,0.4-35,0.8-52.6,1.1c-15.2,0.3-30.4,0.5-45.6,0.6c-11.7,0.1-23.4,0.1-35-0.1c-4-0.1-8-0.2-12-0.4c-1.5-0.1-3-0.2-4.5-0.3
				c-0.6,0-1.2-0.1-1.8-0.2c-0.2,0-1-0.1-0.4,0l-0.7-0.1c-2.7-0.5-8.7-2-7.3-5.6c0.8-2.1,3.4-3.8,5.4-5.1c3-1.9,6.1-3.5,9.3-5
				c4.1-1.9,8.2-3.6,12.5-5.1c0.6-0.2,2.3-1.1,1.9-1.9S97.2,382.1,96.7,382.3z"></path></g></g><path class="st3" d="M314.3,389.1l-150.6,7.4c-3,0-18.3-3.1-18.3-3.1s-5.7-117.2-4.3-120.6s65.1-6.2,114.3-8.6s76.1-1,77,2.9
		s3.4,122,2.9,123.7S315.4,392.8,314.3,389.1" fill="#FFFFFF"></path><path class="st2" d="M314.1,387.7l-18,0.9l-41.8,2.1l-47.6,2.3l-35.2,1.7l-7.5,0.4c-0.1,0-0.3,0-0.4,0c0.5-0.1,0.8,0,0.3,0
		s-0.6,0-0.8-0.1c-1-0.1-1.2-0.1-2-0.3c-4.1-0.6-8.1-1.4-12.1-2.2l-2.5-0.5l1.4,1.1c-0.1-2.4-0.2-4.9-0.4-7.3
		c-0.3-6.2-0.6-12.4-0.9-18.6c-0.4-8.4-0.8-16.8-1.1-25.1c-0.4-8.9-0.8-17.9-1.1-26.8c-0.3-7.9-0.6-15.8-0.8-23.6
		c-0.1-5.2-0.3-10.4-0.3-15.6c0-0.7,0-1.4,0.1-2.1c0-0.2,0-0.5,0.1-0.7c0-0.5-0.1,0.1,0-0.1s-0.2,0.2-0.1,0
		c-0.1,0.1-0.4,0.3-0.1,0.1c-0.4,0.3-0.4,0.2,0,0.1s0.2,0-0.1,0c0.2,0,0.4-0.1,0.6-0.2c0.5-0.1,1-0.2,1.4-0.3l0.9-0.2l0.5-0.1
		c0,0-0.5,0.1,0,0c0.8-0.1,1.5-0.2,2.3-0.3c1.8-0.2,3.6-0.5,5.5-0.6c4.8-0.5,9.7-0.9,14.5-1.3c12.9-1,25.8-1.7,38.7-2.4
		c14.4-0.8,28.7-1.5,43.1-2.1c14.9-0.7,29.8-1.4,44.7-1.4c9.3,0,18.7,0,27.9,1.2c0.2,0,1.3,0.2,0.6,0.1l1.1,0.2
		c0.6,0.1,1.2,0.2,1.8,0.3c0.5,0.1,1,0.2,1.5,0.4c0.3,0.1,0.8,0.3,0.2,0l0.6,0.2c0.2,0.1,0.3,0.1,0.5,0.2c0.5,0.2,0,0,0.1,0l0.3,0.2
		c0.1-0.1,0,0.2,0,0c0,0.1,0.1,0.2,0.1,0.2s-0.1-0.4,0-0.1c0,0.1,0,0.3,0.1,0.4c0.4,3.6,0.4,7.2,0.5,10.8c0.3,7,0.5,13.9,0.6,20.9
		c0.2,8.7,0.4,17.5,0.6,26.2c0.2,8.9,0.4,17.9,0.5,26.8c0.1,7.5,0.3,15,0.4,22.6c0.1,4.6,0.1,9.2,0.1,13.8c0,0.5,0,1,0,1.5
		c0,0.1,0,0.3,0,0.4s-0.1,0,0-0.1s0.2-0.4,0.4-0.6c-0.3,0.2,0.5-0.2,0.2-0.1s0,0,0.2-0.1l-0.9,0.2c-0.4,0.1,0.5-0.1,0,0l-0.6,0.1
		c-0.5,0-0.9,0.1-1.4,0.1l-1.4,0.1h-0.7h-0.5c-1.1,0-2.2,0-3.3-0.1c-1.9,0-3.8-0.3-5.7-0.7c-0.2,0-1.1-0.3-0.8-0.2
		c-0.3-0.1-0.7-0.2-1-0.4c-0.4-0.2,0.1,0.1-0.1-0.1c-0.1-0.1-0.2-0.1-0.3-0.2c-0.2-0.2,0.2,0.2,0-0.1c-0.1-0.1-0.1-0.2-0.1-0.3
		c-0.6-1.7-5.5-0.9-4.7,1.2c0.5,1.5,2.6,2.1,3.9,2.5c2.1,0.6,4.2,0.9,6.4,1c4.1,0.3,8.7,0.5,12.7-0.6c1.2-0.3,2.7-0.8,2.8-2.2
		c0-0.3,0-0.6,0-0.9c0-1.5,0-3.1,0-4.6c0-6-0.1-11.9-0.2-17.9c-0.1-8.5-0.3-16.9-0.5-25.4c-0.2-9.2-0.4-18.4-0.6-27.6
		c-0.2-8.3-0.4-16.7-0.6-25c-0.2-5.8-0.3-11.6-0.6-17.4c-0.1-1.4-0.1-2.8-0.3-4.2c-0.1-1.2-0.9-2.2-2-2.7c-2-0.9-4.2-1.5-6.4-1.7
		c-3.8-0.6-7.6-0.9-11.4-1.1c-12.2-0.6-24.4-0.5-36.6-0.1c-15.5,0.4-31,1.3-46.5,2c-14.5,0.7-28.9,1.4-43.4,2.3
		c-11.3,0.7-22.6,1.4-33.9,2.5c-3.6,0.4-7.1,0.8-10.7,1.4c-1.6,0.3-4.8,0.7-5.6,2.5c-0.3,0.9-0.4,1.9-0.3,2.9c-0.1,2,0,4,0,6
		c0.1,6.6,0.3,13.3,0.5,19.9c0.3,8.7,0.6,17.4,1,26.1c0.4,9,0.8,18.1,1.2,27.1c0.3,7.7,0.7,15.5,1.1,23.2c0.2,4.6,0.4,9.3,0.7,13.9
		l0.1,1.9c0,0.6,0.8,1,1.3,1.1c2.8,0.6,5.6,1.1,8.5,1.6c3.6,0.7,7.5,1.7,11.2,1.6c1.7-0.1,3.3-0.2,5-0.2l32.5-1.6l47.2-2.3l43.8-2.2
		c7.3-0.4,14.6-0.6,21.9-1.1h0.3c0.8,0,2.4-0.6,2.4-1.6S314.9,387.6,314.1,387.7L314.1,387.7z" fill="#000005"></path><path class="st2" d="M342.5,295.1c0,0,35.8,3.5,47.6,8.5s16.5,43.2,16.5,43.2s22.6,2,27.3,13.5s4.4,19.2,4.4,19.2l-13-0.1
		c0,0-4.9-22.8-31.2-19.6c-29.7,3.6-24.6,30.8-26.6,30.8s-21.4,0.7-22-1.7S342.5,295.1,342.5,295.1z" fill="#000005"></path><path class="st2" d="M344.1,296.1c12.8,1.2,25.7,2.9,38.2,5.8c1.5,0.3,3.2,0.8,4.9,1.3c0.7,0.2-0.3-0.1,0.1,0l0.5,0.2l1,0.3
		c0.1,0,0.7,0.3,0.1,0l0.5,0.2c0.1,0,0.4,0.1-0.1,0c0.1,0,0.2,0.1,0.3,0.1c-0.2-0.1-0.2-0.1,0,0c2.1,1.4,3.9,4,5.1,6.3
		c3.6,6.6,5.5,14,7.1,21.3c1,4.7,2,9.5,2.5,14.3c0.1,1.1,3,1.8,3.9,1.9c4.5,0.4,8.9,1.4,13.1,3l1,0.4l0.9,0.4
		c0.8,0.4,1.6,0.8,2.3,1.3c1.5,0.9,2.8,2,4,3.3c1.3,1.6,2.3,3.5,3,5.5c1,2.7,1.9,5.5,2.5,8.4c0.7,2.8,1.1,5.7,1,8.6l0.4-0.2l-13-0.1
		l4.2,1.7c-1.1-4.4-3.3-8.4-6.4-11.7c-7.2-8-18.7-10.8-29-9.5c-9.6,1.1-18.6,5.4-23,14.4c-1.4,3-2.4,6.2-2.8,9.4
		c-0.3,2.1-0.3,4.2-0.7,6.3c-0.1,0.2-0.2,0.5-0.2,0.7c0,0.1-0.1,0.1,0,0s0.4,0,0,0c-1.4-0.1-2.8,0-4.2,0.1c-4.5,0.2-8.9,0-13.4-0.4
		c-0.6-0.1-0.4-0.1-1-0.2s-0.1-0.1-0.1,0c-0.1,0-0.1,0-0.2-0.1c-0.3-0.1,0.6,0.2,0.2,0.1c0.3,0.1,0.7,0.3,1,0.5
		c0.1,0.1,0.2,0.2,0.2,0.2s-0.1-0.2-0.1-0.2c0,0.2,0-0.1,0-0.3l-0.1-0.8c-0.1-1.9-0.2-3.9-0.3-5.8c-0.3-7.1-0.5-14.1-0.8-21.2
		c-0.3-9.1-0.6-18.1-0.8-27.2c-0.2-8.1-0.5-16.3-0.7-24.4l-0.4-13.4v-0.6c0-1.3-4.7-2.1-4.7-1.7c0.1,3.1,0.2,6.2,0.2,9.4
		c0.2,7.5,0.4,15.1,0.6,22.6c0.3,9.1,0.5,18.1,0.8,27.2c0.2,7.8,0.5,15.7,0.8,23.5c0.1,2.5,0.2,5.1,0.3,7.6c-0.1,1.2,0,2.5,0.3,3.7
		c0.5,1.4,2.9,2,4.1,2.4c2,0.5,4,0.8,6.1,0.9c4.5,0.3,9,0.3,13.5,0.2h2c0.3,0,0.7,0,1-0.1c0.4-0.2,0.5-0.9,0.5-1.3
		c0.3-2.2,0.4-4.5,0.8-6.7c1.3-7.5,5-14.5,11.7-18.5c5.1-2.8,10.8-4.4,16.6-4.5c2.7-0.1,5.3,0.1,7.9,0.7c0.6,0.2,1,0.3,1.3,0.4
		l0.5,0.2c-0.2-0.1,0.2,0.1,0.2,0.1l0.6,0.3c0.8,0.4,1.6,0.8,2.3,1.3c5,3.4,8.7,8.5,10.4,14.3c0.1,0.3,0.2,0.7,0.3,1
		c0.1,0.5,1.5,1,1.8,1.1c0.8,0.3,1.6,0.5,2.5,0.6l13,0.1c0.2,0,0.3,0,0.4-0.2c0-2.6-0.3-5.3-0.9-7.9c-0.6-3-1.4-6-2.5-8.9
		c-0.7-2.2-1.8-4.3-3.2-6.2c-2.7-3.2-6.6-5.3-10.4-7c-3.9-1.6-7.9-2.8-12-3.6c-2.2-0.5-4.3-0.8-6.5-1l3.9,1.8
		c-0.5-4.2-1.3-8.4-2.1-12.5c-1.6-7.5-3.5-15.3-7-22.2c-1.3-2.9-3.2-5.5-5.6-7.6c-2.8-2.2-6.4-3.3-9.8-4.2c-8.5-2.2-17.2-3.8-26-4.9
		c-5.8-0.8-11.7-1.5-17.5-2.1c-0.9-0.1-1,0.3-0.3,0.8C341.8,295.5,342.9,295.9,344.1,296.1z" fill="#000005"></path><path class="st3" d="M427.5,392.8c0,0,21.2,2,21.2-1.8c-0.2-3.8-0.6-7.7-1.1-11.5l-21.5-0.7L427.5,392.8" fill="#FFFFFF"></path><path class="st2" d="M427.3,395c4.2,0.4,8.5,0.6,12.7,0.5c2.6,0.1,5.2-0.2,7.8-0.9c1-0.3,2-0.8,2.7-1.6c1-1.2,0.7-2.7,0.6-4.2
		c-0.2-3.2-0.6-6.4-1.1-9.6c-0.2-1-1.1-1.8-2.2-1.9l-18.8-0.6l-2.7-0.1c-1.5,0-2.9,0.8-2.8,2.5l1.5,13.9c0.3,2.8,5.2,2.4,4.9-0.5
		l-1.4-13.9l-2.8,2.5l18.8,0.6l2.7,0.1l-2.2-1.9c0.4,2.5,0.7,5,0.9,7.5c0.1,0.8,0.1,1.6,0.2,2.4v0.6c0,0,0,0.5,0,0.1
		c0,0.4-0.2,0.6,0.1,0c-0.1,0.2,0.4-0.5,0.1-0.1c0.1-0.1,0.4-0.3,0-0.1s0.4-0.1,0,0s-0.5,0.2-0.7,0.2s-0.9,0.2-0.2,0.1l-0.6,0.1
		c-0.6,0.1-1.2,0.2-1.8,0.2c-1.2,0.1-2.5,0.2-3.8,0.2h-2c0.5,0-0.3,0-0.4,0h-1.1c-1.2,0-2.5-0.1-3.8-0.2c-1.4-0.1-2.9-0.2-4.3-0.3
		c-1.3-0.2-2.5,0.6-2.8,1.9C424.9,393.8,425.9,394.9,427.3,395L427.3,395z" fill="#000005"></path><path class="st2" d="M140.8,399.5c1.9,0,23.1,1.5,23.1,0c0.3-2,0.8-4,1.4-6c0,0-23.3-1.8-24.5,0S140.8,399.5,140.8,399.5z" fill="#000005"></path><path class="st2" d="M214.9,391.8l45.8-1.7c0,0,2.2,8.3,0,9.2s-45-0.2-45.8,0S214.9,391.8,214.9,391.8z" fill="#000005"></path><path class="st2" d="M314.3,389.1c0,0,21.1-1.7,21,0s1.7,9.6,0,10.5s-18.9,0.4-21,0S314.3,389.1,314.3,389.1z" fill="#000005"></path><path class="st2" d="M423.9,346.2c0,0-10.9-7.7-10.7-9.5s3.3-3,4.3-2.6S429.8,346.2,423.9,346.2z" fill="#000005"></path><path class="st3" d="M137,289.4c0,0-0.9-18.1,1.8-21.6s190-9.8,194-4.7s4.7,17.9,2.6,20.1S137,289.4,137,289.4z" fill="#FFFFFF"></path><path class="st2" d="M139.3,288.9c-0.2-3.7-0.2-7.3-0.1-11c0-2.6,0.3-5.1,0.8-7.7c-0.1,0.3,0.1-0.3,0.1-0.4s0.1-0.4,0.2-0.6
		s0.1-0.4,0.2-0.5c0.1-0.5-0.2,0.2,0.1-0.2s-0.3,0.3-0.2,0.3s-0.7,0.5-0.5,0.4s-0.8,0.4-0.4,0.2c0.5-0.3,0,0-0.2,0
		c0.2,0,0.4-0.1,0.6-0.1c0.6-0.1,1.2-0.2,1.8-0.3c1.9-0.3,3.7-0.5,5.6-0.6l1.8-0.2h0.4l1-0.1l4.2-0.3c3.4-0.2,6.7-0.5,10.1-0.6
		c8.3-0.5,16.7-0.9,25-1.3c9.7-0.4,19.4-0.8,29.1-1.1c10.2-0.3,20.4-0.6,30.6-0.9c9.8-0.2,19.6-0.4,29.3-0.5
		c8.4-0.1,16.8-0.1,25.2-0.1c6.2,0.1,12.4,0.1,18.5,0.5c2,0.1,3.9,0.2,5.9,0.5c0.3,0,1.4,0.2,0.6,0.1l0.9,0.2c0.2,0,0.5,0.1,0.7,0.2
		s0.7,0.3,0.3,0.1s-0.1-0.1-0.1,0c0.3,0.2-0.2-0.1-0.2-0.2c0,0.3,0.6,0.9,0.8,1.2c0.3,0.6,0.6,1.2,0.9,1.8c1.1,2.9,1.7,5.9,1.8,8.9
		c0.1,1.3,0,2.7-0.1,4c0,0.3-0.1,0.5-0.1,0.8c0,0.1,0,0.2,0,0.3c0.1-0.3,0,0,0,0.1l-0.2,0.6c0,0.1-0.1,0.2-0.1,0.3
		c-0.1,0.3,0.2-0.4,0-0.1s0.4-0.4,0.4-0.4c0.2-0.2,0.5-0.4,0.8-0.5h-0.1c0.5-0.2,0.7-0.2,0.2-0.1s-0.9,0.1-1.3,0.2l-0.9,0.1l-0.5,0
		c-0.7,0.1,0.4,0-0.1,0c-2,0.2-3.9,0.3-5.9,0.4c-6.1,0.4-12.2,0.6-18.3,0.8c-8.2,0.3-16.5,0.6-24.7,0.8c-9.6,0.3-19.2,0.6-28.8,0.8
		c-10.1,0.3-20.1,0.5-30.2,0.8L195,286l-25.6,0.6l-19.4,0.4l-10.9,0.2h-1.4c-1.3,0-2.4,0.8-2.9,2c-0.3,0.8,0.1,1.7,0.8,2
		c0.2,0.1,0.4,0.1,0.6,0.1l6-0.1l16.1-0.3l23.5-0.5l28.5-0.7c10.2-0.2,20.3-0.5,30.5-0.8c10-0.3,20-0.5,30.1-0.8
		c9-0.3,18-0.6,27.1-0.9c7.1-0.2,14.1-0.5,21.2-0.9c4.5-0.2,8.9-0.4,13.4-0.8c1,0,2.1-0.2,3.1-0.5c1.4-0.7,2.4-2,2.6-3.5
		c0.6-2.8,0.7-5.7,0.3-8.5c-0.3-3.1-1.1-6.2-2.4-9.1c-0.6-1.2-1.2-2.6-2.5-3.1c-1.2-0.4-2.4-0.7-3.6-0.8c-4.7-0.5-9.5-0.8-14.2-0.8
		c-7.6-0.2-15.1-0.2-22.7-0.2c-9.4,0-18.7,0.1-28.1,0.3c-10.3,0.2-20.5,0.4-30.8,0.7s-20.5,0.7-30.7,1c-9.2,0.4-18.3,0.8-27.5,1.2
		c-7.2,0.4-14.4,0.8-21.6,1.3c-4.4,0.3-8.9,0.6-13.4,1.3c-1.2,0.1-2.4,0.5-3.4,1.1c-1.6,1.1-2.1,3.4-2.5,5.2
		c-0.4,2.6-0.7,5.2-0.7,7.8c-0.1,3.6-0.1,7.2,0.1,10.7C134.8,292.7,139.4,291.2,139.3,288.9z" fill="#000005"></path><path class="st2" d="M200.2,230.5c-0.5-1.8-7.8-12.8-10.4-14.3s-58.1-16.4-62-14.1s-9.9,17.4-4.7,22.7c5.2,5.2,59.9,15.6,64.3,15.6
		C187.4,240.4,200.7,232.3,200.2,230.5z M192.5,230.7c-0.6,3.4-3.8,4.7-6.9,0s3.9-6.8,3.9-6.8C191.8,222.9,193.1,227.3,192.5,230.7
		L192.5,230.7z" fill="#000005"></path><path class="st2" d="M201.9,230.9c-0.6-1.6-1.3-3-2.3-4.4c-1.2-1.9-2.4-3.8-3.8-5.6c-1.9-2.5-4-6-7-7.2c-4.6-1.6-9.2-3-13.9-4.1
		c-7.8-2.1-15.6-4.1-23.4-5.9c-6.5-1.7-13.1-3-19.8-3.9c-1.5-0.2-3.6-0.6-5.1,0.1c-1.2,0.7-2.2,1.8-2.8,3c-1.2,1.9-2.2,3.9-2.9,6
		c-1.5,4.3-2.5,9.5-0.7,13.9c1.1,2.6,3.1,4.6,5.7,5.6c6.1,2.7,12.8,4.2,19.3,5.8c8.2,2,16.4,3.8,24.7,5.4c5.6,1.1,11.2,2.3,16.9,2.9
		c0.6,0.2,1.3,0.2,1.9,0c0.9-0.5,1.8-1,2.6-1.6c3.2-1.9,6.2-4,9-6.5C201.4,233.4,202.2,232.4,201.9,230.9c-0.2-1.2-1-2.2-2.2-2.6
		c-1.1-0.2-1.3,0.9-1.1,1.8c0-0.2-0.1-0.9,0-1c-0.1,0.1-0.1,0.2-0.1,0.3s-0.2,0.4-0.4,0.5c-0.5,0.5-0.9,0.9-1.5,1.3
		c-1.4,1.2-3,2.2-4.5,3.3c-1.3,0.9-2.7,1.8-4.1,2.7l-1.3,0.8c-0.1,0.1-0.3,0.1-0.4,0.2c-0.3,0.2,0.2-0.1,0.1,0h-0.2
		c0,0-0.7-0.1,0.2,0h-0.2l-1-0.1c-1-0.1-1.9-0.3-2.9-0.4c-2.8-0.4-5.6-1-8.5-1.5c-7.7-1.4-15.4-3-23.1-4.8c-7-1.6-14.1-3.3-20.9-5.5
		c-2-0.6-3.9-1.4-5.7-2.4c-0.1-0.1-0.2-0.1-0.2-0.1c-0.3-0.2,0.4,0.4,0.2,0.1c-0.1-0.1-0.2-0.2-0.3-0.2c-0.1-0.1-0.3-0.4,0.1,0.1
		c-0.1-0.1-0.5-0.6-0.2-0.2c-0.1-0.1-0.2-0.3-0.2-0.4c0.2,0.5-0.1-0.4-0.2-0.5c0.2,0.4-0.1-0.4-0.1-0.4c0-0.2-0.1-0.3-0.1-0.5
		c-0.1-0.4-0.1-0.8-0.1-1.3c-0.1-1.1,0-2.2,0.2-3.2c0.6-4.1,2.1-8,4.6-11.4c0.4-0.5,0.8-0.9,1.3-1.3c0.1-0.1,0.2-0.2,0.4-0.2
		c-0.1,0.1-0.3,0,0,0c0.7-0.1,1.3-0.1,2-0.1h0.6c0.3,0-0.4,0,0,0h0.4c0.6,0.1,1.2,0.1,1.8,0.2c1.3,0.2,2.6,0.4,3.9,0.6
		c3.3,0.6,6.6,1.3,9.9,2c7.6,1.7,15.1,3.6,22.6,5.5c5.7,1.5,11.4,3,17,4.8c0.7,0.2,1.4,0.5,2.1,0.7s-0.3-0.2,0.2,0.1l0.1,0.1
		l0.5,0.4c-0.4-0.4,0.3,0.3,0.4,0.4c0.3,0.3,0.5,0.6,0.8,0.9c0.7,0.8,1.4,1.7,2,2.6c1,1.4,2.4,3.4,3.5,5.1c0.4,0.7,0.9,1.4,1.3,2.1
		l0.2,0.3c0.3,0.5-0.2-0.5,0,0c0.1,0.2,0.4,1,0.1,0.1c0.3,1,1.1,2.4,2.2,2.6S202.1,231.8,201.9,230.9z" fill="#000005"></path><path class="st2" d="M190.8,229.3c-0.1,0.3-0.2,0.7-0.3,1l0.1-0.4c-0.2,0.5-0.5,0.9-0.8,1.3l0.3-0.3c-0.3,0.3-0.6,0.5-1,0.6
		l0.4-0.1c-0.3,0.1-0.7,0.1-1,0.1h0.4l-0.4-0.1l-0.2-0.1c-0.3-0.1,0.1,0,0.2,0.1c-0.1-0.1-0.3-0.2-0.4-0.2l-0.2-0.1
		c-0.3-0.2,0.4,0.3,0.2,0.1l-0.4-0.4l-0.1-0.1l0.3,0.3c-0.1,0-0.2-0.2-0.2-0.2s-0.3-0.4-0.5-0.5l-0.1-0.2l0.2,0.3
		c-0.1-0.1-0.2-0.2-0.3-0.4c-0.1-0.2-0.2-0.3-0.3-0.5s0.3,0.7,0.2,0.3l-0.1-0.2c0-0.1-0.1-0.4,0,0.1s0.1,0.2,0,0s-0.1-0.6-0.1-0.2
		s0,0,0-0.1v-0.2c0-0.2-0.1,0.6,0,0.2c0-0.2,0.1-0.5,0.2-0.7l-0.1,0.4c0.2-0.5,0.5-0.9,0.9-1.3l-0.3,0.3c1-0.9,2.2-1.6,3.4-2
		l-0.4,0.1l0.8-0.2l-0.4,0.1c0.2-0.1,0.4-0.1,0.6-0.1h-0.4c0.1,0,0.2,0,0.3,0.1s-0.5-0.2-0.3-0.1c0,0,0.1,0.1,0.1,0.1
		c0,0-0.5-0.4-0.3-0.2c0.1,0.1,0.3,0.2-0.1-0.1l-0.1-0.1c0.1,0.2,0.3,0.5-0.2-0.3l0.2,0.3c0.2,0.3-0.3-0.7-0.2-0.3
		c0,0.1,0,0.1,0.1,0.2c0.1,0.1,0.1,0.3,0.2,0.4c0.1,0.3-0.2-0.6-0.1-0.3c0,0.1,0.1,0.2,0.1,0.2c0.1,0.3,0.1,0.6,0.2,0.9
		c-0.2-0.7,0-0.1,0,0.1s0,0.4,0.1,0.5c0,0.4,0,0.7,0,1.1s0-0.4,0-0.1c0,0.1,0,0.2,0,0.2C190.9,228.9,190.9,229.1,190.8,229.3
		c0,0.6,0,1.1,0.3,1.6c0.2,0.6,0.6,1.1,1.1,1.6c0.4,0.3,0.8,0.5,1.3,0.5c0.4-0.1,0.7-0.4,0.8-0.8c0.4-2.3,0.2-4.7-0.7-6.8
		c-0.5-1.2-1.2-2.2-2.2-3c-0.5-0.4-1-0.6-1.6-0.8c-0.5-0.1-1.1,0-1.6,0.2l0.4-0.1c-0.7,0.2-1.4,0.5-2.1,0.9
		c-1.2,0.6-2.1,1.4-2.8,2.5c-1.1,2-0.4,4.4,0.7,6.2c1.4,2.2,3.5,4.6,6.3,4.7c2.1,0.1,3.4-2,3.7-3.8c0.1-0.5,0-1.1-0.2-1.6
		c-0.2-0.6-0.6-1.1-1.1-1.6c-0.4-0.3-0.8-0.5-1.3-0.5C191.2,228.6,190.9,228.9,190.8,229.3z" fill="#000005"></path><ellipse class="st2" cx="188.6" cy="400.7" rx="21.2" ry="20.6" fill="#000005"></ellipse><path class="st2" d="M207.4,401.2c-0.1,7.7-4.6,15.3-12,17.9s-16.1-0.4-21.1-6.5c-5.2-6.4-5.9-15.3-1.8-22.3
		c3.9-6.6,11.6-10,19.1-8.4C200.7,383.9,207.2,391.9,207.4,401.2c0,1.8,4.8,0.6,4.8-0.9c-0.1-9.2-6.1-17.4-14.9-20.3
		c-9.6-3-20.1-0.2-26.9,7.3c-6.2,7-7.1,17.2-2.2,25.2c5.2,8.2,15.2,11.7,24.6,9.7c10.5-2.2,19.2-10.8,19.3-21.9
		C212.2,398.4,207.4,399.7,207.4,401.2z" fill="#000005"></path><path class="st3" d="M179.6,403.4c-0.4,1.9,0.9,3.6,2.5,4.4c2.3,1,4.9,1.1,7.3,0.2c2-0.7,3.7-2,4.8-3.9c1.1-1.6,1.4-3.7,0.9-5.5
		c-0.9-2.6-3.7-3.6-6.3-3c-0.7,0.2-2.4,0.7-2.2,1.8s2,0.9,2.7,0.8c0.3-0.1,0.2,0-0.2,0s-0.4,0-0.1,0c-0.7-0.1,0.4,0.2-0.1,0
		c0.2,0.1,0.4,0.2,0.5,0.3c-0.2-0.1,0.1,0.1,0.2,0.2c0.5,0.6,0.8,1.4,0.8,2.2c0,0.8-0.1,1.6-0.5,2.4c-0.1,0.4-0.3,0.7-0.5,1
		c-0.1,0.2-0.3,0.4-0.4,0.5l-0.3,0.3c0.1-0.1-0.3,0.2-0.3,0.3s-0.6,0.5-0.2,0.2c-0.2,0.2-0.4,0.3-0.6,0.3c0.3-0.1,0.3-0.1,0.1,0
		l-0.2,0.1c-0.2,0.1-0.1,0,0.2,0l-0.3,0.1c-0.3,0-0.2,0,0.1,0c-0.1,0-0.2,0-0.4,0h-0.4c0.3,0,0.4,0,0.1,0h-0.4h0.1l-0.6-0.2
		c-0.2-0.1-0.2-0.1,0,0c-0.1,0-0.2-0.1-0.3-0.1c-0.3-0.1-0.5-0.3-0.8-0.6c-0.2-0.2-0.4-0.5-0.5-0.8c-0.1-0.2-0.1-0.4-0.1-0.6
		c0-0.2,0-0.2,0-0.1c0-0.1,0-0.2,0.1-0.3C185,401.3,180.1,401.8,179.6,403.4L179.6,403.4z" fill="#FFFFFF"></path><ellipse class="st2" cx="287.1" cy="396.6" rx="21.2" ry="20.6" fill="#000005"></ellipse><path class="st2" d="M305.9,396.1c0,8.1-5,15.4-12.5,18.4c-7.2,2.9-15.5,0.8-20.5-5.2c-5.2-6.3-5.9-15.1-1.8-22.2
		c4-6.6,11.8-10.8,19.6-9.4C299.4,379.2,305.8,387.3,305.9,396.1c0,2,4.9,2.8,4.9,1.1c-0.2-9.5-6.3-17.9-15.2-21
		c-9.2-3.4-20-1.4-26.7,6.1c-6.2,7-7.1,17.3-2.1,25.3c5.2,8.3,15.7,12.5,25.2,10.9c10.4-1.8,18.7-10.4,18.8-21.2
		C310.8,395.1,305.9,394.3,305.9,396.1z" fill="#000005"></path><path class="st3" d="M279.4,397.1c-0.2,1.4,0,2.8,0.7,4c0.6,1.3,1.4,2.3,2.5,3.2c1.6,1.1,3.5,1.4,5.3,0.8c1.7-0.5,3.2-1.8,4-3.4
		c1-2,1.1-4.4,0.3-6.5c-0.8-2.2-2.8-5.4-5.6-4.8c-0.3,0.1-0.1,0.8-0.1,0.9c0.1,0.6,0.3,1.2,0.5,1.7c0.3,0.5,0.6,1,1,1.5
		c0.2,0.2,0.5,0.5,0.8,0.4c0.7-0.1,1.4,0,2,0.5c-0.1-0.1-0.1-0.1,0,0c-0.1-0.1-0.2-0.3-0.3-0.4c-0.1-0.2-0.3-0.5-0.4-0.8
		c-0.2-0.5,0,0.3,0,0.1c0,0.2,0,0.4,0,0.5c-0.1,1.6-0.8,3.1-2,4.2c-1.2,1.2-2.8,1.8-4.5,1.7c-0.8,0-1.5-0.3-2.2-0.6
		c0,0-0.5-0.4-0.3-0.2c-0.1-0.1-0.4-0.5-0.1-0.1c0.2,0.3,0.4,0.6,0.5,1c0.2,0.7,0.2,0.9,0.2,0.5c0,0.2,0,0.2,0,0c0,0,0-0.1,0-0.1
		c0.1-1.1-0.3-2.1-0.9-3C280.7,398.1,279.5,396.2,279.4,397.1L279.4,397.1z" fill="#FFFFFF"></path><ellipse class="st2" cx="399.5" cy="388.1" rx="21.2" ry="20.6" fill="#000005"></ellipse><path class="st2" d="M418.2,388.1c-0.1,7.7-4.9,14.6-12.2,17.2c-7.4,2.6-15.7,0.4-20.8-5.5c-5-6-5.7-14.6-1.6-21.3
		c4.1-6.6,11.9-9.9,19.5-8.5C411.8,371.7,418.1,379.2,418.2,388.1c0,2.9,5,2.9,5-0.1c-0.2-9.7-6.4-18.3-15.6-21.5
		c-9.4-3.3-19.9-0.5-26.4,7c-6.3,7.4-7.1,18-2,26.3c5.2,8.5,15.5,12.5,25.2,10.6c10.8-2.1,18.6-11.5,18.8-22.4
		C423.2,385.1,418.2,385.2,418.2,388.1z" fill="#000005"></path><path class="st3" d="M390.7,390.3c-0.6,2.5,0.8,4.5,2.9,5.7c2,1,4.4,1.1,6.5,0.3c4.1-1.4,7.2-6.3,5.9-10.6c-0.7-2.6-3.3-4.3-6-3.8
		c-1.3,0.2-2.3,1.2-2.4,2.6c0,1.1,1,2.1,2.1,2c0.1,0,0.2,0,0.3,0l0.3-0.1c0.3,0,0.2,0-0.1,0h0.3h-0.1l0.3,0.1
		c0.2,0.1,0.2,0.1-0.1-0.1c0.1,0,0.3,0.2,0.4,0.3s0.1,0.1-0.1-0.1c0.1,0.1,0.1,0.2,0.2,0.2l0.2,0.3c-0.1-0.3-0.1-0.3,0,0
		s0.1,0.5,0.2,0.7c0.1,0.5,0-0.3,0,0.1c0,0.2,0,0.5,0,0.7s0,0.2,0,0c0,0.1,0,0.2-0.1,0.4c0,0.2-0.1,0.4-0.2,0.6
		c0,0.1-0.1,0.2-0.1,0.3l0.1-0.3c-0.1,0.4-0.4,0.8-0.6,1.2c-0.1,0.2-0.1,0.2,0.1-0.1l-0.2,0.2c-0.1,0.1-0.2,0.3-0.4,0.4
		c-0.5,0.5,0.4-0.2,0,0.1l-0.5,0.4l-0.3,0.2c0.3-0.2,0.4-0.2,0.1-0.1s-0.4,0.2-0.6,0.2c-0.6,0.2,0.3,0-0.1,0c-0.2,0-0.5,0.1-0.7,0.1
		h-0.4c0.3,0,0.4,0,0.1,0s-0.4,0-0.6-0.1l-0.3,0c0.3,0.1,0.3,0.1,0.1,0l-0.6-0.2c-0.2-0.1-0.2-0.1,0.1,0.1l-0.3-0.2
		c-0.1-0.1-0.3-0.2-0.4-0.4s-0.1-0.1,0.1,0.1c-0.1-0.2-0.3-0.3-0.4-0.5c-0.1-0.2-0.1-0.2,0,0.1c0-0.1-0.1-0.2-0.1-0.3
		c-0.1-0.2,0-0.2,0,0.1c0-0.1,0-0.2,0-0.3c-0.1,0.3-0.1,0.4,0,0.1c0.3-1.1-0.3-2.2-1.3-2.5c-0.1,0-0.2-0.1-0.4-0.1
		C392.2,388.2,391,389.1,390.7,390.3L390.7,390.3z" fill="#FFFFFF"></path><path class="st3" d="M137,222.6c1-4.1,2.5-8.2,4.4-12c0.2-0.4-2.1-0.9-2.4-0.9c-0.6-0.1-1.2-0.2-1.8-0.2c-0.2,0-0.7-0.1-0.8,0.2
		c-1.9,3.8-3.4,7.9-4.4,12c-0.1,0.4,2.1,0.9,2.4,0.9c0.6,0.1,1.2,0.2,1.8,0.2C136.4,222.7,136.9,222.8,137,222.6L137,222.6z" fill="#FFFFFF"></path><path class="st3" d="M136.8,211.3c1.7,0.3,3.4,0.7,5.1,1.3l-0.6-0.2c0.5,0.2,1.1,0.4,1.6,0.7c0.6,0.3,1.2,0.4,1.8,0.2
		c0.6-0.1,1.2-0.4,1.6-0.9c0.4-0.4,0.6-0.9,0.5-1.5c-0.1-0.5-0.5-1-1-1.2c-2.3-1.1-4.7-1.8-7.2-2.2c-0.6-0.1-1.3-0.1-1.9,0.1
		c-0.6,0.2-1,0.6-1.3,1.1c-0.3,0.5-0.3,1,0,1.5C135.8,210.9,136.2,211.2,136.8,211.3L136.8,211.3z" fill="#FFFFFF"></path><path class="st3" d="M137.2,218c1.4,0.1,2.9,0.3,4.3,0.7l-0.6-0.1c0.5,0.1,0.9,0.2,1.4,0.4c0.5,0.2,1,0.2,1.5,0
		c0.4-0.2,0.6-0.6,0.6-1.1c-0.1-0.6-0.3-1.1-0.7-1.5c-0.4-0.5-1-0.9-1.6-1.1c-2-0.6-4.1-1-6.2-1.2c-0.5-0.1-0.9,0.1-1.3,0.4
		c-0.3,0.4-0.3,0.9-0.1,1.3C134.9,216.9,135.9,217.8,137.2,218L137.2,218z" fill="#FFFFFF"></path><path class="st3" d="M148,225.8l1.8-6.6l0.9-3.2l0.4-1.6c0.1-0.3,0.1-0.5,0.2-0.8l0.1-0.3c0.1-0.3,0.1-0.3-0.2,0.2l-1.1,0.7
		c-0.2,0.1-0.5,0.2-0.8,0.2h0.2h0.6c0.4,0,0.8,0.1,1.2,0.2c0.5,0.1,0.9,0.5,1.2,0.9c0.1,0.2,0.2,0.4,0.3,0.6c0,0.1,0,0.2,0,0.3
		c0,0.1,0,0.1,0,0c0.1,0.2-0.2,0.2,0.1,0s0.1-0.2,0,0c0.2-0.1,0.3-0.1,0.1-0.1l-0.3,0.1l-1.3,0.6c-1.1,0.4-2.7,1.2-2.8,2.6
		c0.1,0.9,0.4,1.8,0.9,2.6c0.7,1.7,1,3.5,1,5.3c-0.1,2.2,4.7,0.8,4.7-1.2c0-1.4-0.2-2.9-0.6-4.3c-0.2-0.6-0.4-1.3-0.6-1.9
		c-0.1-0.3-0.2-0.6-0.4-1c-0.1-0.2-0.1-0.3-0.2-0.5c-0.1-0.4,0-0.3-0.1,0l-0.6,0.8l0.2-0.1l-1.1,0.7c2.4-1.1,6.4-2.2,5.7-5.7
		c-0.6-2.6-3.5-3.2-5.8-3.3c-2-0.1-4.2,0.5-4.9,2.6c-0.4,1.3-0.7,2.7-1.1,4l-2.3,8.6C142.7,228.5,147.5,227.5,148,225.8L148,225.8z" fill="#FFFFFF"></path><path class="st3" d="M160,216.1l-1.9,8.4c-0.2,0.6-0.3,1.3-0.4,1.9c0,0.6,0.3,1.2,0.9,1.5c1.2,0.7,2.6,1.3,3.9,1.8
		c1.2,0.4,2.4,0.3,3.5-0.2c0.9-0.4,0.8-1-0.1-1.4c-0.6-0.2-1.1-0.4-1.6-0.7l-0.9-0.4c-0.3-0.1-0.5-0.2-0.7-0.4
		c-0.2-0.3,0-0.9,0.1-1.1c0.1-0.7,0.3-1.3,0.4-2l1.7-7.7C165.2,214.7,160.4,214.4,160,216.1L160,216.1z" fill="#FFFFFF"></path><path class="st3" d="M162.1,223l1.1,0.3l-0.6-0.2c0.8,0.3,1.7,0.6,2.5,1c0.3,0.1,0.7,0.2,1,0.2c0.3,0.1,0.6,0.1,0.9,0.1
		c0.3,0,0.5-0.1,0.8-0.2c0.2-0.1,0.4-0.2,0.6-0.3l0.2-0.3c0.1-0.3,0-0.5-0.2-0.7c-0.3-0.4-0.8-0.7-1.3-0.9c-1.3-0.6-2.8-1.1-4.2-1.5
		c-0.6-0.1-1.2-0.1-1.8,0c-0.3,0.1-0.9,0.4-0.9,0.8c0,0.4,0.1,0.8,0.5,1.1C161,222.6,161.6,222.9,162.1,223L162.1,223z" fill="#FFFFFF"></path><path class="st3" d="M161.6,216.7l1.1,0.2l0.3,0.1c0.1,0,0.4,0.1-0.1,0l0.5,0.1c0.7,0.2,1.4,0.4,2.2,0.6c0.5,0.1,1,0.2,1.5,0.1
		c0.6,0,1.3-0.1,1.9-0.3l0.5-0.1c0.2-0.1,0.4-0.2,0.6-0.3l0.1-0.2c-0.1-0.2-0.2-0.3-0.4-0.3c-1.6-0.5-3.2-0.9-4.9-1.1
		c-0.6-0.1-1.2-0.1-1.8,0c-0.6,0-1.2,0.2-1.7,0.4c-0.2,0.1-0.8,0.3-0.7,0.5S161.4,216.6,161.6,216.7L161.6,216.7z" fill="#FFFFFF"></path><path class="st3" d="M172,217.4l-2,9.2c-0.3,0.7-0.3,1.5-0.1,2.2c0.5,1.3,1.4,2.4,2.5,3.2c1.3,0.8,2.6,1.5,4.1,2
		c1,0.4,0.4-0.9,0.2-1.3c-0.3-0.6-0.7-1.1-1.1-1.6c-0.3-0.4-0.7-0.8-1.2-1c-1.1-0.4-2.2-1-3.3-1.5s-0.5,0.2,2,2.5
		c0-0.1,0-0.3,0.1-0.4c0-0.2,0.1-0.5,0.2-0.7l0.4-1.9l1.6-7.3c0.1-0.3-0.3-0.9-0.4-1.1c-0.3-0.6-0.7-1.1-1.1-1.5
		C173.6,218.1,172.2,216.7,172,217.4L172,217.4z" fill="#FFFFFF"></path><path class="st3" d="M174.5,226.2l0.3,0.1C175.1,226.3,174.1,226.1,174.5,226.2l0.4,0.1c0.3,0.1,0.6,0.2,0.9,0.3l0.2,0.1l-0.5-0.2
		h0.1l0.4,0.2l0.9,0.4c0.5,0.3,1.1,0.4,1.7,0.5c0.2,0,0.8,0,0.9-0.2s-0.2-0.6-0.4-0.8c-0.5-0.4-1-0.7-1.5-0.9
		c-1.5-0.7-3.1-1.3-4.8-1.7c-0.2-0.1-0.5-0.1-0.7-0.1c-0.2,0-0.4,0-0.5,0.1c-0.3,0.2-0.2,0.5,0,0.7c0.3,0.4,0.8,0.7,1.2,0.9
		C173.3,225.7,173.9,226,174.5,226.2L174.5,226.2z" fill="#FFFFFF"></path><path class="st3" d="M173.9,221.7c0.9,0.1,1.8,0.3,2.7,0.5l-0.6-0.1c0.6,0.1,1.1,0.3,1.7,0.5c0.6,0.2,1.2,0.2,1.8,0
		c0.6-0.2,1.1-0.7,1.5-1.3c0.3-0.5,0.4-1.1,0.2-1.7c-0.2-0.6-0.6-1-1.2-1.2c-1.6-0.5-3.3-0.9-5-1.1c-0.6-0.1-1.3,0.1-1.8,0.5
		c-0.5,0.4-0.9,0.9-1.1,1.5c-0.1,0.6,0,1.2,0.3,1.7C172.8,221.3,173.3,221.6,173.9,221.7L173.9,221.7z" fill="#FFFFFF"></path><path class="st0" d="M244.3,403.9c0-5.4-0.1-10.7-0.2-16.1c-0.2-11.1-0.4-22.2-0.6-33.3c-0.2-13.2-0.4-26.5-0.7-39.7
		c-0.2-11.6-0.4-23.1-0.6-34.7c-0.1-6.2-0.2-12.5-0.3-18.7c0-0.2,0-0.5,0-0.7c0-2.7-4.9-3.6-4.9-0.7c0,5.4,0.1,10.7,0.2,16.1
		c0.2,11.1,0.4,22.2,0.6,33.3c0.2,13.2,0.5,26.5,0.7,39.7c0.2,11.6,0.4,23.1,0.6,34.7c0.1,6.2,0.2,12.5,0.3,18.7c0,0.2,0,0.5,0,0.7
		C239.4,405.9,244.3,406.8,244.3,403.9z" fill="#3560ba"></path><path class="st0" d="M242.1,260.2c1.8-6.6,5.8-12.4,11.3-16.5c0.7-0.5,1.4-1,2.1-1.4c0.3-0.2,0.7-0.4,1-0.6
		c0.2-0.1,0.4-0.2,0.6-0.3l0.4-0.2l-1.2-0.4c0.3,0.6,0.5,1.2,0.7,1.9c0.1,0.9-0.1,1.8-0.5,2.7c-1.3,3.4-4.7,5.9-7.5,8.1
		c-3.4,2.6-7.1,4.8-11.1,6.5l4.1,1.2c-4.6-7-13.6-9-21.4-9.4c-2.3-0.1-10.6-1.1-8.5,3.5c0.8,1.8,3,2.7,4.7,3.4
		c2.1,0.8,4.2,1.4,6.4,1.9c4.7,1,9.6,1,14.3,0c1-0.2,1.2-0.8,0.5-1.5c-0.9-0.8-2.2-1.1-3.4-1c-3.8,0.8-7.8,0.9-11.6,0.2
		c-1.7-0.3-3.4-0.8-5.1-1.5c-0.6-0.2-1.1-0.5-1.2-1.2c-0.2-1.1,0.7-1.2,1.6-1.2c7,0.1,15,0.3,19.3,6.8c1,1.2,2.6,1.6,4.1,1.2
		c4.2-1.8,8.1-4.1,11.7-6.8c3.1-2.4,7.3-5.6,8.2-9.7c0.5-2-0.1-4-1.6-5.4c-1.9-1.6-4.5-2.1-6.8-1.2c-3.7,1.8-7,4.4-9.6,7.6
		c-2.9,3.5-5.1,7.6-6.3,12C236.9,260.3,241.7,261.7,242.1,260.2L242.1,260.2z" fill="#3560ba"></path><path class="st0" d="M91.8,370.3l59.2-3c0.7,0-1-1.5-1.1-1.6c-0.7-0.5-1.8-1.4-2.8-1.4l-59.2,3c-0.7,0,1,1.5,1,1.6
		C89.7,369.5,90.8,370.4,91.8,370.3L91.8,370.3z" fill="#3560ba"></path><path class="st0" d="M71.1,373.8h6.8c0.6,0,1.3-0.1,1.8-0.5c0.5-0.3,0.8-0.8,0.8-1.3c-0.2-1.2-1.2-2.1-2.4-2h-6.8
		c-0.6,0-1.3,0.1-1.8,0.4c-0.5,0.3-0.8,0.8-0.8,1.3C68.8,373,69.9,373.8,71.1,373.8L71.1,373.8z" fill="#3560ba"></path><path class="st0" d="M74.7,337.1h8c0.7,0,1.3-0.2,1.8-0.5c0.4-0.2,0.8-0.6,0.9-1.1c0.2-1.2-1.2-1.5-2.1-1.5h-8
		c-0.7,0-1.3,0.2-1.8,0.6c-0.4,0.2-0.8,0.6-0.9,1.1C72.5,336.9,73.8,337.1,74.7,337.1L74.7,337.1z" fill="#3560ba"></path><path class="st0" d="M91.3,336.4c7.6,0,15.1-0.4,22.7-0.6l33.6-1c3-0.1,6.1-0.2,9.2-0.2c1.1,0,2.6-0.5,3.1-1.5s-0.5-1.5-1.4-1.5
		c-7.6,0-15.1,0.4-22.7,0.6c-11.2,0.3-22.4,0.7-33.6,1c-3.1,0.1-6.1,0.2-9.2,0.2c-1,0-2.6,0.5-3.1,1.5S90.5,336.4,91.3,336.4
		L91.3,336.4z" fill="#3560ba"></path><path class="st0" d="M99.3,316.1l50.2-0.3c3.2,0,2.4-4.6-0.4-4.6l-50.2,0.3C95.7,311.5,96.5,316.2,99.3,316.1z" fill="#3560ba"></path><path class="st3" d="M360.3,317.7c0,0,17.1,0.5,19.8,3.3s4.1,16,3,16.8s-20.7,1.1-21.5,0.8S360.3,317.7,360.3,317.7z" fill="#FFFFFF"></path><path class="st3" d="M360.8,319.6c1.1,0,2.2,0.1,3.3,0.2s2.2,0.1,3.3,0.2l1.8,0.2l1,0.1h0.4h0.4c2.3,0.2,4.6,0.7,6.8,1.3
		c-0.5-0.1,0,0,0.2,0.1l0.5,0.2c0.4,0.2,0.3,0.2,0,0c0.4,0.2,0.2,0.1,0,0c0,0,0.2,0.1,0.2,0.2c0,0.2-0.2-0.4-0.1-0.1
		s0.2,0.3,0.3,0.5s0.2,0.4,0.3,0.6c-0.1-0.3,0.1,0.3,0.2,0.4c0.8,2.3,1.4,4.8,1.6,7.2c0.4,2,0.4,4,0.2,6c0-0.2,0.1-0.3,0-0.1
		s0.4-0.4,0.5-0.5c0.3-0.1,0.4-0.1,0,0l-0.8,0.1l-0.5,0.1c-0.1,0-0.3,0,0,0s-0.1,0-0.2,0c-2.2,0.2-4.4,0.3-6.6,0.3
		c-2.6,0.1-5.3,0.1-7.9,0.1c-1,0-1.9,0-2.9,0c-0.3,0-0.6,0-0.9,0c-0.1,0-0.2,0-0.3,0c0.3,0,0.7,0.1,1,0.2l1.1,0.7
		c0,0,0.5,0.6,0.5,0.8c0,0,0-0.1,0-0.1c0-0.2-0.1-0.4-0.1-0.6c0-0.1,0-0.2,0-0.3c0-0.3,0,0.4,0,0s-0.1-0.6-0.1-1
		c-0.2-1.7-0.2-3.4-0.3-5.1c-0.2-3.6-0.3-7.1-0.4-10.7l-0.1-2.5c-0.2-1.2-1.1-2.2-2.3-2.4c-0.9-0.2-2.5,0.1-2.5,1.3
		c0.1,5.5,0.3,11,0.6,16.4c0.2,2.5-0.1,6.1,3,6.8c0.9,0.1,1.8,0.2,2.7,0.2c1.5,0,3,0,4.6,0c3.6,0,7.2-0.1,10.8-0.4
		c1.3,0,2.6-0.2,3.9-0.4c1.1-0.1,2-0.9,2.2-2c0.2-1.3,0.2-2.7,0-4.1c-0.2-2.1-0.4-4.1-0.9-6.1c-0.7-3.4-1.6-7.2-5-8.9
		c-3.6-1.7-8.1-2-12-2.4c-2.7-0.3-5.4-0.5-8.2-0.5c-1.1,0-2.1,0.7-1.8,1.9C358.6,318.8,359.6,319.5,360.8,319.6z" fill="#FFFFFF"></path><path class="st0" d="M365.7,334.9c0.3-0.5,0.7-1,1.1-1.5l0.1-0.2l0.1-0.2l0.6-0.6c0.8-0.9,1.7-1.7,2.6-2.6c1.9-1.7,3.5-3.6,4.8-5.8
		c0.6-1.2,0.2-2.6-0.9-3.3c-0.9-0.6-2.4-0.8-3.1,0.3c-0.3,0.5-0.6,1-1,1.5c-0.2,0.2-0.3,0.4-0.5,0.7l-0.3,0.3c-0.2,0.2,0.3-0.3,0,0
		c-0.8,0.9-1.7,1.8-2.5,2.6c-1.9,1.7-3.5,3.6-5,5.6c-0.6,1.2-0.2,2.6,0.9,3.3C363.6,336,364.9,335.9,365.7,334.9
		C365.7,334.9,365.7,334.9,365.7,334.9L365.7,334.9z" fill="#3560ba"></path><path class="st0" d="M376.4,334.6c0.5-0.5,1-1,1.5-1.5l-0.2,0.1c0.7-0.6,1.4-1.1,2.1-1.6c0.1,0,0.2-0.1,0.2-0.2
		c0-0.1,0-0.3-0.2-0.4c-0.1-0.2-0.3-0.3-0.5-0.5c-0.2-0.2-0.5-0.3-0.7-0.5c-0.6-0.3-1.2-0.6-1.8-0.7l-0.5-0.1
		c-0.2-0.1-0.5-0.1-0.7,0c-1.4,0.9-2.7,2-3.8,3.2c-0.2,0.2,0.4,0.7,0.5,0.8c0.5,0.4,1,0.7,1.5,0.9c0.5,0.3,1.1,0.4,1.7,0.5
		C375.9,334.7,376.2,334.8,376.4,334.6L376.4,334.6z" fill="#3560ba"></path></g><g id="cloud"><path class="st3" d="M89.3,155.5c0,0-8-10.1-19.5-6.9c-2.6,0.7-4.9,2.3-6.4,4.6c-4.8,6.9,0.8,16,9.5,16l99.2-0.2
		c7.2,0,10.4-8.7,4.6-12.7c-6.8-4.8-15.7-0.8-15.7-0.8s15.5-20.9-2.8-42.5s-45-0.9-42.2,21.6C116.1,134.5,86.9,117.9,89.3,155.5z"></path><path class="st0" d="M88.7,153.8c-4.4-5.5-11.9-9.1-19-7.7c-5,1-9.4,5.2-9.3,10.6c0.2,2.5,0.9,5,2.3,7.1c1.2,2.3,2.9,4.2,5.1,5.7
		c3.2,2,6.7,1.8,10.2,1.8h14.2l43.5-0.1l34.3-0.1c3.5,0,7.2,0.2,9.6-3.1c2.9-4,0.6-9.4-2.4-12.6c-3.6-3.8-9.4-4.3-14.2-3.1
		c-1.1,0.2-2.2,0.6-3.2,1l2.4,4.4c1.8-2.6,3.2-5.3,4.1-8.3c2.3-6.5,2.6-13.5,0.9-20.1c-1.3-4.6-3.3-8.9-5.9-12.9
		c-2.4-3.9-5.5-7.3-9.1-10.2c-5.3-4.1-12.3-5.4-18.7-3.6c-6.2,2-11.5,6.3-14.8,11.9c-1.7,2.8-2.9,6-3.6,9.2
		c-0.4,1.7-0.5,3.4-0.6,5.1c0,0.4,0.1,3.6,0.4,3.5c-0.2,0.1-1.3-0.7-1.5-0.7c-1-0.5-2.1-0.9-3.1-1.3c-2.9-1.1-6-1.7-9.1-1.6
		c-3.4,0-6.7,1.5-8.9,4c-3.5,4-4.3,9.7-4.5,14.8c-0.1,2,0,4,0.1,6c0.2,1,0.6,2,1.2,2.8c0.1,0.2,1.3,1.7,1.3,1.3
		c-0.5-7.8-0.4-19.5,8-23.3c4.8-2.2,10.4-1,15,0.9c1.2,0.5,2.4,1,3.6,1.6c0.1,0.1,0.2,0,0.2-0.1c-1.7-14,8.7-29.7,23.6-30.5
		c8.6-0.4,15.9,5.1,20.5,12s5.4,15.4,3.6,23.2c-0.9,4.3-2.7,8.4-5.2,12.1c-0.4,0.6,1.9,4.6,2.4,4.4c3.1-1.3,6.4-1.8,9.8-1.5
		c1.3,0.2,2.6,0.5,3.8,1c0.6,0.3,1.2,0.6,1.7,0.9c0.4,0.3,0.9,1,1.4,1.1c-0.7-0.3-0.6-1.7-0.4-0.4c0,0.4,0,0.8,0,1.2
		c-0.1,1-0.3,1.9-0.8,2.7c-1.4,2.5-4.1,4-6.9,3.9h-2.4l-30.4,0.1l-42,0.1c-8,0-16,0.1-24,0.1c-2.8,0.1-5.5-0.9-7.7-2.7
		c-0.3-0.3-0.6-0.7-1-1c-0.9-0.8,0.4,0.4,0,0.2s-0.5-2.2-0.5-2.7c0-2.3,0.8-4.6,2.4-6.3c6.2-7.5,17.5-4.3,23.5,1.6
		c0.3,0.3,0.6,0.6,0.9,0.9c-0.3-0.4,0,0.1,0.1,0.2c0.5,0.7,0.8,0.5,0.5-0.3C89.9,155.8,89.4,154.7,88.7,153.8z"></path><path class="st3" d="M320,107.7c0,0,42.8,0.3,47.1-0.6s9.4-8.2,4.6-16.6s-12-6-12-6s0.6-11.9-14.3-11.2s-14.3,14.2-14.3,14.2
		s-11.2,0.5-9.9,9.2c0,0-5.2-1.8-8,4.6S320,107.7,320,107.7z"></path><path class="st0" d="M321.8,108.2c9.7,0.1,19.3,0.1,29,0c5.4,0,10.8,0,16.2-0.4c1.9,0,3.7-0.5,5.2-1.6c3.3-2.8,4.7-7.3,3.6-11.4
		c-1.2-4.8-4.6-9-9.5-10.3c-2.7-0.7-6.2-1.2-8.9-0.3l4.9,0.7c0.2-5.2-3.5-9.4-8.3-10.8c-8.3-2.6-20.4-2.1-24.2,7.2
		c-0.8,1.9-1.2,3.9-1.1,5.9l0.8-0.1c-2.1,0.1-4.1,0.5-6,1.3c-3.2,1.2-5.2,4.6-4.6,8l4.6,0.4c-3.9-1.3-8.9-1.5-11.6,2.2
		c-1.2,1.7-2.4,4.3-0.9,6.2c1.1,1.5,3.2,2,4.9,2.4C317.8,107.9,319.8,108.1,321.8,108.2c0.9,0,0.9-0.3,0.1-0.5
		c-1.1-0.3-2.3-0.5-3.5-0.5c-0.3,0,0.6,0,0.2,0c-0.7,0,0.4,0-0.2,0s0.6,0.1,0.1,0c0.8,0.1,0.2,0,0,0c0.4,0.1,0.1,0-0.1,0
		c-1.5-0.5-2.9-1.5-3-3.2c-0.2-2.3,1.6-5.1,3.5-6.3c0.8-0.5,1.6-0.8,2.5-0.9c0,0,0.3,0.1-0.1,0s-1.1-0.1-1.6-0.2
		c0.1,0-0.4-0.1-0.4-0.1c0.4,0.1,4.7,0.8,4.6,0.4c-0.6-3.3,1.2-6.5,4.3-7.8c1.1-0.5,2.3-0.9,3.5-1.1c0.4-0.1,0.8-0.1,1.2-0.2
		c0.2,0,1-0.1,0.2,0c0,0,0.8,0,0.8-0.2c-0.1-4.4,1.8-8.6,5.2-11.3c1.6-1.1,3.4-1.9,5.3-2.3c1.9-0.5,3.8-0.6,5.7-0.2
		c2.9,0.8,5.3,2.9,6.5,5.7c0.6,1.4,0.9,3,0.9,4.6c0,0.7,4.4,0.9,4.9,0.7c0.4-0.1,0.8-0.2,1.3-0.2c0.2,0,0.3,0,0.5,0
		c0,0-0.5-0.1-0.8-0.1s-0.1,0,0.1,0.1c0.4,0.2,0.8,0.3,1.2,0.5c4,2.2,6.6,7,6.8,11.5c0.1,3.7-1.6,7.9-5,9.6c-0.6,0.4-1.3,0.6-2,0.6
		c-0.7,0.1-1.4,0.1-2.1,0.2c-10.8,0.6-22.4,0.4-33.5,0.4c-3.4,0-6.8,0-10.2-0.1c-0.9,0-0.9,0.2-0.1,0.5
		C319.4,108.1,320.6,108.2,321.8,108.2z"></path><path class="st3" d="M354.1,88.2c0,0,3.2-6.6,12.2-2.9"></path><path class="st0" d="M356.5,88.8l0.1-0.2C356.7,88.4,356.5,88.8,356.5,88.8c0.2-0.2,0.2-0.3,0.2-0.3c0.5-0.8,1.2-1.5,2-2
		c0.1-0.1,0.3-0.2,0,0l0.3-0.2c0.2-0.1,0.4-0.2,0.6-0.3c0.2-0.1,0.4-0.2,0.6-0.2l0.3-0.1c0.2-0.1-0.1,0-0.2,0l0.2-0.1
		c0.3-0.1,0.5-0.1,0.8-0.2h0.2c0.2,0,0,0,0,0s-0.2,0,0,0h0.8c0.5,0-0.3,0,0.1,0s0.7,0.1,1.1,0.2c-0.1,0-0.6-0.1-0.1,0l0.3,0.1
		l0.6,0.2c0.3,0.1-0.2-0.1-0.2-0.1c0.1,0,0.3,0.1,0.4,0.1c0.3,0.1,0.5,0.2,0.8,0.3c0.8,0.3,2.5,0.8,3.2,0s-0.9-1.6-1.4-1.8
		c-4.8-1.9-11.4-2.6-14.9,2.1c-0.3,0.3-0.5,0.7-0.7,1.1c-0.2,0.3,0.3,0.8,0.5,1c0.5,0.4,1,0.6,1.6,0.8c0.8,0.2,2.3,0.4,2.7-0.5
		L356.5,88.8z"></path><path class="st3" d="M381.8,199.4c0,0,5.1-7,12.4-4.8c3.9,1.2,6,5.3,4.8,9.2c-0.9,3-3.7,5-6.8,5.1l-63-0.1
		c-2.8-0.1-4.9-2.5-4.7-5.3c0.1-1.4,0.7-2.7,1.8-3.6c4.4-3.3,10-0.5,10-0.5s-9.8-14.6,1.8-29.6s28.6-0.6,26.8,15
		C364.8,184.8,383.4,173.2,381.8,199.4z"></path><path class="st0" d="M383.1,201.5c2.3-3.1,6.3-5.6,10.3-5.2c0.9,0.1,1.8,0.3,2.7,0.7c0.8,0.4,1.5,0.9,2.2,1.5
		c0.1,0.1,0.4,0.7-0.1-0.3s-0.2-0.4-0.2-0.2c0,0.4,0.1,0.7,0.2,1.1c0,0.7,0,1.5-0.2,2.2c-0.7,2.8-3,4.8-5.8,5.3
		c-1.4,0.1-2.9,0.2-4.3,0.1h-9h-26.2h-21.4c-1.5,0.1-2.9,0.1-4.4-0.2c-0.6-0.2-1.1-0.5-1.6-0.9c-0.7-0.4,0.9,1,0.6,1.2
		c0,0-0.1-0.7-0.1-0.9c0-1.2,0.4-2.5,1.3-3.3c2.2-2.3,5.7-2.5,8.6-1.7c0.6,0.2,1.2,0.4,1.8,0.6c0.4,0.2,0-1,0-1
		c-0.4-0.9-0.8-1.7-1.3-2.4c0.8,1.2-0.1-0.6,0.3,0.5c-0.1-0.2-0.2-0.4-0.3-0.6c0.4,0.8-0.1-0.2-0.2-0.4c-0.3-0.5,0.2,0.5-0.1-0.1
		l-0.2-0.6c-0.2-0.4-0.1-0.4-0.3-0.8c-0.3-0.9-0.6-1.9-0.9-2.8c-1.3-5.3-0.7-10.8,1.5-15.8c2.2-5,6.2-10.2,11.8-11.6
		c4.3-0.9,8.7,0.3,11.8,3.4c3.7,3.4,4.7,8.3,4.2,13.3c-0.1,0.6,1.9,4.6,2.5,4.2c1.7-1.1,3.6-1.8,5.6-2.2c1.6-0.4,3.3-0.4,4.8,0
		c0.8,0.2,1.6,0.6,2.3,1.1c0.3,0.2,0.6,0.5,0.8,0.7c-0.1-0.1,0.2,0.3,0.2,0.2s0-0.2,0,0c0,0-0.3-0.5,0-0.1c0,0-0.5-0.7-0.2-0.3
		c0-0.1-0.2-0.4,0,0c-0.1-0.2,0.1,0.4,0.1,0.3c0.1,0.3,0.2,0.6,0.3,1c0.2,0.9,0.4,1.8,0.5,2.6c0.2,2.3,0.3,4.7,0.1,7
		c0,0.9,0.8,2.1,1.2,2.8c0.1,0.2,1.3,1.7,1.3,1.3c0.2-4,0.1-8.2-1.3-12.1c-1.1-2.9-2.8-6.3-5.5-8c-3-2-7-1.2-10.2,0.1
		c-0.9,0.4-1.7,0.8-2.5,1.3l2.5,4.2c0.7-6.2-1.6-12.3-5.1-17.4c-2.9-4.2-7.1-7.8-12.3-8.1c-6.4-0.4-11.3,4.7-14.2,9.8
		c-3.1,5.5-4.1,12-2.7,18.1c0.9,4.1,2.5,7.9,4.8,11.4l-1.4-3.4c-4.2-2-12.5-1.4-12.1,4.9c0.2,1.8,0.9,3.5,1.9,5
		c0.7,1.4,1.8,2.5,3.1,3.3c0.9,0.4,1.9,0.6,2.8,0.5h19.2L379,211h10.5c1.6,0.1,3.2,0.1,4.8-0.1c3-0.5,5.4-2.7,6.1-5.6
		c0.9-3.6-1.2-7.5-3.4-10.2c-4.3-5.2-11.4-3.3-15.5,1c-0.3,0.3-0.6,0.6-0.9,1c-0.4,0.5,0.6,2,0.9,2.4
		C381.5,199.7,382.9,201.8,383.1,201.5z"></path></g></svg>