<svg transform="scale(1)" version="1.1" id="FvdMZMlj7a" xmlns="http://www.w3.org/2000/svg" xmlns:xlink="http://www.w3.org/1999/xlink" x="0px" y="0px" viewBox="0 0 500 500" xml:space="preserve" class="pbimage_pbimage__wrapper__image__0LEis false"><title>Store Open 2</title><style type="text/css"> .st0{fill:#FFFFFF;} .st1{fill:#59BE4C;} .st2{fill:#000005;}
 .st2{fill:#000005;}
 .st1{fill:#3560ba;}
 .st0{fill:#FFFFFF;}</style><g id="store"><rect class="st0" x="194.9" y="90.2" width="244.2" height="261.2" fill="#FFFFFF"></rect><path class="st1" d="M439.6,88.1H205.2c-3.1,0-6.3,0-9.5,0h-0.4c-1.5-0.1-2.8,1-2.9,2.5c0,0,0,0,0,0v250.6c0,3.4-0.1,6.8,0,10.2
		c0,0.1,0,0.3,0,0.4c0.1,1,1,1.7,2,1.7h234.3c3.1,0,6.3,0,9.5,0h0.4c1.5,0.1,2.8-1,2.9-2.5c0,0,0,0,0,0V100.4c0-3.4,0.1-6.8,0-10.2
		c0-0.2,0-0.3,0-0.4c0-2.8-4.9-1.8-4.9,0.9v250.6c0,3.4-0.1,6.8,0,10.2c0,0.1,0,0.3,0,0.4l2.9-2.6H205.2c-3.1,0-6.3-0.2-9.5,0h-0.4
		l2,1.7V100.4c0-3.4,0.1-6.8,0-10.2c0-0.2,0-0.3,0-0.4l-2.9,2.6h234.3c3.1,0,6.3,0,9.5,0h0.4c1.3,0.1,2.5-0.8,2.9-2
		c0.2-1-0.5-2-1.5-2.2C439.8,88.1,439.7,88.1,439.6,88.1z" fill="#3560ba"></path><path class="st1" d="M196.8,144.1h4l-0.9-0.3v15.8l3.9-1.8h-4c-1.2,0-2.4,0.3-3.4,1c-0.7,0.5-0.6,1.1,0.4,1.1h4
		c0.9,0,1.8-0.2,2.7-0.6c0.5-0.2,1.2-0.6,1.2-1.2v-15.8c0-0.3-0.8-0.4-0.9-0.4h-4c-1.2,0-2.4,0.3-3.4,1
		C195.8,143.5,195.9,144.1,196.8,144.1L196.8,144.1z" fill="#3560ba"></path><path class="st1" d="M241.2,156.6h-31.9l2.8,3.6v-15.8l-0.3,0.6h31.9l-2.8-3.6v15.8c0,1,1.1,2.3,1.8,2.9c0.4,0.4,1.4,1.1,1.4,0.1
		v-15.8c0-1-1.6-3.6-2.8-3.6h-31.9c-0.4,0-0.3,0.3-0.3,0.6v15.8c0,1,1.6,3.6,2.8,3.6h31.9c0.9,0-0.1-1.7-0.2-2
		C243,158.2,242.1,156.6,241.2,156.6z" fill="#3560ba"></path><path class="st1" d="M233.4,295.6h-31.9l3.4,1.9v-15.8l-1.4,0.8h31.9l-3.4-1.9v15.8c0,1.8,4.9,2.6,4.9,1.1v-15.8
		c0-1.5-2.3-1.9-3.4-1.9h-31.9c-0.4,0-1.4,0.2-1.4,0.8v15.8c0,1.5,2.3,1.9,3.4,1.9h31.9c0.8,0,1.8-0.5,1.2-1.5
		S234.4,295.6,233.4,295.6z" fill="#3560ba"></path><path class="st1" d="M203.1,306.9h11.2l-3.1-1.2v15.8l1.9-0.8h-11.2c-0.5,0-2.2,0.2-1.8,1s2.3,0.9,3,0.9h11.2
		c0.4,0,1.9-0.1,1.9-0.8v-15.8c0-1.1-2.5-1.2-3.1-1.2h-11.2c-0.5,0-2.2,0.2-1.8,1S202.4,306.8,203.1,306.9L203.1,306.9z" fill="#3560ba"></path><path class="st1" d="M254.8,319.7h-31.9l1.3,1.1v-15.8l-3.3,2.6h31.9l-1.3-1.1v15.8c0,2.3,4.6,0.6,4.6-1.5v-15.8
		c0-0.6-0.7-1.1-1.3-1.1h-31.9c-1.4,0-3.3,0.9-3.3,2.6v15.8c0,0.6,0.7,1.1,1.3,1.1h31.9c1.3,0,2.4-0.6,3.1-1.7
		c0.4-0.6,0.2-1.4-0.3-1.8C255.3,319.8,255,319.7,254.8,319.7z" fill="#3560ba"></path><path class="st1" d="M380.1,276.8h7l-2.6-3v15.8l1.8-1.8h-7c-1.1,0.1-1.9,1-1.8,2.1c0,0.1,0,0.2,0,0.2c0.2,1.3,1.3,2.3,2.6,2.4h7
		c1,0,1.8-0.8,1.8-1.8V275c0.1-1.6-1.1-2.9-2.6-3h-7c-1.1,0.1-1.9,1-1.8,2.1c0,0.1,0,0.2,0,0.3C377.8,275.7,378.8,276.7,380.1,276.8
		L380.1,276.8z" fill="#3560ba"></path><path class="st1" d="M426.4,287.7h-31.9l2.4,3.1V275l-1.6,1.5h31.9l-2.4-3.1v15.8c0,1.3,0.7,2.5,1.9,3c0.7,0.4,1.6,0.1,2-0.7
		c0.1-0.2,0.2-0.4,0.1-0.7V275c0-1.2-1-3.1-2.4-3.1h-31.9c-0.8-0.1-1.5,0.5-1.6,1.3c0,0.1,0,0.1,0,0.2v15.8c0,1.2,1,3.1,2.4,3.1
		h31.9C430,292.3,428.6,287.7,426.4,287.7z" fill="#3560ba"></path><path class="st1" d="M414.1,159.9h-31.9l0.5,0.5v-15.8l-4.1,2h31.9l-0.5-0.5v15.8c0,1.2,4.6-0.3,4.6-1.5v-15.9
		c0-0.2-0.1-0.4-0.3-0.5c0,0-0.1,0-0.1,0h-31.9c-0.9,0-1.7,0.2-2.4,0.6c-0.4,0.2-1.7,0.8-1.7,1.4v15.8c0,0.2,0.1,0.4,0.3,0.5
		c0,0,0.1,0,0.1,0h31.9c1.2,0,2.3-0.4,3.3-1.1C414,161.1,415.2,159.9,414.1,159.9z" fill="#3560ba"></path><path class="st1" d="M423.9,212.4H408l3.8,3.3v-15.2c0-0.1-0.1-0.5,0-0.6s1,0,1.2,0h14.7c0.1,0-0.5-0.7-0.4-0.6
		c-0.4-0.4-0.8-0.9-1.3-1.3c-0.4-0.4-0.9-0.8-1.4-1.1c-0.2-0.2-0.4-0.3-0.7-0.3h-15.3c-0.1,0-0.5-0.1-0.6,0s0,1,0,1.2v14.6
		c0,0.2,0.3,0.5,0.4,0.6c0.4,0.4,0.8,0.8,1.3,1.2c0.4,0.4,0.9,0.8,1.4,1.1c0.2,0.2,0.4,0.3,0.7,0.3h15.9c0.1,0-0.5-0.7-0.4-0.6
		c-0.4-0.4-0.8-0.8-1.3-1.2c-0.5-0.4-0.9-0.8-1.4-1.1C424.4,212.6,424.2,212.5,423.9,212.4L423.9,212.4z" fill="#3560ba"></path><polygon class="st1" points="452.9,95.2 183.5,93 203,46.9 424.7,48.9 	" fill="#3560ba"></polygon><path class="st1" d="M451.3,93.4H444l-19.5-0.2L395.4,93l-35.2-0.3l-38.9-0.3l-39-0.3l-36.6-0.3L215,91.5l-22.2-0.2
		c-3.5,0-7-0.2-10.5-0.1h-0.5l3.4,3.5l10.6-25.1l6.8-16l1.9-4.4c0.1-0.3,0.2-0.5,0.3-0.7c0,0-0.3,0.1,0,0c0.4,0,0.7,0,1.1,0h2.2
		l7.3,0.1l24.5,0.2l34.1,0.3l38.9,0.4l39.2,0.4l34.9,0.4l26,0.2l12.7,0.1h0.5l-3.2-2.8l9.5,15.6l15.2,25l3.5,5.7
		c0.6,1,1.5,1.8,2.5,2.5c0.7,0.4,1,0.3,0.5-0.5l-14-23.1l-9.7-15.9c-1.5-2.5-2.9-5-4.5-7.4s-2.7-2.8-5-2.8l-6.3,0l-23.4-0.2
		l-33.8-0.3l-39.4-0.4l-40-0.4l-36-0.3l-27.1-0.2L202,45.1h-0.6h-0.2l-6.6,15.5l-10.6,25l-2.4,5.7c-0.4,0.9,2.6,3.5,3.4,3.5l7.2,0.1
		l19.5,0.2l29.1,0.2l35.2,0.3l38.9,0.3l39,0.3l36.6,0.3l30.7,0.2l22.2,0.2c3.5,0,7,0.2,10.5,0.1h0.5c0.7,0-0.7-1.6-0.8-1.7
		C453.2,94.8,452.1,93.4,451.3,93.4z" fill="#3560ba"></path><path class="st1" d="M220.6,136L220.6,136c-18.3,0-33.2-14.8-33.2-33.2c0,0,0,0,0,0v-7.6h66.4v7.6C253.8,121.1,238.9,136,220.6,136
		C220.6,136,220.6,136,220.6,136z" fill="#3560ba"></path><path class="st1" d="M220.5,133.9c-8.2,0-16.1-3.3-21.9-9.2c-5.6-5.9-8.8-13.7-8.8-21.8c0-2.5,0-5,0-7.5l-2.4,2h66.4l-2.5-2.3
		c0,6,0.3,11.8-1.6,17.6c-2.6,7.8-8.3,14.3-15.6,18C229.8,132.8,225.2,133.9,220.5,133.9c-1.1,0.1-2.4,0.7-2.4,2.1
		c0.2,1.3,1.2,2.2,2.5,2.3c9.4,0,18.5-3.6,25.2-10.2c6.6-6.6,10.4-15.6,10.4-24.9c0-2.5,0-5,0-7.6c-0.2-1.3-1.2-2.2-2.5-2.3h-66.4
		c-1.2,0-2.4,0.6-2.4,2c0,6.7-0.2,13.4,2.2,19.8c3.3,8.6,9.8,15.7,18.1,19.7c4.8,2.3,10.1,3.5,15.4,3.5c1.2,0,2.4-0.6,2.4-2
		C222.9,134.9,221.8,133.9,220.5,133.9z" fill="#3560ba"></path><path class="st1" d="M286.9,136L286.9,136c-18.3,0-33.2-14.9-33.2-33.2v0v-7.6h66.4v7.6C320.2,121.1,305.3,136,286.9,136
		C287,136,287,136,286.9,136z" fill="#3560ba"></path><path class="st1" d="M286.7,134.2c-8.2,0-16-3.3-21.7-9.2c-5.7-6-8.9-13.9-8.8-22.2c0-2.5,0-5,0-7.5L254,97h66.4l-2.7-1.9
		c0,6,0.2,11.9-1.7,17.7c-2.7,7.9-8.3,14.4-15.7,18.2C296.1,133,291.5,134.2,286.7,134.2c-1,0-2.3,0.4-2.2,1.6s1.7,1.9,2.7,1.9
		c9.4,0,18.5-3.6,25.2-10.2c6.5-6.5,10.2-15.4,10.2-24.6c0-2.5,0-5,0-7.6c0-1.1-1.8-1.9-2.7-1.9h-66.4c-1.1,0-2.2,0.3-2.2,1.6v7.3
		c0,4.2,0.8,8.4,2.3,12.4c3.3,8.6,9.8,15.6,18.2,19.5c4.8,2.3,10.1,3.5,15.4,3.5c1,0,2.3-0.4,2.2-1.6S287.7,134.2,286.7,134.2z" fill="#3560ba"></path><path class="st1" d="M353.3,136L353.3,136c-18.3,0-33.2-14.9-33.2-33.2v0v-7.6h66.4v7.6C386.5,121.1,371.7,136,353.3,136
		C353.4,136,353.3,136,353.3,136z" fill="#3560ba"></path><path class="st1" d="M352.4,133.7c-8.3,0.1-16.4-3.2-22.4-9c-5.4-5.4-8.4-12.8-8.4-20.4c0-2.5,0-5,0-7.5l-0.6,0.6h66.4l-2.5-3.9
		c0,6.2,0.3,12.3-1.8,18.3C378.6,125,366.2,133.7,352.4,133.7c-1.5,0,0.4,4.5,1.9,4.5c9,0,17.6-3.6,24-10c6.2-6.4,9.7-14.9,9.8-23.8
		c0-2.5,0-5,0-7.5c0-0.9-0.3-1.7-0.8-2.4c-0.3-0.5-1-1.4-1.6-1.4h-66.4c-0.3,0-0.6,0.3-0.6,0.6c0,0,0,0,0,0v7.3
		c0,4.5,0.8,8.9,2.4,13.1c3.3,8.9,9.8,16.3,18.3,20.6c4.7,2.3,9.8,3.5,15.1,3.5C355.7,138.2,353.9,133.7,352.4,133.7z" fill="#3560ba"></path><path class="st1" d="M419.7,136L419.7,136c-18.3,0-33.2-14.9-33.2-33.2v0v-7.6h66.4v7.6C452.9,121.1,438.1,136,419.7,136
		C419.7,136,419.7,136,419.7,136z" fill="#3560ba"></path><path class="st1" d="M418.3,134.7c-7.9,0-15.4-3.4-20.7-9.2c-5.6-6.1-8.7-14.1-8.7-22.3c0-2.5,0-5,0-7.4l-0.9,0.7h66.4l-3.8-1.8
		c0,6.1,0.2,12.1-1.8,18c-2.8,8.1-8.6,14.8-16.2,18.7C428.1,133.5,423.2,134.7,418.3,134.7c-1,0-1.1,0.6-0.5,1.3
		c0.9,0.8,2.1,1.2,3.3,1.2c9.1,0,17.9-3.6,24.3-10c6.3-6.4,9.8-14.9,9.8-23.8v-7.5c0-0.5-1.1-1.1-1.4-1.2c-0.7-0.4-1.6-0.6-2.4-0.6
		h-66.4c-0.5,0-0.9,0.1-0.9,0.7v7.3c0,4.2,0.8,8.4,2.3,12.4c3.5,8.6,10.2,15.5,18.6,19.3c5,2.3,10.5,3.5,16,3.5c1,0,1.1-0.7,0.5-1.3
		C420.6,135.2,419.5,134.7,418.3,134.7z" fill="#3560ba"></path><path class="st0" d="M185.7,96.7h265.5c1.2,0,2.3-0.5,3.2-1.3c0.4-0.3,1.4-1.6,0.2-1.6H199.8c-3.4,0-6.9,0-10.3,0h-0.4
		c-1.2,0-2.3,0.5-3.2,1.3C185.5,95.4,184.5,96.7,185.7,96.7L185.7,96.7z" fill="#FFFFFF"></path><path class="st0" d="M317.9,45.9l0,16.5l-0.1,26.2v6c0.1,1.2,1,2.2,2.2,2.5c0.8,0.2,2.5,0.2,2.5-1l0-16.5l0.1-26.2v-6
		c-0.2-1.2-1-2.2-2.2-2.4C319.6,44.7,317.9,44.7,317.9,45.9L317.9,45.9z" fill="#FFFFFF"></path><path class="st0" d="M255.9,96.4l3.5-16.4l5.5-26.2l1.3-6.1c0.4-1.9-3.8-4.5-4.3-2.4l-3.5,16.4L252.9,88l-1.3,6
		C251.2,95.9,255.4,98.6,255.9,96.4L255.9,96.4z" fill="#FFFFFF"></path><path class="st0" d="M385.3,95.4l-2.6-16.1l-4.1-25.5l-1-5.9c-0.2-1.2-1-2.2-2.1-2.7c-1.1-0.3-1.4,0.9-1.2,1.7l2.6,16.1l4.1,25.5
		l0.9,5.9c0.2,1.2,1,2.2,2.1,2.7C385.1,97.4,385.4,96.3,385.3,95.4L385.3,95.4z" fill="#FFFFFF"></path><path class="st2" d="M302,222.2l-3.9-6.6c0,0-3.1-9-2.3-10.4c1-2,4.3-3.6,9-3c4.5,0.6,9.4,5,11,14.3c0.4,1.9,0.1,3.9-0.7,5.6
		C313.7,225.2,310.3,228.2,302,222.2z" fill="#000005"></path><path class="st2" d="M303.6,222.2l-2.2-3.7c-0.7-1-1.2-2-1.8-3c-0.6-1.5-1-3-1.4-4.5c-0.3-1-0.5-2-0.7-3c-0.1-0.4-0.1-0.9-0.2-1.3
		c0-0.2,0-0.3,0-0.2c0-0.1,0-0.3,0.1-0.4c-0.1,0.4,0.1,0,0.2-0.2c0.1-0.2,0.2-0.3,0.4-0.5c0.4-0.4,0.8-0.7,1.4-1
		c1.3-0.6,2.7-0.9,4.1-0.9c0.7,0,1.4,0,2.1,0.2c0.4,0,0.7,0.1,1.1,0.3c0.8,0.3,1.5,0.7,2.1,1.2c1.9,1.6,3.3,3.7,4.1,6
		c1.2,3.1,2.3,6.9,0.8,10.1c-0.5,1.4-1.7,2.5-3.2,2.9c-0.9,0.1-1.9,0-2.8-0.3c-1.7-0.6-3.4-1.5-4.9-2.7c-0.6-0.4-1.8-0.6-2.3,0.1
		s0.4,1.7,0.9,2.1c4,2.8,10.8,6.2,14.6,1.3c2-2.7,2-6.2,1.3-9.4c-0.7-3.3-2.1-6.4-4.2-9.1c-3.7-4.7-10.4-7.1-16-4.3
		c-1.2,0.5-2.2,1.4-2.8,2.4c-0.3,0.8-0.4,1.7-0.2,2.5c0.4,2.4,1,4.7,1.8,7c0.4,1.2,0.9,2.4,1.5,3.5l3,5.1c0.4,0.8,1.3,1.4,2.2,1.4
		c0.5,0.1,1-0.3,1.1-0.9C303.7,222.6,303.7,222.4,303.6,222.2z" fill="#000005"></path><path class="st0" d="M301.6,213.4L301.6,213.4c-2.8-1.4-4.8-4-5.6-7l-0.3-1.1c-1.3,2.3-2.1,4.1-2.9,5.4c0,0-6.6,1.1-1.2,4.4
		c-0.9,2.9,0.5,6.1,3.2,7.5c2.5,1.4,2.6,1.9,2.2,2.8c-0.3,2.5-0.6,5-0.6,7.5c0,0-0.4-3.4,3.6-3.5c4.5-0.1,5.2,0.9,5.2,0.9
		s-0.3-0.1-0.5-0.9l-1.2-7.5c0,0-4.3,0.2-1.8-8.3" fill="#FFFFFF"></path><path class="st2" d="M300.9,212.2c-2.5-1.2-3.2-3.5-3.8-6c-0.1-0.4-2.3-2.9-2.6-2.3c-0.6,1.1-1.2,2.2-1.7,3.3l-0.7,1.4
		c-0.1,0.1-0.2,0.7-0.3,0.7c-0.3,0.1-0.6,0.2-0.8,0.2c-0.5,0.1-0.9,0.3-1.4,0.5c-3.4,1.7,1.3,5.2,2.9,6.2l-2-2.4
		c-1.5,4.3,2.3,8.1,5.6,10.1c0.2,0.2,0.4,0.3,0.7,0.4c-0.7-1-0.9-1.3-0.8-1c0,0,0,0.1,0,0.1c-0.1,0.2-0.1,0.5-0.2,0.7
		c-0.2,0.8-0.3,1.7-0.3,2.6c-0.1,1.6-0.2,3.1-0.3,4.7l2.7,2.4c-0.1-1.4,0.8-2.7,2.2-3.1c1.5-0.3,3.1-0.3,4.6,0
		c0.4,0.1,0.7,0.2,1.1,0.3c0.1,0,0.1,0,0.1,0c-0.4-0.4-0.7-0.7-1.1-1l-0.2-1.3c2,0.7,2,2.6,1.8,1.2c-0.1-0.3-0.1-0.6-0.2-1l-0.4-2.6
		c-0.2-1.2-0.4-2.4-0.6-3.6c-0.1-0.9-1.6-2.6-2.5-2.6c-0.2,0-0.4,0-0.3,0s-0.2-0.1-0.2-0.1s0,0,0,0s0.9,0.8,0.9,0.8
		s-0.2-0.6-0.2-0.7c-0.1-0.5-0.1-1-0.1-1.4c0.1-1.5,0.3-2.9,0.8-4.3c0.2-0.8-2.6-3-2.7-2.4c-0.9,2.9-1.4,6.1,0.7,8.6
		c0.8,1,2.2,2.3,3.6,2.3l-2.5-2.6c0.3,1.8,0.6,3.6,0.9,5.4c0.4,2.2,0.7,4.8,3.2,5.6c1,0.3-0.1-1.2-0.2-1.3c-1.7-2.1-4.6-2.4-7.1-2.3
		c-2.1,0.1-4.1,1.3-3.8,3.6c0.2,0.8,0.7,1.4,1.4,1.9c0.1,0.1,1.4,1.1,1.4,0.5c0.1-1.6,0.2-3.1,0.3-4.7c0-0.8,0.1-1.6,0.3-2.4
		c0.2-0.5,0.2-1.1,0-1.7c-0.7-1.2-1.6-2.2-2.8-2.9c-1-0.7-2-1-2.5-2.2c-0.4-1.2-0.4-2.5,0-3.8c0.3-0.7-1.6-2.1-2-2.4
		c-1.1-0.7,0.1,0.1-0.1,0.2c0,0,0-0.3,0-0.4c0.2-0.3,0.4-0.5,0.6-0.7c0.6-0.4,1.2-0.6,1.9-0.8c0.7-0.2,0.8-0.2,1.2-1
		c0.8-1.6,1.6-3.1,2.5-4.6l-2.6-2.3c1,4.4,3.8,8.2,7.9,10.4c0.6,0.3,0.8,0.1,0.5-0.5c-0.4-0.8-1.1-1.4-1.9-1.9L300.9,212.2z" fill="#000005"></path><path class="st2" d="M296,210.7c-0.4,0.1-0.6,0.4-0.5,0.8c0,0,0,0.1,0,0.1c0.3,0.7,1.1,0.4,1.1-0.3
		C296.6,211,296.4,210.7,296,210.7C296.1,210.7,296,210.7,296,210.7z" fill="#000005"></path><path class="st2" d="M317.3,257.7c0,0-8.4-31.2-15.6-33.3s-14.6,18.2-14.2,24.2S301,264.6,317.3,257.7z" fill="#000005"></path><path class="st2" d="M318.9,257.7c-1.3-4.8-2.8-9.6-4.5-14.3c-1.3-3.6-2.7-7.2-4.4-10.7c-1.4-2.9-3-6-5.4-8.2
		c-6.1-5.8-11.9,3-14.4,8c-1.8,3.7-3.2,7.5-4,11.5c-0.7,3.2-0.7,6,1.2,8.9c2.6,3.9,7.1,6.5,11.5,7.9c6.3,1.8,13,1.3,19-1.3
		c2-0.8,0.4-4.2-1.5-3.4c-8.1,3.4-19.3,3.4-25.6-3.7c-0.8-0.8-1.4-1.8-1.7-2.9c-0.1-0.4-0.2-0.8-0.1-1.2c0-0.7,0.1-1.3,0.2-1.9
		c0.6-3.5,1.7-6.9,3.2-10.1c1.3-3.1,3-6.4,5.5-8.7c0.8-0.8,1.8-1.3,2.9-1.4c0.2,0,0.3,0,0.5,0c0.5,0.1-0.1-0.1,0.3,0.1
		c0.1,0.1,0.7,0.4,0.3,0.1c0.2,0.2,0.5,0.4,0.7,0.6c0.2,0.2,0.4,0.4,0.6,0.6c-0.3-0.3,0.3,0.3,0.3,0.4c0.4,0.5,0.8,1,1.1,1.6
		c0.8,1.3,1.5,2.6,2.2,3.9c1.5,3.2,2.9,6.5,4.1,9.9c1.8,4.9,3.3,9.6,4.6,14.4c0.2,1,1,1.7,2,1.8c0.8-0.1,1.4-0.8,1.3-1.6
		C319,257.8,319,257.7,318.9,257.7z" fill="#000005"></path><ellipse class="st2" transform="matrix(0.2894 -0.9572 0.9572 0.2894 5.2977 456.2686)" cx="309.9" cy="224.6" rx="4.1" ry="4.9" fill="#000005"></ellipse><path class="st2" d="M310.4,229.2c-0.6,0-1.2-0.1-1.8-0.3c-1.3-0.4-2.4-1.2-3.2-2.3c-1.3-1.8-0.9-4.4,0.9-5.7
		c0.3-0.2,0.6-0.4,0.9-0.5c1.3-0.5,2.7-0.6,4-0.2c2.8,0.9,4.5,3.5,3.8,5.9C314.4,228.1,312.5,229.3,310.4,229.2z M309.5,220.7
		c-0.6,0-1.3,0.1-1.9,0.4c-1,0.4-1.7,1.2-2,2.1l0,0c-0.3,1-0.1,2.1,0.5,2.9c0.7,1,1.7,1.7,2.8,2c2.4,0.7,4.9-0.3,5.5-2.3
		s-0.9-4.2-3.3-4.9C310.6,220.8,310,220.7,309.5,220.7L309.5,220.7z M305.2,223.1L305.2,223.1z" fill="#000005"></path><ellipse class="st2" transform="matrix(0.2894 -0.9572 0.9572 0.2894 14.6326 459.5869)" cx="316.8" cy="219.9" rx="4.5" ry="4.8" fill="#000005"></ellipse><path class="st2" d="M317,224.8c-0.5,0-1.1-0.1-1.6-0.2c-1.3-0.4-2.4-1.2-3.1-2.4c-0.7-1.1-0.8-2.5-0.5-3.7l0,0
		c0.9-2.6,3.7-4,6.3-3.2c0,0,0,0,0,0c1.3,0.4,2.4,1.2,3.1,2.4c0.7,1.1,0.8,2.5,0.5,3.7C321.1,223.5,319.2,224.9,317,224.8z
		 M312.6,218.7c-0.3,1.1-0.2,2.2,0.4,3.1c0.6,1,1.5,1.7,2.6,2.1c2.2,0.8,4.6-0.4,5.4-2.6c0.3-1.1,0.2-2.2-0.4-3.1
		c-0.6-1-1.5-1.7-2.7-2.1C315.8,215.2,313.4,216.4,312.6,218.7L312.6,218.7z" fill="#000005"></path><ellipse class="st2" transform="matrix(0.2894 -0.9572 0.9572 0.2894 20.3576 455.8239)" cx="317.2" cy="214.2" rx="3.5" ry="3.6" fill="#000005"></ellipse><path class="st2" d="M317.2,218.1c-2.2,0-4-1.8-4-4c0-0.3,0-0.7,0.1-1c0.3-1,1-1.8,1.9-2.3c0.9-0.5,2-0.6,3-0.3
		c2.1,0.6,3.3,2.8,2.7,4.9C320.4,217,318.9,218.1,317.2,218.1z M317.1,211.1c-0.5,0-1,0.1-1.5,0.4c-0.7,0.4-1.3,1-1.5,1.9
		c-0.5,1.7,0.4,3.4,2.1,4c1.7,0.5,3.4-0.4,4-2.1c0.5-1.7-0.4-3.4-2.1-4C317.7,211.1,317.4,211.1,317.1,211.1L317.1,211.1z" fill="#000005"></path><ellipse class="st2" transform="matrix(0.7365 -0.6765 0.6765 0.7365 -59.6841 254.5114)" cx="296.8" cy="203.9" rx="3.1" ry="3.1" fill="#000005"></ellipse><path class="st2" d="M296.8,207.3c-1.9,0-3.5-1.6-3.5-3.5c0-0.3,0.1-0.7,0.1-1l0,0c0.6-1.8,2.5-2.9,4.4-2.3
		c1.8,0.6,2.9,2.5,2.3,4.4C299.7,206.3,298.3,207.3,296.8,207.3z M294.2,203.1c-0.4,1.4,0.4,3,1.8,3.4s3-0.4,3.4-1.8
		c0.4-1.4-0.4-3-1.8-3.4c0,0,0,0,0,0C296.1,200.8,294.6,201.6,294.2,203.1z" fill="#000005"></path><path class="st0" d="M336.4,200c0,0-2.3,3.8-5.5,4.3s-9.5,0.4-9.6,3.6s4.3,3.6,6.9,2.7c0,0,0.7,8.4,5.9,9.8s7.3-0.3,8.2,3
		c0,0,7,4.8,6.6-1.7c-0.1-1,0.3-13.6-7.9-16.3C340.9,205.4,336.3,204.1,336.4,200z" fill="#FFFFFF"></path><path class="st2" d="M335.3,198.5c-1.2,1.9-3.1,3.7-5.3,4.1c-2.6,0.4-5.5,0.2-8,1.4c-2.7,1.4-2.2,4.7-0.5,6.7s5,2.3,7.5,1.4l-2-2.5
		c0.3,4,2,8.8,5.3,11.2c2.4,1.7,5.4,1.6,8.1,1.9c0.3,0,0.6,0.1,0.9,0.2c0,0.1-0.2-0.8-0.3-0.4c0.1,0.5,0.3,0.9,0.5,1.2
		c0.4,0.6,1,1.1,1.7,1.4c1.4,0.8,3.2,1.7,4.8,1.3c2-0.5,1.9-2.8,1.9-4.4c0-4.1-0.9-8.2-2.6-12c-1.3-2.8-3.5-5-6.3-6.2
		c-1.6-0.6-3.5-1.1-3.5-3c-0.1-0.9-0.5-1.8-1.3-2.3c-0.6-0.4-1.1-0.2-1.1,0.6c0.2,3.4,2.3,6.3,5.4,7.6c0.9,0.3,1.8,0.7,2.6,1.1
		c1.1,0.7,1.9,1.7,2.5,2.9c1.1,2.3,1.7,4.8,1.8,7.4c0.1,1.3,0.6,4-0.5,4.9c-0.9,0.7-2.2,0.2-3.1-0.2c-0.5-0.2-0.9-0.4-1.4-0.7
		c-0.2-0.1-0.3-0.2-0.4-0.3l1.2,1.9c-0.6-2-1.7-3.9-3.9-4.3s-4.8-0.1-7-1.2c-1.4-0.9-2.3-2.3-2.7-3.9c-0.2-0.7-0.4-1.5-0.5-2.3
		c0-0.1,0,0.2,0-0.1c0-0.1,0-0.2,0-0.3v-0.3c-0.1-0.8-0.9-2.9-2-2.5c-1.1,0.4-2.2,0.5-3.3,0.4c-0.5-0.1-1-0.2-1.5-0.4
		c-0.1,0-0.2-0.1-0.2-0.1c-0.1-0.1-0.1-0.1,0,0l0.2,0.4c0-0.1,0-0.2,0-0.3c0.2-0.7,0.7-1.3,1.4-1.7c1-0.4,2.2-0.7,3.3-0.8
		c2.1-0.3,4.6-0.1,6.5-1.3c1.5-0.9,2.7-2.2,3.6-3.7C338.1,200.5,336,197.4,335.3,198.5z" fill="#000005"></path><path class="st2" d="M350.6,214.5c0,0,4.3,1.4,5.1-0.9s-2-1.9-2-1.9s3.5-4.7-0.9-5.8c0,0,3.9-3.5,1.1-7.1s-8.7-1.7-8.7-1.7
		s0.4-5.3-4.1-4.8s-3.6,3.7-3.6,3.7s-2.9,0.2-3.1,2s2,2.6,2,2.6s0.6,5.2,4.6,4.7l3.5,6.7c-0.9,1.5-0.9,3.3-0.1,4.8
		C345.6,219.4,350.6,217.9,350.6,214.5z" fill="#000005"></path><path class="st2" d="M349.3,215.7c2.4,0.8,5.6,0.7,7.4-1.3c0.8-0.9,1.4-2.6,0.2-3.4c-0.8-0.4-1.8-0.6-2.7-0.4l1,1.1
		c0.7-0.9,1.2-2,1.5-3.1c0.4-2-0.8-3.2-2.6-3.8l-0.1,1.4c2.8-2.5,3.9-6.8,0.5-9.3c-2.5-1.9-6.3-1.6-9.2-0.7l1.7,0.4
		c0.2-2.9-1.4-5.5-4.5-5.5c-2.9,0-7.7,2-6.7,5.7l2.2-1.9c-1.8,0.2-4.2,1.1-5.1,2.8s0.5,3.5,2.2,4.1l-0.5-0.6c0.1,1.1,0.5,2.1,1,3.1
		c1,1.7,2.9,2.5,4.8,2.2l-1.2-0.3l3.5,6.7l0.2-0.8c-1.5,2.5-1.3,6.8,2.2,7.2c3.1,0.4,7.1-1.9,7.2-5.3c0-1.4-3.4-0.1-3.5,1.1
		s-1.2,2.6-2.5,1.5c-0.9-1-1.1-2.3-0.8-3.6c0.1-0.4,0.3-0.8,0.5-1.1c-0.2,0.5,0,0,0.1-0.2c0-0.1,0-0.3,0-0.4
		c-0.2-0.4-0.4-0.8-0.6-1.1l-1.2-2.3l-1.7-3.2c-0.2-0.4-0.8-0.4-1.2-0.3c-2.1,0.2-3.1-2.6-3.3-4.1c0-0.3-0.2-0.4-0.5-0.6
		c0.2,0.1,0,0-0.1-0.1c-0.2-0.1-0.4-0.3-0.6-0.4c-0.5-0.5-0.5-0.9-0.7-1.6c0-0.1,0.1-0.5-0.1-0.1c0,0.1,0.2-0.1,0.4-0.1l0.6-0.1
		c0.8-0.1,2.5-0.9,2.2-1.9c0-0.1,0,0,0,0.1c0-0.1,0-0.2,0-0.4c0-0.3,0-0.6,0.1-0.9c0.1-0.3,0.1-0.3,0.4-0.4c0.7-0.2,1.4-0.2,2.1,0.1
		c1.4,0.7,1.9,2.6,1.7,4.1c-0.1,0.8,1.3,0.6,1.7,0.4h0.1c0.4-0.1-0.3,0.1,0.2,0c0.5-0.1,1-0.2,1.5-0.2c1.5-0.2,3,0.1,4.2,0.9
		c1.6,1,2.3,2.9,1.8,4.6c-0.2,0.6-0.5,1.2-0.9,1.6c-0.1,0.2-0.3,0.4-0.5,0.6c-0.4,0.4-0.9,1.2,0,1.4c2.5,0.7,1.7,3.2,0.7,4.6
		c-0.7,0.9,0.1,1.2,1,1.1h0.1c0.2,0,0.4,0,0.6,0.1c0.1,0.1,0.2,0.2,0.3,0.4c0.1,0.4-0.5,1,0.1,0.6s0-0.1-0.3-0.1c-0.3,0-0.7,0-1-0.1
		c-0.4-0.1-0.8-0.2-1.1-0.3C350.7,213.1,347.7,215.2,349.3,215.7z" fill="#000005"></path><path class="st0" d="M339.1,207.5c0,0,1.9-4.7,4.4-3.9s3,8.9-1.5,8.4" fill="#FFFFFF"></path><path class="st2" d="M341,207.5c0.1-0.2,0.2-0.4,0.3-0.6c0.3-0.5,0.6-1,0.9-1.5c0.2-0.3,0.4-0.5,0.6-0.7l0.3-0.3l0.2-0.1
		c0.1-0.1,0.1-0.1,0,0l0.1-0.1c0.1-0.1,0.5-0.2,0.2-0.1c0.1,0,0.4-0.1-0.1,0c-0.2,0-0.4,0-0.6,0.1c-0.3,0-0.6,0-0.9,0
		c0.3,0.1-0.2-0.1,0,0l0.1,0.1c0.2,0.1-0.1-0.1,0,0c0.3,0.3,0.6,0.6,0.8,1c0,0.1,0.2,0.4,0.2,0.6c0.1,0.3,0.2,0.6,0.2,0.9
		c0.2,1.1,0.2,2.3-0.2,3.4c-0.2,0.5-0.5,1-0.9,1.4l-0.1,0.1c-0.1,0.1,0.1-0.1-0.1,0.1c-0.1,0-0.1,0.1-0.2,0.1h-0.1
		c-0.1,0.1-0.1,0,0.1,0c0,0-0.1,0-0.2,0.1h0.2h0.2c-0.3,0,0.5,0,0.2,0h0.1c-0.5,0-1,0-1.5,0.1c-0.2,0-0.7,0.1-0.9,0.3
		c-0.4,0.5,1.1,0.6,1.3,0.6c1.8,0.2,4.1-0.1,5.1-1.8c0.6-1.2,0.9-2.6,0.6-3.9c-0.1-1.2-0.6-2.4-1.5-3.2c-1.2-0.7-2.6-0.9-4-0.6
		c-0.9,0.1-1.8,0.6-2.5,1.2c-0.9,0.9-1.6,2-2,3.2c-0.2,0.4,1.7,0.5,1.9,0.5c0.5,0,1.6,0,1.9-0.5L341,207.5z" fill="#000005"></path><path class="st2" d="M334.5,205.4c-0.4,0.1-0.6,0.4-0.5,0.8c0,0,0,0.1,0,0.1c0.3,0.7,1.1,0.4,1.1-0.3
		C335.2,205.7,334.9,205.4,334.5,205.4C334.6,205.4,334.6,205.4,334.5,205.4z" fill="#000005"></path><path class="st0" d="M360.2,223.1l-15.3-2.9c-15.3-4-27.6,44.2-27.6,44.2l14.5-0.9c0.1-1.9,0.8-8.7,0.8-9v0.3
		c8.9,4.3,19.2,4.4,28.2,0.4c-1.2-7.1-2.8-14.1-4.8-21" fill="#FFFFFF"></path><path class="st2" d="M359.3,221.4l-14.2-2.7c-1.5-0.4-3.1-0.5-4.6-0.3c-2.1,0.6-3.9,1.7-5.4,3.2c-4.2,4-7,9.4-9.4,14.5
		c-2.5,5.5-4.7,11.2-6.6,17c-1,3.2-2,6.4-2.8,9.6c-0.1,0.5,1.2,3.4,1.8,3.3l14.5-0.9v-0.1c0.2-3,0.7-6,0.8-9l-1.8-3.1v0.3
		c0.1,0.6,0.4,1.2,0.7,1.7c0.2,0.4,0.5,1.3,1,1.5c2.6,1.3,5.5,2.3,8.4,2.8c6.7,1.3,13.7,0.5,19.9-2.3v-0.1
		c-1.1-7.2-2.7-14.2-4.9-21.1c-0.3-0.8-0.7-1.6-1.1-2.3c-0.1-0.1-0.8-1.1-0.6-0.4c1.4,4.5,2.5,9,3.5,13.6c0.3,1.6,0.6,3.1,0.9,4.7
		c0.1,0.4,0.6,1.9,0.4,2.4s-2,0.8-2.4,1c-3.3,1.2-6.7,1.8-10.2,1.9c-3.6,0.1-7.2-0.4-10.6-1.4c-1.7-0.5-3.3-1.1-4.9-1.9l1.7,3.2
		v-0.3c-0.2-0.8-0.5-1.5-0.9-2.1c-0.1-0.2-0.9-1.2-0.9-1c0,1.7-0.3,3.4-0.5,5.1c-0.1,1.1-0.2,2.1-0.3,3.2c-0.1,0.7,0.1,0.6-0.5,0.7
		c-1.5,0.2-3,0.3-4.5,0.3l-6,0.4l-3.6,0.2l1.8,3.3c2.1-8.4,5-16.5,8.4-24.4c2.4-5.4,5.1-10.9,9.1-15.4c2.7-3.1,6.1-5.3,10.3-4.4
		c5,1,10.1,1.9,15.1,2.9c-0.2-0.6-0.4-1.2-0.7-1.8c-0.2-0.4-0.6-1.5-1.1-1.6L359.3,221.4z" fill="#000005"></path><path class="st2" d="M335.1,239.8c-1.1,4.9-3.4,9.4-4.3,14.3c-0.2,0.9,1.1,0.9,1.7,0.8c0.8-0.1,1.8-0.6,1.9-1.4
		c0.9-4.9,3.1-9.4,4.3-14.3c0.2-0.8-1.2-0.9-1.7-0.8C336.2,238.5,335.5,239,335.1,239.8z" fill="#000005"></path><path class="st1" d="M267.8,167v183.4h102.2V167H267.8z M353.2,256.4h-66.1v-75.1h66.1V256.4z" fill="#3560ba"></path><path class="st1" d="M265.3,167.2v180.7c-0.1,0.8-0.1,1.6,0,2.5c0,0.1,0,0.2,0,0.3c0,0.3,1.1,0.3,1.3,0.3h102.2
		c0.5,0,3.7,0,3.7-0.8V169.5c0.1-0.8,0.1-1.6,0-2.4c0-0.1,0-0.2,0-0.3c0-0.3-1.1-0.3-1.3-0.3H269c-0.9,0-2.6-0.1-3.4,0.5
		s0.5,0.6,1,0.6h98c1.3,0,2.7,0.1,4,0h0.2l-1.3-0.3v175.9c0,2.4-0.2,4.8,0,7.2c0,0.1,0,0.2,0,0.3l3.7-0.8h-98c-1.3,0-2.7-0.1-4,0
		H269l1.3,0.3V169.5c0.1-0.8,0.1-1.6,0-2.4c0-0.1,0-0.2,0-0.3C270.2,166.2,265.3,166.4,265.3,167.2z" fill="#3560ba"></path><path class="st1" d="M354.4,255.8h-66l1.3,0.3v-75.1l-3.7,0.8h66l-1.3-0.3v75.1c0,0.6,5,0.4,5-0.5v-75.1c0-0.3-1.1-0.3-1.3-0.3
		h-66.1c-0.5,0-3.7,0-3.7,0.8v75.1c0,0.3,1.1,0.3,1.3,0.3h66c0.9,0,2.6,0.1,3.4-0.5S354.9,255.8,354.4,255.8z" fill="#3560ba"></path><path class="st2" d="M275.9,231.1l0.5,53.6c0,0.8,4.9,1.1,4.9,1l-0.5-53.6C280.8,231.3,275.9,231,275.9,231.1L275.9,231.1z" fill="#000005"></path><path class="st0" d="M292.7,278.2H357c0.9,0,1.9-0.5,1.5-1.5s-2.1-1.6-3.1-1.6h-64.3c-0.9,0-1.9,0.5-1.5,1.5
		S291.7,278.2,292.7,278.2L292.7,278.2z" fill="#FFFFFF"></path><rect class="st2" x="300" y="292.7" width="44.6" height="27.6" fill="#000005"></rect><path class="st2" d="M345.2,319.1h-44.6l1.9,0.9v-27.6l-3.1,1.4h44.6l-1.9-0.9v27.6c0,1.5,5,1.2,5-0.4v-27.6c0-0.7-1.4-0.9-1.9-0.9
		h-44.7c-0.8,0-3.1,0.1-3.1,1.4v27.6c0,0.7,1.4,0.9,1.9,0.9h44.6c0.8,0,2.6-0.1,3-1.1S345.9,319.1,345.2,319.1z" fill="#000005"></path><path class="st2" d="M310.7,292.4c2-2.4,4.1-4.8,6.2-7.1c1-1.2,2.1-2.3,3.2-3.4c0.5-0.6,1.1-1.1,1.6-1.7l0.8-0.8l0.3-0.3
		c0.5-0.4,0.4-0.5-0.2,0h-1.1c0.5,0.1,0.8,0.8,1.1,1.2c0.5,0.6,0.9,1.2,1.4,1.9c0.9,1.3,1.9,2.7,2.7,4c1.7,2.7,3.4,5.4,4.9,8.1
		c1.1,1.9,5.2-0.9,4.1-2.8c-1.8-3.2-3.8-6.4-5.8-9.5c-1-1.5-2.1-3.1-3.2-4.6c-1-1.4-2-2.6-4-2.1s-3.2,2.3-4.5,3.6s-2.6,2.7-3.9,4.1
		c-2.6,2.8-5,5.7-7.5,8.6c-0.6,0.6-0.5,1.5,0,2.1c0.2,0.1,0.3,0.3,0.5,0.3C308.7,294.1,309.9,293.2,310.7,292.4L310.7,292.4z" fill="#000005"></path><path class="st0" d="M307.5,302.8c-1.1,0-2.1,0.5-2.8,1.3c-0.6,0.6-1.1,1.4-1.5,2.2c-0.4,0.9-0.4,1.9,0,2.8c0.4,0.8,1.1,1.5,2,1.8
		c3.2,1.2,7.5-1.2,7.4-4.9c-0.2-1.8-1.4-3.4-3.2-3.9c-0.6-0.2-1.3,0.1-1.6,0.6c-0.2,0.5,0.1,1.1,0.6,1.3c0,0,0.1,0,0.1,0l0.2,0.1
		c-0.2-0.1-0.1,0,0,0c0.1,0.1,0.3,0.1,0.4,0.2c0,0,0.2,0.1,0.1,0s0,0,0.1,0.1s0.2,0.2,0.3,0.3s0.2,0.3,0.1,0.1
		c0.1,0.1,0.1,0.2,0.2,0.4c0.1,0.1,0.1,0.2,0.2,0.3s0.1,0.2,0,0.1s0,0.1,0,0.1s0,0.2,0.1,0.4c0,0.1,0,0.2,0,0.2c0,0,0,0.2,0,0.1
		s0,0.1,0,0.1s0,0.1,0,0.2c0,0.1,0,0.3-0.1,0.4c0.1-0.2,0,0.1-0.1,0.2s-0.1,0.3-0.2,0.4s0.1-0.1,0,0l-0.1,0.1l-0.3,0.3
		c-0.1,0.1,0,0,0,0l-0.2,0.1c-0.1,0.1-0.2,0.2-0.3,0.2c0,0-0.2,0.1-0.1,0.1s0,0-0.1,0c-0.1,0.1-0.3,0.1-0.4,0.2l-0.2,0.1
		c-0.2,0.1,0.2,0,0,0l-0.4,0.1h-0.2h-0.5h-0.3c-0.2,0,0.2,0,0,0l-0.4-0.1c-0.2,0,0.1,0.1,0,0l-0.2-0.1l-0.2-0.1c-0.1,0-0.1,0,0,0
		l-0.1-0.1l-0.1-0.1c0.1,0.1-0.1-0.1-0.1-0.1l-0.1-0.2c-0.1-0.1,0,0.1,0,0c0-0.1-0.1-0.3-0.1-0.4c0,0,0-0.2,0-0.1c0-0.1,0-0.2,0-0.2
		c0-0.3,0.1-0.6,0.3-0.9l0.1-0.2c0,0,0.2-0.3,0.1-0.2c0.1-0.1,0.2-0.3,0.3-0.4c0.1-0.1,0.2-0.3,0.4-0.4c0-0.1,0.1-0.1,0.1-0.2
		c0,0,0.3-0.2,0.1-0.1l0.2-0.1c0.3-0.2-0.2,0.1,0.1-0.1c0.1,0,0.2,0,0,0c0.3,0-0.2,0,0.1,0c0.6,0.1,1.2-0.4,1.4-1
		c0.1-0.5-0.3-1-0.9-1.1C307.6,302.8,307.6,302.8,307.5,302.8L307.5,302.8z" fill="#FFFFFF"></path><path class="st0" d="M315.1,302.6c0,2.3,0.1,4.6,0.4,6.9c0.1,0.2,0.2,0.4,0.4,0.5c0.2,0.2,0.5,0.4,0.8,0.6c0.1,0.1,1,0.5,1,0.1
		c-0.3-2.3-0.5-4.6-0.4-6.9c0-0.1-0.3-0.4-0.4-0.5c-0.2-0.2-0.5-0.4-0.8-0.6C316,302.6,315.2,302.2,315.1,302.6z" fill="#FFFFFF"></path><path class="st0" d="M317.6,303.8c0.7-0.3,1.4-0.4,2.2-0.4h0.6c-1.1-0.7-1.4-0.8-1.1-0.5c0.1,0.1,0.1,0.2,0.2,0.3
		c0.1,0.2,0.1,0.3,0.1,0.5v-0.1c0,0.3,0.1,0.5-0.2,0.6h0.1c-1,0.6-2,1.1-3,1.6c-0.3,0.2,0.6,0.6,0.7,0.6c0.3,0.1,0.6,0.3,0.9,0.4
		c0.1,0,0.5,0.2,0.6,0.1l1.9-1l1-0.5c0.1-0.1,0.2-0.1,0.3-0.2c0.1-0.1,0.1-0.3,0-0.5c0-0.3-0.1-0.5-0.2-0.7c-0.2-0.4-0.6-0.7-1-0.9
		c-0.9-0.5-1.9-0.7-2.9-0.7c-0.8,0-1.6,0.2-2.3,0.4c-0.3,0.1,0.6,0.6,0.7,0.6c0.3,0.1,0.6,0.3,0.9,0.4
		C317.2,303.9,317.4,303.9,317.6,303.8L317.6,303.8z" fill="#FFFFFF"></path><path class="st0" d="M323.5,302.9c-0.1,2.1,0,4.2,0.3,6.2c0,0.5,0.2,0.9,0.4,1.3c0.5,0.6,1.2,0.9,1.9,1c1,0.1,2,0,3-0.4
		c0.5-0.2,0.2-0.6-0.1-0.9c-0.5-0.4-1.1-0.6-1.6-0.5c-0.4,0.1-0.7,0.2-1.1,0.3l-0.4,0.1h-0.3c-0.1,0-0.1,0-0.1,0l0.9,0.5l0-0.1
		c0,0,0-0.1,0-0.1c0-0.2-0.1-0.4-0.1-0.6c-0.1-0.4-0.1-0.8-0.2-1.2c-0.2-1.7-0.2-3.3-0.2-5c0-0.2-0.3-0.4-0.4-0.5
		c-0.3-0.2-0.6-0.3-0.9-0.4c-0.3-0.1-1-0.2-1.1,0.3L323.5,302.9z" fill="#FFFFFF"></path><path class="st0" d="M326.1,307.8l3.3-0.5c0.1,0,0.1-0.4,0.1-0.5c-0.1-0.3-0.2-0.6-0.3-0.8c-0.1-0.3-0.3-0.5-0.5-0.7
		c-0.1-0.1-0.3-0.2-0.4-0.2l-3.3,0.5c-0.1,0-0.1,0.4-0.1,0.5c0.1,0.3,0.2,0.6,0.3,0.8c0.1,0.3,0.3,0.5,0.5,0.7
		C325.8,307.7,325.9,307.8,326.1,307.8L326.1,307.8z" fill="#FFFFFF"></path><path class="st0" d="M325.7,304.2c1.5-0.3,3-0.4,4.5-0.4c0.2,0,0.2-0.2,0.1-0.3c-0.1-0.2-0.2-0.5-0.4-0.7c-0.3-0.4-0.8-0.9-1.3-0.9
		c-1.5,0-3,0.1-4.5,0.4c-0.5,0.1,0.1,0.9,0.2,1c0.2,0.3,0.4,0.5,0.7,0.7C325.3,304.1,325.5,304.2,325.7,304.2L325.7,304.2z" fill="#FFFFFF"></path><path class="st0" d="M331.8,303v8c0,0.2,1,0.4,1.2,0.5s1.2,0.3,1.2,0.2v-8c0-0.2-1-0.4-1.2-0.5S331.8,302.9,331.8,303z" fill="#FFFFFF"></path><path class="st0" d="M332.6,305l2.9,2.7l1.4,1.3c0.5,0.5,1,1,1.6,1.3c0.5,0.2,1.4,0.4,1.7-0.3c0.3-0.6,0.3-1.3,0.1-2
		c-0.1-0.6-0.2-1.2-0.4-1.9c-0.3-1.2-0.5-2.4-0.9-3.6c-0.2-0.7-0.8-1.1-1.5-1c-0.6,0.1-1,0.6-0.9,1.2c0,0,0,0.1,0,0.1
		c0.3,1.1,0.5,2.1,0.8,3.2c0.1,0.5,0.2,1.1,0.3,1.6l0.1,0.8c0,0,0,0.4,0,0.1c0,0.1,0,0.1,0,0.2c0-0.1,0-0.1,0.1-0.2l1.6-0.3
		c-0.1-0.1-0.3-0.2-0.4-0.2c0.2,0.2-0.1-0.1-0.2-0.2l-0.7-0.6l-1.4-1.3l-2.8-2.6c-0.4-0.5-1.2-0.6-1.7-0.2
		C332.1,303.8,332.1,304.5,332.6,305C332.5,305,332.5,305,332.6,305L332.6,305z" fill="#FFFFFF"></path><path class="st1" d="M253.3,233.2h-31.9l2.9,4v-15.2c0-0.2,0-0.4,0-0.5c0.1-0.3-0.1,0,0,0s0.5,0,0.7,0h31.2l-2.9-4v15.8
		c0,0.9,1,2,1.6,2.7c0.1,0.2,1.4,1.6,1.4,1.2v-15.8c0-0.8-0.9-1.9-1.4-2.4c-0.3-0.4-0.9-1.6-1.5-1.6h-31.9v0.1v15.8
		c0,0.8,0.9,1.9,1.3,2.4c0.3,0.4,1,1.6,1.6,1.6h31.9c0.2,0-1-2.1-1.1-2.3C254.8,234.6,254,233.2,253.3,233.2z" fill="#3560ba"></path><path class="st1" d="M324.3,153.8h-31.9l2.7,3.7v-15.8l-0.6,0.7h31.9l-2.7-3.7v15.8c0.1,1.2,0.6,2.3,1.5,3.1
		c0.4,0.4,1.7,1.1,1.7-0.1v-15.8c0-1.2-1.2-3.7-2.7-3.7h-31.9c-0.3,0-0.6,0.3-0.6,0.7v15.8c0,1.2,1.2,3.7,2.7,3.7h31.9
		C327.9,158.2,325.9,153.8,324.3,153.8z" fill="#3560ba"></path><ellipse class="st2" cx="400.3" cy="318.5" rx="16.6" ry="3.7" fill="#000005"></ellipse><path class="st2" d="M414.9,318c0,0-0.1,0.2,0,0.1c-0.1,0.1-0.3,0.3-0.4,0.4c-0.7,0.4-1.4,0.7-2.2,0.9c-2.3,0.6-4.6,1-7,1.2
		c-5.6,0.6-11.3,0.3-16.8-0.8c-0.7-0.2-1.4-0.4-2.1-0.6c-0.2-0.1-0.4-0.1-0.5-0.2c-0.4-0.2,0.4,0.2-0.1-0.1c-0.2-0.1,0,0,0,0.1
		s0.1,0,0,0.1c0.2-0.2,0-0.1,0.3-0.3c0.5-0.4,1.1-0.6,1.6-0.8c2.1-0.7,4.3-1.1,6.5-1.3c3-0.3,6-0.4,9.1-0.3c2.9,0.1,5.8,0.4,8.7,0.9
		c0.9,0.2,1.8,0.5,2.7,0.8l0.2,0.1c0.2,0.1,0.5,0.1,0.2,0.1C415.1,318.1,415,318.2,414.9,318c0.2,1.7,4.1,2.9,4.1,1s-2.4-3.1-4-3.6
		c-2.8-0.9-5.6-1.5-8.6-1.7c-6.7-0.6-14-0.6-20.5,1.3c-1.4,0.4-3.5,1-4,2.6c-0.6,1.9,1.8,3.3,3.2,4c2.5,1,5.1,1.6,7.8,1.8
		c3.7,0.4,7.5,0.6,11.3,0.4c3.5-0.1,7-0.5,10.4-1.4c1.6-0.4,4.3-1.2,4.4-3.2C419,317.4,415,316.1,414.9,318z" fill="#000005"></path><path class="st2" d="M388.4,362.2l1.5-14.6l2.3-23.2l0.5-5.4l-1.4,1.5l17.9-0.5l-2.3-2.4l0.9,14.4l1.4,23.1l0.3,5.3
		c0,1.1,0.8,2,1.8,2.3c0.8,0.2,1.6-0.3,1.8-1.1c0-0.1,0-0.3,0-0.4l-0.9-14.4l-1.4-23.1l-0.3-5.3c0-1.3-1-2.3-2.3-2.4l-17.9,0.5
		c-0.8,0.1-1.4,0.7-1.4,1.5l-1.5,14.6l-2.3,23.1l-0.5,5.4C384.4,363.6,388.1,364.8,388.4,362.2L388.4,362.2z" fill="#000005"></path><path class="st2" d="M387.4,341.2h25.5c2,0-0.3-3.4-1.7-3.4h-25.5C383.6,337.8,385.9,341.2,387.4,341.2z" fill="#000005"></path></g><g id="character"><path class="st0" d="M172.5,203.6c0,0-2.5-26.6,10.6-32.6c6.4-2.9,1.7,12.1,1.7,12.1c3.3-2.9,6.4-6,9.1-9.5c4.4-5.6,6.2-6.6,8-5.4
		s-0.8,5.3-0.8,5.3s2.6-5.1,4.8-6.3s5.7,0.7,0.6,8.7c0,0,2-4.2,4.9-2.4s0,10.1-6.4,19.5s-17.8,15.6-17.8,15.6
		S171.9,209.9,172.5,203.6z"></path><path class="st2" d="M174.9,203.1c-0.6-5.9-0.2-11.8,1-17.5c0.9-4.1,2.3-8.3,5.2-11.4c0.6-0.6,1.2-1.2,1.9-1.6
		c0.4-0.3,0.8-0.5,1.2-0.7c-0.3,0.1,0.1,0,0.2-0.1c-0.2,0-1.1,0.1-0.8,0.2l-0.4-0.1c-0.3-0.1,0,0,0,0s0,0,0.1,0.1
		c0.2,0.1,0.3,0.3,0.3,0.5c0.2,0.7,0.3,1.4,0.3,2.1c-0.1,3-0.7,6-1.7,8.8c-0.2,0.8,0.9,1,1.4,1.1c1,0.1,2.1-0.2,2.9-0.9
		c4.4-3.6,7.8-8,11.6-12.3c0.4-0.5,0.9-1,1.4-1.4c0.2-0.2,0.4-0.3,0.6-0.5c0.1-0.1,0.2-0.2,0.3-0.3c0.4-0.3-0.1,0,0.2-0.1
		c-0.3,0.1-0.7,0.2-1.1,0.2c-0.3,0-0.2,0.1-0.3-0.1c0.1,0.1,0.3,0.1,0.4,0.2c0.9,1.1-0.2,3.2-0.8,4.2l4.7-0.1
		c0.2-0.3,0.2-0.4,0.5-0.9c0.5-0.8,1-1.6,1.5-2.3c0.5-0.7,1-1.3,1.6-1.9c0.2-0.2,0.2-0.3,0.2-0.1s-0.4,0.2-0.4,0.2
		c-0.3,0.1-0.6,0.1-0.9,0.1c-0.4,0,0.1,0,0.1,0s-0.3-0.1-0.1,0s-0.1-0.1,0.1,0c0.1,0.1,0.2,0.1,0.2,0.2c0.2,0.4,0.4,0.9,0.4,1.3
		c0,2.1-1.3,4.3-2.4,6l4.7-0.1c-0.2,0.4,0.1-0.2,0.3-0.5s0.9-1.1,1-1.1c-0.4,0.1-0.7,0.2-1.1,0.2c0,0,0.1,0.1,0.1,0.1
		c0.1,0.1,0.3,0.2,0.4,0.3c0.3,0.3,0.4,0.8,0.4,1.2c0.1,1.4-0.1,2.7-0.5,4c-0.6,1.9-1.4,3.8-2.3,5.6c-2.1,4.3-4.8,8.3-8,11.9
		c-2.6,2.8-5.5,5.2-8.6,7.4c-1.6,1.2-3.2,2.2-4.9,3.2l1.9-0.6H187h-0.7c-0.4,0,0.4,0,0.1,0H186c-1.6,0-3.2-0.1-4.9-0.2
		c-1.9-0.2-6.4-0.9-6.2-3.9c0.1-1.9-4.7-1.1-4.8,0.5c-0.4,4.9,6.3,5.8,9.9,6.1c3,0.2,6.7,0.7,9.4-0.9c5.1-3,9.7-6.6,13.8-10.8
		c2.9-3.1,5.4-6.6,7.4-10.3c1.9-3.1,3.3-6.5,4.2-10c0.5-2.7,0.1-5.5-3.1-6c-3.2-0.3-6.2,1.4-7.5,4.3c-0.4,0.9,1.3,1.1,1.7,1.1
		c0.9,0,2.4-0.3,2.9-1.2c1.4-2.2,3.1-5,2.8-7.7c-0.3-1.6-1.7-2.8-3.4-2.7c-4.8-0.2-7.5,4.4-9.4,8.1c-0.4,0.9,1.3,1.1,1.7,1
		c0.9,0,2.4-0.3,2.9-1.2c1-1.6,2.6-4.7,0.8-6.2c-2.1-1.9-5.6-0.7-7.6,0.8c-3.3,2.4-5.5,6.2-8.3,9.2c-1.7,1.9-3.6,3.7-5.5,5.3
		l4.3,0.2c1-2.8,1.5-5.8,1.7-8.8c0.1-1.5,0-3.4-1.4-4.2c-2.1-1.3-5.1-0.1-7,1c-8.5,5.1-10.2,16.3-10.5,25.3
		c-0.1,2.7-0.1,5.4,0.1,8.1C170.2,205.7,175.1,204.8,174.9,203.1z"></path><path class="st0" d="M185.3,192.9c0.1-0.3,3.4-5-0.5-9.8"></path><path class="st2" d="M187.7,192.6c0.1-0.3,0.3-0.7,0.5-1c0.3-0.7,0.6-1.5,0.8-2.2c0.4-2.4-0.2-4.8-1.8-6.6
		c-0.1-0.2-0.6-0.1-0.8-0.1c-0.6,0-1.2,0-1.8,0.1c-0.6,0.1-1.2,0.2-1.7,0.3c-0.1,0-0.8,0.2-0.7,0.3c1.5,1.8,2.2,4.3,1.7,6.6
		c-0.2,0.8-0.4,1.5-0.7,2.2c-0.2,0.3-0.4,0.7-0.5,1c-0.1,0.2,2.3,0.1,2.5,0c0.6-0.1,1.2-0.2,1.7-0.3
		C187.2,192.9,187.7,192.8,187.7,192.6L187.7,192.6z"></path><path class="st2" d="M195.3,184.8c3.7-4.4,7.6-8.9,9.8-14.2c0.4-1.1-0.8-1.9-1.7-1.9c-1.3,0-2.4,0.7-2.9,1.9l-0.2,0.6l-0.2,0.4
		c0.1-0.2-0.2,0.4-0.2,0.4l-0.3,0.5c-0.4,0.7-0.8,1.4-1.2,2c-0.9,1.4-1.8,2.7-2.8,4.1c-0.4,0.6-0.9,1.2-1.4,1.7l-0.3,0.4
		c-0.3,0.4,0.3-0.3,0,0l-0.6,0.7c-0.5,0.6-0.9,1.1-1.4,1.7c-0.6,0.8-1,1.9,0.1,2.5C193.1,185.9,194.4,185.6,195.3,184.8L195.3,184.8
		z"></path><path class="st2" d="M205.9,173.1c-1.9,3.7-4.2,7.2-6.9,10.4c-0.8,1-1.7,1.8-2.7,2.5c-0.6,0.3,0.4,2.1,0.6,2.5s1.1,2.3,1.7,2
		c2.1-1.2,3.6-3.4,5-5.4c1.4-2.1,2.8-4.2,4.1-6.4c0.3-0.5,0.5-0.9,0.8-1.4c0.1-0.2-0.1-1-0.2-1.2c-0.2-0.6-0.5-1.2-0.8-1.8
		C207.2,174.1,206.3,172.5,205.9,173.1L205.9,173.1z"></path><polygon class="st2" points="89.9,247.9 57.6,407.9 114.8,407.9 	"></polygon><path class="st0" d="M146.5,450.2c0,0,0.9-3.2-5.4-6.7s-16.5-8.5-16.5-8.5l-0.2-13.1l-18.8,7.5c0,0-0.9,22-0.4,22s9-0.3,9-0.3
		L146.5,450.2z"></path><path class="st2" d="M149,449.9c0.5-2-1.6-4-2.9-5.1c-1.9-1.4-3.8-2.6-5.9-3.5c-2-1.1-4-2.1-6-3.1c-1.7-0.9-3.3-1.7-5-2.5l-1.4-0.7
		c-0.3-0.1-0.5-0.2-0.8-0.4c0.1,0.2,0.1-0.2,0.1-0.3c0-0.4,0-0.9,0-1.4l-0.1-4.2l-0.1-7.2c0-0.6-4.2,0.3-4.6,0.4l-18.8,7.5
		c-0.1,0-0.3,0.1-0.3,0.2c-0.2,4.4-0.3,8.8-0.5,13.1c-0.1,2.5-0.2,5-0.1,7.5c0,0.4-0.1,1.2,0.1,1.5c0.4,0.5,2.3,0.2,2.9,0.1
		c9-0.3,18-0.5,26.9-0.8l12.8-0.4c0.9,0,2.6,0,3.4-0.6s-0.5-0.4-1-0.4l-27.4,0.8c-3,0.1-6.1,0.2-9.1,0.3l-4.1,0.1
		c-0.2,0-0.4,0-0.5,0c-0.5,0.1,1,0.4,1,0.1c0-0.2,0-0.4-0.1-0.6c-0.2-2.1,0-4.3,0-6.4c0.1-5,0.3-10,0.5-14.9l-0.3,0.2l18.8-7.5
		l-4.7,0.4l0.2,13.1l0.1,0.1c4.2,2.1,8.5,4.2,12.7,6.4c2.9,1.5,6.3,2.9,8.2,5.6c0.8,0.9,1.1,2,1,3.1c-0.1,0.3,2.4,0.1,2.5,0.1
		C147,450.6,148.8,450.5,149,449.9z"></path><polygon class="st0" points="142.4,263.4 188.8,213.5 168.7,188.8 121.5,232.5 	"></polygon><path class="st2" d="M144.6,264.5l15.7-16.9l25-26.9l5.7-6.2c0.4-0.5,0.1-1-0.2-1.4l-17.6-21.7l-2.5-3c-0.8-1-3.1-1.7-4.1-0.7
		l-16,14.8L125.1,226l-5.8,5.4c-0.2,0.3-0.3,0.7-0.1,1l18.3,27.1l2.6,3.8c0.7,1,1.9,1.5,3.1,1.5c0.7,0,2.1-0.5,1.4-1.5l-18.3-27.1
		l-2.6-3.8l-0.1,1l16-14.8l25.4-23.6l5.8-5.4l-4.2-0.7l17.6,21.7l2.5,3l-0.2-1.4L171,229.2L146,256l-5.7,6.2
		C138.8,263.8,143.4,265.8,144.6,264.5z"></path><path class="st0" d="M127.9,452.3c0,0,0.9-3.2-5.4-6.7S106,437,106,437l-0.2-13.1L87,431.4c0,0-0.9,22-0.4,22s9-0.3,9-0.3
		L127.9,452.3z"></path><path class="st2" d="M130.4,452.4c0.3-1.1-0.4-2.5-1.1-3.4c-2-2.7-5.4-4.2-8.3-5.7c-4.4-2.3-8.9-4.6-13.3-6.8l0.7,0.6l-0.2-13.1
		c0-0.6-1.4-0.8-1.8-0.9c-0.9-0.2-1.9-0.1-2.8,0.2l-18.8,7.5c-0.2,0.1-0.3,0.2-0.4,0.4c-0.2,4.4-0.3,8.8-0.5,13.2
		c-0.1,2.5-0.2,5-0.1,7.5c-0.1,0.5,0,1.1,0.2,1.5c0.7,1.1,3.1,0.8,4.4,0.7c9-0.3,18-0.5,27-0.8l13.1-0.4c0.5,0,2.1-0.1,1.8-0.9
		s-2.5-0.8-3-0.7c-10.8,0.3-21.5,0.5-32.3,0.9c-3,0.1-6,0.3-9.1,0.3l1.9,0.2l0,0l1.1,0.5c0,0,0,0.2,0,0c0-0.2,0-0.4,0-0.5
		c0-0.5,0-1.1,0-1.7c0-1.8,0-3.5,0.1-5.3c0.1-3.9,0.2-7.8,0.4-11.6c0-0.9,0.1-1.8,0.1-2.7l-0.4,0.4l18.8-7.5l-4.6-0.7l0.2,13.1
		c0,0.3,0.5,0.5,0.7,0.6c3.9,1.9,8.2,4.1,12.3,6.2c2.7,1.5,6,2.8,8,5.3c0.8,0.8,1.2,2,1.1,3.1C125.2,453,130.1,453.8,130.4,452.4z"></path><path class="st2" d="M147.8,306.6c0,0-20.8,121.5-23.2,125.8s-15.3,1.3-15.3,1.3s-24,0.7-24.7-0.3s-3.3-122.9-3.3-122.9
		L147.8,306.6z"></path><path class="st2" d="M145.3,306.2c-0.9,5.2-1.8,10.4-2.7,15.5c-2.1,12-4.1,23.9-6.2,35.9c-2.4,13.4-4.8,26.8-7.2,40.1
		c-1.8,9.9-3.4,18.9-5.6,28.7c-0.3,1.2-0.5,2.4-0.8,3.6c-0.1,0.4-0.2,0.7-0.3,1.1l-0.1,0.3c-0.2,0.4,0.3-0.3-0.1,0.2s0,0.1-0.4,0.4
		c-0.2,0.1-0.3,0.2-0.5,0.3c0.1,0,0.3-0.1-0.1,0c-0.7,0.3-1.4,0.4-2.2,0.5c-1.6,0.1-3.2,0.1-4.9-0.1c-1.9-0.4-3.7-0.6-5.6-0.8
		c-5.3,0-10.7,0.2-16,0.2c-1.5,0-3,0-4.5-0.1c-0.2,0-1,0-0.7,0c-0.2,0-0.4,0-0.6,0c-0.4,0-0.9-0.1-1.3-0.1l-0.4-0.1
		c0.1-0.2,1.3,0.7,1.4,0.7c0.2,0.2,0.7,1.3,0.5,0.8c0.2,0.8,0,0.2,0-0.2c-0.5-7.2-0.6-14.5-0.8-21.7c-0.4-12.8-0.7-25.7-1-38.5
		c-0.3-12.8-0.6-25.7-0.9-38.5c-0.2-7.4-0.3-14.9-0.5-22.3c0-0.4,0-0.7,0-1.1l-1.8,1.6l22.5-1.3l35.8-2.1l8.2-0.5
		c1,0,1.8-0.7,1.8-1.7c0-0.1,0-0.3,0-0.4c-0.5-1.2-1.7-2-3-1.9l-22.5,1.3l-35.8,2.1l-8.2,0.5c-0.9,0-1.9,0.6-1.8,1.6
		c0.1,5.4,0.2,10.8,0.3,16.1c0.3,12.3,0.6,24.6,0.8,36.9c0.3,13.5,0.7,26.9,1,40.4c0.2,8.9,0.4,17.7,0.9,26.5c0,0.8,0.1,1.6,0.2,2.5
		c0.2,1.8,1.5,2.7,3.3,3c2.7,0.3,5.4,0.4,8.1,0.3c3.3,0,6.7,0,10-0.1c2.1,0,4.2,0.1,6.2-0.1c0.5,0-0.7-0.2-0.4,0
		c0.3,0.1,0.7,0.2,1.1,0.2c1.4,0.3,2.9,0.5,4.3,0.6c4.3,0.4,11.2,0.7,12.7-4.4c0.8-2.8,1.4-5.7,1.9-8.5c1-4.9,2-9.9,2.9-14.8
		c2.5-13,4.8-26.1,7.1-39.2s4.6-26,6.9-39c1.3-7.5,2.6-15,3.9-22.5l0.2-1.1c0.2-1.2-1.4-2.2-2.4-2.3
		C146.7,304.5,145.6,305.1,145.3,306.2C145.3,306.2,145.3,306.2,145.3,306.2z"></path><path class="st0" d="M122.2,339.7l-1.5,9.2l-3.7,22.3l-4.4,26.9l-3.8,23.3c-0.6,3.8-1.3,7.5-1.9,11.3c0,0.1,0,0.1,0,0.2
		c-0.2,1.1,0.9,1.9,1.8,2.3c0.7,0.2,2.7,0.5,2.9-0.6l1.5-9.2l3.6-22.3l4.4-26.9l3.8-23.3c0.6-3.8,1.3-7.6,1.9-11.3v-0.2
		c0.2-1.1-0.9-1.9-1.9-2.3C124.3,338.8,122.3,338.6,122.2,339.7L122.2,339.7z"></path><path class="st0" d="M80,315.1c0,0,66.5,3.3,70.3-7.5s-4.7-82.9-38.9-79.2S80,315.1,80,315.1z"></path><path class="st2" d="M80.9,317.4c6.2,0.3,12.5,0.4,18.7,0.5c11.4,0.2,22.8-0.3,34.2-1.5c4.4-0.4,8.8-1.3,12.9-2.8
		c2.4-1,4.6-2.3,5.1-5c0.6-3.2,0.7-6.5,0.5-9.7c-0.2-4.8-0.6-9.7-1.4-14.4c-1.7-11.4-4.6-22.8-9.5-33.3
		c-4.3-9.3-10.6-19.4-20.6-23.4c-8.6-3.3-18.3-1.1-24.5,5.7c-7,7.4-10.5,17.7-12.9,27.4c-2.5,10.5-4,21.2-4.6,32
		c-0.4,6.6-0.6,13.2-0.5,19.7c0,0.3,0,0.6,0,1c0.1,1.2,0.6,2.3,1.4,3.2c0.3,0.3,1.5,1.4,1.4,0.2c-0.2-4.5,0-9.1,0.1-13.6
		c0.3-9.9,1.3-19.8,3-29.6c1.8-10.2,4.5-20.8,9.9-29.8c4.6-7.5,11.7-13.4,20.9-13.3c4.5,0.1,8.8,1.6,12.4,4.3
		c1.7,1.3,3.3,2.8,4.8,4.4c1.6,1.8,3,3.8,4.2,5.9c0.1,0.1,0.2,0.4,0,0c0.1,0.1,0.2,0.3,0.2,0.4s0.3,0.5,0.5,0.8
		c0.3,0.6,0.7,1.2,1,1.8s0.6,1.1,0.9,1.7s-0.1-0.3,0.1,0.1c0.1,0.1,0.1,0.3,0.2,0.4l0.4,1c0.6,1.3,1.1,2.6,1.6,3.9s0.8,2.1,1.3,3.6
		c1.8,5.3,3.2,10.6,4.3,16.1c1.7,8.7,3,17.7,2.4,26.5c-0.1,2.2-0.2,4.4-2,5.9c-2.7,2.1-6.6,2.9-9.9,3.5c-10.7,2.1-21.9,2.3-32.8,2.4
		c-8.2,0.1-16.4-0.1-24.6-0.4l-1.3,0C77.9,312.9,79.6,317.3,80.9,317.4z"></path><path class="st1" d="M90.2,261.2c0,0,62.3-9.4,63.3-5.5s17.9,163.4,15.8,164.8s-80.5,0-80.5,0L90.2,261.2z"></path><path class="st1" d="M90.7,262.8c9.3-1.4,18.7-2.7,28-3.8c7-0.9,14-1.7,21-2.2c2.7-0.2,5.4-0.4,8.2-0.4h1.5c0.7,0-0.6,0,0.2,0h0.7
		l1,0.1c0.2,0,0.4,0,0.5,0.1c0,0.1-0.7-0.2-0.4-0.1c0.1,0,0.2,0,0.3,0.1s1,0.5-0.2-0.1l0.2,0.1c-0.3-0.2-0.8-0.5-0.7-0.7
		c0,0.2,0,0.4,0.1,0.6c0.1,0.8,0.2,1.6,0.3,2.5c0.4,3.2,0.8,6.5,1.1,9.7c1.3,11.2,2.5,22.5,3.7,33.7c1.5,14.4,3,28.9,4.5,43.3
		c1.4,13.7,2.7,27.4,3.9,41.1c0.8,9.3,1.7,18.6,2.2,27.9c0.1,1.2,0.1,2.4,0.1,3.6c-0.1,0.6-0.1,1.2-0.1,1.8c0,0.2,0.2-0.5,0.1-0.2
		c0.2-0.2,0.4-0.4,0.6-0.6c0.6-0.3,0.6-0.2,0.3-0.1c-0.6,0.2,0.7,0,0.1,0l-0.7,0.1c-1.6,0.1-3.3,0.2-5,0.2c-13,0.3-26,0.1-39,0
		c-11.1-0.1-22.1-0.2-33.2-0.4h-1.8l3,1.9l0.2-15.9l0.4-38l0.4-46l0.4-39.8c0.1-6.4,0.3-12.8,0.2-19.2c0-0.1,0-0.2,0-0.3
		c0-2.2-5-2.7-5-0.6l-0.2,15.9l-0.4,38l-0.4,46l-0.4,39.9c-0.1,6.4-0.3,12.8-0.2,19.2v0.3c0,1.5,1.8,1.9,3,1.9
		c8.4,0.1,16.8,0.3,25.2,0.4c14.1,0.2,28.3,0.3,42.4,0.2c3.9,0,7.9,0.1,11.9-0.4c1.2-0.1,2.8-0.3,3.1-1.7c0.1-0.6,0.1-1.2,0.1-1.8
		c0-7.7-0.9-15.4-1.5-23c-1.1-13.3-2.4-26.7-3.7-40c-1.5-14.8-3-29.6-4.5-44.4c-1.3-12.4-2.6-24.9-4-37.3c-0.4-4.1-0.9-8.2-1.4-12.3
		c-0.2-2-0.4-4-0.8-6c-0.7-3.2-6.4-2.7-8.8-2.7c-6.1,0-12.2,0.7-18.3,1.3c-12.3,1.3-24.7,3-36.9,4.8l-2.2,0.3
		c-0.9,0.1-2.2,0.6-1.9,1.8S89.7,262.9,90.7,262.8z"></path><path class="st0" d="M106,229.8c0,0-56.5,16.2-58.8,39.4s30.9,51.8,30.9,51.8l19.7-18.2l-11.5-31.8"></path><path class="st2" d="M106.2,228.6c-5.3,1.5-10.6,3.4-15.7,5.4c-10.1,3.9-20,8.5-29,14.6c-7.3,4.9-15.9,12.1-16.8,21.6
		c-1.1,12.1,6.3,23.8,13.4,33c3.4,4.4,7,8.5,10.9,12.5c2.1,2.2,4.3,4.3,6.6,6.3l0.3,0.3c1,0.9,3.3-0.3,4.1-1l17.3-15.9l2.5-2.2
		c0.2-0.2,0.5-0.6,0.4-1l-10.1-27.9l-1.4-4c-0.5-1.4-5.2,0.3-4.7,1.8l10.1,27.9l1.4,4l0.4-1l-17.3,15.9l-2.5,2.3l4.1-1
		c-5.2-4.6-10-9.5-14.4-14.9c-4-4.7-7.5-9.7-10.5-15c-2.8-5.1-5.1-10.6-5.8-16.4c-0.6-4.4,0.4-8.8,2.7-12.6c2.5-3.7,5.7-7,9.3-9.6
		c4.1-3.1,8.5-5.8,13.1-8.1c2.4-1.2,4.8-2.4,7.2-3.5c1.1-0.5,1.8-0.8,3.1-1.4c1.2-0.5,2.3-1,3.5-1.4c3.8-1.5,7.6-3,11.5-4.3
		c1.3-0.4,2.6-0.9,3.9-1.3l0.7-0.2l-0.3,0.1l0.3-0.1l0.8-0.2l0.3-0.1c0.8-0.2,2.5-0.8,2.6-1.8S106.8,228.4,106.2,228.6z"></path><path class="st2" d="M128.1,205.8c0,0,3.9-20.8-13.9-25.6s-37.5,11.6-35.2,33.6s29.4,20.6,29.4,20.6L128.1,205.8z"></path><path class="st2" d="M129.9,207.3c1.8-9.9-1.9-21.2-10.8-26.5c-7-4-15.4-4.5-22.8-1.4c-7.5,3.1-13.5,9-16.7,16.4
		c-3.3,7.4-4,16.9-0.6,24.4c2.9,6.2,8.1,10.9,14.5,13.4c4.3,1.7,8.9,2.6,13.5,2.8c0.9,0.1,1.8,0.1,2.7,0c0.8-0.3,1.5-1.9,1.9-2.5
		l17.7-25.6l0.5-0.7c0.9-1.3-2.8-4.6-3.5-3.6L111,226.1l-3.5,5.1c-0.3,0.4-0.6,0.8-0.9,1.2c-0.2,0.4,0.1,0.1,0,0.1
		c-1.2,0-1.8,0-2.8-0.1c-2-0.1-4-0.4-5.9-0.8c-2.4-0.5-4.8-1.2-7-2.2c-1.1-0.5-2.2-1.1-3.2-1.8c-0.4-0.3-0.8-0.6-1.2-0.9l-0.9-0.8
		c0.1,0.1,0.3,0.3,0,0l-0.5-0.5c-0.1-0.1-0.6-0.7-0.3-0.4c-0.2-0.3-0.5-0.6-0.7-0.9c-0.4-0.5-0.8-1.1-1.1-1.7
		c-0.7-1.3-1.2-2.7-1.6-4.1c-1-4-1.1-8.1-0.3-12.1c2.5-14.8,16.8-27.7,32.4-24.8c1.8,0.3,3.5,0.9,5.2,1.7c0.7,0.3,1.4,0.7,2,1.2
		c0.3,0.2,1.1,0.9,1.2,1c0.9,0.8,1.6,1.8,2.2,2.9c0.6,1.2,1.1,2.4,1.4,3.6c1.1,3.8,1.4,7.7,0.8,11.6c0,0.2-0.1,0.5-0.1,0.7
		c-0.2,1,0.9,2.1,1.6,2.7C128.1,207.2,129.8,208.3,129.9,207.3z"></path><path class="st0" d="M130.4,223.7c5-8.6-5-34.9-5-34.9c-5.5-6.3-27.9,1.8-27.9,1.8c4.3,6.5,5.1,18.1,5.1,18.1
		c-3.7-5.8-10.6-2-9.2,4.1s8.8,6.7,8.8,6.7s0.1,13.3,1,15.7s12.9,4,17.9-3.9C121,231.4,126,231.2,130.4,223.7z"></path><path class="st2" d="M132.6,224.9c2.4-4.4,1.5-10.3,0.8-15c-0.9-5.4-2.3-10.7-4-15.9c-0.5-1.4-1-2.9-1.5-4.3
		c-0.7-1.6-2.1-2.9-3.8-3.6c-5.1-2.3-11.2-1.4-16.4-0.4c-4,0.8-8,1.9-11.8,3.3c-0.6,0.2-0.9,0.8-0.7,1.4c0,0.1,0.1,0.3,0.2,0.4
		c2,3.4,3.4,7.1,4,11c0.4,2,0.7,4.1,0.9,6.2l4.4,0.6c-1.6-2.7-4.6-4.4-7.8-4.5c-2.3,0.1-4.4,1.5-5.4,3.6c-2.3,5.2,2,10.3,6.6,12.2
		c1.5,0.7,3.1,1.1,4.7,1.3l-2.9-2.4c-0.1,4.7,0.1,9.5,0.7,14.2c0.1,1,0.3,1.9,0.8,2.7c0.9,1.2,2.2,2,3.6,2.4
		c2.8,0.9,5.7,1.1,8.6,0.5c4-0.6,7.5-2.8,9.7-6.1l-1.1,0.6C126.8,232.9,130.5,228.4,132.6,224.9c1-1.7-3.4-4-4.4-2.3
		c-1.2,2.2-2.9,4.1-4.9,5.6c-0.5,0.4-1.1,0.7-1.8,1c-0.3,0.1-0.5,0.2-0.8,0.3c-0.1,0-0.8,0.2-0.5,0.1s-0.2,0-0.3,0
		c-1.2,0.3-1.6,1.4-2.4,2.2c-1.4,1.4-3.1,2.4-5,3c-1.5,0.5-3.1,0.7-4.8,0.6c-0.7,0-1.4-0.1-2.1-0.3c0.5,0.1-0.3-0.1-0.5-0.2
		c-0.6-0.2,0-0.1,0,0c0-0.1-0.4-0.2-0.4-0.2c0.6,0.4,0.3,0.2,0.2,0.1s0.4,0.5,0.2,0.1c0.2,0.2,0.3,0.6,0.2,0.3
		c-0.1-0.6-0.2-0.9-0.3-1.4c-0.2-1.6-0.3-3.2-0.4-4.9c-0.1-2.9-0.2-5.8-0.2-8.7c0-1.3-1.7-2.3-2.9-2.4c-0.3,0-0.6-0.1-0.8-0.1
		s-0.3-0.1,0,0l-0.5-0.1c-0.4-0.1-0.8-0.2-1.2-0.4c-0.7-0.2,0.5,0.2-0.2-0.1l-0.6-0.3c0,0-0.7-0.4-0.3-0.1l-0.6-0.4
		c-0.6-0.5-1.1-1.2-1.4-1.9c-1-2-0.5-4.4,1.1-5.9c0.6-0.5,1.3-0.8,2-0.8c0.2,0,0.3,0.1,0.4,0.2c0.3,0.3,0.7,0.7,0.9,1.1
		c0.6,0.9,1.6,1.4,2.6,1.6c0.6,0.1,1.8-0.1,1.8-1c-0.4-6.4-1.8-13.5-5.4-19l-0.4,1.8c2.4-0.9,4.9-1.6,7.3-2.2c2.2-0.6,4.4-1,6.6-1.4
		c2.2-0.4,4.4-0.5,6.5-0.5c0.6,0,1.2,0.1,1.7,0.2c0.1,0,0.9,0.2,0.5,0.1c0.2,0.1,0.5,0.1,0.7,0.2l0.3,0.1c0.5,0.1-0.2-0.1,0,0
		s0.4,0.2,0.6,0.3c-0.5-0.3,0,0,0.2,0.2c-0.4-0.3,0,0.1,0.2,0.2l-0.6-0.9c1.1,3,2.1,6.1,3,9.2c1.6,5.6,3.1,11.4,3.3,17.3
		c0.1,2.6,0,5.3-1.3,7.6C127.2,224.3,131.6,226.6,132.6,224.9z"></path><path class="st0" d="M121.4,212.8c0,0,14.8-0.9,15.8-8.9s-10-9.4-16.8-1.5"></path><path class="st2" d="M122.8,214c1.7-0.1,3.4-0.3,5-0.7c3-0.5,5.8-1.7,8.4-3.3c2.6-1.7,3.9-4.9,3.3-7.9c-0.9-4-5.7-5.8-9.3-6.1
		c-4.7-0.4-9.1,2.1-12.1,5.5c-0.5,0.6,3.7,2.9,4.7,1.8c2.2-2.6,5.7-4.8,9-4.9c0.4,0,0.7,0,1.1,0c-0.4,0,0,0,0.2,0h0.2
		c0.3,0-0.4-0.1-0.1,0c0.1,0,0.6,0.2,0.2,0.1c-0.5-0.2,0.5,0.2,0,0s0.4,0.2,0,0s0.2,0.1,0.2,0.2c-0.3-0.2-0.1-0.1,0,0.1
		s-0.1-0.1,0.1,0.1c0.2,0.2,0.4,0.5,0.5,0.7c0.3,0.6,0.5,1.2,0.6,1.8c0.9,5.9-5.9,8.6-10.4,9.6c-1.1,0.2-2.3,0.4-3.4,0.6
		c-0.3,0.1-0.7,0.1-1.1,0.1h-0.3c-0.2,0,0.5,0,0.3,0s-0.8,0-0.9,0.3s0.3,0.7,0.5,0.8C120.4,213.5,121.6,213.9,122.8,214L122.8,214z"></path><path class="st2" d="M108,214.9c0.1,0.7,0.3,1.5,0.6,2.1c0.4,0.9,1,1.7,1.8,2.3c0.6,0.6,1.4,1,2.1,1.4c1.4,0.7,3.2,0.4,4.3-0.8
		c0.2-0.2-0.1-0.8-0.2-1c-0.3-0.5-0.8-0.9-1.3-1.2c-0.5-0.4-1-0.6-1.6-0.8c-0.3-0.1-0.7-0.1-1,0.1c-0.1,0.1-0.3,0.2-0.4,0.3l0.2-0.1
		c-0.4,0.3-0.9,0.5-1.5,0.6h0.3c-0.2,0-0.3,0-0.5,0l0.4,0.1c-0.1,0-0.2,0-0.2-0.1c-0.2,0,0.6,0.2,0.4,0.1s-0.3-0.2,0.4,0.2l-0.1-0.1
		c-0.3-0.1,0.7,0.5,0.4,0.3c0.1,0.1,0.3,0.2,0.4,0.3l-0.1-0.1c-0.2-0.2,0.5,0.5,0.3,0.3l-0.1-0.1c-0.2-0.3,0.4,0.5,0.2,0.2
		c-0.1-0.1-0.2-0.3-0.3-0.4l0.2,0.4c-0.3-0.5-0.5-1.1-0.6-1.6l0.1,0.3c0-0.1-0.1-0.3-0.1-0.4c-0.1-0.4-0.3-0.8-0.6-1.1
		c-0.4-0.5-0.9-0.9-1.5-1.2c-0.4-0.3-0.9-0.5-1.5-0.5C108.4,214.5,108,214.6,108,214.9L108,214.9z"></path><path class="st2" d="M119,198c-0.6,0.3-0.9,1-0.6,1.6c0,0.1,0.1,0.1,0.1,0.2c0.7,1.1,2.1,0.2,1.8-0.9c0-0.6-0.5-1-1.1-0.9
		C119.1,198,119.1,198,119,198z"></path><path class="st2" d="M110.2,200.1c-0.6,0.3-0.9,1-0.6,1.6c0,0.1,0.1,0.1,0.1,0.2c0.7,1.1,2.1,0.2,1.8-0.9c0-0.6-0.5-1-1.1-0.9
		C110.4,200,110.3,200.1,110.2,200.1z"></path><path class="st1" d="M86.5,235.5c2.2,1.1,3.6,3.3,4.6,5.5c1.2,2.7,2.1,5.6,2.8,8.5c1.5,6,2.1,12.3,1.7,18.5c0,1,4.8,1.8,4.8,1.5
		c0.4-6.7-0.4-13.4-2.1-19.9c-1.4-5.1-3.1-11.1-8.2-13.7c-1.1-0.5-2.2-0.9-3.4-1C85.9,234.8,85.6,235.1,86.5,235.5L86.5,235.5z"></path><path class="st1" d="M122.2,233c6.2,3.6,11.4,8.7,14.9,15c2.4,4.3,3.9,9.1,4.4,14.1c0.1,0.9,0.1,1.8,0.1,2.7c0,0.7,0-0.2,0,0.1
		s0,0.3,0,0.5c0,0.3-0.1,0.5-0.1,0.8c-0.6,2.9,4.4,3.4,4.9,0.6c0.7-3.6-0.1-7.6-1-11.1c-1.6-6.4-4.8-12.3-9.1-17.2
		c-3.1-3.5-6.8-6.5-10.9-8.9c-1.1-0.7-2.6-0.5-3.5,0.4c-0.8,0.8-0.8,2.1,0,2.8C122,232.8,122.1,232.9,122.2,233L122.2,233z"></path><path class="st0" d="M115.6,276.9c-5.2-0.7-9.9,1.9-12.8,6.1c-1.5,2.1-2.2,4.7-1.9,7.3c0.6,2.6,1.9,5,3.8,6.9
		c3.5,3.9,7.9,7.3,13.4,6.5c4.7-0.6,8.6-4.2,9.5-8.9c0.5-2.7,0.1-5.5-1.2-8c-1.3-2.6-3.4-4.6-5-7c-0.6-0.9-1.8-2-2.9-1.5
		s-0.9,1.9-0.4,2.7c2,3,5.4,5.8,5.6,9.6c0.1,3.5-2,6.8-5.3,8.1c-1.6,0.7-3.3,0.8-4.9,0.5c-1.7-0.4-3.2-1.3-4.5-2.5
		c-1.5-1.2-2.7-2.7-3.7-4.4c-0.6-1.7-0.4-3.6,0.6-5.1c1.9-3.5,6.1-6.7,10.3-6.1C119.2,281.6,117.7,277.2,115.6,276.9L115.6,276.9z"></path><path class="st0" d="M137.8,300.5l-0.8-11.2l-0.4-5.6l-0.2-2.6c0-0.7-0.4-2.1,0-2.6l-0.5,0.5c3.6-2.5,7.1,0.6,7.3,4.4
		c0.2,3.4-2.4,6.4-5.8,6.6c-0.1,0-0.1,0-0.2,0c-1.2,0-2.3,0.4-3.2,1.1c-0.7,0.8,0.6,0.8,1.1,0.8c3.8-0.1,8.1-1.3,10.8-4.1
		c2.2-2.2,2.8-5.6,1.4-8.5c-1.9-3.6-6.1-3.7-9.7-2.8c-1.2,0.3-2.3,0.7-3.5,1.2c-0.8,0.3-2.1,0.7-2.6,1.6c-0.2,0.8-0.3,1.7-0.1,2.5
		l0.3,3.8l1.1,16.2C133.1,302.7,137.9,301.8,137.8,300.5L137.8,300.5z"></path><path class="st0" d="M106.7,324.2v8.8c0,2.7-0.2,5.5,0,8.3c0.2,2.3,1.1,4.4,3.6,4.9c1.5,0.2,2.9,0.3,4.4,0.1c1.5-0.1,3-0.2,4.6-0.5
		c1-0.2,2.4-1,2.5-2.2s-1.4-1.5-2.4-1.4c-1.1,0.2-2.2,0.3-3.3,0.4c-0.7,0-1.3,0-2,0c-0.5,0-1,0-1.4-0.1c-1.3-0.5-1.1-3.1-1.1-4.2
		v-15.1C111.5,320.9,106.7,322,106.7,324.2L106.7,324.2z"></path><path class="st0" d="M111.6,334.5c3.5,0.2,7.1,0.1,10.6-0.2c1.1-0.1,0.1-1.2-0.3-1.5c-0.9-0.7-2.1-1.1-3.3-1.1
		c-3.2,0.3-6.5,0.4-9.7,0.2c-0.3,0-0.8,0-0.9,0.3s0.2,0.7,0.4,0.9C109.3,333.9,110.4,334.4,111.6,334.5z"></path><path class="st0" d="M108.3,325.7h12.8c1.3-0.1,2.4-1.1,2.5-2.4c0-1.1-0.9-2.1-2.1-2.1c-0.1,0-0.2,0-0.2,0h-12.8
		c-1.3,0.1-2.4,1.1-2.5,2.4c0,1.1,0.9,2.1,2.1,2.1C108.1,325.7,108.2,325.7,108.3,325.7L108.3,325.7z"></path><path class="st0" d="M131.5,344.9v-18.4c0-0.6-0.2-2,0.2-2.5l-1.3,0.7l0.3-0.1l-2.8,0.5c1,0,1.9,1.4,2.5,2.2s1.2,1.5,1.8,2.2
		c1.2,1.5,2.4,3.1,3.7,4.7c2.4,3.1,5.2,5.9,8.3,8.2c0.7,0.5,4.7-0.5,4.6-1.6c-0.1-7.3-0.6-14.6-1.4-21.9c-0.1-0.7-4.9,0.3-4.8,1.5
		c0.8,7.3,1.3,14.6,1.4,21.9l4.6-1.6c-3.2-2.4-6-5.3-8.4-8.5c-1.3-1.6-2.5-3.2-3.8-4.8c-0.6-0.7-1.2-1.5-1.8-2.2
		c-0.5-0.8-1.2-1.4-2-1.8c-1.2-0.3-2.5-0.1-3.6,0.4c-0.8,0.3-1.8,0.7-2.2,1.5c-0.2,0.9-0.3,1.7-0.2,2.6v18.4
		C126.7,346.9,131.5,346.2,131.5,344.9L131.5,344.9z"></path><path class="st0" d="M112,396.6c14.3-5.7,23.9-18,36.2-26.7c0.5-0.4,1.2-0.9,1.2-1.7c0-0.6-0.5-1.1-1.1-1.2
		c-5.5-0.5-11.1,0.2-16.3,2.1c-0.8,0.3-2.2,1.3-1.8,2.4c2.2,5.7,5.7,10.7,10.4,14.7c1.3,1.1,3.2,0.2,4.1-0.9
		c3.4-3.6,6.5-7.6,9.2-11.7c0.5-0.5,0.4-1.3-0.1-1.8c-0.2-0.2-0.4-0.3-0.7-0.3c-1.2-0.2-2.5,0.3-3.3,1.3c-2.7,4.2-5.8,8.1-9.2,11.7
		l4.1-0.8c-4.4-3.7-7.8-8.6-9.9-14l-1.8,2.4c4-1.5,8.3-2.1,12.6-1.7l0.1-2.9c-6.1,4.3-11.6,9.5-17.2,14.3
		c-5.4,4.7-11.1,9.1-17.8,11.8c-0.9,0.4-2.2,1.3-1.8,2.4S111.2,396.9,112,396.6L112,396.6z"></path><path class="st0" d="M81.4,318c3.9,4.9,20.5,0.6,20.5,0.6c2.8,0.1,5.7,0.6,8.4,1.5c5.1,1.6,6.1-2.5,3.4-4s-7.3-4.9-7.3-4.9
		c3,0.7,5.9,1.7,8.8,3c3,1.5,5-1.4,2.2-3.7c-2.6-2.1-9.4-6.5-9.4-6.5c5.5-0.9,11.6,4.5,13.5,2.1s-8.2-9.1-14.4-9s-12.4,6.2-12.9,6.4
		L81.4,318z"></path><path class="st2" d="M79.2,317.5c2.7,3.1,7.5,3.9,11.4,4c3.7,0,7.3-0.4,10.9-1.2c0.8-0.2,1.6-0.4,2.4-0.5c-0.4,0.1,0,0,0,0
		c1,0.1,1.9,0.2,2.9,0.4c2.6,0.5,5.3,1.9,8,1.5c1.4-0.2,2.7-1.2,2.4-2.8c-0.4-2.2-3.1-3.2-4.7-4.2c-1.1-0.7-2.1-1.4-3.2-2.2
		c-0.4-0.3-0.8-0.5-1.2-0.8l-0.2-0.2l-0.9,0.9c2.4,0.5,4.8,1.3,7,2.3c1.5,0.7,3.9,1.8,5.7,0.9c1-0.5,1.4-1.8,0.9-2.8c0,0,0,0,0,0
		c-0.7-1.2-1.7-2.2-2.9-2.9c-1.2-0.9-2.5-1.8-3.8-2.7c-1.6-1.1-3.2-2.1-4.8-3.1l0.4,1.3c3.2-0.5,6,1.3,9,2.1
		c1.3,0.4,5.6,1.4,5.3-1.3c-0.3-2.1-3-3.9-4.5-5c-2.8-1.9-5.9-3.4-9.2-4.4c-3.2-1.1-6.7-1-9.9,0.2c-2.7,1.2-5.3,2.8-7.5,4.7
		c-2.1,2-4.1,4.1-5.8,6.4l-7.8,9c-0.4,0.5,3.7,3,4.6,2c4.1-4.8,8.2-9.6,12.4-14.3l0.2-0.2c-0.3,0.3,0.2-0.1,0.3-0.2
		c0.8-0.6,1.5-1.3,2.3-1.9c2.5-1.8,5.3-3.5,8.4-4c2.3-0.2,4.6,0.2,6.6,1.3c1.8,0.9,3.9,2.1,5,3.9c0.3,0.5,0.5,1.2,0,1.7
		c-0.7,0.7-1.6,0.1-2.3-0.2c-3.2-1.2-7-2.8-10.6-2.3c-1,0.1,0,1,0.4,1.3c1.3,0.8,2.5,1.6,3.8,2.5c1,0.7,2.1,1.4,3.1,2.1
		c0.9,0.5,1.7,1.1,2.4,1.9c0.7,0.8,1,2.2-0.1,2.8c-0.1,0.1-0.3,0.1-0.4,0.1c-0.3,0-0.2,0,0.2,0.1s0.4,0.1-0.3-0.2l-0.6-0.3
		c-0.9-0.4-1.8-0.8-2.7-1.1c-2.1-0.8-4.2-1.4-6.3-1.9c-0.7-0.2-2.1,0-0.9,0.9s2.3,1.6,3.5,2.5c0.8,0.6,1.7,1.1,2.5,1.6
		c0.4,0.2,0.8,0.5,1.2,0.7c0.3,0.1,0.6,0.3,0.9,0.5c0,0-0.2-0.1-0.2-0.1c0.6,0.7,0.6,1.9-0.2,2.5c-0.1,0.1-0.2,0.2-0.4,0.2
		c-0.8,0.3-1.6,0.3-2.4,0c-1.4-0.4-2.8-0.8-4.2-1.1c-2-0.6-4.1-0.7-6.2-0.4c-2.6,0.6-5.2,1-7.8,1.3c-1.9,0.2-3.8,0.3-5.7,0.1
		c-0.4,0-0.8-0.1-1.2-0.2s-0.6-0.2-0.7-0.2c-0.2,0-0.2-0.3,0,0c0.4,0.5,0-0.3,0.2,0.1c-0.1-0.1-0.1-0.1-0.4-0.4
		c-0.8-0.8-1.9-1.4-3-1.6C80,316.8,78.5,316.7,79.2,317.5z"></path><path class="st1" d="M87.8,166.7c-1.8-12.1-1.5-25.4,5.2-36.1c2.6-4.3,6.2-7.9,10.5-10.6c4.1-2.5,10.2-4.7,15-2.8
		c5.3,2,7.8,8.8,9.7,13.7c1.2,3,2.2,6.1,3,9.2c0.4,1.5,0.8,3,1.1,4.5c0.2,1.2,0.6,2.9,0,4c-0.2,0.3-0.6,0.5-0.9,0.5
		c-0.8,0.1-1.7,0-2.4-0.5c-1.9-1.1-2.4-3.6-2-5.6c1-5.2,6.9-6.9,11.4-7.3c11.6-1.1,22.9,4.2,29.6,13.7c0.7,0.9,2,1.1,3,0.4
		c0.7-0.3,2.2-1.6,1.6-2.6c-7.1-10.3-19.1-16.1-31.6-15.4c-6.2,0.4-13.7,2.4-17.2,8c-1.7,2.6-2,5.8-1,8.7c1.1,2.5,3.5,4.1,6.2,4.2
		c2.9,0.2,5.7-1.1,7.4-3.4c2.1-2.9,0.6-7-0.2-10.2c-0.9-3.7-2.1-7.4-3.6-11c-1.2-3.3-2.8-6.4-4.7-9.3c-1.7-2.7-4.4-4.7-7.5-5.6
		c-3.5-0.8-7.2-0.7-10.6,0.4c-6.2,1.7-11.8,5.1-16.1,9.8c-11.2,11.8-13,28.8-10.6,44.3c0.4,2.4,5.1,0.8,4.7-1.2L87.8,166.7z"></path></g></svg>