<svg transform="scale(1)" version="1.1" id="JewM9Ra89h" xmlns="http://www.w3.org/2000/svg" xmlns:xlink="http://www.w3.org/1999/xlink" x="0px" y="0px" viewBox="0 0 500 500" xml:space="preserve" class="pbimage_pbimage__wrapper__image__0LEis false"><title>Store Open 3</title><style type="text/css"> .st0{fill:#FFFFFF;} .st1{fill:#59BE4C;} .st2{fill:#000005;}
 .st2{fill:#000005;}
 .st1{fill:#3560ba;}
 .st0{fill:#FFFFFF;}</style><g id="store"><path class="st0" d="M193.8,207.4c0,0,5.9-4.7,13.7,0.2s7.5,15-8.1,16.1s-42.7,5.6-48-5.4s10-17.3,18.1-11c0,0,1.1-5.8,10.9-5.8
		S193.8,203.9,193.8,207.4z" fill="#FFFFFF"></path><path class="st1" d="M195.3,208.6c0.2-0.1,0.4-0.3,0.5-0.4c0.5-0.3-0.4,0.1,0.3-0.1c0.4-0.2,0.7-0.3,1.1-0.5
		c0.7-0.3-0.5,0.1,0.3-0.1l0.5-0.1c0.3-0.1,0.7-0.1,1-0.2c1.2-0.1,2.3,0,3.5,0.4c3.2,1,6.4,3.4,7.2,6.4c0.7,2.6-0.4,4.5-2.5,5.9
		c-1.6,0.9-3.4,1.5-5.2,1.8c-2.1,0.4-4.3,0.4-6.4,0.6c-9,0.8-18,1.9-27.1,1.4c-3.5-0.1-7-0.8-10.3-2.1c-1.2-0.5-2.4-1.3-3.3-2.2
		c-1.1-1.2-1.8-2.7-2.1-4.4c-0.3-1.7,0-3.4,0.9-4.8c0.9-1.3,2.2-2.3,3.8-2.8c1.5-0.6,3.1-0.8,4.7-0.7c1.9,0.1,3.8,0.8,5.3,2
		c1.3,1,4,0.4,4.4-1.4l0.1-0.2c-0.1,0.4-0.1,0.2,0.1-0.1s0.3-0.6,0.4-0.8s-0.3,0.3,0.1-0.1l0.4-0.4c0.2-0.2,0.3-0.4,0.5-0.5
		c-0.4,0.4,0.3-0.2,0.4-0.2c0.3-0.3,0.7-0.5,1.1-0.6c1.3-0.5,2.6-0.8,4-0.9c3.2-0.2,7-0.1,9.9,1.1l0.6,0.3c0.2,0.1,0.3,0.1,0.4,0.2
		c0.3,0.2,0.6,0.4,0.9,0.8c0.1,0.1,0.2,0.3,0.3,0.4l0.1,0.3l0,0c0.1,0.2,0.1,0.4,0.2,0.6c0,0.1,0.1,0.7,0,0.3c0,1.2,1,1.8,2.2,1.8
		c0.9,0,2.8-0.7,2.7-1.9c-0.1-5.2-5.7-6.8-10-7.3c-5.8-0.6-13.4-0.8-17.4,4.2c-0.8,0.9-1.4,2-1.7,3.2l4.4-1.4
		c-3.8-2.8-8.7-3.7-13.3-2.5c-4.1,1-8.3,3.6-9.8,7.7c-1.2,4,0,8.4,3.2,11.2c3.1,2.7,7.5,3.8,11.4,4.4c10.1,1.4,20.5,0.1,30.6-0.8
		c5.1-0.5,10.5-0.4,15.2-2.8c3.5-1.8,6.4-4.8,6-9c-0.4-4.6-4.8-8.1-8.8-9.6c-4.4-1.6-10.1-1.4-13.9,1.6c-0.8,0.7-1.3,1.8-0.4,2.6
		C192.9,209.5,194.3,209.4,195.3,208.6z" fill="#3560ba"></path><path class="st0" d="M190.8,211.9c0.1-1.6,0.8-3.2,1.9-4.4" fill="#FFFFFF"></path><path class="st1" d="M193,212.8c0-0.4,0.1-0.8,0.2-1.2l-0.1,0.5c0.2-0.8,0.5-1.6,1-2.2l-0.3,0.4c0.2-0.3,0.5-0.7,0.7-0.9
		c0.8-0.9,0.3-2.3-0.5-3c-0.4-0.4-1-0.7-1.6-0.9c-0.5-0.1-1,0.1-1.4,0.4c-1.3,1.4-2.2,3.3-2.3,5.3c0,0.6,0.1,1.2,0.5,1.6
		c0.4,0.5,0.9,1,1.5,1.2c0.5,0.2,1.1,0.2,1.6,0C192.7,213.7,193,213.3,193,212.8L193,212.8z" fill="#3560ba"></path><path class="st0" d="M168,212.2l0.7-3.8" fill="#FFFFFF"></path><path class="st1" d="M170.3,213l0.7-3.8c0.1-0.3,0.1-0.5,0-0.8c0-0.3-0.1-0.5-0.3-0.8c-0.4-0.5-0.9-0.9-1.5-1.1
		c-0.6-0.2-1.3-0.2-1.9,0l-0.5,0.2c-0.3,0.2-0.5,0.5-0.6,0.8l-0.7,3.8c-0.1,0.2-0.1,0.5,0,0.8c0,0.3,0.1,0.5,0.3,0.8
		c0.4,0.5,0.9,0.9,1.5,1.1c0.6,0.2,1.3,0.2,1.9,0l0.5-0.2C170,213.6,170.2,213.3,170.3,213L170.3,213z" fill="#3560ba"></path><path class="st1" d="M137.6,300.5c0,0,4-2.2,4.9-4.1s0.2-14.2-3.5-18.1s-14.4-7.8-14.4-7.8L137.6,300.5z" fill="#3560ba"></path><path class="st1" d="M139.5,302.1c1.9-1.1,4.8-2.7,5.1-5c0.3-3,0.2-5.9-0.5-8.8c-0.6-3.2-1.4-6.6-3.6-9c-2.8-3-6.2-5.5-10-7.2
		c-2.5-1.2-5-2.3-7.6-3.3c-0.1,0-0.2,0-0.1,0.1l11.3,26.3l1.6,3.7c0.6,0.9,1.3,1.6,2.1,2.2C138.1,301.3,139.5,302.3,139.5,302.1
		l-10.4-24l-2.1-5.1c-0.2-0.3-0.3-0.6-0.4-1c0,0-0.2,0,0,0.1l1,0.4c3,1.1,5.9,2.5,8.7,4.1c0.7,0.4,1.3,0.8,2,1.3s-0.7-0.5-0.5-0.5
		s0.4,0.6,0.4,0.7c0.8,1.4,1.3,2.9,1.7,4.5c0.9,3.4,1.3,7,1.1,10.6c-0.2,2.8-3,4.4-5.2,5.7c-0.2,0.1,1.5,1.8,1.7,1.9
		S139.1,302.4,139.5,302.1z" fill="#3560ba"></path><path class="st0" d="M124.7,270.4c0,0,14.2,14.2,9.6,15s-43.4-2.4-43.6-3.9S117.7,269.1,124.7,270.4z" fill="#FFFFFF"></path><path class="st1" d="M124.2,272.1c1.7,1.7,3.4,3.5,4.9,5.3c1.2,1.3,2.3,2.7,3.3,4.1c0.2,0.3,0.4,0.7,0.7,1c0.1,0.1,0.4,0.7,0,0.1
		l0.2,0.5c0.1,0.1,0.1,0.3,0.2,0.4c0.3,0.5-0.2-0.6,0-0.1c0.1,0.3,0,0.4,0-0.1c0,0.6,0-0.4,0,0c0.1-0.6,0.1-0.2,0-0.1
		c0.3-0.5,0-0.1,0-0.1c0.5-0.3-0.5,0.1-0.1,0c-0.4,0.1-0.7,0.1-1.1,0.1c-1.2,0.1-2.4,0-3.6,0c-3.7-0.1-7.5-0.3-11.2-0.6
		c-7.9-0.5-15.8-1.1-23.6-2.3c-0.6-0.1-1.2-0.2-1.8-0.3l-0.7-0.1l-0.3-0.1c0.4,0.1,0,0-0.1,0c-0.2-0.1-0.5-0.2-0.7-0.3
		c0.2,0,0.6,0.4,0.7,0.5l1,3.1c-0.2,0.3-0.2,0.4-0.1,0.3c0-0.1,0.3-0.3,0.1-0.1c2.2-1.7,5.2-2.7,7.8-3.8c4.7-1.9,9.4-3.6,14.3-5
		c2.1-0.6,4.3-1.2,6.5-1.5c1.5-0.3,3.1-0.4,4.7-0.2c1.1,0.2,0.8-1.7,0.7-2.3c-0.3-1.1-1.1-2-2.2-2.4c-1.5-0.2-3-0.1-4.4,0.2
		c-2.2,0.4-4.3,0.9-6.4,1.5c-4.7,1.3-9.4,2.9-13.9,4.8c-3,1.2-6.3,2.3-9,4.2c-1.6,1.1-1.2,3.1,0.1,4.5c0.8,0.7,1.7,1.1,2.7,1.2
		c3.2,0.6,6.4,1.1,9.6,1.3c4.6,0.5,9.2,0.9,13.7,1.2c4.2,0.3,8.5,0.6,12.8,0.8c1.4,0,2.9,0.1,4.3,0.1c0.9,0,2.2,0.1,2.9-0.7
		c1.1-1.3,0.3-3.5-0.3-4.8c-0.8-1.7-1.9-3.3-3.1-4.8c-2.3-2.9-4.7-5.6-7.3-8.2l-0.5-0.5c-0.6-0.6-1.6-1.1-2,0
		S123.5,271.4,124.2,272.1z" fill="#3560ba"></path><path class="st0" d="M90.7,281.5c0,0,2.5,12.8,5.2,16s38.7,5.2,41.7,2.9s-3.3-15.1-3.3-15.1c-6.5-1.3-13.1-2.4-19.7-3
		C104.8,281.4,90.7,281.5,90.7,281.5z" fill="#FFFFFF"></path><path class="st1" d="M88.2,281.9c0.7,3.6,1.6,7.2,2.8,10.7c0.7,2.1,1.4,4.5,2.9,6.2c0.8,0.9,1.9,1.5,3.1,1.8
		c3.6,1,7.2,1.6,10.9,1.9c4.6,0.5,9.3,0.8,13.9,1c4.1,0.2,8.2,0.2,12.4-0.1c3-0.2,6.2-0.8,6.6-4.3c0.1-2.1-0.2-4.3-1-6.3
		c-0.7-2.1-1.5-4.2-2.4-6.2c-0.7-1.6-1.1-3-3-3.4c-1.6-0.4-3.2-0.6-4.8-0.9c-7.2-1.3-14.4-2.2-21.7-2.6c-5.3-0.3-10.7-0.4-16-0.3h-1
		c-1.2,0-2.6,0.6-2.7,2c0,1.3,1,2.4,2.3,2.5c12.3-0.2,24.7,0.6,36.8,2.6c2.2,0.4,4.5,0.8,6.7,1.3l-2-1.3c0.8,1.6,1.5,3.3,2.2,5
		c0.5,1.3,0.9,2.7,1.3,4c0.2,0.7,0.3,1.4,0.4,2c0,0.1,0,0.3,0,0.4c0-0.4,0-0.1,0,0c0,0.3,0,0.6,0,0.9s0-0.1,0-0.1
		c0,0.1-0.1,0.2-0.1,0.3c-0.1,0.3,0.3-0.3,0.1-0.1s-0.2,0.1,0.1-0.1c-0.3,0.2,0.6-0.1,0.3-0.1c-0.1,0-0.3,0.1-0.4,0.1
		c-0.5,0.2,0.6-0.1,0.1,0l-0.5,0.1c-0.4,0.1-0.8,0.1-1.2,0.2c-1,0.1-2.1,0.2-3.1,0.2h-0.9H130c-0.4,0,0.6,0-0.1,0h-2
		c-6.2,0-12.5-0.4-18.7-1c-2.7-0.3-5.3-0.6-8-1.1l-0.7-0.1c-0.3-0.1,0.5,0.1-0.2-0.1c-0.5-0.1-0.9-0.2-1.4-0.4s-0.6-0.2-1-0.3
		c-0.6-0.2,0.3,0.1,0.1,0c-0.1-0.1-0.2-0.1-0.3-0.2c-0.2-0.2,0.3,0.3,0.3,0.3s-0.2-0.2-0.2-0.2c-0.1-0.3,0-0.1,0,0.1l-0.3-0.5
		c-0.4-0.7-0.7-1.4-1-2.1c-0.6-1.7-1.2-3.3-1.6-5.1c-0.7-2.4-1.2-4.8-1.7-7.2C92.6,278.4,87.7,279,88.2,281.9z" fill="#3560ba"></path><path class="st0" d="M123.9,261.6c0,0,8,5.6,4.4,10.4s-9.8,2.2-11.7-0.3S123.9,261.6,123.9,261.6z" fill="#FFFFFF"></path><path class="st1" d="M121.6,262.4c1.6,1.1,3,2.6,4.1,4.2c0.7,1.1,1.1,2.4,1,3.7c-0.1,0.7-0.4,1.4-0.9,2c-0.3,0.4-0.6,0.7-1,1
		c-0.2,0.2,0.3-0.2-0.1,0l-0.2,0.2c-0.1,0.1-0.2,0.1-0.2,0.1c0.4-0.1,0.1-0.1,0,0s-0.1-0.1,0.2-0.1c-0.1,0-0.2,0.1-0.3,0.1
		c-0.4,0.1,0.2-0.1,0.2-0.1s-0.6,0.1-0.1,0s0.1,0,0,0s-0.4-0.1,0.1,0c-0.1,0-0.6,0.1-0.7,0s0.5,0.1,0.1,0h-0.3l-0.5-0.1
		c-0.4-0.1,0.2,0.1,0,0l-0.2-0.1l-0.6-0.2c-1.2-0.4-2.4-1.2-3.2-2.2L119,271c-0.1-0.1,0.1,0.2,0.1,0.1c0-0.1-0.1-0.2-0.1-0.2
		c0-0.2,0-0.4,0-0.6c0,0.3,0,0,0-0.1c0-0.1,0.1-0.2,0.1-0.3c0.1-0.2,0.2-0.5,0.3-0.7c0.1-0.2,0.3-0.5,0.4-0.7l0.3-0.4l0.1-0.2
		c0.2-0.2-0.1,0.2,0.1-0.1c0.4-0.5,0.8-1,1.3-1.5c1.4-1.6,3-3.1,4.6-4.5c0.9-0.7-0.7-1.1-1.1-1c-1.2,0-2.3,0.3-3.3,1
		c-1.6,1.3-3,2.7-4.4,4.2c-1,1.1-1.9,2.3-2.7,3.6c-0.5,0.9-0.9,2.1-0.3,3c1,1.2,2.2,2.1,3.6,2.6c2.2,0.8,4.5,1,6.8,0.5
		c2.5-0.5,4.7-1.9,6.2-4c0.8-1.4,1-3.1,0.3-4.6c-1.1-2.4-2.9-4.5-5.1-6c-0.8-0.6-2.3-0.3-3.1,0C122.8,261,120.8,261.8,121.6,262.4z" fill="#3560ba"></path><path class="st0" d="M123.8,266.3v1.1" fill="#FFFFFF"></path><path class="st1" d="M121.3,266.1v1.1c0,0.1,0.1,0.1,0.2,0.1c0.2,0.1,0.3,0.1,0.5,0.1c0.3,0.1,0.5,0.1,0.8,0.1c0.3,0,0.6,0.1,1,0.1
		h0.7c0.4,0,0.7,0,1.1,0l0.4,0c0.1,0,0.3-0.1,0.3-0.2v-1.1c0-0.1-0.1-0.1-0.2-0.1c-0.2-0.1-0.3-0.1-0.5-0.2c-0.3,0-0.5-0.1-0.8-0.1
		l-1-0.1h-0.7c-0.4,0-0.7,0-1.1,0l-0.4,0C121.5,266,121.4,266,121.3,266.1z" fill="#3560ba"></path><path class="st1" d="M126.3,270.4c0.4,0,2.5,0,2.5-0.7s-2.2-0.6-2.5-0.6s-2.5,0-2.5,0.7S126,270.4,126.3,270.4z" fill="#3560ba"></path><path class="st1" d="M124.3,273.8c0.9,0-0.5-1.7-0.6-1.9c-0.6-0.7-1.6-1.7-2.6-1.7s0.5,1.7,0.6,1.9
		C122.3,272.7,123.3,273.7,124.3,273.8L124.3,273.8z" fill="#3560ba"></path><path class="st1" d="M120.9,271.3c1.4,0-0.3-4.5-1.7-4.5S119.6,271.3,120.9,271.3z" fill="#3560ba"></path><path class="st1" d="M135.1,292.8c-3.1-2-6.8-2.8-10.4-2.1c-1.9,0.3-3.8,1-5.4,2c-1.1,0.6-2.6,2-4,1.8s-2.6-1.4-3.6-2.3
		c-1.2-1.2-2.6-2.1-4.1-2.6c-4-1.2-8.1,0.3-12.1,0.7c-1,0.1-2.6,0.6-3,1.6s0.6,1.4,1.4,1.3c2-0.2,4-0.6,6-0.9
		c1.7-0.4,3.6-0.3,5.2,0.5c2.6,1.4,4.1,4.1,7.2,4.7c1.9,0.2,3.7-0.1,5.4-0.9c1.6-0.7,3-1.9,4.7-2.6c2.7-1.1,6.1-0.4,8.4,1.2
		c0.9,0.6,2.3,0.2,3.2-0.3C134.5,294.6,136,293.4,135.1,292.8L135.1,292.8z" fill="#3560ba"></path><path class="st1" d="M198.1,374.3c0,0,6.5-17.4-1.7-26.2s-23.4-2.2-23.4-2.2s-7.5-9.7-20-3.4s-5.3,31.9-5.3,31.9H198.1z" fill="#3560ba"></path><path class="st1" d="M200.6,374.9c2.2-6,3.3-13.2,1.8-19.5c-1.1-4.7-4.3-8.7-8.6-10.8c-4.5-2-9.6-2.6-14.4-1.8
		c-2.8,0.4-5.6,1.1-8.2,2.2l4.4,1.2c-5.8-7.4-17.5-8.7-25.3-4.1s-7.4,16.4-6.3,24.2c0.3,2.6,0.9,5.2,1.5,7.8c0.3,1,2.8,1.3,3.5,1.3
		h50.3c0.6,0,1.8-0.2,1.1-1s-2.4-1-3.3-1h-50.3l3.5,1.3c-1.6-5.6-2.3-11.4-2-17.2c0.2-3.9,1-8.3,3.6-11.4c1.5-1.7,3.4-3,5.6-3.7
		c1.3-0.5,2.7-0.9,4.1-1c1-0.1,2,0,3,0.2c0.8,0.2-0.4-0.1,0.4,0.1c0.1,0,0.9,0.3,0.6,0.2c0.5,0.2,1,0.4,1.2,0.6
		c0.8,0.4,1.5,0.9,2.1,1.4c0.5,0.4,1,0.9,1.4,1.3c0.1,0.1,0.8,0.9,0.3,0.4c1.2,1.2,2.8,1.6,4.4,1.2c1.8-0.8,3.7-1.3,5.6-1.7
		c1.7-0.4,3.5-0.6,5.2-0.6c1.6-0.1,3.3,0.2,4.8,0.9c8,3.6,8.2,14.2,6.8,21.6c-0.4,2.3-1,4.6-1.8,6.8
		C195.3,374.8,200.1,376.2,200.6,374.9z" fill="#3560ba"></path><path class="st0" d="M175.5,349.9c0,0-8-6.3-15.7-1.4s-5.8,25.6-5.8,25.6l44.1,0.2c0,0,6-16.1-2.2-23.6S175.5,349.9,175.5,349.9z" fill="#FFFFFF"></path><path class="st1" d="M175.8,349.5c-2.5-1.9-5.3-3.3-8.4-4c-4-0.9-8.8-0.1-11.5,3.2c-2,2.4-2.9,5.7-3.4,8.8
		c-0.5,3.2-0.8,6.5-0.8,9.8c0,1.8,0.1,3.7,0.2,5.5c0.1,0.6,1.3,1.4,1.7,1.7c0.6,0.6,1.3,1,2.2,1.1l14.9,0.1l23.7,0.1h5.5l0.1,0
		c1.9-5.1,2.8-11.1,1.7-16.5c-0.9-4.7-3.9-8.2-7.9-10.8c-3.8-2.5-8.3-3.4-12.8-2.7c-2.7,0.4-5.3,1.3-7.8,2.5
		c-0.4,0.2,1.6,1.8,1.7,1.9c0.4,0.3,1.7,1.4,2.3,1.1c2.3-1.2,4.9-2,7.5-2.4c2.3-0.4,4.6-0.4,6.8,0.1c1.8,0.3,3.4,1.4,4.4,3
		c2.2,3.5,2.4,8.1,1.9,12.1c-0.2,1.8-0.5,3.5-1,5.3c-0.2,1-0.7,2-0.9,3c-0.1,0.4,0.1,0.3-0.3,0.3c-0.6,0-1.2,0-1.9,0h-7.2l-21-0.1
		l-13.6-0.1l3.9,2.9c-0.4-4.3-0.3-8.6,0.2-12.8c0.3-3.1,1.1-6.1,2.4-9c1.6-3.2,4.9-5.3,8.4-5.5c2.2-0.1,4.4,0.2,6.4,1.2
		c0.3,0.1,0.6,0.3,0.9,0.4l0.4,0.2c0.5,0.3-0.3-0.2,0.1,0.1s0.7,0.5,0.1,0.1l0.2,0.1c0.2,0.2,2,1.5,2.3,1.1S176,349.6,175.8,349.5z" fill="#3560ba"></path><path class="st1" d="M190.2,357.9c0.7,0,2.5-0.1,2.5-1.1s-1.9-1.2-2.5-1.2s-2.5,0.1-2.5,1.1S189.6,357.9,190.2,357.9z" fill="#3560ba"></path><path class="st0" d="M184.9,365.9l-1.2-0.4" fill="#FFFFFF"></path><path class="st1" d="M183.9,363.6l-1.2-0.4c-0.1,0-0.2,0-0.3,0.1c-0.1,0.1-0.1,0.2-0.1,0.4c0,0.2,0.1,0.4,0.1,0.6
		c0.1,0.3,0.2,0.5,0.3,0.8l0.3,0.6c0.2,0.4,0.4,0.7,0.7,1.1l0.3,0.4c0.2,0.2,0.3,0.3,0.6,0.4l1.2,0.4c0.1,0,0.2,0,0.3-0.1
		c0.1-0.1,0.1-0.2,0.1-0.4c0-0.2-0.1-0.4-0.1-0.7c-0.1-0.3-0.2-0.5-0.3-0.8l-0.3-0.6c-0.2-0.4-0.4-0.7-0.7-1.1l-0.3-0.4
		C184.3,363.9,184.1,363.7,183.9,363.6z" fill="#3560ba"></path><path class="st0" d="M170.4,355.8l-2.6-0.9" fill="#FFFFFF"></path><path class="st1" d="M171.8,354l-2.6-0.9c-0.2-0.1-0.5-0.1-0.8,0c-0.3,0-0.6,0.1-0.8,0.3c-0.3,0.1-0.6,0.3-0.8,0.5
		c-0.3,0.2-0.5,0.4-0.7,0.6l-0.3,0.5c-0.2,0.3-0.2,0.6-0.2,0.9l0.1,0.4c0.2,0.2,0.4,0.4,0.7,0.4l2.6,0.9c0.2,0.1,0.5,0.1,0.8,0
		c0.3,0,0.6-0.1,0.8-0.3c0.3-0.1,0.6-0.3,0.9-0.5c0.3-0.2,0.5-0.4,0.7-0.6l0.3-0.5c0.2-0.3,0.2-0.6,0.2-0.9l-0.1-0.4
		C172.3,354.2,172.1,354,171.8,354z" fill="#3560ba"></path><path class="st0" d="M167.3,366h-1.9" fill="#FFFFFF"></path><path class="st1" d="M167.7,363.9h-1.9c-0.3,0-0.7,0-1,0.1c-0.3,0.1-0.6,0.2-0.9,0.4c-0.3,0.2-0.5,0.4-0.6,0.6
		c-0.2,0.2-0.3,0.5-0.4,0.8v0.6c0.1,0.4,0.2,0.7,0.5,1l0.4,0.4c0.3,0.2,0.7,0.4,1.2,0.4h1.9c0.3,0,0.7,0,1-0.1
		c0.3-0.1,0.6-0.2,0.9-0.4c0.3-0.2,0.5-0.4,0.6-0.6c0.2-0.2,0.3-0.5,0.4-0.8v-0.6c-0.1-0.4-0.2-0.7-0.5-1l-0.4-0.4
		C168.5,364.1,168.1,364,167.7,363.9L167.7,363.9z" fill="#3560ba"></path><path class="st1" d="M119,374.2c0,0,6.5-17.4-1.7-26.3s-23.4-2.2-23.4-2.2s-7.5-9.7-20-3.4s-5.3,31.9-5.3,31.9H119z" fill="#3560ba"></path><path class="st1" d="M121.3,373.5c2.2-5.9,3.3-13,1.9-19.2c-0.9-4.6-3.9-8.5-8.1-10.5c-3.9-1.8-8.5-1.8-12.7-1
		c-3.2,0.5-6.4,1.4-9.3,2.7l3.1-0.6c-1.8-2.1-4.1-3.8-6.7-4.7c-6-2.2-13.1-0.4-18.3,2.9c-7.9,5-7.7,16.1-6.5,24.3
		c0.3,2.6,0.8,5.2,1.5,7.8c0.1,0.1,0.3,0.2,0.4,0.1h50.3c1.2-0.1,2.3-0.4,3.3-1c0.3-0.2,1.6-1,0.6-1H70.6l0.4,0.1
		c-1.6-5.6-2.3-11.4-2-17.2c0.2-4,1-8.3,3.5-11.5c2.8-3.5,7.7-4.1,11.9-2.8c2.8,0.8,5.4,2.5,7.2,4.8c0.5,0.6,2.7-0.5,3.2-0.6
		c-0.6,0.3-0.6,0.2-0.2,0.1l0.5-0.2H95l0.4-0.1l0.8-0.3c0.1,0,0.7-0.2,0.2-0.1l0.4-0.1c0.8-0.2,1.6-0.4,2.3-0.5
		c3.9-0.9,8.1-0.5,11.8,1.1c8.3,4,8.9,14.2,7.5,22.2c-0.4,2.3-1,4.6-1.8,6.8c-0.2,0.7,1.7,0.1,1.9,0
		C119.2,374.8,121,374.3,121.3,373.5z" fill="#3560ba"></path><path class="st0" d="M96.3,349.8c0,0-7.9-6.3-15.7-1.4S74.9,374,74.9,374l44.1,0.2c0,0,6-16.2-2.2-23.6S96.3,349.8,96.3,349.8z" fill="#FFFFFF"></path><path class="st1" d="M98.1,350.4c-2.7-2.1-5.8-3.6-9.2-4.5c-4-1.1-9-0.6-11.9,2.7c-2.1,2.3-3,5.6-3.6,8.6
		c-0.6,3.3-0.9,6.7-0.8,10.1c0,1.9,0,3.8,0.2,5.6c0,0.6,1.3,1.2,1.7,1.4c0.8,0.6,1.6,0.9,2.6,1.1l14.9,0.1l23.7,0.1h5.5l0.1-0.1
		c2-5.2,2.6-10.9,1.7-16.4c-1.8-9.2-12.3-14.3-21-12.9c-2.7,0.4-5.3,1.3-7.7,2.5c-0.2,0.1,1.8,1.5,2,1.6c0.5,0.3,1.8,1.1,2.4,0.8
		c2.3-1.2,4.9-2,7.5-2.4c2.3-0.4,4.6-0.4,6.8,0.2c1.8,0.6,3.2,1.9,4,3.6c2.1,3.6,2.3,8.1,1.9,12.1c-0.4,2.8-1,5.6-1.8,8.3
		c-0.1,0.4,0.1,0.3-0.3,0.3c-0.6,0-1.2,0-1.9,0h-7.2l-21-0.1l-13.6-0.1l4.2,2.5c-0.4-4.1-0.3-8.3,0.1-12.4c0.2-3.1,1-6.2,2.3-9.1
		c1.4-3.1,4.4-5.3,7.8-5.8c2.1-0.3,4.3-0.1,6.3,0.7c0,0,0.9,0.4,0.5,0.2l0.3,0.1c-0.4-0.2,0.5,0.3,0.1,0s0.3,0.2,0.3,0.2
		s-0.4-0.3-0.2-0.1c0.9,0.7,2,1.3,3.1,1.7C98.5,351.1,98.8,351,98.1,350.4z" fill="#3560ba"></path><path class="st1" d="M112.8,358.3c0.6,0-0.9-1.5-1-1.6c-0.6-0.5-1.7-1.8-2.6-1.8c-0.6,0,0.9,1.5,1,1.6
		C110.8,357.1,111.9,358.3,112.8,358.3z" fill="#3560ba"></path><path class="st0" d="M105.8,365.8l-1.2-0.4" fill="#FFFFFF"></path><path class="st1" d="M106.6,364.3l-1.2-0.4c-0.3-0.1-0.7-0.2-1-0.1c-0.3,0-0.7,0-1,0.1c-0.3,0-0.5,0.2-0.7,0.3
		c-0.2,0.1-0.4,0.3-0.5,0.5l-0.1,0.4c0,0.3,0.1,0.6,0.2,0.8l0.3,0.4c0.3,0.2,0.6,0.4,1,0.5l1.2,0.4c0.3,0.1,0.7,0.2,1,0.1
		c0.3,0,0.6,0,0.9-0.1c0.3,0,0.5-0.2,0.7-0.3c0.2-0.1,0.4-0.3,0.5-0.5l0.1-0.4c0-0.3-0.1-0.6-0.2-0.8l-0.3-0.4
		C107.2,364.6,106.9,364.4,106.6,364.3L106.6,364.3z" fill="#3560ba"></path><path class="st0" d="M91.3,355.7l-2.6-0.9" fill="#FFFFFF"></path><path class="st1" d="M91.7,353.6l-2.6-0.9c-0.3-0.1-0.6-0.1-0.9-0.1c-0.3,0-0.6,0.1-0.8,0.2c-0.3,0.1-0.5,0.3-0.6,0.5
		c-0.2,0.2-0.3,0.5-0.4,0.7c-0.1,1.3,0.8,2.4,2,2.8l2.6,0.9c0.3,0.1,0.6,0.1,0.9,0.1c0.3,0,0.6-0.1,0.8-0.2c0.3-0.1,0.5-0.3,0.6-0.5
		c0.2-0.2,0.3-0.4,0.4-0.7C93.8,355.1,92.9,353.9,91.7,353.6z" fill="#3560ba"></path><path class="st0" d="M88.2,366h-1.9" fill="#FFFFFF"></path><path class="st1" d="M90.1,364.5h-1.9c-0.2,0-0.3,0-0.5,0.1c-0.2,0.1-0.4,0.2-0.7,0.3c-0.3,0.1-0.5,0.3-0.8,0.5
		c-0.3,0.2-0.6,0.4-0.8,0.6l-0.5,0.4c-0.2,0.2-0.5,0.4-0.6,0.7c-0.1,0.1-0.3,0.5,0,0.5h1.9c0.2,0,0.3,0,0.5-0.1
		c0.2-0.1,0.5-0.2,0.7-0.3c0.3-0.1,0.5-0.3,0.8-0.5c0.3-0.2,0.6-0.4,0.8-0.6l0.5-0.4c0.2-0.2,0.4-0.4,0.6-0.7
		C90.2,364.8,90.4,364.5,90.1,364.5L90.1,364.5z" fill="#3560ba"></path><path class="st2" d="M305.7,133.5h9.9l-2.8-3.6v22.3l0.4-0.6h-9.9c-0.9,0,0,1.7,0.1,2c0.4,0.7,1.3,2.2,2.3,2.2h9.9
		c0.4,0,0.4-0.3,0.4-0.6v-22.2c-0.1-0.8-0.5-1.6-1.1-2.3c-0.4-0.4-1-1.4-1.7-1.4h-9.9c-0.9,0,0,1.7,0.1,2
		C303.8,132,304.7,133.5,305.7,133.5L305.7,133.5z" fill="#000005"></path><path class="st2" d="M372.8,101.2h-22.4l0.2,0.2V79.2l-4,2.7H369c1-0.2,2-0.7,2.8-1.4c0.1-0.1,1.7-1.6,1-1.6h-22.4
		c-0.8,0.1-1.6,0.5-2.2,1c-0.5,0.3-1.8,1.1-1.8,1.7v22.3c0,0.1,0,0.2,0.1,0.2c0,0,0.1,0,0.1,0H369c1-0.2,2-0.7,2.8-1.4
		C371.9,102.7,373.4,101.2,372.8,101.2L372.8,101.2z" fill="#000005"></path><path class="st2" d="M200.7,102.3h-44.8l1,0.6V80.7l-3.6,2.1H198l-1-0.6v22.3c0,1.5,4.6-0.1,4.6-1.5V80.7c0-0.6-0.5-0.6-1-0.6
		h-44.8c-0.9,0-3.6,0.9-3.6,2.1v22.3c0,0.6,0.5,0.6,1,0.6H198c1.2-0.1,2.4-0.6,3.2-1.4C201.9,102.9,201.7,102.3,200.7,102.3z" fill="#000005"></path><path class="st2" d="M265.4,101.4h-44.8l3.5,1.8V80.9l-1.4,0.8h44.8l-3.5-1.8v22.3c0,1.8,4.9,2.6,4.9,1V80.9c0-1.5-2.4-1.8-3.5-1.8
		h-44.9c-0.4,0-1.4,0.2-1.4,0.8v22.3c0,1.5,2.4,1.8,3.5,1.8h44.8c0.9,0,1.8-0.6,1.2-1.5S266.4,101.4,265.4,101.4z" fill="#000005"></path><path class="st2" d="M230.1,63.7h-44.9l1,0.5V42l-3.6,2.2h44.9l-1-0.5v22.3c0,1.4,4.6-0.3,4.6-1.7V42c0-0.6-0.5-0.5-1-0.5h-44.8
		c-0.9,0-3.6,1-3.6,2.2v22.3c0,0.6,0.5,0.5,1,0.5h44.8c1.2-0.1,2.3-0.7,3.2-1.5C231.3,64.2,231.1,63.7,230.1,63.7z" fill="#000005"></path><path class="st2" d="M52,397.3h9.9L61,397v22.3l4-1.7h-9.9c-1.2,0-2.4,0.4-3.4,1c-0.7,0.5-0.7,1,0.3,1h9.9c0.9,0,1.8-0.2,2.7-0.6
		c0.4-0.2,1.3-0.5,1.3-1v-22.3c0-0.3-0.8-0.3-0.8-0.3h-9.9c-1.2,0-2.4,0.4-3.4,1C51,396.9,51.1,397.4,52,397.3L52,397.3z" fill="#000005"></path><path class="st1" d="M276.4,374.6c0,0,6.5-17.4-1.7-26.2s-23.4-2.2-23.4-2.2s-7.5-9.7-20-3.4s-5.3,31.9-5.3,31.9H276.4z" fill="#3560ba"></path><path class="st1" d="M278.3,376.2c2.2-6,3.3-13.3,1.8-19.6c-1.3-5.2-5-9.4-9.6-12.1c-4-2.2-8.5-3-13-2.2c-2.8,0.4-5.5,1.1-8.1,2.2
		l3.7,2.8c-2.2-2.8-5.1-5.1-8.3-6.7c-5.1-2.4-11.1-2.2-16,0.8c-7.8,4.6-7.3,16.2-6.2,23.9c0.3,2.6,0.9,5.2,1.5,7.8
		c0.2,0.7,1.2,1.4,1.6,1.8s1.4,1.3,2.1,1.3L278.3,376.2c0.5,0-1-1.4-1.1-1.5c-0.5-0.5-1.7-1.8-2.5-1.8h-50.4l3.7,3.1
		c-1.6-5.6-2.3-11.4-2-17.3c0.2-4,1.1-8.3,3.6-11.5c3.1-3.9,9-5.6,13.9-4.9c1.2,0.2,2.4,0.5,3.6,1c0.4,0.2,0.9,0.4,1.3,0.7l0.4,0.2
		l0.4,0.3c-0.2-0.1,0.5,0.4,0,0l0.2,0.2c0.3,0.2-0.4-0.4-0.1-0.1l0.4,0.4c-0.3-0.2-0.3-0.2,0,0c0.4,0.4-0.2-0.3,0.1,0.1
		c0.1,0.1,0.4,0.5-0.1-0.1c0.6,0.7,1.3,1.4,2,2c0.3,0.2,1.2,1.1,1.7,0.9c5.1-2.2,11.7-3.3,17.1-1.6c1.5,0.3,2.9,1.2,3.8,2.5
		c1.1,1.7,1.9,3.7,2.3,5.7c0.7,4,0.6,8.1-0.2,12c-0.4,2.2-1,4.4-1.8,6.6C274.1,374,278.3,376.3,278.3,376.2z" fill="#3560ba"></path><path class="st0" d="M253.8,350.1c0,0-7.9-6.3-15.7-1.4s-5.8,25.6-5.8,25.6l44.1,0.2c0,0,6-16.1-2.2-23.6S253.8,350.1,253.8,350.1z
		" fill="#FFFFFF"></path><path class="st1" d="M255.6,349.2c-5.9-4.6-16.4-5.9-21.6,0.3c-2.1,2.5-3,5.7-3.6,8.8c-0.6,3.3-0.9,6.7-0.8,10.1
		c0,1.9,0,3.8,0.2,5.6c0.1,1.5,1.8,1.8,3,1.8l14.9,0.1l23.7,0.1h5.5c0.5,0,1.6-0.3,1.8-0.9c2.1-5.3,2.7-11,1.9-16.7
		c-0.7-4.2-3.2-8-6.8-10.2c-4.2-2.5-9.1-2.9-13.9-2.1c-2.7,0.5-5.4,1.3-7.8,2.6c-0.6,0.2-0.9,0.9-0.7,1.5c0.1,0.3,0.3,0.5,0.5,0.6
		c1,0.7,2.4,0.9,3.5,0.4c4.2-2.3,10-3.6,14.6-1.2c6.6,3.4,6.6,12.1,5.4,18.4c-0.2,1.4-0.6,2.7-1,4l-0.2,0.7
		c-0.1,0.2-0.1,0.6-0.1,0.3c0,0.1-0.1,0.3-0.1,0.4l1.9-0.9H261l-23.7-0.1h-5.5l3,1.8c-0.4-4.1-0.3-8.3,0.1-12.5
		c0.6-5.8,2.4-13.6,9.6-13.8c1.8,0,3.5,0.4,5.1,1.3c0.4,0.2,0.7,0.4,1,0.5c0,0,0.6,0.3,0.3,0.2s0.2,0.1,0.2,0.2l0.7,0.5
		c1,0.7,2.4,0.9,3.5,0.4c0.6-0.2,1-0.8,0.8-1.5C256.1,349.6,255.9,349.4,255.6,349.2z" fill="#3560ba"></path><path class="st1" d="M268,358.4c0.9,0,2.6-0.5,2.8-1.5s-1.3-1.2-2-1.2c-0.9,0-2.6,0.5-2.8,1.5S267.4,358.4,268,358.4z" fill="#3560ba"></path><path class="st0" d="M263.1,366.1l-1.2-0.4" fill="#FFFFFF"></path><path class="st1" d="M264.1,364.1l-1.2-0.4c-0.3-0.1-0.6-0.1-1-0.1c-0.3,0-0.7,0.1-1,0.2c-0.3,0.1-0.6,0.3-0.8,0.5
		c-0.2,0.2-0.4,0.4-0.5,0.7l-0.2,0.5c-0.1,0.4,0,0.7,0.2,1.1l0.3,0.4c0.3,0.3,0.6,0.5,1,0.6l1.2,0.4c0.3,0.1,0.7,0.1,1,0.1
		c0.3,0,0.7-0.1,1-0.2c0.3-0.1,0.6-0.3,0.8-0.5c0.2-0.2,0.4-0.4,0.5-0.7l0.2-0.5c0.1-0.4,0-0.7-0.2-1.1l-0.3-0.4
		C264.9,364.4,264.5,364.2,264.1,364.1L264.1,364.1z" fill="#3560ba"></path><path class="st0" d="M248.7,356l-2.6-0.9" fill="#FFFFFF"></path><path class="st1" d="M247.3,354.3l-2.6-0.9c-0.1-0.1-0.3-0.1-0.4,0c-0.1,0-0.2,0.1-0.1,0.2c0,0.2,0.1,0.3,0.2,0.5
		c0.1,0.2,0.3,0.4,0.4,0.6c0.4,0.5,0.9,0.9,1.4,1.3c0.4,0.3,0.8,0.6,1.3,0.8l2.6,0.9c0.1,0.1,0.3,0.1,0.4,0c0.1,0,0.2-0.1,0.1-0.2
		c0-0.2-0.1-0.3-0.2-0.5c-0.1-0.2-0.3-0.4-0.4-0.6c-0.4-0.5-0.9-0.9-1.4-1.3C248.2,354.8,247.8,354.5,247.3,354.3z" fill="#3560ba"></path><path class="st0" d="M245.6,366.3h-1.9" fill="#FFFFFF"></path><path class="st1" d="M245.5,364.1h-1.9c-0.3,0-0.7,0.1-1,0.2c-0.3,0.1-0.6,0.3-0.8,0.5c-0.2,0.2-0.4,0.4-0.5,0.7
		c-0.1,0.3-0.2,0.5-0.2,0.8l0.1,0.6c0.1,0.4,0.4,0.7,0.7,0.9l0.5,0.3c0.4,0.2,0.8,0.2,1.3,0.2h1.9c0.3,0,0.7-0.1,1-0.2
		c0.3-0.1,0.6-0.3,0.8-0.5c0.2-0.2,0.4-0.4,0.5-0.7c0.1-0.3,0.2-0.6,0.2-0.9l-0.1-0.6c-0.1-0.4-0.4-0.7-0.7-0.9l-0.5-0.3
		C246.3,364.2,245.9,364.1,245.5,364.1L245.5,364.1z" fill="#3560ba"></path><path class="st1" d="M213.5,299.2c0,0,3.9-2.2,4.9-4.1s0.2-14.1-3.5-18.1s-14.4-7.8-14.4-7.8L213.5,299.2z" fill="#3560ba"></path><path class="st1" d="M215.8,299.8c1.8-1,4.7-2.6,5.2-4.8c0.6-2.6,0.1-5.7-0.3-8.3c-0.5-3-1.2-6.4-3-8.9s-5.4-4.2-8.2-5.5
		c-2.3-1.1-4.7-2.1-7.2-3c-0.9-0.3-1.8-0.5-2.7-0.6c-0.5-0.1-1-0.1-1.6,0l11.3,26.3l1.6,3.8c0.2,0.5,1.9,0.7,2.4,0.8
		C214.3,299.6,215.1,299.7,215.8,299.8l-11.2-26.4l-1.6-3.8l-4.2-0.6l0.1,0l1.4,0.5c1.3,0.5,2.6,1.1,3.8,1.6
		c2.9,1.3,6.1,2.8,8.3,5.2c2.1,2.2,2.8,5.6,3.3,8.4c0.6,2.8,0.8,5.6,0.6,8.5c-0.3,2.6-3,4.1-5.1,5.3c-0.4,0.2,1.5,0.7,1.6,0.7
		C213.4,299.5,215.2,300.1,215.8,299.8z" fill="#3560ba"></path><path class="st0" d="M200.5,269.2c0,0,14.2,14.2,9.6,15s-43.4-2.4-43.6-3.8S193.6,267.9,200.5,269.2z" fill="#FFFFFF"></path><path class="st1" d="M201.3,270.8c1.8,1.8,3.2,3.3,4.8,5.1c0.7,0.8,1.1,1.3,1.6,2l0.4,0.5c0.1,0.1,0.1,0.2,0.2,0.3
		c0,0-0.2-0.3-0.1-0.1l0.4,0.5c0.4,0.5-0.1-0.1,0.2,0.2c0.1,0.2,0.2,0.3,0.3,0.5c-0.2-0.3,0,0,0.1,0.1l0.1,0.1
		c0,0.1,0.1,0.2,0.1,0.3c0.2,0.4,0.2,0.8,0.2,1.1c-0.3,0.7-1.3,0.7-1.9,0.7c-1.2,0.1-2.4,0-3.6,0c-3.7-0.1-7.5-0.3-11.2-0.6
		c-7.9-0.5-16-1.1-23.8-2.4c-1-0.1-2-0.3-3-0.6c-0.1,0-0.3-0.1-0.4-0.1s-0.3,0-0.1,0s2.5,3.7,2.5,3.7s0-0.1,0.1-0.1
		c0.1-0.1,0.2-0.2,0.3-0.3c0.9-0.6,1.8-1.2,2.8-1.6c1.6-0.8,3.2-1.5,4.9-2.2c4.2-1.7,8.4-3.3,12.7-4.6c3.6-1.3,7.4-2.1,11.2-2.5
		c0.6,0,1.2,0,1.8,0.1c0.5,0.1-0.5-1.6-0.6-1.7c-0.4-0.6-1.2-2.2-2-2.3c-3.4-0.6-7.4,0.6-10.6,1.5c-4.7,1.3-9.4,2.9-13.9,4.8
		c-1.9,0.8-3.8,1.5-5.6,2.4c-1.2,0.5-2.3,1.1-3.4,1.8c-0.2,0.2-0.5,0.3-0.5,0.6c-0.2,0.9,1.5,2.8,2,3.3c0.6,0.7,1.5,1.2,2.4,1.3
		c3.2,0.6,6.4,1.1,9.7,1.3c4.6,0.5,9.2,0.9,13.9,1.2c4.2,0.3,8.4,0.6,12.5,0.7c1.4,0,2.9,0.1,4.3,0.1c0.7,0,1.9,0.1,2.4-0.5
		c0.8-0.9-0.2-2.6-0.6-3.4c-1.1-2.1-2.5-4.1-4-5.9c-2.3-2.9-4.9-5.7-7.5-8.4l-0.5-0.5c-0.6-0.6-0.8-0.4-0.5,0.3
		C199.8,269,200.5,270,201.3,270.8z" fill="#3560ba"></path><path class="st0" d="M166.6,280.3c0,0,2.5,12.8,5.2,16s38.7,5.2,41.7,2.9s-3.3-15.1-3.3-15.1c-6.5-1.3-13.1-2.3-19.7-3
		C180.6,280.2,166.6,280.3,166.6,280.3z" fill="#FFFFFF"></path><path class="st1" d="M165,279.3c0.7,3.7,1.7,7.3,2.8,10.9c1.2,3.6,2.6,7.8,6.5,9.1c3.4,1,6.8,1.6,10.3,1.9c4.7,0.5,9.4,0.9,14.2,1
		c4,0.2,8,0.2,12,0c1.2,0,2.3-0.2,3.4-0.5c1.3-0.4,1.7-1.5,1.8-2.8c0-2.2-0.4-4.4-1.2-6.4c-0.7-2-1.4-4-2.3-5.9
		c-0.7-1.5-1.4-3.8-3.1-4.4c-1.6-0.5-3.3-0.8-5-1c-7.2-1.3-14.4-2.2-21.7-2.6c-5.4-0.3-10.8-0.4-16.2-0.3h-1c-1.4,0,0.7,4.3,2.3,4.3
		c12.2-0.3,24.4,0.6,36.5,2.5c2.3,0.4,4.5,0.8,6.8,1.3l-2-2c0.1,0.1,0.1,0.3,0.2,0.4c0,0.1,0.1,0.3,0.2,0.4l0.1,0.3
		c0.5,1.2,1,2.4,1.5,3.6c0.8,2.1,2.1,5.2,1.6,7.3c-0.3,1.4-1.6,1.4-2.9,1.5c-2.3,0.2-4.6,0.3-6.9,0.3c-6.2,0-12.4-0.4-18.5-1
		c-2.6-0.3-5.3-0.6-7.9-1.1c-1-0.2-2-0.4-3-0.7c-0.4-0.1-0.7-0.2-1.1-0.4l-0.4-0.2c-0.1-0.1,0.3,0.2-0.1-0.1s0.4,0.3,0.5,0.4
		c0.4,0.4-0.1-0.3,0.1,0.2c-0.3-0.5-0.6-1.1-0.8-1.7c-0.6-1.7-1.2-3.4-1.7-5.1c-0.6-2.4-1.2-4.8-1.7-7.2c-0.3-1.2-1-2.2-2-2.9
		C165.4,277.9,164.8,278.3,165,279.3z" fill="#3560ba"></path><path class="st0" d="M199.8,260.4c0,0,8,5.6,4.4,10.4s-9.8,2.2-11.7-0.3S199.8,260.4,199.8,260.4z" fill="#FFFFFF"></path><path class="st1" d="M198.6,261.2l0.4,0.3l0.2,0.1c0.4,0.3-0.5-0.4-0.2-0.1l0.6,0.5c0.5,0.4,0.9,0.9,1.3,1.3
		c0.4,0.4-0.2-0.3,0.1,0.1l0.3,0.4c0.2,0.3,0.4,0.6,0.6,0.9c0.1,0.1,0.3,0.3,0.2,0.4c0-0.1-0.2-0.3-0.1-0.1l0.1,0.3
		c0.2,0.3,0.3,0.7,0.4,1.1l0.1,0.2c0-0.1,0-0.3,0-0.1s0,0.3,0,0.5c0,0.3,0,0.7-0.1,1c0.1-0.3-0.1,0.2-0.1,0.3
		c-0.1,0.2-0.1,0.4-0.2,0.5c-0.2,0.4-0.5,0.8-0.8,1.1c-0.3,0.3-0.5,0.5-0.8,0.8c-0.2,0.1-0.4,0.3-0.6,0.4l-0.2,0.1
		c-0.3,0.2,0.2,0-0.1,0.1c-0.3,0.1-0.7,0.2-1.1,0.3l-0.3,0.1c0.4-0.1,0.1,0,0,0s-0.4,0-0.7,0h-0.3c-0.4,0,0-0.1,0.1,0
		c-0.2,0-0.4-0.1-0.5-0.1c-0.2,0-0.3-0.1-0.5-0.1c0.5,0,0.4,0.1,0.2,0l-0.4-0.1l-0.6-0.2c-0.3-0.1,0.5,0.2,0.3,0.1l-0.2-0.1
		l-0.5-0.3c-0.6-0.3,0.5,0.3-0.1,0l-0.4-0.3c-0.5-0.3,0.3,0.3,0,0l-0.4-0.3c-0.1-0.1-0.1-0.1-0.2-0.2c-0.2-0.2,0.3,0.4,0.1,0.1
		c0,0-0.1-0.1-0.1-0.1c-0.1-0.2,0.1,0.1,0.1,0.2c0-0.1,0-0.2-0.1-0.2c0.2,0.1,0,0.5,0,0.1c0-0.1,0-0.2,0-0.3c0-0.4-0.1,0.2,0,0
		c0-0.1,0.1-0.2,0.1-0.3c0.1-0.2,0.2-0.5,0.3-0.7c0.3-0.5,0.6-1,1-1.5l0.6-0.8c0.1-0.1,0.3-0.4,0.1-0.2l0.4-0.5c1.4-1.6,3-3,4.6-4.4
		c1.6-1.3-2.6-3.9-4-2.8c-1.6,1.3-3,2.7-4.4,4.2c-1.6,1.7-4.5,4.7-2.8,7.2c1.2,1.6,2.8,2.8,4.6,3.5c2.1,1,4.5,1.3,6.8,0.9
		c2-0.4,3.8-1.7,4.9-3.5c0.8-1.6,0.8-3.4,0.1-5c-1.3-2.7-3.3-5.1-5.8-6.8c-0.8-0.5-2.3-1.2-3.2-0.5S198,260.8,198.6,261.2z" fill="#3560ba"></path><path class="st0" d="M199.7,265v1.1" fill="#FFFFFF"></path><path class="st1" d="M197.3,265.5v1.1c0,0.2,0,0.4,0.2,0.6c0.1,0.2,0.3,0.4,0.5,0.5c0.2,0.1,0.5,0.2,0.8,0.2c0.3,0.1,0.6,0.1,0.9,0
		l0.6-0.2c0.4-0.2,0.8-0.4,1.1-0.6l0.4-0.4c0.2-0.3,0.3-0.6,0.4-0.9v-1.1c0-0.2,0-0.4-0.2-0.6c-0.1-0.2-0.3-0.4-0.5-0.5
		c-0.2-0.1-0.5-0.2-0.8-0.2c-0.3-0.1-0.6-0.1-0.9,0l-0.6,0.2c-0.4,0.1-0.8,0.4-1.1,0.6l-0.4,0.4
		C197.4,264.8,197.3,265.2,197.3,265.5L197.3,265.5z" fill="#3560ba"></path><path class="st1" d="M200.5,270c1.2-0.2,2.2-0.7,3.1-1.5c0.4-0.3,1.3-1.4,0.2-1.4c-1.2,0.2-2.2,0.7-3.1,1.5
		C200.4,269,199.4,270,200.5,270z" fill="#3560ba"></path><path class="st1" d="M200.2,272.1c1.1,0,0.1-1-0.2-1.3c-0.8-0.8-1.9-1.3-3.1-1.5c-1.1,0-0.1,1,0.2,1.3
		C198,271.4,199.1,271.9,200.2,272.1z" fill="#3560ba"></path><path class="st1" d="M197.2,269.4c1.1,0,1.3-1.1,0.8-1.8c-0.8-1-2-1.5-3.2-1.4c-1.1,0-1.3,1.1-0.8,1.8
		C194.7,268.9,195.9,269.4,197.2,269.4L197.2,269.4z" fill="#3560ba"></path><path class="st1" d="M210.7,291.9c-3.2-2.2-7.2-3.1-11-2.5c-1.8,0.2-3.5,0.8-5.1,1.7c-1.2,0.7-3.1,2.3-4.5,2.2
		c-1.1-0.1-2.2-1.5-2.9-2.1c-1.3-1.2-2.8-2.2-4.5-2.8c-4.2-1.3-8.4,0.2-12.6,0.6c-0.9,0.1-2.2,0.5-1.9,1.6s2.1,1.4,2.9,1.4
		c2-0.2,3.9-0.5,5.8-0.9c1.4-0.2,3.1-0.5,4.5,0.2c1.2,0.7,2.2,1.6,3.1,2.6c1.3,1.1,2.8,1.9,4.5,2.2c1.9,0.3,3.9,0.1,5.6-0.7
		c1.6-0.7,2.9-1.7,4.4-2.4c2.6-1.2,5.6-1,7.9,0.6c1,0.7,2.3,0.9,3.5,0.4c0.6-0.2,0.9-0.8,0.7-1.4C211.1,292.2,210.9,292,210.7,291.9
		L210.7,291.9z" fill="#3560ba"></path><path class="st0" d="M122.8,205.5c0,0,5.9-4.7,13.7,0.2s7.5,15-8.1,16.1s-42.7,5.6-48-5.4s10-17.3,18.1-11c0,0,1.1-5.8,10.9-5.8
		S122.8,202,122.8,205.5z" fill="#FFFFFF"></path><path class="st1" d="M124.8,204.8c-0.6,0.5-0.2,0.2-0.1,0.1s0.4-0.3-0.1,0C124.7,204.9,124.8,204.8,124.8,204.8
		C125.4,204.7,124.4,205,124.8,204.8C124.7,204.9,124.4,204.9,124.8,204.8c-0.8,0.1,0.3-0.1-0.2,0l0.5-0.1c2.4-0.5,4.8-0.1,7,0.9
		c3,1.3,5.9,3.8,6.7,7.1c0.6,2.6-0.5,5.3-2.8,6.8c-0.3,0.2-0.7,0.4-1.1,0.4c-1.2,0.3-2.4,0.6-3.7,0.7c-2.1,0.2-4.2,0.4-6.3,0.6
		c-8.8,0.8-17.7,1.9-26.5,1.3c-6.5-0.4-15.2-1.9-16.8-9.5c-0.4-1.9-0.2-3.8,0.8-5.5c0.5-0.8,1-1.5,1.7-2.1c0.3-0.2,0.5-0.4,0.8-0.6
		c0.1-0.1,0.3-0.2,0.4-0.2c-0.2,0.1,0.2-0.1,0.5-0.1c0.5-0.1,0.9-0.2,1.4-0.2c1-0.1,1.9-0.1,2.9,0c2.2,0.2,4.2,1,5.9,2.3
		c0.5,0.4,1.7-0.2,2.2-0.4s2.2-0.8,2.4-1.4c0.2-0.9,0.6-1.7,1.2-2.4c0.3-0.3,0.5-0.6,0.8-0.8c0.3-0.3,0.7-0.4,0.1-0.2
		c1.6-0.4,3.2-0.6,4.8-0.6c3.9,0,12.7,0.1,12.8,5.8c0,0.4,2.3-0.5,2.5-0.6c0.5-0.2,2.1-0.8,2.1-1.4c-0.1-4.7-6.4-5.5-9.9-5.8
		c-3.6-0.4-7.1,0-10.6,1c-2.6,0.8-5,2.2-6.9,4.1c-0.7,0.7-1.2,1.6-1.4,2.6l4.6-1.9c-3.5-2.5-7.9-3.3-12.1-2.1
		c-4.2,1-9.3,3.3-11.1,7.6c-1.4,3.7-0.3,7.8,2.7,10.4c3,2.6,7.2,3.5,11,4c10.1,1.3,20.5-0.1,30.6-1c5.5-0.5,10.9-0.9,15.9-3.5
		c3.1-1.6,6.3-4.2,5.9-8.1c-0.5-4.6-5.4-7.9-9.5-8.9c-4.5-1.1-9.9,0.5-13.6,3.4c-0.8,0.7,0.9,0.3,1.1,0.2
		C122.9,206.1,123.9,205.5,124.8,204.8z" fill="#3560ba"></path><path class="st0" d="M119.8,210c0.1-1.6,0.8-3.2,1.9-4.4" fill="#FFFFFF"></path><path class="st1" d="M121.2,211.9c0.1-1.2,0.5-2.3,1.1-3.3l-0.1,0.2c0.2-0.4,0.5-0.7,0.8-1.1c0.2-0.2,0.1-0.6,0-0.9
		c-0.2-0.6-0.4-1.1-0.8-1.6c-0.3-0.5-0.7-1-1.1-1.4c-0.1-0.1-0.6-0.6-0.8-0.4c-1.2,1.2-1.9,2.8-2,4.5c0,0.4,0.1,0.8,0.3,1.2
		c0.3,0.6,0.6,1.2,1,1.7c0.3,0.4,0.6,0.8,1.1,1.1C120.8,212,121.3,212.2,121.2,211.9L121.2,211.9z" fill="#3560ba"></path><path class="st0" d="M97,210.3l0.7-3.8" fill="#FFFFFF"></path><path class="st1" d="M99.1,211.5l0.7-3.8c0-0.2-0.4-0.5-0.5-0.6c-0.5-0.4-1-0.7-1.5-1c-0.5-0.3-1.1-0.5-1.6-0.7
		c-0.1,0-0.8-0.3-0.8-0.1l-0.7,3.8c0,0.2,0.4,0.5,0.5,0.6c0.5,0.4,1,0.7,1.5,1c0.5,0.3,1.1,0.5,1.6,0.7
		C98.4,211.4,99.1,211.7,99.1,211.5z" fill="#3560ba"></path><path class="st2" d="M54.6,376.8h224.6c3,0,6.1,0,9.1,0h0.4c1.1,0,3.1-0.7,3.1-2.1V137.9c0-3.2,0-6.4,0-9.6c0-0.1,0-0.3,0-0.4
		c-0.1-0.9-0.8-1.5-1.7-1.4H65.5c-3,0-6.1,0-9.1,0H56c-1.1,0-3.1,0.7-3.1,2.2v236.7c0,3.2-0.1,6.4,0,9.6v0.4c0,2.5,4.8,1.5,4.8-0.7
		V137.9c0-3.2,0.1-6.4,0-9.6v-0.4l-3.1,2.1h224.6c3,0,6.1,0.2,9.1,0h0.4l-1.7-1.4v236.7c0,3.2-0.1,6.4,0,9.6c0,0.1,0,0.3,0,0.4
		l3.1-2.1H65.5c-3,0-6.1,0-9.1,0H56c-1.2-0.1-2.4,0.6-3,1.7C52.6,376,53.5,376.8,54.6,376.8z" fill="#000005"></path><path class="st2" d="M286.2,223.9H63.8c-3,0-6,0-9,0h-0.4c-0.6,0-1.6,0.1-1,0.8s2.6,0.6,3.4,0.6h222.4c3,0,6,0,9,0h0.4
		c0.6,0,1.6-0.1,1-0.8S287,223.9,286.2,223.9L286.2,223.9z" fill="#000005"></path><path class="st2" d="M288,299H65.6c-3,0-6-0.1-9,0h-0.4c-1.2,0-1.4,1.7-1.2,2.6c0.3,1.2,1.4,2.1,2.6,2.1h222.3c3,0,6,0.2,9,0h0.4
		c1.2,0,1.4-1.7,1.2-2.6C290.3,299.9,289.2,299.1,288,299z" fill="#000005"></path><path class="st2" d="M143.7,418.2H98.8l1.8,1.7v-22.3l-3,2.4h44.8l-1.9-1.7v22.3c0,2.8,4.9,1.9,4.9-0.7v-22.3
		c-0.1-1-0.9-1.7-1.9-1.7H98.8c-1.4,0-3,0.8-3,2.4v22.3c0.1,1,0.9,1.7,1.8,1.7h44.8c1.3,0.1,2.5-0.6,3-1.9c0.2-1-0.4-2-1.3-2.2
		C144,418.2,143.8,418.2,143.7,418.2z" fill="#000005"></path><path class="st2" d="M211.4,417.8h-44.8l1,0.6v-22.3l-3.5,2.3h44.9l-1-0.6v22.3c0,1.5,4.5-0.3,4.5-1.8v-22.3c0-0.6-0.6-0.6-1-0.6
		h-44.9c-1,0-3.5,1.1-3.5,2.3v22.3c0,0.6,0.6,0.6,1,0.6h44.8c1.2-0.1,2.4-0.7,3.1-1.7C212.6,418.2,212.3,417.8,211.4,417.8z" fill="#000005"></path><path class="st2" d="M177.9,452.9h-44.8l2.5,1.7v-22.3l-2.6,1.7h44.9l-2.5-1.7v22.3c0,2.2,5,2.2,5,0v-22.3c0-1.2-1.6-1.7-2.5-1.7
		h-44.8c-0.9,0-2.5,0.5-2.5,1.6v22.3c0,1.2,1.6,1.7,2.5,1.7h44.9c1,0,2.5-0.5,2.5-1.6S178.8,452.9,177.9,452.9z" fill="#000005"></path><path class="st2" d="M315.5,438.5h-22.4l1.3,0.4v-22.3l-3.6,1.1h22.4c1,0,2.6-0.1,3.4-0.7s-0.5-0.8-1-0.8h-22.4
		c-0.6,0-3.6,0.1-3.6,1.1v22.3c0,0.4,1.1,0.4,1.3,0.4h22.4c1,0,2.6-0.1,3.4-0.7S316,438.5,315.5,438.5L315.5,438.5z" fill="#000005"></path><path class="st2" d="M79.8,84.1h9.9l-2.3-2.3v22.3l2.7-1.8h-9.9c-1.2,0-2.6,0.4-2.7,1.8c0,1.3,1,2.3,2.3,2.3h9.9
		c1,0,2.7-0.4,2.7-1.8V82.3c0-1.3-1-2.3-2.3-2.3h-9.9c-1.2,0-2.6,0.4-2.7,1.8C77.5,83.1,78.6,84.1,79.8,84.1L79.8,84.1z" fill="#000005"></path></g><g id="character"><path class="st0" d="M327.1,266.4c0,0,25.5-25.6,15.5-35.3c-20.2-19.7-113.9-67.7-109.4-54.7c1.8,5.2,14.9,11.7,14.9,11.7
		s-10.8-1.2-11.6,4.6s3.6,7.1,3.6,7.1s-4.6,2.4-1,9.1s12,3,12,3s2.9,12.1,18.5,9.8L327.1,266.4z"></path><path class="st2" d="M328.7,266.7c3.4-3.5,6.6-7.2,9.5-11.2c2.4-3.1,4.4-6.4,6.2-9.9c1.5-3.1,2.9-6.6,2.7-10.1
		c-0.1-3-1.6-5.1-3.8-7c-2-1.8-4-3.4-6.2-5c-5.6-4.2-11.5-8-17.4-11.7c-14.3-8.9-29.1-16.9-44.2-24.4c-6.7-3.3-13.4-6.4-20.2-9.3
		c-4.8-2.2-9.8-3.9-14.9-5.2c-1.5-0.4-3.1-0.6-4.7-0.5c-1.8,0.2-4.2,1.2-4.8,3.1c-0.7,2.2,1.5,4.4,2.9,5.7c3.1,2.8,6.5,5.1,10.1,7
		c0.7,0.4,1.5,0.8,2.2,1.2l3.4-3.2c-3.2-0.4-6.4-0.1-9.4,0.9c-2.4,0.7-4.3,2.4-5.5,4.6c-0.9,2.3-0.7,4.8,0.5,6.9
		c0.8,1.2,1.9,2.1,3.3,2.6l0.9-2.7c-1.6,0.9-2.9,2.4-3.6,4.1c-1.1,3,0.3,6.9,2.5,9.1c3.3,3.4,8.8,3,12.8,1.2l-2.3-0.4
		c0.6,2.4,1.9,4.5,3.6,6.2c4.2,4.2,10.3,5.1,16.1,4.3l-0.8-0.1l19.5,15.2l31,24.1l7.1,5.5c1.3,1,5.3-1.9,3.8-3.1l-8.9-6.9
		l-19.4-15.1L281,227.5l-6.7-5.2c-0.9-0.8-1.8-1.6-2.8-2.2c-0.9-0.5-2.5,0-3.5,0.1c-1.4,0.1-2.8,0-4.2-0.3
		c-4.9-0.8-8.9-4.2-10.5-8.9c-0.2-0.5,0,0.1-0.1-0.2c-0.3-1-1.6-0.8-2.3-0.4l-0.3,0.1c-0.6,0.2,0.4-0.1-0.2,0.1
		c-0.3,0.1-0.6,0.2-1,0.3s-0.4,0.1-0.7,0.1h-0.3c-2.1,0.3-4.2-0.2-5.8-1.5c-1.8-1.6-3.3-4.8-2.8-7.2c0.1-0.3,0.2-0.7,0.4-1
		c0-0.1,0.4-0.6,0.1-0.2c0.1-0.1,0.2-0.2,0.3-0.3c-0.8,0.8,0.7-0.9-0.3,0.2c0.1-0.1,0.2-0.1,0.2-0.1c0.8-0.4,2.5-2.2,0.9-2.7
		c0.4,0.1,0.2,0.1,0,0s-0.5-0.2-0.7-0.4c-0.7-0.4-1.3-1.1-1.6-1.8c-0.6-1.2-0.8-2.5-0.6-3.8c0.1-0.4,0.1-0.7,0.2-1.1
		c0.1-0.4,0.1-0.2,0.3-0.4c0.3-0.4-0.2,0.1,0.2-0.1c-0.5,0.3,0.1-0.1,0.2-0.1c-0.5,0.2,0.2-0.1,0.3-0.1c0.5-0.2,0,0,0.4-0.1l0.7-0.2
		c0.9-0.2,1.7-0.3,2.6-0.3c0.5,0,0.9,0,1.4,0h0.5c0.5,0-0.2,0,0.1,0s0.7,0,1,0.1c1.1,0.1,2.2-0.4,3-1.2c0.4-0.4,1.4-1.6,0.5-2
		c-2.4-1.2-4.7-2.5-7-4c-1.9-1.2-3.6-2.5-5.2-4c-0.6-0.6-1.1-1.2-1.6-1.9c-0.2-0.3-0.4-0.7-0.6-1c-0.1-0.2-0.3-0.9-0.2-0.4
		c0-0.2,0-0.4-0.1-0.6s0.2-0.1,0,0.1c0,0,0.5-0.8-0.1,0.1c0.2-0.3-0.8,0.8-0.4,0.5c-0.1,0.1-0.9,0.6-0.8,0.5
		c0.4-0.2-0.7,0.2-0.2,0.1s-0.4,0-0.2,0c0.1,0,0.3,0,0.4,0h0.4c0.6,0-0.1,0,0.1,0c0.7,0.1,1.4,0.2,2.2,0.3c4.6,1,9.1,2.5,13.4,4.4
		c6.4,2.6,12.7,5.5,19,8.5c14.7,7.1,29.1,14.9,43.1,23.3c6.1,3.7,12.2,7.5,18,11.6c2.3,1.6,4.6,3.3,6.8,5.1c1.8,1.5,3.8,2.9,4.9,4.8
		c1.4,2.5,1.1,5.5,0.3,8.1c-1.1,3.4-2.7,6.6-4.7,9.5c-3.3,4.9-7,9.5-11.1,13.8l-0.7,0.8c-0.6,0.6-0.9,1.7,0.1,1.9
		S328,267.4,328.7,266.7z"></path><polygon class="st2" points="351,290.7 327.1,266.4 342.1,228.6 378.1,244.6 	"></polygon><path class="st2" d="M352.5,289.1l-21-21.3l-3-3l0.4,3l13.2-33.1l1.9-4.7l-2.5,0.9l31.6,14l4.5,2l-1.4-3.7l-9.2,15.5l-14.6,24.8
		l-3.4,5.7c-1.4,2.4,2.3,5.5,3.9,2.9l9.2-15.6l14.6-24.8l3.4-5.8c0.6-1.4,0-3-1.3-3.7c0,0,0,0-0.1,0l-31.6-14l-4.5-2
		c-0.9-0.4-2,0-2.5,0.9L327,260.3l-1.9,4.7c-0.5,1-0.3,2.2,0.4,3l20.9,21.3l3,3c0.7,1,2.1,1.1,3.1,0.4c0,0,0,0,0.1-0.1
		C353.5,291.6,353.4,290.1,352.5,289.1z"></path><path class="st0" d="M418.9,341.4c0,0,3.2,9.7,2.6,12.9s-53,5.8-53,5.8s16.8,73.7,13.6,76.3s-40.1,11.6-47.9-3.2s6.5-97,6.5-97
		L418.9,341.4z"></path><path class="st2" d="M416.6,342.4c0.7,2.2,1.3,4.4,1.9,6.6c0.4,1.6,0.7,3.1,0.8,4.7c-0.1,0.4-0.1,0.9-0.1,1.4
		c-0.1-0.2,0.6-0.7,1-0.8c-0.4,0.2,0.2-0.1,0.3-0.1c-0.1,0-0.6,0.2,0,0s0,0-0.1,0l-0.5,0.1c0.8-0.2-0.2,0.1-0.5,0.1
		c-0.4,0.1-0.9,0.2-1.3,0.3c-2.1,0.4-3.7,0.6-6.1,0.9c-11.1,1.4-22.3,2.1-33.4,2.8c-2.9,0.2-5.8,0.3-8.6,0.5c-0.9,0-4,1-3.7,2.3
		c0.9,4,1.8,8,2.7,11.9c1.9,8.7,3.8,17.4,5.5,26.1c1.8,8.7,3.5,17.5,4.8,26.3c0.5,2.9,0.8,5.8,1,8.7c0.1,0.8,0,1.5-0.1,2.3
		c0,0.1-0.1,0.2-0.1,0.3c-0.1,0.3,0,0,0,0c-0.2,0.1,0.9-0.7,0.4-0.4c-0.1,0.1,0.6-0.4,0.2-0.1s0,0,0.2-0.1c-0.2,0.1-0.4,0.2-0.7,0.3
		c-0.1,0-0.6,0.2-0.1,0.1l-0.2,0.1c-0.7,0.3-1.4,0.5-2.2,0.7l-0.6,0.2h0.1l-0.4,0.1l-1.4,0.4c-1,0.3-2.1,0.5-3.1,0.7
		c-4.7,1-9.6,1.6-14.4,1.7c-7.6,0.2-18.8-0.8-22-9.1c-0.9-2.7-1.5-5.6-1.6-8.4c-0.3-4-0.3-8.1-0.2-12.1c0.3-10,1.2-20,2.3-30
		c1.1-9.5,2.3-19,3.8-28.5c0.8-5.3,1.6-10.6,2.5-16l0.1-0.7l-4.1,2l26.5,1.8l42.2,2.9l9.6,0.6c1.2,0,2.3-0.4,3.3-1.1
		c0.4-0.3,1.5-1.3,0.4-1.4l-26.5-1.8l-42.2-2.8l-9.6-0.6c-0.9,0-1.7,0.2-2.4,0.6c-0.5,0.2-1.5,0.7-1.7,1.4
		c-0.7,3.9-1.3,7.8-1.9,11.7c-1.4,9.1-2.7,18.2-3.8,27.4c-1.3,10.4-2.3,20.7-2.8,31.1c-0.2,4.5-0.3,9-0.2,13.5
		c0,3.4,0.4,6.8,1.1,10.1c0.6,3.1,2.4,5.9,5,7.8c3.8,2.7,8.6,3.7,13.2,4.1c9.8,0.7,19.6-0.5,28.9-3.5c1.6-0.5,3.1-1,4.5-1.8
		c1-0.4,1.8-1.1,2.3-2.1c0.6-1.8,0.1-4.1-0.1-5.8c-0.8-8-2.4-16-3.9-23.9c-1.8-9.5-3.8-18.9-5.8-28.3c-1.2-5.8-2.5-11.5-3.8-17.3
		c-0.1-0.3-0.1-0.6-0.2-0.9l-3.7,2.3c8.2-0.4,16.4-0.9,24.6-1.6c5.9-0.5,11.9-1,17.8-1.7c4-0.5,8.7-0.8,12.3-2.8
		c0.9-0.3,1.6-1,2-1.8c0.4-1.3,0-3.3-0.3-4.6c-0.6-2.9-1.3-5.8-2.3-8.6C420.9,339.3,416.2,341.1,416.6,342.4z"></path><path class="st2" d="M414.8,356.8l1.3,10l3.2,24l3.9,29l3.3,25l1.1,8.2c0.2,1.3,0.2,2.6,0.5,3.9c0,0.1,0,0.1,0,0.2
		c0.3,1.9,5.2,1.1,4.9-0.9l-1.3-10l-3.2-23.9l-3.8-29l-3.3-25l-1.1-8.2c-0.2-1.3-0.2-2.7-0.5-3.9c0-0.1,0-0.1,0-0.2
		C419.5,354,414.5,354.9,414.8,356.8L414.8,356.8z"></path><path class="st2" d="M376.5,456l-1.3-15.6l-0.2-2.2c0-0.3-2.2,0.7-2.4,0.8c-0.4,0.2-2.1,0.9-2,1.5l1.4,15.6l0.2,2.2
		c0,0.3,2.2-0.7,2.4-0.8C374.9,457.3,376.6,456.6,376.5,456z"></path><path class="st2" d="M336,436.4v17.9c0,2.2,5,1.9,5-0.4V436C341,433.8,336,434.1,336,436.4L336,436.4z"></path><path class="st2" d="M332.2,342.6c0,0,11.7-82.2,29.6-96.3s27.7-7.6,40.1,8.1s17.2,88.8,17.2,88.8L332.2,342.6z"></path><path class="st2" d="M419.8,343.8l-88.1-0.6l0.1-0.6c0-0.2,3-20.8,8.1-42.9c6.9-29.7,14.2-47.8,21.8-53.7c18-14,27.9-8.2,40.8,8.2
		c5.2,6.6,9.7,23.6,13.3,50.5c2.7,20,4,38.3,4,38.5L419.8,343.8z M332.8,342.1l85.9,0.6c-0.5-6.7-5.5-73.2-17.1-87.9
		c-12.5-15.9-22.1-21.6-39.4-8C345.4,259.9,333.9,334.8,332.8,342.1L332.8,342.1z"></path><path class="st2" d="M183.9,236.7c0,0,117.3-6.9,119.3-3.6s4.4,83,1.6,85s-109.2,6.9-115.3,3.7S181.9,236.8,183.9,236.7z"></path><path class="st2" d="M185.1,237.5c2.6-0.2,5.3-0.3,7.9-0.4c6.7-0.4,13.4-0.7,20.1-1.1c8.9-0.5,17.8-0.9,26.7-1.3
		c9.2-0.4,18.4-0.8,27.7-1.1l6.4-0.2l3.1-0.1l2.6-0.1c3.5-0.1,7-0.1,10.6-0.2c2.7,0,5.3,0,8,0.1l1.5,0.1c0.8,0-0.2,0,0.1,0l0.7,0.1
		l1.1,0.1c0.6,0.1-0.4-0.1-0.2,0s0.3,0,0.4,0.1c0.4,0.1-0.7-0.2-0.3-0.1s-0.5-0.2-0.2-0.1c-0.1-0.1-0.3-0.2-0.3-0.2
		c-0.1,0.2,0.1,0.1,0.1,0.4s0.1,0.6,0.2,0.9c0.4,2.2,0.5,4.6,0.7,6.8c0.6,8,0.9,16.1,1.2,24.1c0.3,9.4,0.5,18.8,0.6,28.2
		c0,6.8,0.1,13.8-0.5,20.6c-0.1,0.9-0.2,1.7-0.3,2.6c-0.1,0.3-0.1,0.5-0.2,0.8c-0.1,0.4,0.1,0-0.1,0.2c0,0,0.4-0.1,0.1-0.1h0.1
		l-0.6,0.1c-0.3,0.1-0.6,0.1-0.9,0.1l-0.5,0.1c0.6-0.1,0,0-0.2,0c-5.7,0.7-11.5,1-17.3,1.4c-8.8,0.5-17.5,1-26.3,1.4
		c-9.6,0.4-19.2,0.8-28.8,1h-0.4h-0.9h-1.8l-3.4,0.1c-2.1,0-4.3,0.1-6.4,0.1c-3.8,0-7.6,0.1-11.4,0c-2.9,0-5.8-0.1-8.7-0.2h-0.5
		h-0.6l-1.4-0.1l-0.6-0.1h-0.3c-0.5-0.1,0.5,0.1,0.3,0s-1.4-0.3-0.4,0c-0.7-0.2,0.3,0.1-0.1,0c0.4,0.2,0.1,0,0.1,0s0.1,0.2-0.1-0.1
		c-0.4-0.6-0.7-1.3-0.9-2c-0.8-2.5-1.3-5-1.6-7.5c-1.2-8.1-1.8-16.4-2.3-24.6c-0.5-9.2-0.9-18.5-1-27.7c-0.1-6.5-0.2-13,0.2-19.4
		c0-0.7,0.1-1.4,0.2-2.1c0-0.2,0.1-0.4,0.1-0.6s0.1,0.1,0,0c-0.2,0.1-0.4,0.1-0.6,0.2c0.9-0.1,0.9-0.7,0.1-1.1
		c-1.1-0.4-2.3-0.6-3.5-0.4c-1.4,0.2-1.2,2.2-1.3,3.2c-0.2,2.7-0.2,5.3-0.3,8c-0.1,8.5,0.1,16.9,0.4,25.4c0.3,9.4,0.8,18.8,1.7,28.1
		c0.4,3.8,0.8,7.5,1.4,11.2c0.3,2.6,0.9,5.1,1.7,7.5c0.4,1.5,1.5,2.6,3,3c2.1,0.5,4.3,0.8,6.5,0.9c6.6,0.4,13.3,0.3,19.9,0.3
		c9.4-0.1,18.8-0.4,28.2-0.7c9.7-0.3,19.4-0.8,29.1-1.2c7.7-0.4,15.4-0.8,23.1-1.5c2.4-0.2,4.8-0.4,7.2-0.7c1.4,0,2.8-0.3,4-0.8
		c1.1-0.6,1-2.6,1.2-3.6c0.3-2.8,0.4-5.6,0.4-8.4c0.2-8.8,0.1-17.5-0.1-26.3c-0.2-9.4-0.5-18.8-1-28.1c-0.3-5.9-0.4-11.9-1.4-17.7
		c0-1.2-0.9-2.2-2.2-2.4c-2-0.5-4-0.7-6-0.7c-6.1-0.3-12.2-0.1-18.3,0c-8.9,0.2-17.7,0.5-26.6,0.9c-9.5,0.4-18.9,0.8-28.4,1.3
		c-8.3,0.4-16.5,0.8-24.8,1.3l-15,0.8l-2.1,0.1c-0.6,0-1.8,0.3-1,1S184.1,237.6,185.1,237.5z"></path><path class="st0" d="M211.1,270.2c-5-0.7-9.8,2.3-12.3,6.5c-1.4,2-1.9,4.6-1.3,7c0.7,2.4,2.5,4.3,4.2,6.1c3.6,3.8,8.2,8,13.7,7.5
		c4.7-0.3,8.5-3.7,9.5-8.3c0.5-2.5,0.1-5.2-1.1-7.5c-1.4-2.5-3.5-4.6-5.1-7c-0.7-0.9-1.5-1.7-2.5-2.3c-0.2-0.2-1.6-1-1-0.1
		c2.4,3.6,5.9,6.5,6.2,11.1c0.2,4.1-2.1,8-5.8,9.8c-3.4,1.6-7.9,1.5-10.6-1.3c-1.6-1.4-2.9-3.2-3.6-5.3c-0.5-2.3,0-4.7,1.3-6.6
		c2.5-4,7.2-7.1,12-6.4c0.5,0.1-0.9-1.4-1-1.5C213.1,271.4,212.1,270.3,211.1,270.2L211.1,270.2z"></path><path class="st0" d="M235.9,294.6l-1-14.3l-0.5-7.4l-0.1-1c-0.9,0.5-1,0.6-0.3,0.3c0.4-0.1,0.9-0.4,1.3-0.5
		c0.8-0.4,1.8-0.6,2.7-0.5c3.1,0.3,4.4,4.3,3.8,6.9c-0.7,3-3.4,5.1-6.5,5.1c-1,0-2.6,0.2-3.2,1.2s0.4,1.4,1.3,1.4
		c4.1-0.1,8.4-1.4,11.2-4.4c2.3-2.4,2.9-6.1,1.4-9.1c-1.9-3.8-6.3-4.3-10.2-3.4c-1.2,0.3-2.3,0.7-3.5,1.2c-1,0.4-2.3,0.9-2.7,1.9
		c-0.2,0.9-0.2,1.9,0,2.8l0.3,4l1.2,17.1C231.2,297.3,236.1,296.4,235.9,294.6L235.9,294.6z"></path><path class="st0" d="M251,268.9v9.7c-0.2,3-0.2,6,0,9c0.3,2.9,2.2,5.3,5,6.2c1.5,0.3,2.9,0.4,4.4,0.2c1.7-0.1,3.3-0.3,4.9-0.5
		c1.1-0.2,0-1.9-0.3-2.3c-0.7-0.9-1.8-1.4-2.9-1.4c-1.2,0.2-2.4,0.3-3.5,0.4c-0.6,0-1.3,0.1-1.9,0.1c-0.6,0-1.2,0-1.8,0
		c-0.3,0-0.5-0.2,0.1,0.2c0.2,0.1,0.3,0.2,0.4,0.4c0.1,0.2,0.1,0.2,0-0.1s-0.2-0.6-0.2-1c-0.1-1-0.1-2.1-0.1-3.1v-15.1
		c-0.1-1.1-0.8-2.1-1.8-2.6C252.9,268.7,251,267.8,251,268.9L251,268.9z"></path><path class="st0" d="M254.7,281c4,0.2,7.9,0.1,11.8-0.3c0.2,0,0.8-0.2,0.8-0.5s-0.4-0.6-0.6-0.7c-1.1-0.6-2.3-0.8-3.5-0.6L262,279
		h-0.3H261c-0.9,0.1-1.8,0.1-2.6,0.1s-1.7,0-2.5,0h-1c0.2,0,0.2,0,0.1,0l-1.4-0.1c-0.4,0-2.3-0.1-1.9,0.7S254,281,254.7,281z"></path><path class="st0" d="M252.8,270.8h13.5c0.5,0,2.3-0.2,1.8-1.1s-2.2-0.9-3-0.9h-13.5c-0.5,0-2.3,0.2-1.8,1.1S252,270.8,252.8,270.8
		L252.8,270.8z"></path><path class="st0" d="M276.5,292.7v-19.5c0.1-0.6,0.1-1.2,0-1.8l-2.6,0.6l0.3,0.3c0.5,0.7,1.2,1.3,1.7,2c4.5,5.5,8.5,11.5,14.4,15.7
		c1.3,0.9,4.5,0.2,4.4-1.6c-0.1-7.7-0.6-15.4-1.5-23.1c-0.2-1.9-5.1-1.1-4.9,1c0.9,7.7,1.4,15.4,1.5,23.1l4.4-1.6
		c-3.3-2.5-6.3-5.5-8.8-8.9c-1.3-1.6-2.5-3.2-3.8-4.8c-1.2-1.5-2.4-3.4-4-4.4c-1.8-1.1-5.2-0.7-6,1.6c-0.2,1.1-0.3,2.2-0.1,3.4v19
		c0,1.1,2,1.1,2.7,1C275.2,294.5,276.4,293.9,276.5,292.7L276.5,292.7z"></path><path class="st1" d="M206.2,239.5c3.3-6,6.7-12,10.1-18c5.8-10.3,11.7-20.5,18.2-30.4c1.2-1.8,2.4-3.6,3.7-5.4
		c0.5-0.6,1-1.3,1.5-1.9c0.4-0.4,0.9-1.1,1.2-1.3c0.3-0.3,0.6-0.5,1-0.7c0.2-0.1,0,0.1-0.1,0c0,0,0.8,0.2-0.2,0
		c-0.6-0.1-1.2-0.3-1.7-0.6c-0.6-0.4-0.3-0.2,0.1,0.1s-0.4-0.4,0,0l0.4,0.4c0.5,0.5,1,1.1,1.4,1.7c0.1,0.2,0.3,0.4,0.6,0.8
		s0.6,0.8,0.9,1.2c0.7,0.9,1.3,1.9,1.9,2.8c1.5,2.2,3,4.5,4.4,6.8c3.3,5.2,6.4,10.4,9.5,15.7c4.3,7.4,8.4,15,12.8,22.5l0.2,0.4
		c0.7,1,1.8,1.6,2.9,1.8c0.6,0.1,1.9,0.2,1.4-0.8c-3.7-6.7-7.4-13.3-11.2-19.9c-3.2-5.5-6.4-10.9-9.7-16.3
		c-2.8-4.4-5.5-8.9-8.7-13.1c-1-1.4-2-2.6-3.2-3.8c-1.3-1.2-3.3-2.7-5.1-2.4c-1,0.3-1.9,1-2.5,1.9c-1.1,1.3-2.2,2.7-3.2,4.1
		c-6.7,9.4-12.4,19.6-18.2,29.7c-2.8,4.8-5.5,9.7-8.2,14.6c-1.4,2.6-3,5.1-4.3,7.8c-0.1,0.1-0.1,0.3-0.2,0.4
		C201.1,238.6,205.6,240.8,206.2,239.5L206.2,239.5z"></path><path class="st2" d="M241,182.5c-0.8,0.1-1.5,0.8-1.4,1.7c0,0.2,0.1,0.4,0.2,0.6c0.6,0.8,1.7,0.9,2.4,0.3c0.1-0.1,0.2-0.2,0.3-0.3
		c0.6-1,0.2-2.2-0.7-2.7c0,0,0,0,0,0c-1-0.5-2.2-0.1-2.8,0.8"></path><path class="st2" d="M240,180.3c-0.5,0-1,0.2-1.3,0.6c-0.2,0.2-0.4,0.5-0.5,0.8c-0.1,0.3-0.2,0.6-0.2,0.9c0,0.7,0.2,1.4,0.5,2
		c0.3,0.8,0.8,1.4,1.4,2c0.6,0.6,1.4,1,2.2,1.1c0.3,0,0.6,0,0.9-0.1c0.2-0.1,0.4-0.1,0.6-0.3c0.5-0.4,0.8-1,0.9-1.6
		c0-0.1,0-0.2,0-0.3c0-0.3,0-0.5-0.1-0.8c-0.1-0.6-0.3-1.1-0.6-1.6c-0.4-0.7-0.9-1.4-1.4-2c-0.4-0.4-0.8-0.7-1.3-0.9
		c-0.6-0.3-1.3-0.4-1.9-0.2c-0.4,0.1-0.7,0.2-1,0.4c-0.3,0.2-0.6,0.5-0.8,0.8c-0.1,0.2-0.1,0.4-0.1,0.6c0,0.3,0,0.5,0.1,0.7
		c0.2,0.6,0.6,1.2,1,1.7l0.4,0.4c0.2,0.2,0.5,0.4,0.8,0.5l0.4,0.1c0.2,0,0.4-0.1,0.5-0.3c0-0.1,0.1-0.1,0.1-0.2l-0.2,0.2
		c0.3-0.4,0.7-0.6,1.1-0.7l-0.3,0.1c0.3-0.1,0.7-0.1,1-0.1l-0.4,0c0.2,0,0.4,0.1,0.5,0.2l-0.4-0.2c0.1,0,0.2,0.1,0.3,0.2l-0.4-0.3
		c0.1,0.1,0.1,0.1,0.2,0.2l-0.4-0.4l0.1,0.2l-0.4-0.5c0,0.1,0.1,0.1,0.1,0.2l-0.3-0.6l0.1,0.2l-0.2-0.6c0,0.1,0.1,0.2,0.1,0.3
		l-0.1-0.5c0,0.1,0,0.3,0.1,0.4v-0.4c0,0.2,0,0.4,0,0.5l0.1-0.4c-0.1,0.2-0.2,0.5-0.3,0.7l0.2-0.2c-0.2,0.2-0.5,0.4-0.8,0.5l0.3-0.1
		c-0.3,0.1-0.6,0.1-0.9,0l0.4,0.1c-0.1,0-0.3-0.1-0.4-0.1l0.4,0.2c-0.1,0-0.2-0.1-0.2-0.2l0.4,0.3l-0.1-0.1l0.4,0.4l-0.1-0.1
		l0.4,0.5l-0.1-0.1l0.3,0.6c0,0-0.1-0.1-0.1-0.1l0.2,0.6c0-0.1,0-0.1,0-0.2l0.1,0.5c0-0.1,0-0.2,0-0.2v0.4c0-0.1,0-0.3,0-0.4
		l-0.1,0.4c0.1-0.3,0.2-0.5,0.4-0.7l-0.2,0.2c0.2-0.2,0.4-0.4,0.7-0.5l-0.3,0.1c0.1,0,0.2,0,0.4,0c0.4,0,0.5-0.4,0.6-0.7
		c0-0.2,0-0.5-0.1-0.7c-0.1-0.3-0.2-0.6-0.3-0.8c-0.3-0.6-0.7-1.1-1.1-1.6C240.9,180.6,240.5,180.4,240,180.3L240,180.3z"></path><path class="st0" d="M306.5,300.1l3.6,7.2c0,0,35,2,53.8,0.4l1.5-10.4l45.5,2.7c0,0-0.7,22.1-8.7,37.1s-63.5,8.6-63.5,8.6
		c-23.6-3.2-74.5-11.1-74.4-16.5s14.5-1.3,14.5-1.3s-9.8-7.8-9.8-15.1s6.6-3.4,6.6-3.4c-7.2-6.6-6.1-13.2,0.9-11.3s27,12.9,27,12.9"></path><path class="st2" d="M304.7,300.9l2,3.9c0.7,1.4,1.4,3.6,2.9,4.4c0.7,0.3,1.4,0.4,2.2,0.4l4,0.2c10.2,0.5,20.5,0.8,30.8,0.8
		c6.1,0,12.2-0.1,18.2-0.6c0.7-0.1,1.3-0.6,1.4-1.3l1.5-10.4l-1.9,1.3l15.4,0.9l24.4,1.4l5.7,0.3l-2.4-3.1c-0.2,5.9-1,11.8-2.2,17.5
		c-1,5.1-2.4,10.1-4.4,14.9c-0.5,1.1-1,2.2-1.5,3.3c-0.2,0.4-0.4,0.8-0.6,1.2c-0.1,0.1-0.6,0.9-0.3,0.5c-0.7,0.9-1.5,1.7-2.5,2.4
		L397,339c-0.5,0.3,0.4-0.2-0.1,0.1c-0.3,0.1-0.5,0.3-0.8,0.5c-0.6,0.3-1.2,0.6-1.8,0.9c-1.3,0.6-2.6,1.1-4,1.5
		c-3.1,0.9-6.2,1.5-9.4,1.9c-7.2,0.8-14.5,1.2-21.8,0.9c-9.3-0.2-18.5-1-27.7-2.3c-17.1-2.5-34.3-5.1-51.2-9.1
		c-3.3-0.8-5.9-1.5-9-2.5c-1.1-0.4-2.2-0.8-3.3-1.3l-0.6-0.3l-0.2-0.1c-0.4-0.2,0.5,0.3,0.1,0.1c-0.3-0.2-0.6-0.4-0.9-0.6
		c-0.2-0.1,0.5,0.5,0.1,0.1s0.2,0.3,0.1,0.2c-0.2-0.4,0.2,0.6,0.1,0.2s0.1,0.7,0.1,0.4s0-0.1,0,0.3v-0.2c0.1,0,0-0.7,0-0.1
		c0-0.1,0.1-0.2,0.1-0.3c-0.6,0.4,0.5-0.4,0.2-0.2c0.4-0.2,0.9-0.4,1.3-0.5c3-0.2,6,0,8.8,0.8l1.4,0.3c0.3,0.1,1.3,0.4,0.1,0
		c1,0.3,2.1,0.2,2.4-0.9c0.2-1.1-0.3-2.3-1.2-2.9l-0.3-0.2c-0.5-0.4,0.4,0.4,0,0l-0.5-0.4c-0.9-0.8-1.7-1.6-2.5-2.5
		c-2.1-2-3.7-4.4-4.8-7.1c-0.5-1.3-0.6-2.7-0.3-4.1c0-0.2,0.1-0.4,0.2-0.6c0.2-0.4-0.1,0.1,0.1-0.2l0.3-0.2c-0.2,0.1-0.2,0.1,0,0
		l0.3-0.1c-0.2,0.1-0.2,0.1,0,0s0.8,0,0.3,0c0.2,0,0.4,0,0.7,0.1c0.2,0,0.3,0.1,0.5,0.1c-0.6-0.2,0,0,0.2,0.1
		c0.3,0.1,0.6,0.3,0.9,0.4c0.6,0.3-0.5-0.3-0.1-0.1c0.9,0.5,2.1,0.8,2.8-0.1c0.5-1,0.3-2.2-0.5-2.9c-1.7-1.4-3-3.2-3.9-5.3
		c-0.2-0.5-0.3-1.1-0.1-1.7c0.1-0.3,0.2-0.6,0.5-0.8c1.8-1.2,5.2,0.6,7.1,1.5c6.1,2.6,12,5.6,17.8,8.7l3.3,1.7l1,0.5
		c0.2,0.1,0.9,0.5-0.1-0.1c0.9,0.5,2.3,0.8,2.9-0.4c0.4-1.2-0.1-2.5-1.1-3.1c-4.8-2.6-9.6-5.1-14.5-7.5c-3.3-1.6-6.6-3.2-10-4.6
		c-2.9-1.2-7.3-2.9-10-0.4c-1.7,1.6-1.6,4.1-1,6.1c1.1,3,2.9,5.7,5.3,7.8l2.3-3.1c-2.9-1.7-7.7-2.7-9.1,1.3
		c-2.2,6.1,2.6,12.6,6.5,16.7c1.3,1.4,2.7,2.7,4.2,3.9l1.2-3.8c-2.4-0.7-4.8-1.2-7.2-1.5c-2.9-0.3-7.5-0.8-9.3,2.1
		c-3.2,5,5.4,7.9,8.6,8.9c7.6,2.3,15.3,4.1,23.1,5.4c9.3,1.8,18.7,3.3,28,4.8c5.8,0.9,11.6,1.9,17.5,2.5c4.6,0.5,9.3,0.8,13.9,1
		c7.5,0.4,14.9,0.4,22.4-0.1c6.8-0.5,14-1.3,20.4-4.1c2.5-0.9,4.7-2.5,6.5-4.4c1.2-1.6,2.2-3.4,2.9-5.2c1.1-2.6,2.1-5.3,2.9-8
		c2.4-8,3.8-16.3,4.2-24.7c0-0.5,0.1-1,0.1-1.5c0-1.3-0.9-3-2.4-3.1l-15.4-0.9l-24.4-1.4l-5.7-0.3c-0.9-0.2-1.8,0.4-1.9,1.3
		c0,0,0,0,0,0l-1.5,10.4l1.4-1.3c-8.7,0.7-17.5,0.7-26.2,0.6c-7.5-0.1-15-0.4-22.5-0.7l-4.5-0.2l2,1.4l-3.6-7.2
		c-0.6-1.1-1.9-1.7-3.1-1.3C303.9,298.5,304.1,299.9,304.7,300.9L304.7,300.9z"></path><path class="st2" d="M289.4,321.2L278.3,310l-1.6-1.6c-1-0.8-2.2-1.1-3.5-0.8c-1,0.3-1.1,1.1-0.4,1.8l11.1,11.2l1.6,1.6
		c1,0.8,2.2,1.1,3.5,0.8C290,322.7,290.1,321.9,289.4,321.2L289.4,321.2z"></path><path class="st0" d="M276.1,199.6c0,0-6.3-3.7-11.9-3.4s-8.6,4.2-6.8,7s6.2-0.3,9.3,2.5c0,0-4.9-0.7-5,4.1"></path><path class="st2" d="M278.4,198.9c-4.3-2.5-9.6-4.2-14.6-3.6c-3.1,0.4-6.6,1.5-8.5,4.1c-1.2,1.6-1.3,4.2,0.6,5.3
		c2.7,1.6,6-0.4,8.4,1.7l3.9-1.7c-1.7-0.2-3.4,0-4.9,0.6c-2.5,0.8-4,2.4-4.1,5.1c0,0.9,4.8,0.5,4.9-1c0-0.8,0.3-1.6,0.7-2.3
		c0.2-0.2,0.3-0.4,0.5-0.5c-0.3,0.2,0.1-0.1,0.2-0.1c-0.5,0.3,0.4-0.1-0.4,0.2c0.2-0.1,0.7-0.2-0.1,0c0.4-0.1-0.5,0-0.2,0h0.3
		c0.4,0-0.5,0-0.2,0h0.3c0.3,0-0.1-0.1-0.3,0c0,0,0.1,0,0.2,0c1,0.1,2.1-0.1,3-0.5c0.3-0.1,1.5-0.7,0.9-1.2
		c-2.1-1.7-4.7-1.6-7.2-1.5c-0.3,0-0.6,0-1-0.1c-0.4-0.1-0.8-0.4-1.1-0.8c-0.4-0.6-0.6-1.4-0.4-2.1c0.2-0.8,0.7-1.5,1.3-2.1
		c0.3-0.3,0.6-0.5,1-0.7c0,0,0.6-0.3,0.3-0.2c0.1,0,0.2-0.1,0.4-0.1c0.4-0.1-0.3,0,0.1,0c1.1-0.2,2.2-0.2,3.2,0
		c1.2,0.2,2.5,0.6,3.6,1c1.1,0.4,2.2,0.8,3.2,1.3l0.6,0.3l0.3,0.2c0.1,0.1,0.2,0.1,0.3,0.2c1,0.4,2.1,0.4,3.1,0
		C277.2,200.2,279.2,199.4,278.4,198.9L278.4,198.9z"></path><path class="st0" d="M238.7,199.6c0,0-7.3,14,10.6,13.4c8.7-0.3,8-5.5,5.9-8.3s-11.5-2.8-11.5-2.8"></path><path class="st2" d="M236.5,198.7c-2.4,4.5-2.7,10.9,2,14.1c2.1,1.3,4.6,2.1,7.1,2.2c3.4,0.3,7,0.2,10.1-1.3c2.1-1,3.5-3.2,3.5-5.6
		c-0.1-1.9-0.8-3.7-2.1-5.1c-2-2.1-5.2-2.6-8-3c-1.8-0.2-3.6-0.4-5.5-0.4c-1.3,0-2.3,1-2.3,2.3c0.1,1.4,1.5,1.9,2.7,1.9h0.5
		c0.5,0-0.7,0-0.1,0c0.8,0,1.7,0.1,2.5,0.2c1,0.1,2.1,0.2,3.1,0.4c0.3,0.1,0.6,0.1,0.9,0.2h-0.1l0.3,0.1c0.5,0.1,0.9,0.3,1.4,0.5
		c0.1,0,0.5,0.2,0.1,0s0,0,0.1,0.1s0.3,0.2,0.4,0.3s-0.3-0.4,0,0c0.1,0.2,0.2,0.4,0.4,0.5c0.2,0.2-0.2-0.4-0.1-0.2l0.1,0.2
		c0.2,0.3,0.3,0.6,0.4,0.9c0,0.1,0.2,0.8,0.1,0.4s0,0.2,0,0.3s0,0.3,0,0.5c0,0.1,0,0.2,0,0.2c0,0.4,0.1-0.4,0-0.2
		c0,0.2-0.1,0.4-0.1,0.6c0,0.1-0.1,0.2-0.1,0.2s0.3-0.5,0.1-0.1c-0.1,0.1-0.2,0.3-0.2,0.4c-0.1,0.3,0.1-0.1,0.1-0.2
		s-0.1,0.2-0.2,0.2l-0.2,0.2c-0.4,0.4,0.2-0.1,0,0s-0.4,0.3-0.6,0.4l-0.3,0.1c0.5-0.3,0.2-0.1,0.1-0.1l-0.8,0.3l-0.4,0.1
		c-0.2,0-0.1,0,0.1,0l-0.3,0.1c-0.7,0.1-1.4,0.2-2.2,0.2h-1.1h-0.6c0.4,0,0.1,0-0.1,0c-1.2-0.1-2.4-0.2-3.5-0.5
		c-0.4-0.1,0.6,0.2,0,0l-0.3-0.1c-0.2-0.1-0.4-0.1-0.6-0.2s-0.4-0.2-0.6-0.3c0,0-0.3-0.1-0.3-0.1s0.5,0.3,0.1,0.1s-0.6-0.4-0.9-0.6
		l-0.2-0.2c-0.2-0.1,0.3,0.4,0.2,0.2s-0.3-0.3-0.4-0.4s-0.2-0.3-0.3-0.4s-0.1-0.1-0.1-0.2c-0.2-0.3,0.1,0.2,0.1,0.2
		c-0.2-0.1-0.4-0.7-0.4-0.9s-0.1-0.3-0.1-0.4l-0.1-0.2c-0.1-0.3,0.1,0.3,0.1,0.3s-0.1-0.8-0.1-1c0-0.3,0-0.5,0-0.8
		c0-0.2,0-0.3,0-0.5c0-0.5-0.1,0.5,0,0c0.1-1.1,0.4-2.2,0.8-3.3c0-0.1,0.1-0.2,0.1-0.3c0.2-0.4-0.2,0.4-0.1,0.2s0.1-0.3,0.2-0.4
		l0.2-0.4c1.4-2.7-3.2-4.2-4.5-1.8L236.5,198.7z"></path><path class="st0" d="M252.2,192c7.3,3.5,5.6,10.1-3.5,9.9c-3.7,0-7.4-1.1-10.4-3.3c-1.7-1.2-2.8-3.1-3-5.1
		c-0.2-2.4,0.8-5.4,7.1-5.2"></path><path class="st2" d="M250.4,192.9c2,1,3.9,2.5,3.8,4.8c-0.1,0.4-0.2,0.7-0.4,1.1c-0.1,0.1-0.1,0.2-0.2,0.3c0.2-0.2,0,0-0.1,0.1
		c-0.2,0.2-0.4,0.4-0.6,0.6c0.3-0.2-0.3,0.2-0.4,0.2s-0.6,0.3-0.1,0.1l-0.4,0.2l-0.5,0.1c-0.6,0.2,0.3-0.1-0.1,0
		c-0.4,0.1-0.8,0.2-1.2,0.2c0.6-0.1-0.3,0-0.3,0h-0.6c-0.4,0-0.7,0-1.1,0c-0.9-0.1-1.7-0.2-2.6-0.4c-1.4-0.3-2.8-0.8-4-1.5
		c-0.2-0.1-0.3-0.2-0.5-0.3c0.3,0.2,0,0-0.1-0.1l-0.6-0.4c-0.7-0.5-1.3-1.2-1.8-1.9c-0.7-1.1-1-2.4-0.9-3.8c0.1-0.8,0.5-1.6,1.1-2.1
		c-0.3,0.2,0,0,0.1,0s0.3-0.2,0.5-0.3c-0.6,0.3,1-0.2,0.4-0.1l0.4-0.1c0.1,0,1-0.1,0.5-0.1c0.6,0,1.1-0.1,1.7,0
		c0.8,0,2.5-0.4,2.5-1.4s-1.8-1.2-2.5-1.2c-3.2,0-8.2,0.6-9.4,4.2c-1.1,3.4,1.1,6.9,3.8,8.7c3.8,2.4,8.2,3.6,12.7,3.4
		c3.2-0.1,8-0.9,9.4-4.3c1.5-3.6-2.2-6.5-5-7.9c-1.1-0.5-2.4-0.5-3.5,0.1c-0.5,0.2-0.7,0.8-0.5,1.3
		C249.9,192.7,250.1,192.9,250.4,192.9L250.4,192.9z"></path><path class="st0" d="M371.2,186.1c0,0-9.2,7.8-17.7,6.2s-24.5-7.1-27.6,1s7.8,12.9,15.3,12.7c0,0-5.4,22.1,6.9,30.2
		s18.9,5.4,18.5,14.6c0,0,17.4,8.3,21.8-8.6c0.7-2.6,8.7-24.8-9.9-38.5C378.3,203.7,367.6,196.6,371.2,186.1z"></path><path class="st2" d="M369.3,184.7c-3.1,2.7-6.8,4.6-10.8,5.8c-2.7,0.7-5.5,0.6-8.2-0.1c-2.6-0.6-5.2-1.2-7.9-1.8
		c-4.8-1-10.7-2.2-15.3,0s-5.1,8.1-2.2,11.8c3.9,5,11.2,7.4,17.4,7.3l-3.3-2.8c-1.4,5.7-1.6,11.6-0.7,17.4c0.6,4.4,2.5,8.6,5.5,11.9
		c2.1,2.1,4.6,3.8,7.2,5.2c2.5,1.4,5.2,2.6,7.9,3.7c1,0.4,2.1,0.8,3.1,1.3c-0.5-0.2,0.1,0.1,0.2,0.1c0.2,0.1,0.5,0.3,0.7,0.4
		c-0.5-0.3,0,0,0.1,0.1c0.3,0.2-0.2-0.2,0.2,0.2s-0.2-0.3,0.1,0.1l0.3,0.4c0.2,0.3,0.3,0.7,0.4,1c0.3,1.1,0.3,2.2,0.2,3.3
		c0,0.8,1.1,1.6,1.7,1.9c3.9,1.9,8.1,2.8,12.4,2.5c2.9-0.2,5.8-1.3,7.9-3.3c2.4-2.3,3.4-5.2,4.3-8.3c1.6-5.1,2.3-10.4,2.1-15.7
		c-0.5-8.8-4.7-17-11.5-22.5c-0.9-0.7-1.8-1.4-2.7-2.1c-0.4-0.3,0.4,0.4,0,0l-0.4-0.3c-0.3-0.2-0.6-0.5-0.8-0.8
		c-0.5-0.5-1-1-1.4-1.6c-2.9-3.4-3.8-8.1-2.4-12.4c0.5-1.6-3.9-3.8-4.4-2.4c-2.4,7.4,1.5,14.2,7.2,18.7c2.5,1.8,4.7,3.9,6.6,6.3
		c2.3,3.1,4,6.8,4.7,10.6c1.1,5.9,0.8,12-0.8,17.8c-1.3,5.1-3.1,10.6-8.6,12.4c-1.4,0.4-2.8,0.6-4.2,0.6c-0.7,0-1.4-0.1-2.1-0.2
		l-0.5-0.1c0.4,0.1-0.1,0-0.2,0l-0.9-0.2c-0.6-0.1-1.1-0.3-1.7-0.4s0.4,0.2-0.3-0.1l-0.6-0.2c-0.3-0.1-2-0.9-0.6-0.2l1.7,1.9
		c0.2-2-0.2-3.9-1.2-5.6c-1.1-1.6-2.6-2.9-4.4-3.7c-1.9-1-3.9-1.7-5.9-2.6c-2.7-1.1-5.3-2.4-7.7-4c-7-4.5-7.7-14.5-7.1-22.2
		c0.1-1.6,0.3-3.1,0.6-4.7c0.1-0.5,0.2-0.9,0.3-1.4s0,0.2,0-0.2c0,0,0-0.1,0-0.1c0.3-1.4-2.2-2.8-3.4-2.8c-2.3,0.1-4.6-0.3-6.8-1.1
		c-1.9-0.5-3.5-1.7-4.7-3.2c-2.3-3.5-0.2-8.1,3.7-9.2c4.5-1.2,9.5,0,13.9,1c5.1,1.1,10.1,2.8,15.3,1.6c4.3-1.1,8.4-3.2,11.8-6.1
		C374.6,186.4,370.4,183.7,369.3,184.7z"></path><path class="st2" d="M395.3,235.4c0,0,9.9,7.2,14,2s-3.5-6.6-3.5-6.6s12.9-9,2.6-15.6c0,0,12.9-5.6,8.9-17.1s-20.8-11.7-20.8-11.7
		s5.6-13.1-6.5-15.9s-12.4,6.3-12.4,6.3s-7.7-1.9-9.7,2.6s2.8,8.4,2.8,8.4s-3,13.9,7.7,15.9l3.2,20.2c-3.5,3.1-5.1,7.7-4.4,12.2
		C378.4,243.7,392.5,244.1,395.3,235.4z"></path><path class="st2" d="M393,236.2c2.9,2.1,6.6,4,10.3,4.1c2.9,0.1,6.4-0.8,8.3-3.2c1.4-1.7,2-3.9,0.1-5.5c-1.2-0.9-2.5-1.5-4-1.7
		l-0.1,1.1c2.3-1.6,4.2-3.5,5.7-5.8c1.1-1.5,1.6-3.4,1.4-5.2c-0.3-2.4-2.2-4.2-4.1-5.5l-0.9,1.2c5.2-2.3,10.3-7.1,10.7-13.1
		c0.6-9-7.8-14.4-15.5-16.2c-2.2-0.5-4.5-0.9-6.9-0.9l0.8,0.6c1.6-3.9,2.1-9.1-0.5-12.7c-2.5-3.3-7.1-4.4-11-4.4
		c-3.6,0-7.9,1-10.3,3.9c-1.1,1.3-1.7,2.9-1.9,4.6l4.4-1.6c-3.9-0.9-8.9-0.7-12.2,1.8c-4,2.9-2.2,8.3,1.1,11.1l-0.1-0.4
		c-0.5,2.5-0.6,5-0.2,7.5c0.8,4.6,3.6,8,8.3,8.9l-0.4-0.3l3.2,20.2l0.2-0.5c-3.8,3.1-6.3,9.6-4.2,14.2c2.5,5.5,10.4,5.3,15.1,3.6
		c3.3-1.2,6.2-3.4,7.4-6.8c0.3-1-4.3-0.4-4.8,0.8c-0.6,2-2,3.6-3.8,4.6c-0.5,0.3-1,0.4-1.6,0.4c-0.9,0.1-1.8,0-2.6-0.2
		c-1.9-0.4-3.6-1.5-4.6-3.1c-1.3-2.3-1.1-5.4-0.4-7.9c0.6-2,1.7-3.7,3.1-5.2c0.6-0.6,1-0.8,0.9-1.7c-0.4-3.4-1.1-6.7-1.6-10.1
		l-1.5-9.6c-0.1-0.2-0.2-0.3-0.4-0.3c-4.4-0.9-6.8-4.2-7.4-8.5c-0.4-2.3-0.3-4.6,0.2-6.9c0.1-0.1,0-0.3-0.1-0.4
		c-2.4-2-4.4-6-2.3-8.8c0.2-0.3,0.5-0.5,0.8-0.7c0,0,0.3-0.1,0,0s0.4-0.1,0.4-0.1c-0.3,0,0.4,0,0.4,0c0.3,0,0.6,0,0.9,0
		c0.8,0,1.7,0.1,2.5,0.3c1,0.2,4.3-0.2,4.4-1.6c0-0.3,0-0.5,0.1-0.8c0.2-0.8,0.4-1.5,0.8-2.2c0.4-0.8,1-1.4,1.8-1.9
		c-0.1,0.1,0.5-0.3,0.2-0.1c0.1,0,0.5-0.1,0,0l0.5-0.1c-0.4,0.1,0,0,0.1,0h0.3c0.4,0,0.8,0,1.3,0c3.4,0.2,7.2,1.3,9,4.4
		c1.2,2.2,1.6,4.7,1.2,7.1c-0.2,1.5-0.6,3-1.1,4.4c-0.2,0.5,0.5,0.6,0.8,0.6c5,0,10,1.5,14.2,4.1c3.5,2.2,5.8,5.9,6.4,10
		c0.4,3.6-1,7.3-3.7,9.8c-1,1-2.2,2-3.5,2.7l-0.3,0.2c-0.4,0.2,0.4-0.2,0,0l-0.5,0.3l-0.5,0.2c-0.3,0.1-1.5,0.8-0.9,1.2
		c1.8,1.2,3.5,2.8,3.8,5.1c0.1,1.7-0.4,3.4-1.4,4.8c-0.9,1.3-1.9,2.5-3.1,3.5l-0.7,0.6c-0.1,0.1-0.7,0.5-0.3,0.3l-0.5,0.4
		c-0.4,0.3-0.9,0.9-0.1,1.1c1.2,0.2,2.3,0.7,3.3,1.4c0.7,0.6,1.1,1.5,1,2.4c-0.1,0.5-1.5,3.2-1.9,2.9c0,0,1.1-0.1,0.2-0.2
		c-0.5,0-1.1-0.1-1.6-0.2c-1.2-0.3-2.3-0.7-3.4-1.3c-1.3-0.6-2.5-1.4-3.7-2.2c-0.8-0.6-2.3-0.1-3.1,0.2
		C394.1,234.9,392.3,235.7,393,236.2z"></path><path class="st0" d="M375.7,205.5c0,0,5-8.3,10.8-4s0.3,25.4-10.9,20.3"></path><path class="st2" d="M378,206.5c0.1-0.2,0.2-0.3,0.3-0.5s0.6-0.7,0.2-0.2c0.2-0.2,0.4-0.5,0.6-0.7c0.4-0.5,0.9-1,1.4-1.4l0.5-0.4
		c-0.4,0.3,0.2-0.1,0.2-0.1c0.3-0.2,0.7-0.4,1.1-0.6c-0.4,0.2,0.4-0.1,0.6-0.2c0.6-0.2-0.4,0,0.2,0c0.1,0,0.8,0,0.2,0
		c0.2,0,0.4,0.1,0.6,0.1c-0.1,0-0.4-0.2,0,0c0,0,0.7,0.3,0.3,0.1c0.3,0.1,0.5,0.4,0.8,0.5s-0.1-0.1-0.2-0.2c0.1,0.1,0.2,0.2,0.2,0.3
		l0.2,0.3c0.3,0.3-0.2-0.4,0,0c0.1,0.2,0.2,0.4,0.3,0.6s0.1,0.2,0.2,0.4s0.1,0.2,0.1,0.3c-0.1-0.3-0.1-0.3-0.1-0.2
		c0.1,0.5,0.3,1.1,0.3,1.6c0,0.3,0.1,0.6,0.1,1c0,0.2,0,0.3,0,0.5s0,0.6,0,0.1c0,1.4-0.2,2.8-0.5,4.2c-0.3,1.3-0.7,2.6-1.4,3.7
		c-0.5,1.1-1.2,2.1-2,3c-0.2,0.3-0.5,0.5-0.8,0.7c-0.1,0.1-0.5,0.4-0.1,0.1l-0.4,0.3c-0.3,0.2-0.6,0.4-1,0.5
		c0.6-0.3-0.3,0.1-0.5,0.1l-0.5,0.1c0.6-0.1,0.1,0,0,0h-0.5c-0.7,0,0.2,0.1-0.2,0s-0.7-0.1-1.1-0.2c0.7,0.2,0,0-0.1,0l-0.8-0.3
		c-1.2-0.5-2.5-0.2-3.3,0.9c-0.6,1.1,0.3,2.3,1.3,2.8c3.5,1.6,7.6,1.2,10.6-1.2c2.7-2.1,4.3-5.4,5.3-8.6c1-3,1.1-6.3,0.4-9.4
		c-0.3-1.4-1.1-2.7-2.1-3.7c-1.9-1.8-4.4-2.6-7-2.3c-3.5,0.6-6.5,3.3-8.3,6.3c-1.5,2.4,3.2,4.1,4.6,1.9L378,206.5z"></path><path class="st2" d="M350.3,214.1c-0.2,0.4-0.4,0.7-0.7,1.1c-0.5,0.8-1.2,1.5-2,2.1c-0.2,0.2-0.5,0.4-0.7,0.6
		c-0.1,0.1-0.5,0.3-0.1,0.1l-0.4,0.2c-0.1,0.1-0.3,0.2-0.4,0.2s0.4-0.2-0.1,0s0.4-0.1,0,0c-0.2,0.1-0.8,0.1,0,0
		c-0.7,0.1,0.4-0.1,0,0c-0.6,0.1,0.3,0-0.1,0h-0.3c0.3,0,0.3,0,0.1,0h-0.6c0.3,0-0.3,0-0.4-0.1c-0.2,0-0.4-0.1-0.6-0.1
		c-0.4-0.1-0.8-0.2-1.2-0.4c-1-0.3-2.1-0.2-3.1,0.3c-0.5,0.1-1,0.4-1.4,0.7c-0.1,0.1-0.4,0.4-0.1,0.6c5.7,2.2,12.5-0.2,16.2-5
		c0.3-0.4,0.5-0.7,0.8-1.1c0.4-0.7-1.7-0.4-1.9-0.4c-0.6,0.1-1.3,0.3-1.9,0.5C351,213.5,350.6,213.7,350.3,214.1L350.3,214.1z"></path><circle class="st2" cx="361.4" cy="198.6" r="1.8"></circle><path class="st2" d="M421.2,348.2c0.5-3.4,2.7-6,5.4-8s6.3-4.2,9.7-4.2c0.8,0,1.6,0.1,2.4,0.5c0.3,0.1,0.6,0.3,0.9,0.5
		c0.6,0.4,1.2,1.4,0.4-0.1s-0.3-0.4-0.4,0.3c0,0.4-0.1,0.7-0.2,1.1c-0.3,0.9-0.8,1.8-1.4,2.6c-2.2,2.7-5,4.7-8.3,5.8
		c-1.9,0.7-3.8,1.2-5.8,1.4C423.1,348.2,422.2,348.2,421.2,348.2c-0.5,0-1,0-1.6,0c-0.3,0-1.6-0.2-1.4,0.1l1.1,2.3
		c0.1,0.2,0.2-0.7,0.4-0.9c0.2-0.5,0.6-0.9,1-1.2c0.8-0.6,1.7-1,2.7-1.1c2.4-0.2,4.8,0.8,7,1.6c4.3,1.5,8.3,3.7,11.9,6.4
		c0.9,0.7,1.7,1.4,2.5,2.2c0.3,0.3,1.3,1.7,0.7,0.5c-0.5-1-0.2-0.4-0.3,0.1c0,0.3-0.1,0.6-0.2,0.9c-0.8,2-2.9,3.2-4.8,3.7
		c-4.6,1.1-9.3-1.3-13.3-3.3c-2.3-1.1-4.4-2.5-6.2-4.3c-0.4-0.4-0.8-0.9-1.2-1.4c-0.3-0.5-0.2-0.2-0.3-0.6c-0.2-0.5-0.3-1.1-0.2-1.7
		c0.1-0.2,0.5-0.9,0.8-0.7l-2-3.7v0.2v-0.8c-2.1,2.8-4.3,5.6-4.9,9.2c-0.4,3.4,0.1,6.8,1.4,9.9c2.8,7.1,7.9,12.2,13.6,17
		c0.8,0.6,0.3-0.8,0.2-1.1c-0.3-1.1-0.9-2.1-1.6-3c-4.6-3.9-10.5-8.4-11.3-14.8c-0.3-3.5,0.6-7,2.8-9.9c0.4-0.6,0.9-1.2,1.3-1.8
		s1-1,0.8-1.8c-0.3-1.1-0.7-2-1.3-3c-0.2-0.4-0.6-1.1-1.2-1c-1.2,0.1-0.9,2-0.7,2.7c0.4,2,1.1,3.8,2.1,5.6c1.5,2.8,3.6,5.2,6.2,7.1
		c2.9,1.9,6,3.5,9.2,4.6c2.9,1.1,6.2,1.7,9.2,0.5c2.7-1,4.6-3.5,3.9-6.5c-0.9-3.6-3.2-6.4-6-8.7c-2.5-2.1-5.2-3.8-8.2-5.2
		c-3.1-1.6-6.3-2.8-9.7-3.5c-2.5-0.5-6.2,0.3-6.4,3.5c-0.1,1.6,0.9,3.4,1.7,4.7c1,1.6,2.5,1.5,4.2,1.5c6,0,12.5-2,16.6-6.6
		c1.1-1.2,1.9-2.7,2.3-4.4c0.2-1.8-0.1-3.6-1-5.2c-1.5-3.1-3.8-5.3-7.4-5c-3.4,0.3-6.9,2.4-9.6,4.5c-2.6,1.9-4.5,4.7-5.1,7.9
		c-0.1,0.9,0.6,2.1,1.1,2.9C420,347.1,421.1,348.8,421.2,348.2L421.2,348.2z"></path></g></svg>