<svg transform="scale(1)" version="1.1" id="xPOlZBFWwk" xmlns="http://www.w3.org/2000/svg" xmlns:xlink="http://www.w3.org/1999/xlink" x="0px" y="0px" viewBox="0 0 500 500" xml:space="preserve" class="pbimage_pbimage__wrapper__image__0LEis false"><title>Business Deal</title><style type="text/css"> .st0{fill:#FFFFFF;} .st1{fill:#000005;} .st2{fill:#59BE4C;}
 .st2{fill:#000000;}
 .st1{fill:#3a3aa2;}
 .st0{fill:#FFFFFF;}</style><g id="character-2"><path class="st0" d="M51.2,340.2c0,0,24.2-175.2,74.1-169.5S178,341.6,178,341.6" fill="#FFFFFF"></path><path class="st1" d="M53.7,340c0.2-1.5,0.4-2.9,0.7-4.4c0.6-4,1.3-8,2-11.9c1-5.9,2.1-11.8,3.2-17.6c1.4-7.3,3-14.6,4.6-21.8
		c1.8-8,3.8-16,5.9-23.9c2.2-8.2,4.6-16.3,7.3-24.3c2.6-7.7,5.4-15.4,8.6-22.9c2.9-6.8,6.2-13.3,10-19.6c3.1-5.2,6.8-10,11.2-14.2
		c0.5-0.5,1-0.9,1.5-1.4l0.7-0.6l0.4-0.3c0.3-0.3-0.1,0,0.2-0.1c1-0.8,2.1-1.5,3.2-2.1c0.5-0.3,1-0.6,1.6-0.9
		c0.2-0.1,0.4-0.2,0.1-0.1l0.4-0.2c0.3-0.1,0.6-0.2,0.8-0.4c0.5-0.2,1.1-0.4,1.7-0.6l0.4-0.1c0.4-0.1-0.2,0.1-0.1,0
		c0.3-0.1,0.6-0.2,0.9-0.2c0.6-0.1,1.1-0.2,1.7-0.3s-0.3,0-0.1,0l0.4-0.1l0.9-0.1h0.8c0.7,0-0.5,0,0.3,0c0.6,0,1.2,0,1.8,0.1
		l0.4,0.1c0.4,0-0.5-0.1,0,0c0.3,0.1,0.6,0.1,0.9,0.2c0.6,0.1,1.2,0.3,1.8,0.4l0.4,0.1c0.4,0.1-0.4-0.1,0,0l0.9,0.3
		c0.6,0.2,1.1,0.5,1.7,0.7s1.1,0.5,1.6,0.8l0.2,0.1l0.4,0.2l0.8,0.5c1.1,0.7,2.1,1.5,3.1,2.4c2.1,1.8,3.9,3.8,5.6,5.9
		c4,5.2,7.2,11,9.8,17c3.1,7,5.6,14.2,7.7,21.6c2.3,8,4.1,16.1,5.7,24.2c1.6,8.3,3,16.7,4.1,25.1c1.1,8,2,15.9,2.8,23.9
		c0.7,6.9,1.2,13.8,1.7,20.7c0.4,5.2,0.6,10.5,0.9,15.7c0.1,2.9,0.2,5.8,0.3,8.7c0,0.4,0,0.7,0,1.1c0,1.7,5,1.5,5-0.4
		c0-1.6-0.1-3.1-0.1-4.7c-0.1-4.3-0.3-8.5-0.6-12.8c-0.3-6.3-0.8-12.6-1.3-18.9c-0.6-7.7-1.4-15.3-2.3-23c-1-8.4-2.1-16.7-3.6-25.1
		s-3.1-16.8-5.1-25.1c-1.9-7.9-4.2-15.7-6.9-23.4c-2.4-6.7-5.3-13.2-8.9-19.4c-3-5.2-6.8-9.8-11.4-13.7c-4.3-3.5-9.5-5.6-14.9-6.1
		c-5.4-0.4-10.8,0.9-15.4,3.6c-4.8,2.9-9,6.7-12.5,11.2c-4.2,5.4-7.9,11.2-11,17.4c-3.5,7-6.7,14.2-9.4,21.5c-3,7.9-5.7,16-8.1,24.1
		s-4.7,16.4-6.7,24.6c-1.9,7.8-3.7,15.5-5.3,23.4c-1.4,6.8-2.8,13.6-4,20.4c-0.9,5.1-1.8,10.2-2.7,15.3c-0.5,2.8-0.9,5.6-1.3,8.5
		l-0.2,1.1C48.5,341.9,53.5,341.9,53.7,340L53.7,340z" fill="#3a3aa2"></path><path class="st2" d="M136.9,190.8l-7.9,8.2l9,6.7l5.4,89.3l23.4,35.7c0,0,9.5-25.7,8.9-35.7s-32.2-89.2-32.2-89.2l4.9-7.4
		L136.9,190.8z" fill="#000000"></path><path class="st2" d="M135,189.2l-8,8.2c-0.3,0.3,2.4,2.5,2.7,2.7l8.9,6.7l-2.6-2.7l1.1,18.1l2.2,36.9l1.8,30l0.2,3.3
		c0,0.4,0.1,0.9,0.2,1.3c0.5,0.9,1.2,1.8,1.7,2.6l3.9,6l17.4,26.5l0.4,0.6c0.3,0.4,3.5,3.2,3.6,3c1.4-3.7,2.6-7.4,3.8-11.1
		c2.2-6.5,3.8-13.1,4.9-19.8c0.3-1.9,0.4-3.8,0.1-5.7c-0.2-1.2-0.5-2.5-0.8-3.7c-1.1-4-2.4-8-3.8-11.9c-3.8-11.2-8-22.4-12.2-33.5
		c-3.8-10.1-7.7-20.2-11.7-30.2c-1-2.7-2.1-5.3-3.1-8c-0.1-0.3-0.2-0.6-0.3-0.8s-0.1-0.4-0.1-0.2c0.3-0.7,0.8-1.4,1.3-2l2.4-3.6
		l1.2-1.8c0.3-0.5-2.7-2.7-3.1-3l-11.4-7.5c-0.7-0.5-0.8-0.3-0.3,0.3c0.8,0.9,1.7,1.7,2.7,2.3l11.4,7.5l-3.1-3l-3.6,5.5
		c-0.4,0.7-1.3,1.5-1.1,2.3c0.2,0.7,0.5,1.4,0.8,2l1.6,4c3.7,9.4,7.4,18.9,11,28.4c4.3,11.4,8.6,22.7,12.6,34.2
		c1.5,4.4,3,8.7,4.3,13.1c0.8,2.6,1.7,5.3,1.7,8c-0.1,2.9-0.4,5.8-1.1,8.6c-0.7,3.5-1.6,6.9-2.6,10.3c-1.5,5.1-3.1,10.1-4.9,15.1
		l-0.3,0.8l3.6,3l-20.5-31.3l-2.9-4.4l0.1,0.3l-0.7-11.4l-1.6-26l-1.8-28.9l-1.2-20c0.1-1.1,0-2.1-0.3-3.2c-0.5-1.1-1.9-2-2.9-2.7
		c-0.7-0.5-1.4-1-2-1.5l-5.5-4.1l-1.1-0.8l2.6,2.7l7.9-8.2C139,192.2,135.3,188.8,135,189.2z" fill="#000000"></path><path class="st0" d="M93.7,277.2c13.6,6.1,67.2-15.4,67.2-15.4s39.3-14.5,46.3-13.2s33.4,17.3,30.7,22.3c-5,9-10.6,1.6-10.6,1.6
		s10.4,7.4,6.4,12.1s-15.6-5.3-15.6-5.3s7.6,4.9,3.8,8.7s-20.8-5.7-20.8-5.7s-13.8,16.9-32.8,6.4c0,0-76.2,33.5-106.7,15.2" fill="#FFFFFF"></path><path class="st1" d="M93.7,279.4c4.7,2.1,10.7,1.2,15.6,0.5c7-1.1,14-2.8,20.8-4.9c10.5-3.1,20.9-6.7,31.1-10.7
		c8.1-3.2,16.4-5.9,24.7-8.5c6-1.9,12.1-3.9,18.4-4.8c0.5-0.1,1-0.1,1.5-0.2s-0.1,0,0.2,0h0.7c0.3,0,0.6,0.1,1,0.1
		c0.5,0.1-0.3-0.1,0.2,0.1c0.3,0.1,0.5,0.1,0.8,0.2c2.6,0.9,5.2,2.1,7.6,3.4c6.2,3.4,12.5,7.2,17.4,11.9c0.4,0.4,0.8,0.9,1.2,1.3
		s-0.3-0.4,0,0l0.2,0.3c0.2,0.2,0.4,0.5,0.6,0.8c0.4,0.5-0.2-0.5,0.1,0.1c0.1,0.2,0.3,0.9,0.1,0.1c0.1,0.4,0,0.6,0.1,0.1
		c-0.1,0.5,0.1-0.1,0,0c-0.2,0.5,0.4-0.7-0.2,0.4c-0.3,0.6-0.7,1.2-1.2,1.7c-0.6,0.8-1.4,1.3-2.3,1.6c-0.2,0.1-0.5,0.1-0.7,0.1
		c-0.1,0-0.9-0.1-0.6,0c-0.1,0-1-0.4-0.6-0.2c-0.3-0.2-0.6-0.4-0.9-0.6c0.5,0.4-0.2-0.2-0.3-0.3s-0.3-0.3-0.5-0.5
		c-0.4-0.4,0.4,0.5,0,0l-1.9,2.9c0.1,0.1,0.2,0.1,0.3,0.2c0.1,0.1,0.2,0.1,0.3,0.2c-0.4-0.3-0.2-0.1,0.1,0.1
		c0.8,0.7,1.6,1.4,2.4,2.1c0.2,0.2,0.4,0.4,0.6,0.6l0.3,0.4c-0.1-0.1-0.3-0.3,0,0.1c0.4,0.5,0.8,1,1.1,1.5c0,0,0.3,0.5,0.1,0.2
		s0.1,0.1,0.1,0.1c0.1,0.3,0.3,0.6,0.4,0.8c-0.1-0.4,0,0.2,0.1,0.4c0.1,0.4,0-0.3,0,0c0,0.2,0,0.3,0,0.5c0-0.3-0.1,0.3-0.1,0.4
		c-0.1,0.1-0.2,0.3-0.2,0.4c-0.2,0.4-0.6,0.7-1,0.9c-0.2,0-0.5,0.1-0.7,0.2c-0.6,0-1.1,0-1.7-0.1c-2.2-0.6-4.3-1.6-6.2-3
		c-1-0.6-1.9-1.3-2.8-2c-0.5-0.4,0.4,0.3-0.1-0.1l-0.3-0.3c-0.1-0.1-0.2-0.2-0.3-0.3l-1.5,3.4c0.1,0.1,0.3,0.2,0.4,0.2
		s0.3,0.2,0.4,0.3c0.4,0.3-0.2-0.2,0.2,0.2s0.8,0.7,1.2,1.1l0.3,0.4c-0.1-0.1-0.3-0.4,0,0c0.2,0.2,0.4,0.5,0.6,0.8
		c-0.3-0.5,0.2,0.6,0.1,0.1c0.1,0.1,0.1,0.3,0.1,0.4c0-0.1,0-0.3,0,0.1c-0.1,0.5-0.3,0.9-0.6,1.2c0,0-0.8,0.4-0.4,0.3
		c-0.2,0.1-0.4,0.1-0.6,0.2l-0.3,0.1c-0.3,0,0.1,0-0.1,0c-2.3,0-4.5-0.5-6.6-1.4c-2.4-0.9-4.8-1.9-7.1-3c-0.1,0-0.4-0.2-0.2-0.1
		l-0.3-0.1l-0.8-0.4c-0.4-0.2-0.8-0.4-1.2-0.6s-0.7-0.4-1.1-0.6c-0.7-0.5-1.7-0.5-2.3,0.2c-0.1,0.2-0.3,0.3-0.4,0.5
		c-0.4,0.5,0.1-0.1-0.2,0.3s-0.5,0.5-0.8,0.8c-1.5,1.4-3.1,2.7-4.9,3.8c-5,3.3-11,4.5-16.8,3.5c-1.9-0.4-3.7-1-5.4-1.8
		c-1-0.5-2.3-1.5-3.4-1.2c-0.4,0.1-0.9,0.3-1.3,0.5c-2.4,1-4.8,2-7.1,2.9c-9.1,3.5-18.3,6.7-27.6,9.4c-11.6,3.5-23.5,5.9-35.5,7.3
		c-10.3,1-21.4,1-30.9-3.2L64,303c-0.4-0.2-0.2-0.1-0.1,0l-0.4-0.2c-0.5-0.3-1-0.5-1.5-0.8c-0.9-0.5-2.1-0.5-2.5,0.7
		c-0.2,1.2,0.4,2.5,1.5,3.1c6.9,4.1,15.1,5.5,23,5.8c9.3,0.2,18.5-0.7,27.6-2.6c16.3-3.3,32.4-8,47.9-14.1c3.3-1.2,6.6-2.5,9.8-4
		l-1.5-0.3c6.3,3.5,13.5,4.9,20.5,2.8c4.6-1.4,8.8-3.8,12.2-7.1c0.8-0.7,1.6-1.5,2.3-2.4l-2.3,0.2c4,2.3,8.2,4.2,12.5,5.7
		c2.5,0.8,5.4,1.7,8.1,1.2c3.4-0.7,4.3-4.4,3.1-7.2c-1.3-2.7-3.3-4.9-5.9-6.4c-0.6-0.6-1.6-0.5-2.2,0.2c-0.1,0.1-0.1,0.2-0.2,0.3
		c-0.3,1.1,0,2.3,0.9,3c3.6,3.1,8.1,6.3,12.8,7.1c2.8,0.5,5.7-0.6,6.6-3.5c0.9-3.1-1.1-6.4-3.1-8.7c-1.6-1.9-3.5-3.6-5.5-5.1
		c-0.7-0.6-1.7-0.5-2.3,0.2c-0.4,0.9-0.3,2,0.4,2.7c1.6,2.1,4,4,6.6,4.1c2.1,0,4-0.9,5.3-2.5c1.1-1.2,2.3-2.8,2.2-4.6
		c-0.2-2.8-2.5-5.2-4.4-7.1c-2.7-2.5-5.5-4.7-8.6-6.7c-3.2-2.2-6.5-4.2-9.9-6c-2.7-1.5-5.6-2.9-8.5-3.9c-4.6-1.5-9.9,0.3-14.5,1.5
		c-11.5,3.1-22.9,7-34.1,11.1c-8.1,3-16.1,6-24.3,8.7c-7.2,2.4-14.6,4.4-22,6c-5.8,1.2-11.8,2.5-17.7,1.6l-0.8-0.1
		c-0.5-0.1,0.4,0.1-0.1,0l-0.3-0.1c-0.5-0.1-0.9-0.3-1.4-0.5c-0.7-0.3-1.6,0-1.9,0.8c-0.1,0.2-0.1,0.4-0.1,0.7
		C91.7,277.8,92.5,278.9,93.7,279.4L93.7,279.4z" fill="#3a3aa2"></path><path class="st1" d="M212.3,263.9c1.9,1.3,3.7,2.6,5.5,4s3.4,2.5,5.1,3.9l0.6,0.5l0.3,0.2l1.3,1.1c0.8,0.6,1.6,1.3,2.3,1.9
		s1.6,1.4,2.3,2.1c0.3,0.3,0.6,0.6,0.9,0.9c0.1,0.1,0.5,0.6,0.2,0.2s0.1,0.1,0.2,0.2c0.7,0.9,2,1.8,3.1,1.2s0.8-2,0.2-2.8
		c-2.4-3-5.6-5.4-8.6-7.8c-3.3-2.6-6.6-5.1-10-7.5l-2.1-1.5c-0.8-0.6-2.3-0.7-2.7,0.4S211.5,263.4,212.3,263.9L212.3,263.9z" fill="#3a3aa2"></path><path class="st1" d="M203.2,272.1c2.1,1.2,4.1,2.4,6.1,3.6c1.8,1.1,3.6,2.2,5.3,3.4c0.9,0.6,1.8,1.2,2.6,1.8l0.6,0.4
		c0.1,0.1,0.4,0.3-0.1-0.1l0.3,0.2c0.4,0.3,0.7,0.5,1.1,0.8c0.7,0.5,1.3,1.1,1.9,1.6c0.4,0.4-0.2-0.3,0,0s0.2,0.2,0.3,0.3
		c0.3,0.3,0.1,0.2-0.1-0.1c0.1,0.2,0.2,0.5,0-0.1c0.4,1.2,1.4,2,2.6,2.2c0.9,0.1,2.2-0.2,1.9-1.4c-0.6-1.5-1.6-2.7-2.9-3.6
		c-1.6-1.3-3.3-2.6-5.1-3.7c-3.4-2.3-6.9-4.5-10.4-6.5c-0.8-0.5-1.6-1-2.5-1.5s-2.4-0.9-3,0.1S202.4,271.6,203.2,272.1L203.2,272.1z
		" fill="#3a3aa2"></path><path class="st0" d="M113,174.6c0,0-29.4,5-68.1,40C-9,263.3-8.6,324.3,57.1,332.1S164.2,296,164.2,296l-5.6-45.7
		c0,0-71.8,33-86.3,20.8" fill="#FFFFFF"></path><path class="st1" d="M114.9,173.1c-1.9,0.4-3.7,0.8-5.5,1.4c-5,1.6-9.9,3.5-14.7,5.7c-18.3,8.5-35,20.4-50,33.8
		c-14.1,12.5-26.8,27.3-34.4,44.7c-5.6,12.7-8.6,27.5-4.5,41.1c4,13.3,14.5,22.9,27.1,28.1c8.3,3.3,17,5.3,25.9,5.9
		c10.1,0.9,20.3,0.7,30.4-0.8c16.4-2.5,32.2-7.9,46.7-16c9.6-5.3,18.5-11.6,26.7-18.9c0.8-0.8,1.6-1.5,2.4-2.3
		c0.3-0.3,1-0.8,1.2-1.2c0.1-0.9,0-1.8-0.3-2.6l-0.8-6.6l-4.2-34.2l-0.3-2.4c0-0.1-0.8,0.2-0.8,0.2l-1.9,0.9c-1.8,0.8-3,1.3-5,2.2
		c-5.9,2.5-11.8,4.9-17.8,7.2c-7.4,2.8-15,5.5-22.6,7.8c-7.1,2.2-14.4,3.9-21.8,4.9c-5.2,0.6-12.2,1.3-16.5-2.3
		c-0.7-0.6-4.2,2.8-4.1,2.8c3.8,3.1,9.7,3,14.3,2.6c7.3-0.7,14.5-2.2,21.5-4.3c14.3-4.2,28.3-9.3,41.9-15.2c3.1-1.3,6.3-2.7,9.3-4.1
		l-0.8,0.2l1.9,15.4l3,24.6l0.7,5.7l0.2-0.3c0,0-0.1,0.1-0.1,0.1s-0.1,0.1-0.2,0.2c-0.3,0.2,0.1-0.1,0,0c-0.6,0.5-1.1,1.1-1.7,1.6
		l-1.2,1.1l-0.7,0.6c-0.1,0.1-0.2,0.2-0.3,0.3l-0.2,0.2c-0.4,0.3,0.3-0.3,0,0c-1.2,1-2.5,2.1-3.8,3.1l-0.6,0.4l0,0l-0.2,0.2l-1.2,1
		c-0.8,0.6-1.7,1.2-2.5,1.9c-0.3,0.2,0.4-0.2,0,0l-0.3,0.2l-0.7,0.5c-0.5,0.4-1,0.7-1.5,1s-0.9,0.6-1.4,0.9s-0.1,0.1,0,0l-0.4,0.2
		l-0.9,0.6c-23,14.7-50.1,21.8-77.3,20.3c-7.8-0.4-15.6-1.6-23.2-3.7c-11-3.3-21.5-9.2-28.3-18.7c-6.1-8.6-8.3-19.2-7.5-29.6
		c1-12.6,6-24.6,12.6-35.3c8.6-14.1,20.2-26,32.9-36.5c11.4-9.7,24.1-17.9,37.6-24.5c6-3,12.4-5.3,18.9-6.9l0.8-0.2
		c1-0.3,1.9-0.8,2.7-1.5C113.9,174.4,115.2,173.1,114.9,173.1L114.9,173.1z" fill="#3a3aa2"></path><path class="st1" d="M159.1,137.8c0,0,12.9-34.3-15.9-48S75.6,98,72.7,136.4s43.8,44.2,43.8,44.2L159.1,137.8z" fill="#3a3aa2"></path><path class="st1" d="M161.2,137.2c2.1-5.9,3.1-12,3-18.2c0-5.3-1.1-10.6-3.4-15.5c-2.8-5.7-7.2-10.5-12.8-13.6
		c-11.2-6.6-25.1-7.4-37.3-3.5C97.6,90.5,86.3,99.3,78.9,111c-3.8,6.1-6.4,12.8-7.7,19.9c-1.4,6.5-1.2,13.3,0.3,19.8
		c2.7,10.1,10,18,19,23.1c6.6,3.8,13.8,6.4,21.3,7.9c2.3,0.5,4.3,1.1,6.3-0.8c1.3-1.3,2.6-2.6,3.9-3.9l20.5-20.6l17.1-17.3l0.9-0.9
		c0.6-0.6,1-1.6-0.1-1.9s-2.5,0.6-3.2,1.3L143,152l-22.8,23l-5.3,5.3l3.2-1.3c-8.2-1.1-16.2-3.8-23.4-8c-6.1-3.3-11.3-8.2-15-14
		c-4.5-7.4-5.5-15.9-4.5-24.4c1.2-9.8,5.1-19.2,11.2-26.9c2.8-3.5,6.1-6.7,9.7-9.3c3.5-2.5,7.3-4.6,11.3-6.1
		c15.9-6.1,37.5-2.9,47.3,12.5c6.4,10.2,6,23.8,2.4,34.8c-0.1,0.2-0.2,0.5-0.2,0.7c-0.4,1.1,0.9,1.2,1.6,1
		C159.7,139,160.7,138.3,161.2,137.2z" fill="#3a3aa2"></path><path class="st0" d="M139.2,179.3c0,0,8.6,1.3,18.3-10.2c11.1-13.1,2.1-61,2.1-61c-7.5-12.4-48.2-5.6-48.2-5.6
		c5.4,12.4,3.2,32.5,3.2,32.5c-4.5-11.1-17.5-6.6-17,4.2s13,14.2,13,14.2s-4,22.8-3.1,27l29.6,10.7L139.2,179.3z" fill="#FFFFFF"></path><path class="st1" d="M137.7,180.5c4,0.6,8.3-0.9,11.8-2.8c3.7-2,6.9-4.7,9.6-7.8c1.5-1.7,2.7-3.8,3.6-5.9
		c1.9-4.9,2.4-10.2,2.7-15.4c0.2-5.9,0.1-11.9-0.4-17.8c-0.4-5.1-1-10.2-1.7-15.3c-0.2-1.7-0.5-3.4-0.8-5.1
		c-0.1-0.9-0.2-1.8-0.4-2.7c-0.5-1.2-1.4-2.3-2.5-3c-1.7-1.3-3.7-2.3-5.8-3c-5.2-1.5-10.6-2.3-16.1-2.3c-8.5-0.2-17,0.5-25.4,1.8
		l-0.5,0.1c-0.5,0.1-3.3,0.7-2.8,1.8c2.8,6.5,3.5,13.7,3.6,20.7c0.1,3.8,0,7.6-0.4,11.4l4.8-0.9c-1.6-3.9-4.7-6.8-9-7.1
		c-4-0.2-7.9,1.5-10.5,4.6c-2.5,3.4-3.1,7.7-1.6,11.6c1.4,3.4,3.8,6.3,7,8.1c1.9,1.2,4,2.2,6.2,2.8l-0.9-0.9
		c-0.6,3.5-1.2,7-1.7,10.6c-0.7,5.1-1.7,10.3-1.5,15.4c0,0.7,0,1.4,0.6,1.8c0.3,0.1,0.6,0.2,0.9,0.3l4.6,1.7l14.3,5.1l9.8,3.6
		c0.8,0.3,1.7,0.2,2.5-0.1c0.6-0.2,1.7-0.6,1.8-1.3l2-11.8c0.3-1.7-4.6-0.9-4.8,0.6l-2.1,11.8l4.4-1.4l-25.9-9.3l-3.7-1.3l0.5,0.5
		c-0.2-1.4-0.2-2.8,0-4.2c0.2-2.2,0.4-4.5,0.7-6.7c0.6-4.3,1.2-8.7,1.9-13c0.1-0.9,0.3-1.9,0.5-2.9c0.1-0.6-0.4-0.8-0.9-0.9
		c0.2,0.1,0.5,0.1,0.1,0l-0.9-0.3c-1-0.4-1.9-0.8-2.8-1.3c-2.6-1.3-4.8-3.3-6.5-5.6c-2-3-2.5-6.6-1.5-10.1c0.4-1.4,1.1-2.6,2.1-3.6
		c0.4-0.4,0.9-0.8,1.5-1.1c0.4-0.2,0.2-0.1,0.1-0.1l0.5-0.2c0.4-0.1-0.4,0.1,0,0l0.3-0.1c-0.2,0-0.3,0.1-0.1,0s0.6-0.1,0.2,0
		c0.2,0,0.5,0,0.7,0c-0.1,0-0.3,0,0.2,0c0.2,0,0.4,0.1,0.7,0.1c0.7,0.2,1.3,0.5,1.9,0.8c1.7,1.2,3,2.9,3.7,4.8
		c0.6,1.4,4.7,0.5,4.8-0.9c0.4-3.9,0.6-7.8,0.5-11.8c-0.1-7.1-0.8-14.5-3.6-21l-2.9,1.8c2-0.3,4-0.6,6-0.8c4.7-0.6,9.1-0.9,13.6-1
		c5.1-0.2,10.3,0.1,15.3,1c3.8,0.7,8.2,2,10.7,5.1c0.4,0.4,0.6,1,0.6,1.6c0.2,1.2,0.4,2.4,0.6,3.6c0.7,4.3,1.2,8.6,1.7,12.9
		c1.1,10.8,1.9,22.2-0.2,32.9c-0.4,2.3-1.1,4.5-2,6.6c-1.1,2.3-2.6,4.4-4.5,6.1c-2.3,2.4-5,4.3-8.1,5.6c-0.3,0.1-0.6,0.2-0.9,0.3
		s0.3,0-0.3,0.1l-0.7,0.2l-0.4,0.1c-0.5,0.1,0.3-0.1,0,0s-0.8,0.1-1.1,0.1s0,0,0,0h-0.5c-0.2,0-0.3,0-0.5,0c-0.2,0,0.6,0.1,0.3,0
		c-1.2-0.2-2.4,0.1-3.4,0.9C136.6,179.5,136.6,180.3,137.7,180.5z" fill="#3a3aa2"></path><path class="st0" d="M145.5,147.7c0,0,25.5,3,29.7-10.3s-14.2-19.1-28.2-7.7" fill="#FFFFFF"></path><path class="st1" d="M145.7,149.9c2.8,0.3,5.5,0.4,8.3,0.3c5.1-0.1,10.4-0.8,15-2.9c4.9-2.3,8.7-6.5,8.9-12.2
		c0.3-6.4-4.3-11.3-10.2-13c-7.8-2.3-16.3,0.8-22.4,5.7c-1.9,1.5,1.4,5.3,3.3,3.7c4.8-3.8,11.1-6.5,17.4-5.6c1.2,0.2,2.3,0.5,3.4,1
		l0.8,0.4c0.1,0.1,0.3,0.1,0.4,0.2c0.2,0.1,0.5,0.3,0.7,0.5l0.3,0.2c0.4,0.3-0.1-0.1,0.1,0.1s0.4,0.4,0.6,0.6s0.4,0.5,0.2,0.2
		c0.2,0.2,0.3,0.4,0.4,0.7l0.2,0.4c0.2,0.3-0.1-0.3,0,0.1c0.4,1,0.6,2,0.6,3.1c-0.4,9.9-12.5,12-20.4,12.4c-2,0.1-4,0.1-6,0l-1-0.1
		c-0.3,0-1.1-0.1-0.3,0l-0.6-0.1C142.2,145.2,143.3,149.7,145.7,149.9L145.7,149.9z" fill="#3a3aa2"></path><path class="st1" d="M122.9,149.2c0.2,2.6,1.3,5.1,3.1,7c1,1,2.2,1.8,3.4,2.4c1.1,0.5,2.2,0.9,3.4,1c0.1,0,0.7,0.1,0.8-0.1
		s-0.6-0.4-0.6-0.5s-0.4-0.2-0.1-0.1l-0.4-0.2c-0.2-0.1-0.5-0.3-0.6-0.4c-0.4-0.3-0.8-0.6-1.1-1c-0.6-0.7-1.2-1.4-1.6-2.2
		c-0.6-1.2-1.1-2.4-1.3-3.8c0-0.3-0.1-0.5-0.1-0.8s-0.5-0.4-0.6-0.5c-0.5-0.3-1.1-0.5-1.7-0.6C125.2,149.5,122.9,148.9,122.9,149.2z
		" fill="#3a3aa2"></path><path class="st1" d="M146,121.7c-1.1,0.3-1.8,1.5-1.5,2.6c0,0.1,0.1,0.2,0.1,0.3c0.9,2.2,3.6,1.1,3.4-1c0.1-1-0.7-1.8-1.7-1.9
		C146.2,121.6,146.1,121.6,146,121.7z" fill="#3a3aa2"></path><path class="st1" d="M130.3,122.6c-1.1,0.3-1.8,1.5-1.5,2.6c0,0.1,0.1,0.2,0.1,0.3c0.9,2.2,3.6,1.1,3.4-1c0.1-1-0.7-1.8-1.7-1.9
		C130.5,122.6,130.4,122.6,130.3,122.6z" fill="#3a3aa2"></path><path class="st1" d="M107.9,195.1l8.6,4.7c2.7,1.5,5.9,4,8.9,1.7c2.5-1.9,4.9-4,7.3-6.1s4.8-4.3,7.1-6.5c0.7-0.6,0.7-1.7,0.1-2.3
		c-0.1-0.1-0.3-0.3-0.5-0.3c-1.2-0.6-2.5-0.4-3.5,0.5c-2.3,2.2-4.6,4.3-6.9,6.3c-1.1,1-2.3,2-3.5,3c-0.6,0.5-1.2,1-1.8,1.5
		c-0.4,0.5-1,0.9-1.5,1.2l1.3-0.2c-0.7,0-2.2-1.1-3-1.5l-3-1.7l-6.5-3.6c-1.2-0.6-2.6-0.4-3.5,0.5c-0.7,0.6-0.7,1.6-0.1,2.3
		C107.5,194.9,107.7,195,107.9,195.1L107.9,195.1z" fill="#3a3aa2"></path><path class="st2" d="M193.2,229.7l-5-8.8c-0.2-0.3-0.5-0.6-0.8-0.8c-0.5-0.4-1-0.8-1.5-1.2c-0.4-0.3-0.8-0.5-1.3-0.8
		c-0.1,0-0.5-0.2-0.4,0.1l5,8.8c0.2,0.3,0.5,0.6,0.8,0.8c0.5,0.4,1,0.8,1.5,1.2c0.4,0.3,0.8,0.5,1.3,0.8
		C192.9,229.8,193.4,230,193.2,229.7L193.2,229.7z" fill="#000000"></path><path class="st2" d="M203.4,227.6V207c0-1.9-4.6-0.3-4.6,1.4v20.7C198.8,231,203.4,229.4,203.4,227.6L203.4,227.6z" fill="#000000"></path><path class="st2" d="M215.1,226.4l4.9-9.9c0.3-0.7-1.8,0.1-1.9,0.1c-1,0.3-1.9,1-2.5,1.8l-4.9,9.9c-0.3,0.7,1.8-0.1,1.9-0.1
		C213.6,227.9,214.5,227.2,215.1,226.4L215.1,226.4z" fill="#000000"></path></g><g id="character-1"><path class="st1" d="M345.5,251.2c-2.9,0-108.9-16-111-15.6s2.9,58.4,4.6,58.8s94.7,11.1,94.7,11.1L345.5,251.2z"></path><path class="st1" d="M345.6,250h-0.2C344.8,250,346.1,250.1,345.6,250l-1-0.1c-1.2-0.1-2.4-0.3-3.6-0.5c-3.9-0.5-7.8-1.1-11.7-1.6
		c-11.7-1.7-23.4-3.4-35.1-5.1c-12.2-1.8-24.4-3.5-36.6-5.3c-7.3-1-14.6-2.3-22-2.9c-1.1-0.1-2.4-0.2-3.3,0.5s-0.7,1.8-0.8,2.7
		c-0.1,4.3,0,8.6,0.3,12.9c0.7,11.9,1.6,23.8,3.1,35.6c0.2,1.9,0.5,3.8,0.8,5.6c0.1,1,0.3,2,0.8,2.9c0.9,1.4,4.4,1.4,5.9,1.5
		c9.5,1.2,19.1,2.3,28.6,3.4l37.3,4.3l23.6,2.7l1.1,0.1c0.9,0.1,2.9,0.2,3.2-1.1l4-18.4l6.2-29.3l1.5-6.7c0.3-1.5-4.6-1.9-5-0.2
		l-4,18.4l-6.3,29.2l-1.5,6.7l3.2-1.1l-16.5-1.9l-35.4-4.1c-10.9-1.3-21.9-2.6-32.8-3.9c-2.9-0.3-5.8-0.7-8.7-1.1l-0.9-0.1
		c-1.1-0.1,1.2,0.4,1.3,0.7c-0.1-0.3-0.2-0.6-0.3-1c0.1,0.4-0.1-0.4-0.1-0.5c-0.1-0.3-0.1-0.7-0.2-1c-1.8-10.5-2.5-21.3-3.3-31.9
		c-0.4-5.5-0.8-11-0.9-16.5c0-1.8-0.1-3.5,0-5.2c0-0.5,0.1-1,0.1-1.5s0.1-0.2,0-0.1s0.1-0.1,0.1-0.1c-0.4,0.4-1,0.7-1.6,0.7
		c-1,0.1-0.5,0-0.1,0.1h0.4c0.2,0-0.8-0.1-0.3,0h0.4c1.2,0.1,2.3,0.3,3.5,0.4c3.9,0.5,7.7,1,11.6,1.6c11.5,1.6,23,3.3,34.5,5
		l36.2,5.3c7.3,1.1,14.7,2.2,22,3.1c0.7,0.1,1.4,0.2,2.1,0.2c0.7,0,2.5-0.1,2.5-1.1S346.2,250,345.6,250z"></path><path class="st1" d="M337,289.3l5.4,57.2c0,0-35.3,10.2-35.5,3.8c-4.3-145.5,57.4-167.4,57.4-167.4L337,289.3z"></path><path class="st1" d="M334.8,290.3l1.8,19.4l2.9,30.7l0.7,7.1l2.8-2.5c-5.9,1.7-12.1,3.2-18,4.4c-2.2,0.4-4.4,0.8-6.6,1.1
		c-1,0.1-2,0.2-3,0.3s-1.7,0.1-2.3,0.1c-0.7,0-1.5-0.1-2.2-0.2c-0.2,0-0.7-0.2-0.5-0.1c-0.2-0.1-0.5-0.2-0.7-0.3
		c-0.1,0-0.2-0.1-0.2-0.1c-0.2-0.1,0.1,0.2,0,0c-0.1-0.2-0.2-0.3-0.3-0.5c0.1,0.2,0,0.1,0-0.1c0-0.5,0-1,0-1.4c0-1.1,0-2.1-0.1-3.2
		c-0.4-15.3,0.1-30.7,1.5-46c1.1-12.3,3-24.5,5.7-36.5c2.1-9.6,5-19.1,8.6-28.2c2.8-7.1,6.2-14,10.1-20.6c1.7-2.8,3.5-5.4,5.4-8
		c0.9-1.1,1.7-2.3,2.6-3.4l0.3-0.4c0,0-0.2,0.3,0.1-0.1l0.6-0.8c0.4-0.5,0.9-1,1.3-1.5c1.6-1.8,3.3-3.6,5-5.2l1.2-1.1
		c0.5-0.5-0.3,0.3,0.2-0.1l0.6-0.5c0.7-0.6,1.5-1.3,2.2-1.9s1.4-1.1,2-1.6l1-0.7l0.5-0.3c0.1-0.1-0.6,0.4-0.3,0.2l0.3-0.2
		c1-0.7,2.1-1.4,3.2-2l0.7-0.4c0.2-0.1,0.9-0.5,0.3-0.2s0.1-0.1,0.3-0.1l0.5-0.2c0.4-0.2,0.8-0.4,1.2-0.5s-0.3,0.1-0.4,0.1l-1.6-0.9
		l-2.7,10.6l-6.5,25.5l-7.8,30.6l-6.8,26.5c-1.1,4.3-2.3,8.6-3.3,13c0,0.1,0,0.1,0,0.2c-0.5,2.1,3.9,0.2,4.3-1.2l2.7-10.6l6.5-25.5
		l7.9-30.7l6.8-26.5c1.1-4.3,2.3-8.6,3.3-13c0-0.1,0-0.1,0-0.2c0.3-1-0.8-1.2-1.6-0.9c-1.1,0.4-2.2,0.9-3.3,1.5
		c-2.6,1.3-5,2.9-7.3,4.6c-3.4,2.6-6.7,5.4-9.6,8.5c-4,4.2-7.7,8.8-10.9,13.6c-4.2,6.3-7.8,12.9-10.8,19.8
		c-3.8,8.7-6.9,17.7-9.3,26.9c-3,11.6-5.2,23.4-6.6,35.3c-1.7,14.9-2.6,29.9-2.5,44.9c0,4.3,0.1,8.6,0.2,12.9c0,1.6-0.1,3.1,1.5,3.9
		c1.3,0.5,2.6,0.8,4,0.7c2,0,4-0.1,6-0.4c8.2-1.1,16.2-2.9,24.1-5.2l1.6-0.4c0.9-0.2,2.9-1.3,2.8-2.5l-1.8-19.4l-2.9-30.7l-0.7-7.1
		C339.1,286.6,334.7,288.7,334.8,290.3z"></path><path class="st0" d="M329.1,335.5c0,0,1.8-151,40.9-160.6s66,155.8,66,155.8"></path><path class="st1" d="M331.4,334.6c0.1-5.4,0.3-10.8,0.5-16.2c0.6-13,1.5-25.9,2.7-38.8c1.4-15.7,3.7-31.2,6.7-46.7
		c2.8-13.7,6.2-27.6,12.5-40.1c0.5-1,1.3-2.4,2-3.6s1.4-2.2,2.1-3.3c0.4-0.5,0.8-1.1,1.1-1.6c0.2-0.2,0.3-0.4,0.5-0.6s0.4-0.5,0-0.1
		l0.4-0.5c0.8-0.9,1.6-1.8,2.5-2.6c0.2-0.2,0.6-0.6,0.2-0.2l0.6-0.6c0.5-0.4,0.9-0.7,1.4-1.1c0.2-0.1,0.9-0.6,0.2-0.1l0.7-0.4
		c0.5-0.3,0.9-0.5,1.4-0.8c-0.8,0.4,0,0,0.2-0.1s0.5-0.2,0.7-0.3l0.6-0.2c0.5-0.2-0.5,0.2-0.1,0l0.5-0.1c0.4-0.1,0.9-0.2,1.3-0.3
		s-0.4,0,0.3,0l0.8-0.1c0.4,0,0.8,0,1.2,0s-0.3,0,0.3,0l0.7,0.1c0.9,0.1,1.8,0.3,2.7,0.6c0.4,0.1-0.1,0,0.4,0.1l0.7,0.3
		c0.4,0.2,0.9,0.4,1.3,0.6c0.9,0.5,1.8,1,2.6,1.6c3.8,2.9,7,6.5,9.6,10.5c7.4,10.9,12.4,23.4,16.9,35.6c5.2,14.4,9.4,29.2,13.1,44.1
		c3.3,13,6.2,26.2,8.9,39.4c1.4,7.1,2.8,14.2,4,21.4c0,0.3,0.1,0.6,0.2,1c0.3,1.9,4.8-0.2,4.5-1.8c-0.8-5.2-1.8-10.3-2.8-15.5
		c-2.4-12.4-5-24.7-7.9-36.9c-3.6-15.1-7.6-30.1-12.5-44.9c-4.4-13.4-9.4-26.8-16.4-39.1c-2.6-4.8-5.8-9.2-9.5-13.1
		c-3-3.1-6.5-5.8-10.6-6.9c-9.8-2.7-18.9,4.7-24.2,12.2c-3.4,5-6.2,10.3-8.3,16c-2.6,6.6-4.7,13.4-6.4,20.3
		c-3.8,15.5-6.5,31.2-8.3,47.1c-1.7,14.2-2.9,28.5-3.7,42.8c-0.4,7.8-0.8,15.7-0.9,23.5c0,0.4,0,0.7,0,1.1
		C326.9,338.2,331.4,336.3,331.4,334.6L331.4,334.6z"></path><path class="st1" d="M404.2,150.8c0,0,19.6,2.9,22.4-5.1s-9.6-5.6-9.6-5.6s13.7-16.8-6.3-18.8c0,0,15.9-13,2.4-23.8s-39-2.2-39-2.2
		s-0.1-17.6-20.2-14.4s-14.7,13.6-14.7,13.6s-12.9,1.9-12.9,8s9.7,8,9.7,8s4.5,17.1,21.9,13.7l18,20.9c0,0-5.6,8.2,1.3,16
		S405.6,162,404.2,150.8z"></path><path class="st1" d="M403.9,152c5.8,0.8,12.1,1.1,17.8-0.4c3.2-0.9,6.5-2.5,7.5-6c1.1-3.9-2-6.1-5.5-6.8c-2.7-0.5-5.6-0.4-8.3,0.1
		l3.9,1.9c3.8-4.6,7.4-12.6,1.8-17.2c-3-2.5-7.1-3.2-10.8-3.6l2.8,2c2.4-2,4.4-4.4,5.9-7.1c2.8-5,2.9-10.5-0.8-15
		c-4.2-5.2-11-7.8-17.5-8.7c-6.1-0.8-12.3-0.6-18.3,0.6c-3.3,0.5-6.5,1.3-9.7,2.3l4,1.6c-0.1-6.1-3.5-11.6-8.8-14.4
		c-6.1-3.1-13.5-2.4-20-0.7c-4.3,1.2-9.6,3.3-11.2,7.8c-0.7,1.9-0.6,4,0.3,5.8l1.4-1.1c-4,0.6-8.3,1.8-11.6,4.2
		c-2,1.6-3.2,3.8-2.5,6.3s3.4,4.6,5.8,5.8c1.9,0.9,3.9,1.6,6,2l-2.2-1.3c1.9,7.1,7.4,12.6,14.4,14.7c3.8,1,7.8,1.1,11.6,0.3l-3.8-1
		l15.8,18.3l2.2,2.6l-0.1-0.9c-4.5,6.6-2.1,16.5,5.3,19.8c7.2,3.2,16.8,1.5,22.9-3.3c3.1-2.4,5.2-5.8,4.8-9.9
		c-0.2-1.5-5.1-2.2-4.9-0.3c0.7,6.4-6.3,10.5-11.5,11.9c-1.5,0.4-3.1,0.6-4.6,0.6c-1.1,0-2.3-0.1-3.3-0.5c-1.1-0.3-2-0.9-2.8-1.8
		c-1.7-1.8-2.8-4.2-3.2-6.7c-0.4-3,0.3-6,1.9-8.5c0.2-0.3,0.2-0.7-0.1-0.9l-14.9-17.2l-2.8-3.2c-1.9-2.2-4.7-1.1-7.2-1
		c-1.3,0.1-2.6-0.1-3.8-0.4c-0.2-0.1-0.3-0.1-0.5-0.2c-0.3-0.1-0.6-0.2-0.9-0.3l-0.6-0.2l-0.9-0.4c-1.8-1-3.3-2.4-4.6-4.1
		c-1.7-2.1-3-4.6-3.7-7.2c-0.2-0.8-1.5-1.2-2.2-1.3l-0.3-0.1c-0.6-0.1,0.5,0.2-0.2-0.1c-0.4-0.1-0.8-0.2-1.1-0.3l-0.7-0.2
		c-0.2,0-0.3-0.1-0.4-0.2c-1.8-0.8-3.7-1.8-4.5-3.9c-1.7-4.5,4.1-6.9,7.4-7.9c1-0.3,2-0.5,3-0.8c0.3-0.1,0.6-0.1,1-0.2
		s-0.6,0.1-0.1,0s1.8-0.4,1.4-1.1c-0.6-1.2-0.8-2.5-0.6-3.8c0.5-3.5,3.8-5.7,6.9-6.9c3.1-1.2,6.3-1.9,9.6-2.1c1.2-0.1,2.4-0.1,3.6,0
		c1,0.1,2,0.3,2.9,0.7c-0.4-0.1,0.3,0.1,0.4,0.2s0.5,0.2,0.7,0.3c0.4,0.2,0.7,0.4,1,0.6c0.7,0.5,1.3,1,1.8,1.7
		c1,1.2,1.8,2.5,2.4,3.9c0.5,1.3,0.9,2.6,1.1,4l0.1,0.7c0,0.1,0,0.2,0,0.3c0-0.2,0-0.2,0,0v0.5c0,1.5,2.9,2,4,1.6
		c7-2.4,14.4-3.5,21.8-3.1c5.3,0.3,10.8,1.7,14.9,5.6c2,1.8,3.4,4.4,3.7,7.1c0.1,2.3-0.4,4.7-1.5,6.7c-1.5,3-3.6,5.6-6.2,7.7
		c-1.2,1,2.4,2,2.8,2c2.4,0.2,4.6,0.7,6.2,2.2c1.1,1.1,1.7,2.5,1.7,4c0.1,3.1-1.4,6.2-3,8.7c-0.4,0.7-0.9,1.3-1.4,1.9
		s0.4,1.3,0.9,1.5c0.9,0.5,2,0.6,3,0.4c0.5-0.1-0.5,0.1,0,0l1.2-0.2c0.5-0.1,1-0.1,1.5-0.1c0.7,0-0.2,0,0.5,0l1,0.1
		c0.4,0-0.6-0.1,0,0l0.4,0.1c0.7,0.1-0.2-0.2,0.4,0.1c0.4,0.2,0,0-0.1,0c0.2,0.1,0.3,0.1,0.5,0.2c-0.3-0.2,0.1,0.1,0.1,0.1
		c0.8,0.8,0.6,2.3,0.3,3.4c-0.8,2.6-3.5,3.8-5.9,4.4c-2.9,0.6-5.8,0.9-8.8,0.7c-1.4,0-2.7-0.1-4-0.3l-0.7-0.1c-0.7-0.1,0.4,0.1,0,0
		l-0.5-0.1c-0.7-0.1-2.5-0.3-2.7,0.7S403.3,151.9,403.9,152z"></path><path class="st0" d="M389.8,183.2c1.2-4.6-5.2-31.8-5.2-31.8s10.6-0.2,11.7-11.9s-11-12.8-16.5-1c0,0-12.6-23.8-6-36.9
		c0,0-22.2,14.3-36.2,11.7c0,0-14.1,40-2.8,54.8c9.9,13,19.3,12.1,19.3,12.1l1.1,2.6l11.6,10.6L389.8,183.2z"></path><path class="st1" d="M392.1,182.9c0.3-1.7,0.3-3.5,0-5.2c-0.3-2.6-0.7-5.2-1.2-7.9c-0.9-5.3-2-10.5-3.2-15.7
		c-0.3-1.1-0.5-2.3-0.8-3.4l-2.6,2.8c5.6-0.3,10.5-3.7,12.9-8.7c1.7-3.7,2.3-8.8,0.3-12.5c-1.7-3.1-5.2-4.6-8.6-3.8
		c-5.2,1-9,5.3-11.2,9.9l4.3-1.1c-1.4-2.8-2.7-5.6-3.7-8.5c-2.3-5.6-3.6-11.6-4-17.7c-0.2-3.2,0.4-6.3,1.7-9.2c1-2-1.8-2.6-3.1-1.8
		c-2.6,1.7-5.3,3.2-8.1,4.6c-5.2,2.8-10.8,4.9-16.6,6.3c-3.2,0.8-6.4,0.9-9.7,0.4c-1.3-0.1-2.5,0.6-3,1.8c-2.9,8.4-5.1,17-6.3,25.7
		c-1,6.6-1.5,13.4-0.5,20c0.4,2.9,1.3,5.7,2.6,8.3c2.1,3.7,4.9,6.9,8.2,9.4c3.8,3.1,9.2,6.1,14.3,5.6l-1.9-0.7
		c0.4,1.2,1,2.3,1.8,3.3c1.2,1.1,2.5,2.3,3.7,3.4l7.5,6.9c0.6,0.4,1.4,0.5,2.1,0.2l20-9l2.9-1.3c1-0.4,2.2-1.4,2-2.6s-1.7-1.5-2.6-1
		l-20,9l-2.9,1.3l2.1,0.2l-7.4-6.7l-3.8-3.5c-0.1-0.1-0.2-0.2-0.4-0.3c0,0,0.3,0.6,0.1,0c-0.3-0.8-0.6-1.5-1-2.3
		c-0.3-0.7-1.2-0.8-1.9-0.7c-0.1,0-0.1,0-0.2,0c-0.2,0,0.7,0,0.3,0h-0.4c-0.8,0-1.5-0.1-2.3-0.3c0.4,0.1-0.3-0.1-0.4-0.1l-0.8-0.2
		c-0.7-0.2-1.3-0.5-2-0.8c-1.4-0.6-2.7-1.4-4-2.3c-3.4-2.4-6.4-5.5-8.6-9c-1.3-2.2-2.2-4.7-2.6-7.3c-1.2-6.1-0.7-12.4,0.1-18.6
		c0.8-5.9,2-11.8,3.6-17.5c0.6-2.4,1.1-3.8,1.8-6.2c0.3-0.8,0.5-1.6,0.8-2.4l-3,1.8c6.4,1.2,13.2-0.7,19.2-2.9
		c5.4-2,10.7-4.5,15.7-7.4c1-0.6,2.1-1.2,3.1-1.8l-3.1-1.8c-2.9,5.8-2.4,12.8-1,19c1.2,5.6,3.1,11,5.5,16.1c0.5,1.1,1,2.2,1.5,3.2
		c1,1.8,3.7,0.2,4.3-1c0.8-1.7,1.8-3.2,3.1-4.5c0.9-0.9,1.9-1.5,3.1-1.9h0.1c0.2,0,0.4-0.1,0.5-0.1c0.4-0.1,0.5-0.1,0.5-0.1
		c0.5,0,1.1,0.1,1.6,0.3c0.9,0.4,1.7,1.1,2.2,2c1.6,2.7,1.1,6.7-0.1,9.5c-0.5,1.2-1.2,2.2-2.2,3.1c-0.2,0.2-0.5,0.4-0.7,0.6
		c0.5-0.3-0.2,0.1-0.3,0.2s-0.5,0.3-0.8,0.4l-0.4,0.2c-0.3,0.1,0.5-0.2,0,0s-1.1,0.4-1.6,0.6l-0.3,0.1c-0.5,0.1,0.5-0.1,0.1,0
		c-0.2,0-0.4,0.1-0.6,0.1c-0.4,0.1-0.8,0.1-1.2,0.1c-1.2,0-2.9,1.5-2.6,2.8c2.1,8.5,3.8,17.1,5,25.7c0.1,1.2,0.3,2.3,0.3,3.5
		c0,0.1,0,0.9,0,0.4c0,0.2,0,0.4,0,0.6c0,0.3-0.1,0.7-0.1,1c-0.3,1.2,1.1,1.8,2,1.7C390.7,185.1,391.8,184.2,392.1,182.9z"></path><path class="st1" d="M361.8,150.1c-0.1,0.7-0.2,1.5-0.4,2.2l-0.1,0.5l-0.1,0.3l-0.1,0.2c0-0.1-0.1,0.2-0.1,0.2s-0.1,0.2-0.1,0.2
		s-0.2,0.4-0.3,0.6c-0.4,0.8-0.9,1.6-1.6,2.3c-0.2,0.2-0.4,0.4-0.6,0.6l-0.1,0.1c-0.1,0.1,0.1-0.1,0,0s-0.2,0.2-0.4,0.3
		c-0.5,0.4-1.1,0.7-1.6,1c-0.3,0.1-0.4,0.4-0.3,0.7c0,0,0,0,0,0.1c0.3,0.3,0.7,0.5,1.1,0.6c1.1,0.3,2.3,0.2,3.4-0.2
		c3.3-1.7,5.6-4.9,6.1-8.6c0.1-0.3,0.1-0.6,0.1-0.8c0-0.3-0.5-0.6-0.7-0.7c-0.6-0.2-1.2-0.3-1.8-0.3c-0.6,0-1.2,0-1.8,0.2
		C362.2,149.5,361.8,149.7,361.8,150.1L361.8,150.1z"></path><path class="st1" d="M341.6,129.9c1.1,0.3,1.8,1.5,1.5,2.6c0,0.1-0.1,0.2-0.1,0.3c-0.9,2.2-3.6,1.1-3.4-1c-0.1-1,0.7-1.8,1.7-1.9
		C341.4,129.9,341.5,129.9,341.6,129.9z"></path><path class="st1" d="M355.3,131c1.1,0.3,1.8,1.5,1.5,2.6c0,0.1-0.1,0.2-0.1,0.3c-0.9,2.2-3.6,1.1-3.4-1c-0.1-1,0.7-1.8,1.7-1.9
		C355.1,131,355.2,131,355.3,131z"></path><path class="st0" d="M347.5,155.2c0,0-24.3,12.4-33.4,0.7s7.1-24.3,25.3-18.1"></path><path class="st1" d="M346.9,154.1l-0.5,0.2c-0.1,0.1-0.8,0.4-0.3,0.1s0,0-0.1,0l-0.5,0.2c-1.6,0.7-3.3,1.4-4.9,1.9
		c-2.1,0.7-4.2,1.3-6.3,1.8c-2.4,0.5-4.8,0.8-7.2,0.8c-4.9-0.1-9.5-1.9-11.9-6.3c-2.4-4-1.4-9.2,2.4-12c2.4-1.7,5.3-2.7,8.2-3
		c4.1-0.4,8.2,0.1,12,1.4c1.5,0.5,5.4-2.4,3.2-3.2c-7.4-2.6-15.6-2.1-22.6,1.3c-5,2.6-10.1,7.8-9,13.9c1,5.8,5.9,9.7,11.4,10.7
		s11.6-0.2,17-1.8c3.6-1,7-2.4,10.3-4.1c0.7-0.3,2.1-1.4,1.6-2.3S347.5,153.9,346.9,154.1L346.9,154.1z"></path><path class="st1" d="M365.7,194l5.2,7c0.8,1.1,1.7,2.1,2.7,3c1,0.8,2.6,2,4,2c1.1,0,2.2-1.2,3-1.8l3.5-2.8l7.2-5.7
		c0.3-0.2-1.7-1.6-1.9-1.7c-0.4-0.2-1.9-1.4-2.4-1l-6.9,5.4l-3.3,2.7c-0.8,0.6-2.4,2.4-3.5,2.1l1.4,0.6c1.4,1.1,1.7,1.4,1.2,0.8
		l-0.4-0.6l-0.8-1l-1.8-2.3l-3.5-4.7c-0.8-0.9-1.7-1.5-2.8-2C366.5,193.8,365.1,193.2,365.7,194L365.7,194z"></path><path class="st1" d="M364.4,194.8c-1.4,18.1-0.7,36.3,2.1,54.2c0.1,1.1,1.2,1.9,2.3,1.8c0,0,0.1,0,0.1,0c1-0.1,2.6-1.1,2.5-2.3
		c-2.8-17.9-3.5-36.1-2.1-54.2C369.5,191.5,364.6,192.2,364.4,194.8L364.4,194.8z"></path><path class="st1" d="M361.1,195.4l-9,10.7c-0.5,0.6,1.8,0.3,1.9,0.3c1.1-0.1,2.1-0.5,2.9-1.2l9-10.7c0.5-0.6-1.8-0.3-1.9-0.3
		C363,194.3,362,194.8,361.1,195.4L361.1,195.4z"></path><path class="st1" d="M375.8,227.8c8.5,1.4,17.1,0.7,25.2-2c0.9-0.3,0.8-0.8,0-1.1c-1.2-0.3-2.4-0.3-3.5,0
		c-6.2,2.1-12.7,2.7-19.2,1.8c-1-0.1-2.6-0.3-3.4,0.3S375.2,227.8,375.8,227.8L375.8,227.8z"></path><path class="st0" d="M234.7,245.5c0,0-34.3-12.8-40.1,2.2c-2.4,6.1-4.5,18.6-0.1,19.9c10.1,3,12.5-15.6,12.5-15.6s6.8-0.8,10.5,0.5
		s18.1,11.1,18.1,11.1L234.7,245.5z"></path><path class="st1" d="M235.5,245c-4.2-1.5-8.4-2.8-12.8-3.8c-7-1.6-14.8-2.9-21.9-1.1c-3,0.6-5.7,2.3-7.5,4.7
		c-0.9,1.5-1.6,3.1-2,4.7c-0.7,2.2-1.1,4.4-1.5,6.7c-0.4,3.2-1.1,8.2,1.6,10.6c1.9,1.4,4.2,2.2,6.5,2.1c1.6,0,3.1-0.4,4.4-1.3
		c2.9-2,4.4-5.5,5.4-8.7c0.7-2,1.2-4.1,1.4-6.2l-0.4,0.3c1.9-0.2,3.8-0.3,5.7-0.2c0.6,0,1.2,0.1,1.8,0.2c0.2,0,0.4,0.1,0.6,0.1
		c-0.5-0.1,0-0.1,0.1,0c0.3,0.3-0.2-0.1,0.1,0l0.5,0.2l1.3,0.7c4,2.2,7.9,4.8,11.7,7.3c1,0.7,2.1,1.4,3.1,2.1
		c0.4,0.2,4.3,1.7,4.2,0.7l-0.9-18.1c-0.1-1.4-4.8-2.1-4.8-1.5l0.9,18.1l4.2,0.7c-3.1-2.1-6.2-4.2-9.4-6.2c-4.6-2.9-9.1-6-14.6-6.6
		c-2.8-0.3-5.6-0.2-8.4,0.1c-0.2,0-0.4,0.1-0.4,0.3c-0.5,4.4-1.9,8.6-4.3,12.2c-0.8,1.1-1.8,2.1-2.9,2.7c-0.5,0.3-1.1,0.5-1.8,0.6
		c-0.2,0-0.5,0-0.7,0c-0.1,0-0.4-0.1-0.2,0c0.3,0.1,0.6,0.2,0.9,0.4c0,0-0.2-0.2-0.2-0.2c-0.1-0.2-0.3-0.5-0.4-0.7
		c-0.3-0.7-0.5-1.4-0.6-2.2c-0.2-1.9-0.2-3.9,0.1-5.8c0.4-3.7,1.2-7.9,3-11.1c1.4-2.3,3.6-4,6.2-4.8c2.9-0.9,6-1.2,9-1
		c3.1,0.2,6.2,0.6,9.2,1.2c0.9,0.2,1.8,0.4,2.7,0.6l1.1,0.3l0.6,0.2c0.1,0,0.8,0.2,0.2,0c1.3,0.4,2.7,0.8,4,1.2
		c0.9,0.3,1.8,0.6,2.7,0.9l0.4,0.1c0,0-0.7-0.3-0.2-0.1l0.3,0.1c0.7,0.2,2.4,1,3.1,0.4S235.8,245.1,235.5,245z"></path><path class="st0" d="M198.9,297c0,0-8.9-1-8.6-6.7c0.8-13.7,11.9-16.6,15.6-14.7s2.4,6.5,2.4,6.5s7-6.8,7.5,1.8
		c0,0,1.4-3.9,5.2-2.3c6.1,2.6,9.8,12.4,3.4,19c-7.9,8.2-11.8-2.6-11.8-2.6s-2.7,3.8-6.8,3.8S198.9,297,198.9,297z"></path><path class="st1" d="M199.5,295.8C199,295.8,199.7,295.8,199.5,295.8c-0.5-0.1-0.9-0.2-1.4-0.3c-0.4-0.1-0.9-0.2-1.3-0.4
		c-0.6-0.2-1.2-0.5-1.8-0.9c-1.1-0.6-1.9-1.7-2.1-3c-0.1-2,0.1-4.1,0.8-6c0.9-3,2.7-5.7,5.3-7.5c0.2-0.2,0.5-0.3,0.8-0.5l0.5-0.2
		c0.1,0,0.5-0.2,0.2-0.1l0.8-0.3l0.4-0.1c0.5-0.2-0.3,0.1,0.1,0l0.9-0.2c-0.6,0.1,0,0,0.2,0c0.7-0.1-0.3-0.1,0.2,0h0.3
		c0.5,0-0.2,0,0,0l0.4,0.1c0.4,0.1-0.4-0.2,0,0s0.4,0.2,0.6,0.3c0.7,0.5,1.2,1.3,1.5,2.1c0.2,0.7,0.3,1.5,0.2,2.2
		c0,0.3-0.1,0.6-0.1,0.9c0,0.1,0.1-0.2,0,0.1c-0.6,2,3.8,1.5,4.6,0.7c0.7-0.7,1.5-1.3,2.4-1.7c-0.2,0.1,0.3-0.1,0.4-0.1
		c-0.6,0.2,0.3,0.1-0.1,0c-0.1,0-1.1-0.1-0.7,0c-0.4,0-0.3-0.3-0.1,0c0.6,1,0.9,2.1,1,3.3c0.1,1.7,4.4,1.4,4.9,0
		c0.2-0.6,0.5-1.1,1-1.5c0.1-0.1,0.3-0.2,0.3-0.2s-0.8-0.2-0.5,0.1c0.5,0.4,1.3,0.6,1.9,1c2.5,2,4.1,4.9,4.4,8.1
		c0.3,3.7-1.2,7.3-4.1,9.6c-0.5,0.5-1.1,0.8-1.7,1.1c-0.4,0.2-0.4,0.1-0.6,0.2c0.1,0,0.2,0,0.3,0c0.3,0.1-0.3,0,0.1,0
		c-0.3,0-0.6-0.1-0.9-0.3c-0.4-0.2-0.7-0.5-1-0.8c-1-1.1-1.8-2.4-2.3-3.8c-0.3-0.7-1.9-0.8-2.5-0.8c-0.9,0-1.8,0.4-2.4,1
		c0.3-0.4-0.1,0.2-0.3,0.4c-0.4,0.4-0.8,0.9-1.3,1.2c-0.7,0.7-1.7,1.1-2.8,1.1c-1.9-0.3-3.6-2.5-4.5-4s-5.7-0.6-4.8,0.9
		c1.8,3.1,4.9,5.2,8.4,5.6c4,0.2,7.8-1.6,10.2-4.8l-4.8,0.3c0.6,1.7,1.6,3.3,3,4.5c2.9,2.6,7.5,2.4,10.7,0.3
		c6.1-3.6,8-11.5,4.4-17.5c-1.1-1.8-2.5-3.3-4.3-4.3c-3.4-2-9.1-2-10.7,2.4l4.9,0.1c-0.1-1.6-0.4-3.5-1.8-4.5
		c-1.5-0.9-3.3-1.2-5.1-0.7c-2,0.5-3.9,1.6-5.3,3.1l4.6,0.7c0.9-3.2-0.3-6.6-3.6-7.9c-2.9-1.2-6.6-0.6-9.4,0.5
		c-3.5,1.5-6.4,4.2-8,7.6c-1,2.2-1.6,4.6-1.8,7c-0.3,1.9,0.4,3.8,1.8,5.1c2.2,2.1,5.6,3.1,8.6,3.4c0.9,0.1,2.6-0.1,3-1
		S200.2,295.9,199.5,295.8z"></path><path class="st1" d="M213.3,286.4c0,0.4-0.1,0.9-0.2,1.3l-0.1,0.6c-0.1,0.5,0.1-0.4,0,0c0,0.1,0,0.2-0.1,0.4
		c-0.1,0.6-0.2,1.2-0.3,1.7c-0.2,1.3-0.6,2.5-0.9,3.8c-0.2,0.6-0.4,1.2-0.6,1.7c-0.2,0.3-0.3,0.5-0.4,0.8c0-0.1,0.2-0.4,0,0
		l-0.2,0.4c-1.6,2.5,3.1,3.9,4.4,1.8c1.4-2.4,2.3-5,2.7-7.6c0.3-1.7,0.6-3.3,0.8-5c0-0.5-0.3-1-0.8-1.3c-0.5-0.4-1.1-0.5-1.8-0.5
		c-1.2-0.1-2.3,0.8-2.5,2L213.3,286.4z"></path><path class="st1" d="M205.9,282.4c-1.6,4.3-3.8,8.5-6.5,12.2c-0.4,0.5-0.9,1.1-1.3,1.5c-0.2,0.2-0.3,0.3-0.5,0.4l-0.3,0.2
		c-0.1,0.1,0.2-0.1,0.2-0.1l-0.2,0.1c-0.2,0.1-0.7,0.3-0.7,0.6s0.6,0.4,0.8,0.4c1.2,0.1,2.4,0,3.5-0.5c2.5-0.9,4.1-3.7,5.4-5.8
		c1.4-2.5,2.7-5,3.9-7.6c0.3-0.6,0.5-1.2,0.8-1.7c0.3-0.8-1.5-0.6-1.9-0.6c-0.6,0-1.3,0.1-1.9,0.3C206.7,281.9,206,282,205.9,282.4
		L205.9,282.4z"></path><path class="st0" d="M302.2,419.5c0,0,72.6-32.4,95.9-52.4c0,0,10.8-26.6-54.2-133.4c0,0-86.5,55.7-87.6,56.7
		S299.3,363.5,302.2,419.5z"></path><path class="st1" d="M303.6,419.6c4-1.8,8-3.6,11.9-5.5c9.4-4.4,18.7-8.9,28-13.6c10.9-5.5,21.6-11.1,32.2-17.3
		c4.8-2.8,9.5-5.7,14.1-8.8c2-1.3,4-2.7,5.9-4.1c0.9-0.6,1.7-1.3,2.6-2c0.8-0.5,1.6-1.1,2.2-1.9c0.3-0.8,0.5-1.6,0.5-2.5
		c0.3-2.5,0.3-5.1,0-7.7c-0.5-4.9-1.4-9.7-2.6-14.4c-2-7.6-4.5-15.1-7.4-22.4c-4.2-10.9-9.1-21.5-14.2-31.9
		c-7.2-14.4-15-28.6-23.2-42.5c-2.4-4.1-4.8-8.2-7.3-12.2c-0.6-0.9-3.6,0.3-4.2,0.7l-7.2,4.7l-17.9,11.5l-22.8,14.7l-21.6,14
		c-4.9,3.2-9.9,6.4-14.8,9.6c-1.1,0.7-2.3,1.4-3.3,2.2c-0.8,0.6-0.3,1.3,0.1,2c2.5,5.4,5.4,10.5,8.1,15.8
		c4.8,9.4,9.4,18.9,13.7,28.6c5.3,11.8,9.9,23.8,13.9,36c4.2,12.4,7.1,25.2,8.9,38.1c0.4,3,0.6,6,0.8,9.1c0,0.6,4.9-0.1,4.8-1.3
		c-0.7-12.8-3.3-25.4-6.8-37.7c-3.6-12.5-8-24.9-13.1-36.9c-4.4-10.5-9.1-20.7-14.2-30.9c-3.3-6.6-6.7-13-10-19.5
		c-0.4-0.8-0.9-1.7-1.3-2.5c-0.2-0.5-0.3-0.9-0.6-1.4c-0.3-0.4,0.2,0.2-0.2,0.1c0,0,0.2-0.1,0.2-0.2c0.4-0.2,0.8-0.5,1.1-0.8
		l0.4-0.3l0.2-0.2c0.3-0.2-0.3,0.2,0,0l1.1-0.7l2.8-1.9l7.6-4.9l20.5-13.3l22.9-14.8l19.5-12.6l10.3-6.7l0.5-0.3l-4.2,0.7
		c9,14.8,17.6,29.8,25.6,45.1c5.8,11.2,11.3,22.6,16.2,34.2c3.4,8,6.4,16.3,8.9,24.6c1.6,5.3,2.8,10.8,3.6,16.3
		c0.5,3.1,0.6,6.2,0.5,9.3c0,0.8-0.1,1.6-0.3,2.4c0,0.1,0,0.3-0.1,0.4s0-0.1,0,0.2c0,0.1-0.1,0.3-0.1,0.4c0,0,0,0.1,0,0.2
		c0.1-0.1-0.4,0.3-0.5,0.4c-0.4,0.4-0.8,0.7-1.3,1c-0.8,0.6-1.6,1.3-2.5,1.9c-4,3-8.2,5.7-12.4,8.3c-10.1,6.3-20.6,11.9-31.2,17.4
		c-9.7,5-19.6,9.9-29.5,14.6c-5.5,2.6-11.1,5.2-16.6,7.7l-0.8,0.4c-0.5,0.2-1.5,0.7-0.6,1.1S302.8,420,303.6,419.6z"></path><path class="st2" d="M294,319.2c0.2-3,0.9-5.9,1.8-8.7c0.9-2.5,2-5.3,3.9-7.2c1.4-1.4,3.1-2.2,4.4-0.3c1.2,1.8,0.7,4.2-1,5.4
		c-0.2,0.1-0.3,0.2-0.5,0.3l3.5,0c-0.9-0.6-0.2-2.6,0-3.3c0.6-1.6,1.3-3.2,2.2-4.7c1.3-2.1,3.6-4.6,6.2-4.4c1.1,0.1,2,0.6,2.7,1.5
		c0.7,0.9-0.2,0.9,1.6,0.8s1.1,0.1,1-0.8c-0.1-0.8,0.1-1.6,0.4-2.4c1-2.8,3.1-5,5.8-6.1c2.8-1.1,6.2-0.4,7.2,2.7l1.8-1.7
		c0.9,0.3,1.1,0.3,0.6-0.1c-0.1-0.2-0.2-0.4-0.3-0.6c-0.1-0.5-0.1-1.1,0-1.6c0.3-1,0.9-1.9,1.6-2.7c1.3-1.5,2.9-2.8,4.7-3.6
		c0.6-0.2,0.8-0.9,0.6-1.4c-0.1-0.3-0.3-0.5-0.6-0.6c-1.1-0.6-2.4-0.6-3.5,0c-3,1.4-6,3.9-7.4,7c-1.7,4,1.6,7,5.5,6.5
		c0.9-0.1,2.1-0.6,1.8-1.7c-1.3-3.9-6.1-5.5-9.9-5.4c-4,0.1-7.9,1.9-10.5,4.9c-1.9,2.3-4.8,8-0.8,9.7c1.7,0.7,5,0.7,5.7-1.4
		c0.5-1.6-1.4-3.4-2.6-4.1c-3.3-2.1-8.1-1.9-11.4-0.1c-3.6,2-5.8,5.9-7.2,9.7c-0.5,1.5-1,3.3-0.1,4.8c1.4,2.4,4.4,2,6.3,0.5
		c2.5-2.1,2.9-5.8,0.8-8.3c-0.5-0.6-1-1-1.7-1.4c-4.6-2.9-10.4-0.2-13.1,3.9c-2.9,4.4-4.2,9.9-4.7,15.1
		C288.8,321.1,293.8,321.2,294,319.2L294,319.2z"></path><path class="st2" d="M308.5,345.2c0.9-6.4,2-14,7.1-18.5c1-0.9,2.4-2,3.8-1.8c1.4,0.4,2.5,1.3,3.2,2.5c0.9,1.3,1.5,2.8,1.6,4.4
		c0,0.6,0,2.8-0.7,2.9l2.9,0.4c-1.9-1.7-0.6-5,0.2-6.9c1-2.6,2.1-5.6,4.4-7.4c0.8-0.7,1.8-1.1,2.9-1.1c1.2,0.3,2.2,0.9,3,1.8
		c1,1,1.8,2,2.5,3.2c0.2,0.4,0.4,0.9,0.5,1.3c0,0.2,0,0.5,0,0.7s-0.4,0.3,0.1,0.1l3.5,0.2c-3-2-1.2-5.9,0.7-8
		c2.3-2.5,5.2-4.4,8.5-5.4c0.8-0.3,2.1-1,1.5-2s-2.3-1-3.2-0.7c-4.5,1.3-8.6,3.9-11.7,7.5c-1.4,1.6-2.3,3.6-2.4,5.7
		c-0.1,2.1,1,4,2.9,5.1c2.2,1,5.1-0.6,5.1-3c0.1-1.9-1.1-3.6-2.2-5c-3-3.8-7.5-5.8-12.3-4s-6.9,6.1-8.6,10.5
		c-0.8,1.8-1.2,3.8-1.2,5.8c0.2,2.4,2,4.4,4.6,3.8c4.3-1.1,4.6-5.8,3.2-9.3c-1.5-4.1-5.7-6.6-10.1-6.1c-5.1,0.7-8.9,4.9-11.1,9.2
		s-2.9,9.1-3.6,13.7C303.3,347.2,308.3,347.1,308.5,345.2L308.5,345.2z"></path><path class="st2" d="M320.4,374.6c-1.2-2.4-0.7-5.2,0.2-7.6s2.4-4.7,5.2-4.9c0.7,0,1.3,0,2,0.1l0.8,0.2c0.1,0.1,0.8,0.4,0.5,0.2
		c-0.8-0.6,0.2,0.3,0.4,0.5c0.4,0.4,0.7,0.9,0.9,1.5c0.5,1.2,0.5,2.5,0,3.6c-0.3,0.8-1.4,3.1-2.4,3l1.6,0.6l-0.3-0.1l2.1,1.3
		c-0.9-0.7,0-2.9,0.4-3.7c0.7-1.4,1.6-2.7,2.6-3.9c2.1-2.3,4.7-4.1,7.6-5.1c-0.6-0.6-1.3-1.1-2-1.6c-0.5-0.3-1.7-1.2-2.4-0.9
		c-3.8,1.3-7.1,3.9-9.3,7.3c-0.9,1.4-2,3.2-1.6,5c0.3,0.8,0.9,1.5,1.6,1.9c0.7,0.5,1.4,0.9,2.2,1.3c0.5,0.2,1.2,0.7,1.8,0.5
		s1.4-1.5,1.7-2.1c0.6-0.9,0.9-2,0.9-3.1c-0.2-1.9-1.3-3.6-2.8-4.6c-2-1.6-4.2-2.9-6.6-3.8c-1.9-0.7-4-1.1-5.9-0.2
		c-2.1,1-3.1,3.3-3.8,5.4c-0.9,2.2-0.8,4.7,0.2,6.9c0.4,0.8,1.8,1.4,2.5,1.8C318.8,374.3,320.5,375,320.4,374.6L320.4,374.6z"></path><path class="st2" d="M345.6,364.3c1.3,0,2.4-0.6,3.1-1.7c0.4-0.5,0.3-1.3-0.2-1.6c-0.2-0.2-0.5-0.2-0.8-0.2c-1.3,0-2.4,0.6-3.1,1.7
		c-0.4,0.5-0.3,1.3,0.2,1.6C345.1,364.2,345.3,364.3,345.6,364.3L345.6,364.3z"></path><path class="st0" d="M404.3,312.1l-20-5.9l6.4,14.1c0,0-33.1-10.9-36.6-7.7s3.5,10.4,3.5,10.4s-9.6,3.5-0.3,10.7s13.6,11,13.6,11
		s-18.2-0.5-17.2,3.3s14.8,8.8,35.6,11.3c12.7,1.4,25.6-0.1,37.7-4.4c0,0-7.7-26-18.4-42.9"></path><path class="st1" d="M405.7,310.3l-20.1-5.9c-1.7-0.5-4.4,1.2-3.5,3.2l6.5,14.1l3.5-3.1c-6-2-12.1-3.8-18.2-5.4
		c-4.3-1.2-8.6-2.1-13-2.8c-3.2-0.4-7.1-0.7-9.1,2.4c-2.7,4.1,1.3,9.1,4.1,12l1.5-3.4c-3.3,1.2-7.1,4.4-6.3,8.2s4.7,6,7.4,8.2
		c2.6,2,5.2,4.1,7.7,6.2c1,0.8,2,1.6,2.9,2.5l2.7-3.6c-4.6-0.2-9.2,0-13.7,0.8c-2.4,0.5-6.1,1.4-6.6,4.3c-0.4,2,1.6,3.6,3.1,4.5
		c2.6,1.6,5.5,2.8,8.4,3.7c4.4,1.4,8.9,2.5,13.5,3.3c10.9,2.1,21.9,3,32.9,1.6c6.2-0.7,12.3-2.2,18.1-4.3c0.9-0.4,2.4-1.5,2-2.6
		c-3.2-10.7-7.2-21.1-11.9-31.1c-2-4.2-4.2-8.3-6.6-12.2c-1.2-2-5.5,0.6-4.3,2.6c7.6,12,12.8,25.6,17.2,39.1
		c0.4,1.1,0.7,2.2,1.1,3.4l2-2.6c-4,1.5-8.1,2.6-12.3,3.3c-9.7,1.7-19.7,1.8-29.5,0.2c-8-1.2-16.4-2.7-23.9-6c-1.1-0.4-2.1-1-3-1.6
		c-0.4-0.2-0.8-0.5-1.1-0.8c-0.1-0.1-0.3-0.2-0.4-0.4l-0.2-0.2c0.1,0.1,0.2,0.2,0,0l-0.2-0.4c-0.4-0.5,0,0-0.1,0
		c-0.3,0,0.3-0.7-0.1,0c-0.1,0.1-0.1,0.3-0.2,0.4c0,0-0.5,0.5-0.2,0.2s-0.2,0.2-0.2,0.2c0.3-0.2,0.5-0.2,0,0l0.7-0.3
		c0.2,0,0.9-0.2,0.4-0.1c4.6-1.1,9-1.1,13.7-0.9c1.5,0,4.5-2,2.7-3.6c-2.4-2.2-4.9-4.2-7.4-6.2c-1.4-1.1-2.8-2.2-4.2-3.3
		c-1.6-1.1-3-2.3-4.3-3.7c-0.6-0.7-1.1-1.6-1.2-2.6c0,0,0-0.4,0.1-0.5c-0.1,0.3,0-0.1,0.1-0.2s0.3-0.5,0.1-0.1
		c0.1-0.2,0.5-0.6,0.1-0.2c0.1-0.1,0.3-0.3,0.4-0.4c0.3-0.3,0.3-0.2,0.1-0.1c0.3-0.2,0.6-0.4,0.9-0.5c0.1-0.1,0.7-0.4,0.2-0.1
		s-0.1,0,0,0l0.3-0.1c1.3-0.5,2.8-2.1,1.5-3.4l-0.2-0.2c-0.1-0.2-0.1-0.2,0,0c-0.1-0.1-0.2-0.3-0.4-0.4c-0.6-0.7-1.1-1.4-1.6-2.1
		c-0.6-0.9-1.2-1.8-1.5-2.8c-0.3-0.7-0.3-1.4-0.2-2.1c0,0,0-0.1,0.1-0.1s0,0-0.2,0.1c-0.6,0.4,0.3-0.3-0.3,0.2c-0.3,0.2-0.2,0.1,0,0
		s-0.6,0.1-0.2,0.1c0.1,0,0.2,0,0.3,0h0.4c0.5-0.1,0,0,0,0c1.5,0,2.9,0.1,4.4,0.4c7.6,1.1,15.6,3.6,23.2,5.9c2,0.6,4.1,1.3,6.1,1.9
		c1.7,0.5,4.4-1.3,3.5-3.2l-6.3-14l-3.5,3.1l20.1,5.9c1.2,0.3,2.5-0.2,3.3-1.2C406.7,312,406.9,310.6,405.7,310.3L405.7,310.3z"></path><path class="st1" d="M380.9,337.6l-18.5-13.7l-2.6-1.9c-0.5-0.4-2,0.5-2.4,0.7c-0.1,0.1-2.3,1.3-2,1.5l18.5,13.7l2.6,1.9
		c0.5,0.4,2-0.5,2.5-0.7C379.1,339.1,381.2,337.8,380.9,337.6z"></path><path class="st1" d="M421.2,295.5l-13,10.5l17.9,52.8c0,0,74.3-1.5,67.5-78c-7.2-80.6-107.1-110.6-107.1-110.6L421.2,295.5z"></path><path class="st1" d="M419,294.3l-12.1,9.9c-0.9,0.8-0.9,0.6-0.5,1.7l1.6,4.8l12.4,36.5l3.6,10.5c0.2,0.5,1.4,1,1.8,1.2
		c0.8,0.5,1.6,0.9,2.5,1.1c3-0.1,6-0.5,8.9-1c7-1.1,13.8-3.1,20.3-5.8c8.4-3.5,16-8.7,22.3-15.2c7.5-8.2,12.6-18.2,14.8-29.1
		c2.9-14,2.1-29-1.5-42.9c-3.3-12.6-9-24.5-16.7-35c-7.3-9.9-15.9-18.8-25.6-26.4c-8.9-7.1-18.3-13.4-28.3-18.8
		c-8-4.4-16.2-8.4-24.7-11.9c-4.1-1.7-8.3-3.3-12.6-4.7l-0.6-0.2c-0.1,0-0.2,0-0.4,0l3.5,12.5l8.3,29.9l10,36.2l8.7,31.3l2.9,10.3
		c0.4,1.7,0.8,3.3,1.4,4.9C418.9,294.2,418.9,294.2,419,294.3c0.1,0.6,1.6,1.1,2.1,1.4c0.5,0.3,1.1,0.5,1.6,0.8
		c0.1,0,0.8,0.2,0.7,0.2l-3.5-12.5l-8.3-29.9l-10-36.2l-8.7-31.3l-2.9-10.3l-0.9-3.2c-0.1-0.6-0.2-1.1-0.5-1.7
		c0-0.1-0.1-0.1-0.1-0.2h-0.4c0.8,0.2,1.5,0.5,2.2,0.7l1.2,0.4l0.4,0.1l0.8,0.3c1.2,0.4,2.3,0.9,3.5,1.3c1.4,0.6,2.9,1.1,4.3,1.7
		l0.5,0.2c-0.5-0.2,0.1,0,0.2,0.1l1.3,0.6c0.9,0.4,1.7,0.7,2.6,1.1l2.8,1.2c0.3,0.1-0.4-0.2-0.1,0l0.3,0.1l0.7,0.3l1.5,0.7l3,1.4
		l0.4,0.2c0.4,0.2-0.6-0.3,0,0l0.7,0.4l1.6,0.8l1.5,0.8l0.7,0.4l0.4,0.2c0.6,0.3-0.5-0.3,0.2,0.1c1.1,0.6,2.2,1.2,3.2,1.8
		c2.1,1.2,4,2.3,6.3,3.7c4.5,2.8,9.1,5.9,13.4,9.1c9.6,7.1,18.3,15.3,25.9,24.6c8.2,9.9,14.5,21.2,18.7,33.3
		c4.6,13.6,6.2,28,4.7,42.2c-1.3,11.4-5,22.6-12,31.8c-5.7,7.3-12.9,13.3-21.1,17.5c-6.7,3.4-13.9,6-21.3,7.5
		c-4,0.9-8.1,1.4-12.2,1.7H424l4.3,2.3l-9.1-27l-6.2-18.2l-2-5.8c-0.1-0.5-0.7-1.5-0.5-1.9c0.1-0.3,0.7-0.5,0.9-0.7l1.6-1.3l4.4-3.6
		l6-4.9c-0.6-0.5-1.3-1-2.1-1.4C421,295,419.4,294,419,294.3z"></path><path class="st0" d="M421.9,290.5c8.1-8.6,14.5-18.5,18.9-29.4c0.8-2.1-3.9-1.1-4.5,0.3c-4.3,10.6-10.5,20.4-18.3,28.7
		c-0.7,0.7-0.4,1.5,0.6,1.6C419.8,291.8,421,291.4,421.9,290.5L421.9,290.5z"></path></g></svg>