<svg transform="scale(1)" version="1.1" id="AzOEpl7a1g" xmlns="http://www.w3.org/2000/svg" xmlns:xlink="http://www.w3.org/1999/xlink" x="0px" y="0px" viewBox="0 0 500 500" xml:space="preserve" class="pbimage_pbimage__wrapper__image__0LEis false"><title>Checklist 2</title><style type="text/css"> .st0{fill:#000005;} .st1{fill:#FFFFFF;} .st2{fill:#59BE4C;}
 .st2{fill:#3560ba;}
 .st1{fill:#FFFFFF;}
 .st0{fill:#000005;}</style><g id="list"><path class="st0" d="M78.2,451c0,0-47.6-323.7-43.7-327.4s231.8-55.4,240.9-45.7s61.5,321.4,55.8,332.1S78.4,457,78.2,451z" fill="#000005"></path><path class="st0" d="M79.8,452c-0.3-2.1-0.6-4.3-0.9-6.4c-0.9-5.9-1.7-11.8-2.6-17.7c-1.3-8.9-2.6-17.9-3.9-26.8
		c-1.6-11.2-3.2-22.4-4.8-33.6c-1.8-12.7-3.6-25.4-5.5-38.1c-1.9-13.5-3.8-26.9-5.7-40.4s-3.8-27-5.6-40.5
		c-1.7-12.7-3.5-25.5-5.2-38.2c-1.5-11.2-3-22.5-4.4-33.8c-1.1-8.9-2.2-17.9-3.2-26.8c-0.7-6-1.3-12-1.8-18
		c-0.1-1.6-0.2-3.3-0.2-4.9c0-0.4,0-0.9,0.1-1.3c0,0.4-0.1,0.1,0,0s-0.3,0.2,0,0c1-0.6,2.1-0.9,3.3-1.2c2.5-0.8,5-1.4,7.5-2.1
		c8.3-2.2,16.6-4.2,24.9-6.2c11.5-2.7,23-5.4,34.5-7.9c13.2-3,26.5-5.8,39.8-8.6c13.6-2.9,27.2-5.6,40.8-8.3
		c12.5-2.4,25.1-4.8,37.6-6.9c10-1.7,20.1-3.3,30.2-4.5c6.1-0.7,12.4-1.6,18.5-1c0.3,0,0.7,0.1,1,0.2c0.3,0.1,0.7,0.1,1,0.2
		c0.6,0.2-0.1-0.2,0.4,0.2c-0.3-0.2-0.6-0.5-0.8-0.8c0,0.1-0.4-0.7,0,0c0.3,0.5-0.1-0.3-0.1-0.1l0.2,0.4c0.3,0.7,0.6,1.4,0.8,2.2
		l0.2,0.6c0,0.1,0.3,0.8,0.2,0.5s0.1,0.4,0.2,0.6l0.2,0.8c0.4,1.2,0.7,2.4,1,3.7c0.8,3.1,1.6,6.2,2.3,9.3c2,8.6,3.8,17.2,5.6,25.8
		c2.3,11.1,4.4,22.1,6.5,33.2c2.4,12.8,4.7,25.6,7,38.4c2.4,13.7,4.8,27.4,7.1,41.1c2.3,13.8,4.6,27.7,6.9,41.6
		c2.1,13.2,4.2,26.4,6.2,39.7c1.8,11.8,3.5,23.6,5.2,35.4c1.3,9.6,2.6,19.2,3.7,28.8c0.8,6.5,1.5,13,1.8,19.6
		c0.1,1.9,0.2,3.9,0.1,5.8l-0.1,1c0,0.3-0.2,1,0,0.5c0,0.2-0.1,0.4-0.1,0.5c-0.1,0.3-0.2,0.3-0.1,0.2c-1,0.9-2.3,1.6-3.6,2
		c-2.4,0.9-4.8,1.7-7.3,2.4c-8,2.3-16.2,4-24.4,5.7c-11.2,2.3-22.5,4.5-33.8,6.5c-13.1,2.3-26.1,4.6-39.3,6.7
		c-13.6,2.2-27.3,4.3-40.9,6.3c-12.9,1.9-25.8,3.7-38.7,5.4c-10.9,1.5-21.8,2.8-32.7,4c-7.6,0.8-15.2,1.6-22.8,2.1
		c-2.1,0.1-4.2,0.2-6.3,0.1l-1.1-0.1h-0.4c0.2,0,0.2,0,0,0s-0.4-0.2-0.6-0.1c0.8-0.2,2.1,2.2,2.2,3.1c-0.1-1.2-0.8-2.3-1.7-3
		c-0.4-0.4-1.8-1-1.7,0.2c0.4,5.1,6.7,4.2,10.1,4.1c7.3-0.3,14.5-1.1,21.7-1.9c10.7-1.1,21.4-2.5,32.2-3.9c13-1.7,25.9-3.5,38.9-5.4
		c13.8-2,27.5-4.1,41.2-6.3c13.3-2.1,26.7-4.4,40-6.7c11.5-2,23-4.2,34.5-6.5c8.5-1.7,16.9-3.5,25.2-5.9c2.7-0.7,5.4-1.5,8-2.5
		c1.5-0.4,2.8-1.1,4-2.1c1.8-1.8,1-6.1,0.9-8.4c-0.3-6.5-1-12.9-1.8-19.4c-1.1-9.6-2.3-19.2-3.7-28.7c-1.6-11.9-3.3-23.7-5.1-35.5
		c-2-13.3-4.1-26.6-6.2-39.9c-2.3-14-4.6-28.1-7-42.1c-2.3-13.9-4.7-27.7-7.2-41.6c-2.3-13-4.7-26-7.1-38.9
		c-2.1-11.2-4.3-22.4-6.5-33.6c-1.8-8.7-3.6-17.3-5.6-25.9c-1.3-5.5-2.6-11-4.4-16.4c-1.1-3.3-2.6-6.5-6.4-7.2
		c-5.7-1-11.8-0.1-17.5,0.5c-9.9,1-19.7,2.6-29.5,4.2c-12.5,2.1-25,4.4-37.5,6.8c-13.8,2.7-27.6,5.4-41.3,8.3
		c-13.5,2.9-26.9,5.8-40.3,8.8c-11.8,2.6-23.5,5.3-35.3,8.1c-8.5,2-17.1,4.1-25.6,6.3c-2.6,0.7-5.3,1.4-7.9,2.2
		c-1.4,0.3-2.7,0.7-4,1.4c-1.5,1-0.7,5.1-0.5,6.6c0.4,5.9,1,11.7,1.7,17.6c1,9,2.1,18,3.2,27c1.4,11.3,2.9,22.5,4.4,33.7
		c1.7,12.9,3.5,25.7,5.2,38.6c1.9,13.6,3.8,27.2,5.7,40.8c1.9,13.6,3.8,27.3,5.8,41c1.8,12.9,3.7,25.7,5.5,38.5
		c1.6,11.3,3.3,22.7,4.9,34.1c1.3,9,2.6,18,3.9,27c0.9,5.9,1.7,11.8,2.6,17.8c0.3,2,0.6,4,0.9,6.1c0.3,1.2,1,2.2,2.1,2.9
		C79.5,453.4,80,453,79.8,452z" fill="#000005"></path><path class="st1" d="M51.7,137.2L273.5,94c0,0,38.3,254.9,13.9,314.4c0,0-199,28.2-221.5,23C65.9,431.4,80.3,209.5,51.7,137.2z" fill="#FFFFFF"></path><path class="st0" d="M52.4,139.4l22.2-4.4l53-10.3l64-12.5l55.3-10.8l18.2-3.6c2.9-0.6,5.9-0.9,8.6-1.7c0.1,0,0.2-0.1,0.4-0.1
		l-3.2-2.2c0.4,2.3,0.7,4.6,1,6.9c0.9,6.3,1.8,12.6,2.6,18.9c1.3,9.5,2.5,19,3.7,28.5c1.5,11.8,2.9,23.6,4.2,35.4
		c1.5,13.3,2.9,26.7,4.1,40.1c1.3,14,2.5,27.9,3.5,41.9c1,13.9,1.8,27.7,2.3,41.6c0.5,12.8,0.7,25.6,0.5,38.4
		c-0.1,10.9-0.6,22.1-1.7,32.8c-0.7,8.4-2.3,16.7-4.7,24.9c-0.5,1.6-1,3.1-1.6,4.6l1.7-1.5c-6.6,0.9-13.2,1.8-19.8,2.7
		c-16.2,2.2-32.4,4.4-48.6,6.5c-20.2,2.6-40.3,5.1-60.5,7.4c-18.5,2.1-37,4.1-55.6,5.6c-7,0.5-13.9,1-20.9,1.3
		c-4.5,0.2-9,0.2-13.5-0.2c-0.8-0.1,0.5,0.1-0.4-0.1c-0.3-0.1-0.6-0.1-0.9-0.2l1.9,2.1c0.5-7.6,0.9-15.2,1.2-22.8
		c0.9-18.9,1.6-37.8,2-56.8c0.5-24.8,0.7-49.6,0.1-74.4c-0.6-25.2-1.7-50.4-4.3-75.4c-2.1-20-4.8-40.6-11.3-59.9
		c-0.6-1.9-1.3-3.7-2-5.5c-1-2.6-5.9-1.8-4.7,1.1c7,17.9,9.9,37.4,12.2,56.4c2.9,24.6,4.3,49.4,5,74.2c0.7,25.1,0.7,50.1,0.3,75.2
		c-0.4,19.9-1,39.8-1.9,59.7c-0.3,6.3-0.6,12.6-0.9,18.9c-0.2,2.9-0.5,5.9-0.5,8.8c0,0.1,0,0.3,0,0.4c-0.1,1,1,2,1.9,2.1
		c4.6,1,9.5,0.8,14.1,0.7c7.9-0.2,15.8-0.8,23.7-1.4c21.8-1.8,43.6-4.2,65.4-6.8c22.6-2.7,45.2-5.5,67.8-8.5c15.1-2,30.3-4,45.4-6.1
		l4.9-0.7c1.4-0.2,2.5-0.2,3.2-1.7c2.8-6,4-13.2,5-19.7c3.1-19.4,3.3-39.4,3.1-59c-0.2-24.4-1.6-48.8-3.5-73.2s-4.2-48.8-6.9-73.1
		c-2.2-19.6-4.6-39.2-7.2-58.7c-1.3-10-2.7-20-4.2-29.9c-0.1-0.4-0.1-0.9-0.2-1.3c-0.2-1.5-1.6-2.4-3-2.2c-0.1,0-0.1,0-0.2,0
		l-22.2,4.3l-53,10.3l-64,12.5l-55.4,10.8c-8.9,1.7-18,3.2-26.9,5.2l-0.4,0.1C47.7,135.7,49.6,139.9,52.4,139.4z" fill="#000005"></path><path class="st1" d="M47.3,418.8c0,0,163-10.1,222.3-32.1c0,0,39.9-43.4-8.5-295.9c0,0-206.6,45.2-209.4,46.4S82,308.9,47.3,418.8z
		" fill="#FFFFFF"></path><path class="st0" d="M45.4,420.2c9-0.6,17.9-1.2,26.9-2c21-1.7,42-3.7,63-6c24.8-2.7,49.6-5.9,74.2-10.1c11-1.9,22-4,32.9-6.6
		c4.8-1.1,9.7-2.4,14.4-3.8c2.1-0.6,4.1-1.2,6.2-1.9c2.3-0.8,4.9-1.4,6.9-2.7s3.1-3.5,4.2-5.5c2.4-4.7,4.2-9.6,5.5-14.7
		c2.6-9.7,4.4-19.5,5.5-29.4c1.7-16.1,2.3-32.3,2-48.5c-0.3-24-2-48-4.5-71.9c-3.5-33.1-8.4-66.1-14.2-99
		c-1.7-9.6-3.4-19.1-5.3-28.7c-0.1-0.1-0.3-0.1-0.4,0l-17.4,3.8l-43.1,9.4l-54.5,12c-17.3,3.8-34.7,7.7-52,11.5
		c-11.7,2.6-23.4,5.2-35.1,7.9c-2.3,0.5-4.6,1-6.9,1.6c-1.5,0.4-3.8,1.5-4.1,3.1c-0.1,1-0.1,2,0.1,3c1,12,2.9,24,4.3,35.9
		c2.5,21.5,4.5,43.1,5.8,64.8c1.7,26.5,2,53.2,0.9,79.7c-1.2,26.8-4.1,53.8-10.4,79.9c-1.4,6-3.1,12-4.9,17.9
		c-0.2,0.6,1.7-0.4,1.8-0.5c0.7-0.4,2-1.2,2.3-2c7.9-25.1,11.9-51.3,14-77.4c2-26.6,2.5-53.3,1.3-80c-0.9-23.2-2.7-46.4-5.1-69.5
		c-1.6-15-3.5-30-5.3-45c-0.3-3-0.7-6.1-0.8-9c0-0.1,0-0.2,0-0.4s0-0.1,0-0.1c0.1,0.9-3.7,4.2-3.2,2.4c0,0.2-0.5,0.1-0.1,0.1
		l0.4-0.1l2.9-0.7c9.9-2.4,19.9-4.5,29.8-6.8c16.4-3.7,32.8-7.3,49.3-10.9l54.5-12L233.6,98l24.5-5.4l1.1-0.2h-0.4
		c4.3,22.6,8.3,45.2,11.7,68c2.9,18.9,5.4,37.9,7.4,57c1.7,15.6,3,31.2,3.8,46.9c0.7,12.6,1,25.3,0.9,37.9
		c-0.1,9.8-0.5,19.7-1.3,29.5c-0.6,7.4-1.5,14.9-2.7,22.2c-0.9,5.3-2.1,10.6-3.5,15.8c-1,3.5-2.1,7-3.5,10.4c-0.5,1.1-1,2.3-1.6,3.4
		l-0.4,0.7l-0.2,0.4c-0.2,0.4-0.4,0.7-0.6,1.1c-0.3,0.5-0.6,1-1,1.5c-0.1,0.1-0.2,0.3-0.3,0.4s-0.3,0.2,0-0.1l-0.1,0.1l2.9-2
		c-14.4,5.3-29.5,8.5-44.5,11.5c-18.6,3.6-37.4,6.4-56.2,8.8s-37.5,4.5-56.3,6.3c-14.7,1.4-29.4,2.7-44.1,3.8
		c-6.7,0.5-13.6,0.7-20.3,1.5H49c-1,0.2-2,0.7-2.7,1.4C46.3,418.8,44.8,420.3,45.4,420.2z" fill="#000005"></path><path class="st2" d="M137.5,346.4l9.3-1.5c7.6-1.2,15.1-2.4,22.7-3.7c9.2-1.5,18.4-3,27.7-4.6c8.2-1.4,16.4-2.8,24.7-4.3
		c2.9-0.5,5.7-1.1,8.6-1.6c1.6-0.3,3.2-0.6,4.7-1.1c0.2-0.1,0.5-0.2,0.7-0.3c1.2-0.6-1.5-4.7-3.1-3.9c-0.3,0.1,0.2-0.1,0.1,0
		l-0.3,0.1l-0.8,0.2c-0.8,0.2-1.6,0.4-2.4,0.6c-2.6,0.6-5.2,1-7.8,1.5c-7.9,1.5-15.7,2.8-23.6,4.1c-9.2,1.6-18.5,3.1-27.7,4.6
		c-7.9,1.3-15.7,2.6-23.6,3.8l-7.7,1.2c-1.2,0.1-2.4,0.3-3.6,0.6H135C133.4,342.5,136,346.7,137.5,346.4L137.5,346.4z" fill="#3560ba"></path><path class="st2" d="M136,333.6l9.7-1.9l23.4-4.6c9.5-1.9,19-3.7,28.5-5.6c8.3-1.7,16.6-3.3,24.9-5c4.5-0.9,9-1.6,13.4-2.8l0.4-0.1
		c0.9-0.3-0.8-0.4-0.9-0.4c-1.1-0.1-2.3,0-3.4,0.3c-0.4,0.1-0.7,0.2-1.1,0.3h-0.1l-0.6,0.1l-1.3,0.3c-2.6,0.5-5.1,1.1-7.7,1.6
		c-8,1.6-16,3.2-24,4.8c-9.5,1.9-18.9,3.8-28.4,5.6l-24.4,4.8c-3.9,0.8-7.9,1.5-11.8,2.3h-0.2c-0.8,0.2-0.8,0.4,0,0.5
		C133.6,333.9,134.8,333.8,136,333.6L136,333.6z" fill="#3560ba"></path><path class="st0" d="M85,335.3c-0.8,9-1.5,18.1-1.9,27.2c-0.1,1.4-0.2,2.8-0.1,4.2c0.3,2.3,2.3,2.9,4.2,2.8
		c5.1-0.3,10.1-1,15.1-2.1c5.2-0.8,10.3-2,15.4-3.4c1.4-0.5,3.1-0.9,3.9-2.3c0.8-1.9,1.1-3.9,1.2-5.9c0.5-6,0.4-12-0.2-18
		c-0.2-2.1-0.4-4.5-1.4-6.3s-2.8-2.1-4.6-2.1c-5.2,0-10.6,1-15.7,1.8c-4.5,0.8-9,1.6-13.5,2.5l-0.7,0.1c-3,0.6-1.2,5.1,1.5,4.6
		c8.3-1.7,16.7-3.3,25.1-4.2l1.6-0.1l0.8,0h0.3c0.8,0,1.5,0,2.3,0.1c0.5,0-0.4-0.1-0.2,0c0.1,0,0.2,0.1,0.3,0.1
		c-0.3-0.1-0.6-0.3-0.8-0.5c-0.2-0.2-0.5-0.6-0.2-0.2c0,0-0.2-0.6-0.1-0.2c0,0.1,0.1,0.3,0.1,0.5s0.1,0.4,0.1,0.5
		c0.2,0.6,0-0.4,0.1,0.3c0.8,5.3,1.1,10.6,0.8,15.9c0,2.3-0.2,4.6-0.5,6.9c-0.1,0.4-0.1,0.8-0.2,1.2c0,0.2-0.1,0.3-0.1,0.5
		c0.2-0.7,0.1-0.1,0,0c-0.3,0.4,0.3-0.3,0.4-0.3c-0.2,0.1-0.4,0.2-0.6,0.3c-0.3,0.1-1,0.3-0.4,0.2c-0.4,0.1-0.8,0.2-1.2,0.4
		c-1,0.3-1.9,0.5-2.9,0.8c-2.5,0.6-5.1,1.2-7.6,1.7c-5.2,1-10.5,2-15.8,2.6l-1.4,0.1l-0.6,0h-0.3c-0.4,0,0.4,0,0.1,0
		c-0.5-0.1-1.1-0.1-1.6,0c0.8-0.2,2.3,2.1,2.1,2.2c0,0,0-0.5,0-0.5c0-0.6,0-1.3,0-1.9c0-0.4,0-0.9,0-1.3c0-0.2,0-0.5,0-0.7
		c0-0.2,0-0.4,0-0.6c0.1-1.2,0.1-2.4,0.2-3.5c0.2-2.8,0.4-5.6,0.6-8.4c0.3-4.2,0.6-8.4,1-12.5l0.1-0.7c0.2-1.3-0.6-2.6-1.9-3
		C86.7,333.5,85.1,334,85,335.3z" fill="#000005"></path><path class="st2" d="M135.9,270.2l9.3-1.5c7.6-1.2,15.1-2.4,22.7-3.6c9.2-1.5,18.5-3,27.7-4.6c8.2-1.4,16.5-2.8,24.7-4.3
		c4.5-0.7,8.9-1.6,13.3-2.8c0.4-0.1,0.7-0.2,1.1-0.4c1-0.5,2-1.6,1.5-2.8s-2.1-1.2-3.1-0.8c-0.4,0.2-0.6,0.1,0.1,0
		c-0.3,0.1-0.5,0.1-0.8,0.2c-0.8,0.2-1.6,0.4-2.4,0.6c-2.6,0.6-5.2,1.1-7.8,1.6c-7.9,1.5-15.7,2.8-23.6,4.2
		c-9.2,1.6-18.5,3.1-27.7,4.6c-7.9,1.3-15.7,2.6-23.6,3.8c-3.8,0.6-7.6,1-11.4,1.8h-0.2c-1.3,0.2-2.2,1.2-2.2,2.5
		C133.4,270,134.8,270.4,135.9,270.2L135.9,270.2z" fill="#3560ba"></path><path class="st2" d="M134.4,259.5l9.7-1.9l23.4-4.6l28.5-5.6c8.3-1.6,16.6-3.3,24.9-5c4.4-0.9,8.8-1.7,13-2.7
		c0.3-0.1,0.6-0.1,0.9-0.2c1.2-0.4,1.3-1.9,0.7-2.8c-0.7-1.1-2.1-1.6-3.3-1.2c-0.5,0.2,0.7-0.1,0.1,0l-0.7,0.2l-2.3,0.5
		c-2.6,0.5-5.1,1.1-7.7,1.6c-8,1.6-16,3.2-24,4.8c-9.5,1.9-18.9,3.8-28.4,5.6l-24.4,4.8c-3.9,0.8-7.9,1.5-11.8,2.3h-0.2
		C129.8,255.8,131.8,260,134.4,259.5L134.4,259.5z" fill="#3560ba"></path><path class="st0" d="M84.3,259.5c-0.7,8.9-1.5,17.8-1.9,26.8c-0.2,1.5-0.2,3.1-0.1,4.6c0.3,2.3,2.5,2.6,4.4,2.6
		c5.1-0.4,10.2-1.1,15.2-2.1c5.2-0.8,10.3-2,15.3-3.4c1.5-0.5,3.1-0.9,3.9-2.4c0.9-1.7,1-4,1.2-5.9c0.5-6,0.4-12-0.2-18
		c-0.1-2-0.5-4-1.2-5.8c-1-2-3-2.4-5-2.4c-5.2,0-10.6,1-15.8,1.9c-4.5,0.7-9,1.6-13.5,2.5l-0.7,0.1c-1.1,0.3-1.8,1.5-1.5,2.6
		c0,0.1,0,0.2,0.1,0.2c0.5,1.2,1.9,1.9,3.2,1.6c3-0.6,6.1-1.2,9.1-1.7c5.4-1,10.3-1.8,15.6-2.4c1-0.1,2.1-0.2,3.1-0.2
		c0.4,0,0.8,0,1.2,0h0.5c0.6,0-0.5-0.1,0,0c0.1,0,0.2,0.1,0.3,0.1c0.4,0-0.4-0.2-0.3-0.1c-0.4-0.2-0.8-0.6-0.8-0.8
		c0.1,0.3,0.2,0.5,0.3,0.8c0.2,0.6,0-0.3,0,0.1s0.1,0.5,0.2,0.8c0.8,5.2,1.1,10.4,0.8,15.6c0,2.4-0.2,4.8-0.6,7.2
		c-0.1,0.4-0.2,0.8-0.2,1.2s-0.2,0.4,0,0c-0.1,0.1-0.1,0.3-0.2,0.5c-0.1,0.4,0.2-0.3,0.1-0.2c-0.2,0.2,0.3-0.2,0.2-0.2
		s-0.8,0.4-0.3,0.2s-0.1,0-0.2,0l-0.5,0.2l-1.2,0.4c-1,0.3-1.9,0.5-2.9,0.8c-2.5,0.6-5.1,1.2-7.6,1.7c-2.8,0.6-5.7,1.1-8.5,1.6
		c-1.3,0.2-2.5,0.4-3.8,0.6l-1.3,0.2c-0.6,0.1-1.2,0.1-1.7,0.2c-0.8,0.1-1.7,0.2-2.6,0.2h-0.9c-0.8,0,0.4,0.1-0.1,0s0.6,0.2,0.4,0.2
		c0.5,0.3,1.6,1.3,1.3,1.8c0-0.2,0-0.3,0-0.5c0-0.3,0-0.5,0-0.8c0-0.1,0-0.7,0-0.3s0-0.3,0-0.4c0.3-9.2,1.2-18.3,1.9-27.5l0.1-0.7
		c0.1-1.3-0.8-2.5-2.1-2.8C86,257.5,84.4,258.1,84.3,259.5z" fill="#000005"></path><path class="st2" d="M133,192.9l9.4-1.5c7.6-1.2,15.2-2.4,22.7-3.7c9.3-1.5,18.5-3,27.8-4.6c8.2-1.4,16.4-2.8,24.5-4.3
		c3.1-0.6,6.1-1.1,9.1-1.8c1.6-0.3,3.2-0.7,4.7-1.1c0.3-0.1,0.7-0.3,1-0.4c0.9-0.4,1.3-1.5,0.9-2.4c-0.1-0.1-0.1-0.2-0.2-0.4
		c-0.9-0.9-2.4-1-3.5-0.4c0.6-0.3,0.5-0.2,0-0.1l-0.8,0.2c-0.8,0.2-1.6,0.4-2.5,0.6l-0.7,0.1c-0.3,0.1-1.1,0.2-0.3,0.1l-1.9,0.4
		l-4.3,0.8c-7.9,1.5-15.8,2.8-23.8,4.2c-9.2,1.6-18.4,3.1-27.6,4.6c-7.8,1.3-15.7,2.5-23.5,3.8c-3.8,0.6-7.6,1.1-11.4,1.8h-0.2
		c-1.1,0.2-2.4,0.9-2.3,2.2C130.6,192.3,131.7,193.1,133,192.9L133,192.9z" fill="#3560ba"></path><path class="st2" d="M131.8,182.2l9.7-1.9l23.4-4.6l28.5-5.6c8.3-1.6,16.6-3.3,24.9-5c4.4-0.9,8.7-1.7,13.1-2.7
		c0.2-0.1,0.4-0.1,0.6-0.2c1.2-0.4-1-4.8-2.6-4.3c-0.2,0.1-0.3,0.1-0.1,0l-0.7,0.2l-2.3,0.5c-2.6,0.5-5.1,1.1-7.7,1.6
		c-8,1.6-16,3.2-24,4.8c-9.5,1.9-18.9,3.7-28.4,5.6l-24.3,4.8l-8,1.6c-1.2,0.2-2.6,0.4-3.8,0.7h-0.2
		C128.1,178.1,130.4,182.4,131.8,182.2L131.8,182.2z" fill="#3560ba"></path><path class="st0" d="M81.6,183.6c-0.7,8.9-1.5,17.8-1.9,26.7c-0.2,1.4-0.2,2.7,0,4.1c0.3,1.4,2.2,1.2,3.3,1.1
		c5.1-0.4,10.2-1.1,15.2-2.2c5.1-0.8,10.2-2,15.1-3.4c1.8-0.6,3.8-1.2,4.8-3s1-3.9,1.2-5.8c0.5-5.9,0.4-11.7-0.2-17.6
		c-0.2-1.8-0.3-4.1-1.2-5.7c-0.7-1.3-2.4-1.3-3.7-1.3c-5.2,0-10.6,1-15.7,1.9c-4.5,0.7-8.9,1.6-13.4,2.4l-0.7,0.1
		c-1.2,0.2-2.2,1.1-2.7,2.2c-0.2,1.1,0.9,1.4,1.8,1.2c8.2-1.8,16.5-3.2,24.9-4.1c1-0.1,2.1-0.2,3.1-0.2h1.2h0.5c-0.4,0-0.1,0,0.1,0
		l0.3,0.1c0.3,0,0,0.1-0.1,0c0.2,0.2,0.1,0,0.1,0s0,0,0.1,0.2c0,0.1,0.1,0.2,0.2,0.3c0.2,0.4,0-0.1,0.1,0.2c0.1,0.4,0.2,0.8,0.3,1.3
		c0.8,5.2,1.1,10.5,0.8,15.8c0,2.4-0.2,4.8-0.5,7.2c-0.1,0.4-0.1,0.8-0.2,1.2l-0.1,0.5c-0.1,0.4-0.2,0.3,0,0.1
		c-0.2,0.2-0.1,0.1,0.1-0.1c0.2-0.2,0.5-0.4,0.7-0.6c-0.4,0.3,0.3-0.2,0.3-0.1s-0.4,0.2-0.4,0.2l-0.9,0.3c0.7-0.2-0.5,0.1-0.8,0.2
		c-1,0.3-2,0.5-3,0.8c-2.6,0.6-5.2,1.2-7.8,1.7c-2.8,0.5-5.6,1.1-8.4,1.5c-2.6,0.4-4.4,0.7-6.9,1c-0.8,0.1-1.6,0.2-2.5,0.2h-0.8
		c-0.4,0,0.4,0.1,0.1,0c0,0-0.2,0-0.2,0s0.7,0.3,0.5,0.6c0-0.1,0-0.5,0-0.6c0-0.6,0-1.3,0-2c0.3-9.2,1.2-18.4,1.9-27.5l0.1-0.7
		c0.1-1.1-1.8-0.8-2.4-0.6C82.7,181.5,81.8,182.5,81.6,183.6z" fill="#000005"></path><path class="st0" d="M140.8,341.8c1.5-2.6,3.1-5.1,5-7.4c1.2-1.7,2.7-3.2,4.4-4.5c-0.4,0.3,0.1,0,0.2-0.1s0.6-0.3,0.1-0.1
		c0.1,0,0.7-0.3,0.3-0.1c-0.2,0.1,0.2,0-0.1,0c0.2,0-0.1,0-0.2,0s0.2,0,0.3,0c0.3,0.1-0.3-0.2,0.1,0s0,0,0.2,0.1
		c0.2,0.2,0.4,0.3,0.6,0.5c1.8,2.1,2.4,4.9,1.8,7.6c-0.1,0.5-0.3,0.9-0.5,1.4c-0.1,0.2-0.2,0.3-0.2,0.4c-0.1,0.1-0.1,0.1-0.2,0.2
		c0.1-0.3-0.1,0,0.1-0.1c0.4-0.3,1.2-0.2,1.5-0.5c0.1-0.1,0.1,0.1,0,0s-0.3-0.2-0.4-0.3c0.2,0.2,0,0,0-0.1c0-0.4,0-0.8,0.2-1.1
		c0.3-0.7,0.7-1.4,1.2-2c2-2.5,4.4-4.8,7.1-6.6c0.5-0.3,0.9-0.6,1.4-0.9l0.7-0.4h0.1l0.3-0.1l0.7-0.3c0.1-0.1,0.8-0.3,0.2-0.1
		c0.2-0.1,0.4-0.1,0.6-0.2l0.3-0.1c0.4-0.1-0.3,0,0,0s0.4,0,0.5,0c-0.4,0-0.1,0,0.1,0c-0.3-0.1,0.4,0.2,0.3,0.1c2,1.3,2.9,4,3.1,6.3
		c0.1,1,0,2.1-0.2,3.1c-0.1,0.2-0.2,0.4-0.2,0.6c0,0.1,0,0.1-0.1,0.1c-0.1-0.1,0.4-0.2,0.1-0.1c0.5-0.3,1-0.6,1.6-0.7
		c0.4,0,0.5,0.2,0.1-0.1c0.2,0.1-0.1,0-0.1-0.1c-0.3-0.2,0,0-0.1-0.1c-0.2-0.3-0.1-0.2-0.1-0.6c0.1-0.8,0.4-1.5,0.9-2.2
		c1.2-1.9,2.7-3.7,4.5-5.1c0.8-0.7,1.8-1.4,2.7-1.9c0.1-0.1,0.3-0.2,0.4-0.2c0,0-0.3,0.1-0.1,0l0.8-0.3c0.4-0.2-0.2,0,0.3-0.1
		l0.4-0.1c0.4-0.1-0.5,0.1,0.1,0c0.1,0,0.6,0,0.2,0c0.2,0,0.4,0,0.6,0c0.5,0.1,1,0.3,1.4,0.5c1,0.6,1.8,1.4,2.3,2.4
		c0.9,1.5,1.7,3.8,1.3,5.2c-0.1,0.3,0.1,0-0.1,0.1c0.6-0.4,1.3-0.7,2-0.9c0.2,0-0.2-0.1-0.3-0.1s-0.2,0-0.2-0.5c0.1,0.3,0-0.1,0-0.2
		c0-0.2,0-0.4,0.1-0.6c0.3-1.6,1.9-3.5,3.1-4.9c0.8-0.9,1.6-1.7,2.5-2.5c0.4-0.4,0.9-0.7,1.1-0.9s0.5-0.3,0.7-0.5s0.8-0.4,0.6-0.4
		s0.4-0.2,0.5-0.2c0.4-0.2-0.2,0.2,0.2-0.1c0.1,0,0.2-0.1,0.3-0.1c-0.5,0.1-0.2,0-0.1,0s0.2,0,0.3,0c-0.1,0-0.4,0-0.1,0
		c1.2,0.1,2.4-0.4,3.2-1.4c0.6-0.8,0.3-1.6-0.7-1.7c-3.3-0.2-6.4,1.7-8.9,3.7c-2.6,2-4.7,4.5-6.4,7.2c-1,1.6-2.2,4.6,0.1,5.6
		c2.8,1.3,6.6-0.7,6.8-3.8c0.1-2.9-1.2-5.7-3.3-7.6c-2.6-2.3-5.9-2.2-9-1c-3.3,1.4-6.2,3.5-8.6,6.1c-1.9,1.9-4.1,4.4-4.5,7.1
		c-0.5,3.2,3.4,3.5,5.5,2.4c2.9-1.5,3.3-4.9,2.8-7.8c-0.4-2.6-1.8-6.2-4.6-7s-5.8,0.6-8.2,1.9c-2.7,1.5-5.2,3.4-7.5,5.5
		c-2.1,1.8-3.9,4-5.2,6.5c-0.9,2-0.6,4.1,2,4.4c3.7,0.5,6.1-3,6.6-6.2c0.5-3.1-0.4-7.3-3.2-9c-2.6-1.6-5.9,0-8,1.6
		c-4.3,3.2-7.4,8.1-10.1,12.6c-0.2,0.3-0.4,0.7-0.6,1c-0.6,1,0.8,1.4,1.5,1.3c1.2-0.1,2.3-0.7,3-1.8L140.8,341.8z" fill="#000005"></path><path class="st0" d="M209.6,330.9c1-2.2,2.1-4.3,3.4-6.3c0.9-1.6,2.1-3.1,3.4-4.4c0.5-0.4,1-0.8,1.6-1.1l0.2-0.1
		c0.2-0.1-0.3,0.1,0,0l0.4-0.1c0.1,0-0.4,0,0,0c0.2,0-0.2,0-0.2-0.1c0.2-0.1,0.3,0.4,0.1,0l-0.3-0.2c0.4,0.3-0.2-0.2-0.1-0.1
		s0.4,0.6,0.1,0l0.3,0.5c0.2,0.4,0,0,0.1,0.1s0.1,0.4,0.2,0.6c0.1,0.4,0.2,0.8,0.3,1.1c0,0.2,0,0,0,0l0.1,0.4c0,0.2,0.1,0.4,0.1,0.5
		c0.1,0.4,0.1,0.9,0.1,1.3c0,0.4,0,0.7,0,1.1c0,0.1,0,0.5,0,0.2c0,0.2,0,0.4-0.1,0.6c0,0.3-0.1,0.5-0.2,0.8c0,0.1-0.1,0.3-0.1,0.4
		s0.2-0.2,0,0c-0.1,0.1-0.1,0.1-0.2,0.2c0.2-0.4,0.3-0.2,0.2-0.1s-0.2,0,0.1,0c0.4-0.1,0.8,0,1.1,0.1c0.3,0.1,0.6,0.3,0.9,0.6
		c0.3,0.4,0.3,0.4,0.2,0.2c0,0,0.2,0.5,0.1,0.3s0,0.2,0,0s0-0.3,0-0.4c0-0.4-0.1,0.1,0-0.3c0.1-0.7,0.3-1.5,0.6-2.1
		c0.8-1.7,1.9-3.3,3.3-4.6c0.3-0.3,0.6-0.5,0.9-0.7c0.2-0.1,0.3-0.2,0.5-0.3s0.6-0.2,0.3-0.1c0.2,0,0.3-0.1,0.5-0.1
		c0.4-0.1-0.1,0,0.1,0s0,0,0,0s-0.1,0.1-0.3-0.1c0,0,0.1,0.1,0.2,0.1c0.3,0.2-0.5-0.4-0.1,0c0.7,0.6,2.2,1.2,3,0.3s-0.2-2.3-0.9-2.8
		c-4.3-3.5-8.8,0.4-10.9,4.3c-0.9,1.6-1.9,3.7-1.6,5.6s3,5,5.2,3.6c1.4-0.9,1.5-3.3,1.6-4.8c0.1-2.2-0.4-4.4-1.4-6.3
		c-1.1-2.2-3.4-4.1-6-3.9c-2,0.2-3.7,1.8-4.9,3.2c-2.5,3.1-4.6,6.6-6.1,10.4C204.6,330.4,208.7,333.1,209.6,330.9L209.6,330.9z" fill="#000005"></path><path class="st0" d="M140.3,266.4c1.4-2.6,3.1-5.1,4.9-7.4c0.7-0.9,1.5-1.8,2.2-2.6c0.6-0.7,1.3-1.3,2.1-1.9l0.6-0.4
		c0.5-0.4-0.2,0.1,0.2-0.1c0.2-0.1,0.4-0.1,0.5-0.2s-0.5,0.1-0.2,0.1l0.3-0.1c0.1,0-0.5,0.1,0,0c-0.3,0.1-0.5,0-0.2,0
		c0.1,0,0.3,0.1,0,0s0.4,0.2-0.1-0.1c0.2,0.1,0.3,0.2,0.5,0.4c1.8,1.8,2.2,4.7,1.7,7.1c-0.1,0.4-0.3,0.9-0.4,1.3
		c-0.1,0.1-0.1,0.3-0.2,0.4c0,0,0.2-0.2,0,0s-0.2,0.2-0.2,0.3s0.3-0.1,0,0c0.4-0.1,0-0.1,0.5-0.2c0.3,0,0.6,0,0.9,0
		c0.1,0-0.1,0.1-0.1-0.1c0.1,0.3,0.3,0.3,0.2,0.2s0.1,0.1,0.1,0.2c0-0.2,0-0.5,0,0c0-0.1,0-0.2,0-0.3c0-0.1,0.1-0.3,0.1-0.4
		c-0.1,0.2,0,0,0.1-0.2s0.3-0.6,0.5-0.9c0.1-0.1,0.4-0.5,0.1-0.2c0.1-0.2,0.3-0.4,0.5-0.6c1.3-1.7,2.8-3.3,4.5-4.7
		c1-0.8,2-1.6,3-2.3c0.8-0.6,1.6-1.1,2.5-1.5c0.4-0.2,0.8-0.4,1.2-0.5s0,0-0.1,0l0.4-0.1c0.2-0.1,0.4-0.1,0.7-0.1
		c0.5-0.1-0.6,0.2,0.1,0c0.1,0,0.2,0,0.2,0c0.3,0-0.1-0.1-0.2,0c0.1,0,0.3,0,0.4,0.1c-0.1-0.1-0.5-0.1-0.2,0s-0.3-0.2-0.1-0.1
		c1.9,1.3,2.6,3.8,2.8,6c0,0.5,0,1,0,1.4c0,0.3-0.1,0.5-0.1,0.8c0,0.1-0.2,0.7-0.1,0.5c-0.1,0.2-0.2,0.4-0.2,0.6
		c0,0,0.2-0.1-0.1,0.1c0,0,0.4-0.3,0.2-0.2l0.4-0.2c0.2-0.1,0.4-0.1,0.6-0.1c0.1,0,0.7,0.1,0.5,0.1c-0.5-0.1,0,0.1-0.1,0
		c0.3,0.2,0.1,0,0.1,0.1c0,0.3-0.1-0.1,0-0.2s-0.1,0.3,0-0.2c0-0.2,0.1-0.4,0.1-0.5s0,0.1,0,0.1c0-0.1,0.1-0.2,0.1-0.3
		c0.2-0.5,0.4-0.9,0.7-1.3c1.2-1.9,2.7-3.6,4.5-5c0.5-0.4,1-0.8,1.5-1.1l0.8-0.5c0.1-0.1,0.8-0.5,0.6-0.3c0.5-0.3,1-0.5,1.5-0.7
		l0.3-0.1c0.4-0.1-0.4,0.1,0,0l0.8-0.2c0.3,0-0.1,0-0.2,0h0.4c0.4,0-0.4-0.1,0.2,0c0.4,0.1,0.7,0.2,1.1,0.4c0.9,0.6,1.7,1.3,2.2,2.3
		c0.5,0.9,0.9,1.8,1.1,2.8c0.1,0.3,0.1,0.7,0.1,1.1c0,0.2,0,0.4-0.1,0.6s0,0.2-0.1,0.2c0.1-0.5,0.1,0,0,0s0-0.1,0.3-0.3
		c-0.2,0.1-0.2,0,0.2-0.1c0.2-0.1,0.4-0.1,0.6-0.2c0.4,0,0.6,0.1,0.2,0c0.2,0.1,0.4,0.2,0.3,0.1s-0.1,0,0.1,0.1c0,0-0.1-0.1-0.1-0.1
		s0,0.1,0.1,0.2c0-0.1,0-0.2-0.1-0.2c0,0,0-0.6,0,0.1c0-0.1,0-0.1,0-0.2c0-0.2,0.1-0.4,0.1-0.6s0,0.1,0,0.1c0-0.1,0.1-0.2,0.1-0.3
		c0.1-0.2,0.2-0.4,0.3-0.6c0.2-0.5,0.5-0.9,0.8-1.4c0.6-0.9,1.3-1.8,2-2.6c0.8-0.9,1.6-1.7,2.5-2.4c0.4-0.4,0.9-0.7,1.4-1.1
		c0.6-0.4,1.2-0.7,1.8-1c0.1-0.1,0.2-0.1,0.4-0.1c0,0-0.4,0.1-0.2,0.1s0.4-0.1,0.6-0.1c-0.7,0.1,0.5,0.1-0.3,0
		c1.2,0.2,2.5-0.3,3.2-1.4c0.3-0.8,0-1.8-0.9-2.1c-0.2-0.1-0.4-0.1-0.6-0.1c-3.3-0.2-6.2,1.4-8.7,3.4c-2.6,2-4.7,4.5-6.4,7.3
		c-1.1,2-2,5,0.6,6.3c2.2,1.2,4.9,0.4,6.1-1.8c0.3-0.5,0.5-1.1,0.5-1.8c0-3.1-1.3-6-3.6-8c-2.6-2.4-6.2-2.6-9.4-1.3
		c-3.2,1.4-6,3.4-8.3,6c-1.8,1.9-4,4.4-4.4,7.1c-0.5,3.2,3.2,4.7,5.8,3.5c3-1.4,3.1-5.2,2.7-8.1s-2-6.4-4.9-7.5
		c-2.6-1-5.7,0.2-8,1.4c-2.8,1.6-5.4,3.5-7.8,5.7c-2,1.8-3.7,3.9-4.9,6.2c-1.1,2.3-0.5,4.8,2.4,5.3c3.7,0.7,6-2.9,6.5-6.1
		s-0.5-7.5-3.4-9.5c-2.5-1.8-5.8-0.6-8,1c-4.3,3.1-7.4,8.1-10.1,12.6c-0.2,0.3-0.4,0.7-0.6,1c-0.6,1.1,0.4,2,1.4,2.2
		c1.3,0.2,2.5-0.3,3.2-1.4L140.3,266.4z" fill="#000005"></path><path class="st0" d="M209.3,253.8c1-2.2,2.1-4.3,3.4-6.3c0.5-0.8,1-1.6,1.6-2.3c0.5-0.6,1-1.2,1.5-1.8c0.3-0.2,0.5-0.5,0.8-0.7
		s0.5-0.3,0.1-0.1c0.1-0.1,0.6-0.3,0.3-0.1s0.5-0.2-0.1,0c-0.4,0.1,0.3,0.1-0.1,0c0,0-0.5,0-0.3,0c-0.1,0-0.3-0.2-0.2-0.1
		s0.3,0.2,0.1,0s0.6,0.6,0.4,0.3c0.2,0.3,0.4,0.6,0.6,0.9c0.3,0.6,0.6,1.3,0.7,1.9c0.3,1.5,0.4,3,0.2,4.4c0,0.3-0.1,0.6-0.2,0.8
		c0,0.1-0.1,0.2-0.1,0.4c-0.1,0.4,0-0.1,0,0.1c0,0.1-0.1,0.2-0.2,0.2c0.3-0.3,0.6-0.5,1-0.6c0.8-0.2,1.6-0.2,2.3,0.2
		c-0.3-0.2,0.1,0.1-0.1,0c-0.1-0.1-0.1-0.2-0.1-0.3c0.1,0.3,0,0.1,0-0.1s0-0.3,0-0.4s0-0.5,0-0.2c0.1-0.7,0.3-1.4,0.6-2.1
		c0.3-0.8,0.7-1.6,1.2-2.3c0.3-0.4,0.6-0.8,0.9-1.2c0.1-0.2,0.3-0.4,0.5-0.5c0.1-0.1,0.2-0.2,0.3-0.3c0.3-0.3,0.7-0.6,1.1-0.9
		c0.2-0.1-0.1,0-0.1,0.1l0.3-0.2c0.5-0.3-0.1,0,0.2-0.1c0.1,0,0.1-0.1,0.2-0.1c0.3,0-0.5,0.1-0.2,0s-0.3,0-0.3,0c0.6,0,1-0.6,1-1.2
		s-0.6-1-1.2-1s-1,0.6-1,1.2c0,0.5,0.5,0.9,1,1c0.1,0.1,0.2,0,0.3,0.1s-0.4-0.2-0.1,0c0,0,0.2,0.2,0.1,0l0.2,0.1
		c1,0.7,2.4,0.7,3.5,0.1c0.8-0.4,1.6-1.4,0.6-2.2c-2.1-1.7-5.1-1.4-7.3-0.2c-2,1.2-3.6,3-4.8,5c-1,1.6-2.1,3.8-1.8,5.8
		c0.4,2.6,3.6,3.1,5.5,1.9c1.6-1,1.8-3.1,1.8-4.8c0.1-2.1-0.3-4.1-1.2-5.9c-1.1-2.1-3.3-3.2-5.6-2.9c-2.4,0.3-4.4,1.9-5.9,3.7
		c-2.6,3.2-4.6,6.7-6.2,10.4c-0.5,1.1,1.2,1.6,2,1.6C207.6,255.3,208.8,254.8,209.3,253.8L209.3,253.8z" fill="#000005"></path><path class="st0" d="M137.1,190c-0.3,0.6,0.1-0.2,0.2-0.4c0.4-0.6,0.7-1.2,1.1-1.8c1.2-1.8,2.4-3.6,3.7-5.3
		c1.3-1.8,2.8-3.4,4.6-4.8c0.6-0.5,1.3-0.8,2.1-1c-0.3,0.1,1-0.2,0.4,0c0.1,0,0.2,0,0.3,0.1c0,0-0.4-0.2-0.2-0.1s-0.4-0.3-0.2-0.1
		s-0.3-0.4-0.1-0.1c0.6,0.9,1,1.8,1.3,2.8c0.2,1.2,0.2,2.5-0.2,3.7c-0.2,0.9-0.6,1.7-1.3,2.3c-0.3,0.2-0.6,0.1-0.1,0.2
		c0.1,0.1,0.2,0.1,0.3,0.2c-0.4-0.2,0.1,0.1,0.1,0.1c0.2,0.2,0.4,0.4,0.6,0.7c0,0,0.3,0.4,0.1,0.2c0.2,0.3-0.1,0.3,0,0
		s-0.1,0.2,0-0.1c0.1-0.3,0.2-0.7,0.3-1c0.4-0.7,0.8-1.4,1.3-2c1.4-1.8,3.1-3.5,4.9-5c1.7-1.5,3.6-2.7,5.6-3.8
		c0.8-0.4,1.5-0.7,2.4-0.9c0.4-0.1,0.7-0.1,1.1-0.1c0.4,0-0.3,0,0.1,0s-0.2-0.1-0.3-0.2c0.1,0,0.2,0.2,0.5,0.6
		c0.2,0.4,0.4,0.7,0.6,1.1c0.4,1.1,0.7,2.3,0.7,3.4c0.1,1-0.1,2-0.4,2.9c-0.1,0.3-0.3,0.5-0.5,0.7c0,0,0-0.1-0.2,0.1
		c0.1-0.1,0.2,0,0.1,0c0.5,0.2,0.1,0,0,0c0.2,0.2,0.4,0.3,0.7,0.5c0.3,0.2,0.5,0.5,0.6,0.8c0.2,0.4,0,0.1,0,0c0.2,0.2,0,0.2,0-0.1
		s-0.1,0.1,0.1-0.4c0.2-0.8,0.6-1.6,1.1-2.3c1.4-2.1,3.1-3.9,5.1-5.5c1.7-1.5,3.7-2.6,5.9-3.1c0.2,0,0.5-0.1,0.7-0.1
		c0.4,0,0.2,0,0.4,0s0.7,0.1,0.5,0.1c0.1,0,0.8,0.4,0.5,0.2c0.1,0.1,0.3,0.2,0.4,0.3c-0.1-0.1-0.4-0.3,0,0c0.1,0.1,0.5,0.5,0.2,0.2
		c0.4,0.4,0.7,0.8,0.9,1.3c0.4,0.8,0.7,1.6,0.8,2.5c0.1,0.6,0,1.2-0.2,1.8c-0.2,0.2-0.1,0.1-0.1,0.1c-0.3,0.2,0.1,0-0.2,0.1
		c-0.1,0-0.1,0,0,0c0.3,0.2,0.6,0.4,0.8,0.6c0.2,0.2,0.3,0.4,0.4,0.6c0.2,0.4,0,0,0,0c0.2,0.2,0,0.3,0-0.1c0,0,0,0,0-0.2
		s0.1-0.4,0.2-0.6c1-2,2.3-3.8,4-5.3c1.6-1.8,3.5-3.2,5.6-4.2c0.7-0.4,1.5-0.6,2.3-0.5c1.2,0.1,1-1.4,0.7-2.1
		c-0.6-1.1-1.6-1.8-2.9-1.9c-2.7-0.2-5.4,1.8-7.4,3.5c-2.3,1.9-4.3,4.3-5.7,6.9c-1.3,2.6-0.8,5.7,2.2,7c1.1,0.5,2.7,0.7,3.7-0.2
		c0.8-0.8,1.1-1.9,1-3c-0.3-3.3-1.8-6.4-4.4-8.5c-2.4-2.2-5.8-2.9-8.9-1.7c-3,1.3-5.7,3.3-7.8,5.8c-1.7,1.8-3.7,4.2-3.9,6.8
		s3.4,5.9,6,4.5c2.5-1.3,2.1-5.5,1.7-7.7c-0.6-3.3-2.7-7.1-6-8.3c-2.3-0.8-4.8,0.1-6.9,1.2c-2.7,1.5-5.2,3.3-7.4,5.4
		c-2,1.7-3.6,3.8-4.7,6.1c-1.1,2.6,0.6,5.3,3.2,6.1c3.2,1,4.7-2.4,5-5c0.5-3.9-1-8.2-4.3-10.5c-2.3-1.6-4.7-1.1-6.9,0.4
		c-4.1,2.9-7,7.7-9.6,11.9c-0.2,0.4-0.5,0.8-0.7,1.2C132.1,188.9,136,192,137.1,190L137.1,190z" fill="#000005"></path><path class="st0" d="M206.5,175.9c1-2.3,2.2-4.5,3.5-6.6c0.9-1.6,2.1-3,3.3-4.3c0.6-0.5,1.1-0.9,1.8-1.3c-0.3,0.2-4,0.8-1.5,0.3
		l-1.4,0.3h0.1c0.1,0,0.2,0.1,0.3,0.1c0.3,0.1,0.6,0.3,0.9,0.5c2.2,1.8,2.4,5.9,1.9,8.5c-0.1,0.5-0.2,1.1-0.5,1.5
		c-0.5,0.8-1.6,0.6,1.8-0.1s2.4,0,1.7-0.7s-0.3-2.5,0-3.5c0.6-1.9,1.7-3.6,3-5c0.6-0.7,1.3-1.2,2.1-1.7c0.5-0.3,0.5-0.2-1,0.1
		c-1,0.2-1.6,0.1-1.2,0.3c0.4,0.1,0.8,0.3,1.1,0.5c0.5,0.4,1.9,0,2.5-0.1c0.6-0.1,1.2-0.3,1.7-0.5c0.1,0,0.8-0.3,0.7-0.4
		c-0.7-0.6-1.7-0.9-2.6-0.8c-1.8,0.1-3.6,0.5-5.2,1.2c-1.9,1-3.5,2.5-4.5,4.4c-0.9,1.5-2,3.5-1.8,5.3c0,0.6,0.3,1.1,0.9,1.4
		c0.3,0.1,0.7,0.2,1.1,0.1c1.3-0.1,2.6-0.4,3.8-0.8c1.4-0.6,1.5-2.4,1.6-3.8c0.1-2-0.2-3.9-1.1-5.7c-1.1-2.1-2.9-2.3-5.1-1.9
		c-2.6,0.3-5,1.5-6.6,3.5c-2.5,3.1-4.6,6.5-6.1,10.2c0.8,0,1.7,0,2.5-0.1C204.6,176.6,206.2,176.4,206.5,175.9L206.5,175.9z" fill="#000005"></path><path class="st2" d="M94.9,197.1l3.3,4.3c0.9,1.2,1.9,2.7,3.6,2.8s2.7-1.5,3.6-2.6s1.9-2.6,2.9-3.9c3.8-5.4,7.1-11,10.1-16.9
		c0.4-1.1,0.2-2.4-0.7-3.2c-0.5-0.6-2.1-1.5-2.6-0.4c-2.6,5.1-5.5,10.1-8.7,14.8c-1.6,2.3-3.2,4.6-5,6.9c-0.2,0.2-0.4,0.4-0.6,0.7
		l-0.3,0.2c0.5,0.4,0.7,0.4,0.4,0.1c-0.4-0.6-0.8-1.2-1.3-1.7l-2.9-3.7c-0.6-0.7-2-1.3-2.6-0.4S94.2,196.4,94.9,197.1L94.9,197.1z" fill="#3560ba"></path><path class="st2" d="M94.5,276.5l3.2,4.3c0.8,1.3,1.7,2.5,2.8,3.6c1.7,1.3,4,0.5,5.3-1c0.9-1.3,1.8-2.6,2.6-4
		c3.6-5.6,7.6-10.8,12-15.7c0.6-0.8,0.5-1.9-0.2-2.5c-0.1-0.1-0.3-0.2-0.4-0.3c-1.2-0.5-2.6-0.2-3.4,0.8c-2.8,3.1-5.4,6.3-7.9,9.7
		c-1.2,1.7-2.4,3.3-3.5,5.1c-0.6,0.9-1.1,1.8-1.7,2.7c-0.3,0.5-0.6,0.9-0.8,1.4c-0.1,0.2-0.2,0.4-0.4,0.6c-0.5,0.6-0.1,0.5,1.2-0.1
		l1,0.5c-0.8-0.6-1.8-2.3-2.5-3.2l-2.8-3.8c-0.8-1-2.2-1.3-3.3-0.7C94.6,274.2,93.7,275.5,94.5,276.5L94.5,276.5z" fill="#3560ba"></path><path class="st2" d="M102.4,348c1,0.4,1.9,1.1,2.6,1.8c0.3,0.3,3,2.6,3.4,1.8c3.5-7.1,7.7-13.9,12.4-20.3c0.7-0.9-3.3-3.9-4-3
		c-4.7,6.4-8.9,13.2-12.4,20.3l3.4,1.8c-1.9-2-4.1-3.7-6.7-4.9c-0.4-0.2-1.7-0.7-1.3,0.3C100.4,346.8,101.3,347.6,102.4,348
		L102.4,348z" fill="#3560ba"></path><path class="st2" d="M37.4,102.7H38c0.3,0,0.1,0-0.4,0l0.7,0.1c-0.8-0.1-0.3,0-0.1,0l0.4,0.1c0.2,0,0.5,0.2-0.1,0
		c0.1,0,0.2,0.1,0.4,0.1s0.4,0.2,0.7,0.3l0.2,0.1c-0.2-0.1-0.3-0.1-0.1-0.1l0.3,0.2c0.4,0.2,0.9,0.5,1.3,0.8c0.5,0.3,1,0.4,1.5,0.4
		c0.6,0.1,1.3,0.1,1.9-0.1c0.3-0.1,1-0.2,1.2-0.5s0-0.5-0.2-0.7c-2.4-1.7-5.2-2.6-8.1-2.5c-0.6,0-1.2,0.1-1.8,0.2
		c-0.2,0.1-0.8,0.3-0.7,0.6s0.4,0.5,0.7,0.6C36.2,102.7,36.8,102.8,37.4,102.7L37.4,102.7z" fill="#3560ba"></path><path class="st2" d="M46.8,90.9l5,7.2c0.3,0.6,0.8,1,1.5,1.3c0.5,0.2,1.1,0.2,1.7,0c1-0.6,1.4-1.8,0.8-2.8c0-0.1-0.1-0.1-0.1-0.2
		l-5-7.2c-0.4-0.5-0.9-0.9-1.4-1.2c-0.5-0.2-1.1-0.2-1.7,0c-1,0.6-1.4,1.8-0.8,2.8C46.7,90.9,46.8,90.9,46.8,90.9L46.8,90.9z" fill="#3560ba"></path><path class="st2" d="M195,87.1c0,0,0.7,29.2-0.8,29.5s-67.6,13.8-70.1,13.1s-21.1-39-18.3-40.2s35.1-7.8,35.1-7.8
		s-17.6-20.1,0-29.9s34.7,2.3,28.8,22.7c0,0,28.1-10.7,29.6-8c1.5,2.7,10,18.5,10,18.5L195,87.1z" fill="#3560ba"></path><path class="st2" d="M192.6,86.5c0.1,5.9,0.2,11.7,0.1,17.6c0.1,3.3-0.1,6.6-0.4,9.8c-0.1,0.4-0.1,0.8-0.2,1.2
		c-0.2,0.8-0.1-0.1,0.2,0.1c-0.1-0.1-0.9,0.2-1.1,0.2c-13.1,2.7-26.3,5.3-39.4,7.8c-7.2,1.4-14.5,2.8-21.8,4h-0.2l-0.5,0.1l-0.8,0.1
		l-1.7,0.3c-0.9,0.1-1.8,0.3-2.6,0.4l-0.8,0.1c-0.1,0-0.2,0-0.3,0c-0.4,0.1,0.6,0.1,0.2,0c0.7,0.1,1.4,0.4,2,0.8
		c0.1,0,0.4,0.4,0.1,0.1c-0.1-0.1-0.2-0.2-0.3-0.4s-0.3-0.4,0,0.1l-0.3-0.4c-3.9-5.7-6.9-12.2-9.8-18.4c-1.7-3.6-3.3-7.3-4.8-11
		c-1-2.3-1.8-4.8-2.3-7.3c-0.1-0.3-0.1-0.7-0.1-1c0,0.3,0-0.1,0-0.1c0,0,0-0.1,0.1-0.1c-0.7,0.4-0.1,0.1-0.1,0.1
		c-0.7,0.2,0.3-0.1,0.5-0.1c0.5-0.2,1-0.3,1.5-0.4c3.3-0.9,6.7-1.6,10.1-2.3c7.1-1.6,14.2-3,21.4-4.5l1.3-0.3c0.9-0.2,0.6-1,0.2-1.5
		c-0.1-0.2-0.3-0.3-0.4-0.5l-0.5-0.6l-0.3-0.3l-0.1-0.2c-1.2-1.6-2.2-3.3-3.1-5c-2.2-4.2-3.9-9.3-2.4-14c1.9-6.2,8.6-9.6,14.5-10.8
		c2.7-0.6,5.5-0.6,8.1,0.1c2.2,0.6,4.1,1.8,5.6,3.4c5,5.3,5.1,13.2,3.2,19.8c-0.4,1.6,3,2.7,4.1,2.3c6.2-2.4,12.5-4.6,18.8-6.4
		c1.9-0.6,3.9-1.1,5.8-1.5c0.6-0.2,1.3-0.3,1.9-0.3c0.3,0,0.6-0.1,0.9-0.1c0.6,0-0.2-0.1,0.3,0c-0.1,0-0.6-0.1-0.3,0
		c-0.6-0.1-1.1-0.4-1.6-0.8c-0.5-0.4-0.4-0.4-0.1,0.1l1.1,2c1.1,2,2.2,4,3.2,6c1.8,3.3,3.6,6.7,5.4,10.1l0.9-1.2l-14.3,2.1
		c-1,0.1-1.3,0.8-0.6,1.5c0.9,0.9,2,1.4,3.3,1.3l14.3-2.1c0.7-0.1,1.3-0.4,0.9-1.2c-1.6-3-3.2-6.1-4.9-9.1c-1.2-2.2-2.3-4.3-3.5-6.5
		c-0.7-1.3-1.3-3-2.5-3.9c-3-2.3-7.6-0.8-10.9,0c-4.5,1.2-9,2.7-13.4,4.2c-2.8,1-5.6,2-8.4,3.1l4.1,2.3c1.9-6.7,1.8-14.3-2.5-20.1
		c-4.1-5.5-10.9-8.4-17.6-8.4c-3.6,0.1-7.2,0.9-10.5,2.4c-3.3,1.5-6.5,3.5-8.6,6.5c-3.3,4.9-2.3,11-0.2,16.1c1.5,3.6,3.6,7,6.2,9.9
		l0.2-1.5c-5.8,1.2-11.5,2.4-17.3,3.7c-4,0.9-8.1,1.7-12.1,2.7c-1.4,0.3-2.7,0.6-4.1,1c-0.7,0.1-1.5,0.4-2.1,0.8
		c-1.2,1.2,0.3,4.4,0.7,5.6c1.2,3.5,2.6,6.9,4.1,10.3c3.1,7.3,6.7,14.3,10.7,21.2c1.2,2,2.4,4.4,4.7,5.2c1.6,0.6,3.4,0.3,5.1,0
		c6.5-1,12.9-2.2,19.3-3.4c8.5-1.6,16.9-3.2,25.3-4.9c6.4-1.3,12.8-2.6,19.2-3.9c1.2-0.1,2.3-0.4,3.4-0.7c0.8-0.3,0.9-1.2,1-2
		c0.2-1.5,0.3-3,0.3-4.4c0.3-7.4,0.2-14.8,0-22.3c0-0.5,0-1.1,0-1.6C197.3,86.1,192.6,84.7,192.6,86.5z" fill="#3560ba"></path><path class="st0" d="M149.4,59.5c0,0-5.8,2.5-2.9,8.5s13,4,12.2-1.9S153.4,58.6,149.4,59.5z" fill="#000005"></path><path class="st0" d="M198.1,115.5c0.8-11.3,1.5-22.7,1.6-34.1c0.1-2.7,0-5.5-0.3-8.2c-0.2-1.3-5.2-0.8-5,0.4
		c0.3,2.3,0.4,4.6,0.3,6.9c0,3.5-0.1,7-0.2,10.6c-0.3,6.8-0.6,13.6-1.1,20.3c-0.1,1.5-0.2,3-0.3,4.4C193,117,198,116.9,198.1,115.5
		L198.1,115.5z" fill="#000005"></path></g><g id="hand"><path class="st1" d="M307.8,198c0,0-11.5-11.9-22-6.1s-32.9,61-25.5,61.5c7.3,0.5,27.2-7.6,31.7-13.6s4.3-21.1,4.3-21.1L301,230
		l53.4-40c0,0-9.8-18.3-10-33.3c-0.2-13.1-14.8-24.5-18.6,0c-1,6.6-0.9,13.2,0.3,19.8l1.7,9.9C327.8,186.3,305.2,172.5,307.8,198z"></path><path class="st0" d="M309.3,196.4c-3.5-3.7-8-6.4-12.9-7.8c-5.7-1.5-11.5-0.2-15.5,4.2c-3.1,3.6-5.7,7.6-7.9,11.9
		c-2.8,5.2-5.4,10.5-7.7,16c-2.3,5.4-4.4,10.8-6.1,16.4c-1.4,3.9-2.3,7.9-2.7,12c-0.2,1.6,0,3.2,0.8,4.7c1,1.7,2.6,2.1,4.5,2.1
		c6.6-0.3,13.3-3,19.3-5.7c5.4-2.5,11.9-5.7,14.5-11.5s3-12.3,3.1-18.4c0-0.4,0-0.9,0-1.3l-4.5,0.3l4.7,11.2
		c0.5,1.1,2.2,2.6,3.5,1.6l18.1-13.6l28.7-21.5l6.6-4.9c1-0.7,1.3-2.1,0.6-3.1c0,0,0,0,0,0c-0.2-0.4-0.5-0.9-0.7-1.3l-0.4-0.7
		c-0.3-0.6,0.1,0.2-0.2-0.5s-0.6-1.4-1-2.1c-1.8-3.9-3.3-7.9-4.6-12c-1.5-4.6-2.5-9.4-2.8-14.2c0-3.2-0.6-6.4-1.9-9.4
		c-2.1-4.6-6.9-10.3-12.6-8.5c-3,0.9-5,3.6-6.3,6.4c-2,4.9-3.1,10.1-3.1,15.3c-0.4,8.2,1.2,16.1,2.6,24.2l3.3-1.8
		c-6.2-3.8-17.1-7.2-21.6,0.7c-2.1,3.8-2,8.6-1.6,12.8c0.3,2.8,5,3.4,4.7,0.3c-0.2-2-0.3-4-0.1-5.9c0.1-1.3,0.4-2.6,0.9-3.9
		c0.1-0.3,0.2-0.5,0.4-0.8c0.1-0.1,0.6-0.9,0.2-0.4c0.3-0.4,0.7-0.8,1.1-1.2c0.2-0.2-0.3,0.2,0.1-0.1c0.2-0.1,0.4-0.3,0.6-0.4
		l0.6-0.3c0.3-0.1-0.5,0.2,0,0c0.1,0,0.3-0.1,0.4-0.1c0.4-0.1,0.9-0.2,1.3-0.2c0.5-0.1-0.4,0-0.1,0h0.4h0.8c0.5,0,0.9,0.1,1.4,0.1
		c0.1,0,1,0.2,0.3,0l0.8,0.2c1,0.2,1.9,0.5,2.8,0.9l1.2,0.5l0.5,0.2c0.4,0.2-0.5-0.2-0.2-0.1l0.3,0.1c0.9,0.4,1.7,0.9,2.6,1.4
		c1.4,0.8,3.6,0.1,3.3-1.8c-1-5.8-2.3-11.6-2.6-17.6c-0.4-5.6,0.2-11.3,1.7-16.8c0.5-1.6,1.1-3.2,2-4.6c0.3-0.5,0.6-1,1-1.4l0.5-0.5
		l0.3-0.3c0.1-0.1-0.3,0.2,0.1-0.1l0.6-0.4c0.5-0.3-0.2,0,0.2-0.1l0.7-0.1c0.5-0.1-0.4,0-0.1,0h0.4c0.2,0,0.9,0.1,0.2,0
		c0.2,0,0.4,0.1,0.7,0.2s0.9,0.4,0.2,0.1c0.2,0.1,0.5,0.2,0.7,0.4l0.7,0.5c-0.6-0.4,0.1,0.1,0.2,0.2l0.6,0.6
		c0.1,0.2,0.7,0.8,0.3,0.3c0.4,0.5,0.7,0.9,1,1.4c0.2,0.3,0.4,0.6,0.5,0.9l0.2,0.4c0.3,0.5-0.1-0.3,0.1,0.2c0.3,0.6,0.5,1.2,0.7,1.8
		c0.1,0.4,0.2,0.7,0.3,1c0,0.2,0.3,1,0.2,0.7c0.3,1.6,0.4,3.2,0.4,4.9c0.3,4.8,1.3,9.6,2.7,14.2c1.9,6.5,4.5,12.8,7.7,18.8l0.6-3.1
		l-18.1,13.6L306.2,223l-6.6,4.9l3.5,1.6l-4.7-11.2c-0.9-2.2-4.6-2.7-4.5,0.3c0.1,4.4-0.4,8.8-1.3,13.1c-0.3,1.4-0.7,2.8-1.3,4.2
		c-0.4,1.1-1,2-1.8,2.9c-1.9,1.9-4,3.5-6.4,4.6c-5.7,3.2-11.8,5.6-18.1,7.1c-0.7,0.1-1.3,0.3-2,0.4l-0.8,0.1c-0.1,0-1,0.1-0.6,0.1
		c-0.5-0.1-1-0.1-1.5,0c-0.2,0.1,0.6,0.2,0.3,0.1s0.7,0.4,0.3,0.1c-0.2-0.1,0.6,0.5,0.3,0.2s0.5,0.7,0.2,0.3s0.3,0.7,0,0
		s0,0.5,0-0.1c0-0.3,0-0.5-0.1-0.8s0-1.2,0-0.5c0-0.4,0.1-0.8,0.1-1.1c0.1-0.8,0.2-1.6,0.4-2.4c0.4-2,0.9-4,1.5-6
		c1.5-4.9,3.2-9.8,5.2-14.5c2.1-5.2,4.5-10.3,7-15.4c1.2-2.3,2.5-4.6,3.8-6.9c0.6-1,1.2-2,1.8-3c0.3-0.4,0.5-0.9,0.8-1.3l0.5-0.6
		c0-0.1,0.2-0.4,0,0c0.1-0.1,0.2-0.3,0.3-0.4c1-1.4,2.1-2.7,3.3-3.9c0.2-0.2,0.5-0.4,0.8-0.7s-0.4,0.2,0,0s0.3-0.2,0.5-0.3
		c1.4-0.8,2.9-1.3,4.4-1.4c3-0.1,5.9,0.6,8.5,2.1c1.2,0.7,2.4,1.4,3.6,2.3l0.4,0.3c-0.1-0.1-0.4-0.3,0,0l0.6,0.5
		c0.3,0.3,0.7,0.6,1,0.9s0.6,0.5,0.9,0.8c0.7,1,2.1,1.2,3.1,0.4c1-0.7,1.2-2.1,0.4-3.1C309.7,196.7,309.5,196.5,309.3,196.4
		L309.3,196.4z"></path><path class="st2" d="M244.6,266.2c0,0,204.9-154.4,209.1-154.5s12.9,10.1,12,14.6c-0.9,4.5-204.8,156.7-207.3,157.6
		s-30.1,7.6-30.1,7.6L244.6,266.2z"></path><path class="st2" d="M245.5,267.8l6.3-4.8l17-12.8c8.3-6.2,16.6-12.5,24.9-18.7c10-7.5,20-15,30-22.5c10.7-8,21.5-16,32.2-24.1
		c10.6-7.9,21.3-15.8,31.9-23.7c9.5-7,18.9-14,28.4-21c7.4-5.4,14.9-10.8,22.3-16.2c4.5-3.2,8.9-6.4,13.5-9.4c0.5-0.3,1.1-0.7,1.6-1
		c0.2-0.1,0.4-0.2,0.5-0.3s0.4,0,0-0.1c2.5,0.3,4.8,2.6,6.4,4.4c1.2,1.4,2.3,2.9,3.1,4.6c0.3,0.6,0.5,1.2,0.7,1.8
		c0,0.2,0.1,0.6,0.1,0.8c0-0.1,0,0.3,0,0.3c-2-1.7,0.2-0.1,0-0.2s0.3-0.3,0,0c-0.1,0.1-0.3,0.3-0.4,0.4c-0.4,0.5-0.9,0.9-1.4,1.3
		c-1.6,1.5-3.3,2.8-5,4.2c-2.5,2-4.9,3.9-7.5,6c-3.3,2.7-6.7,5.3-10,7.9c-8.4,6.6-16.9,13.1-25.4,19.6
		c-10.1,7.8-20.3,15.5-30.5,23.2c-10.8,8.2-21.6,16.3-32.4,24.4c-10.5,7.9-21.1,15.8-31.6,23.7c-9.3,6.9-18.6,13.9-28,20.8
		c-7.1,5.3-14.2,10.5-21.4,15.8c-4,2.9-8,5.9-12,8.7c-0.7,0.6-1.5,1-2.3,1.3c-5.5,1.6-11.2,2.9-16.8,4.2c-4.1,1-8.1,2-12.2,3
		l1.6,3.2l14.2-22l2.1-3.2c0.8-1.3-1.3-4.3-2.2-2.9l-14.2,22l-2.1,3.2c-0.6,0.9,0.2,3.6,1.6,3.2c4.4-1.1,8.8-2.1,13.2-3.2
		c5.5-1.4,11.1-2.6,16.6-4.2c0.8-0.3,1.6-0.7,2.2-1.3c1.6-1.1,3.2-2.3,4.8-3.5c5.8-4.2,11.6-8.5,17.4-12.8
		c8.5-6.3,17-12.6,25.5-18.9c10.2-7.6,20.3-15.2,30.5-22.8c10.9-8.2,21.8-16.3,32.6-24.5c10.7-8,21.3-16.1,31.9-24.2
		c9.4-7.1,18.8-14.3,28.1-21.5c7.2-5.6,14.4-11.1,21.5-16.8c4.1-3.3,8.3-6.5,12.1-10.1c1.2-1.1,1.9-1.8,1.8-3.6
		c-0.2-3.7-2.8-7.3-5.2-10c-1.3-1.5-2.8-2.8-4.4-4c-1.2-1-2.6-1.6-4.2-1.8c-1,0.2-2,0.6-2.7,1.3c-1.8,1.1-3.5,2.3-5.2,3.5
		c-6.1,4.2-12,8.6-18,12.9c-8.6,6.3-17.2,12.5-25.7,18.9c-10.2,7.5-20.4,15.1-30.6,22.7c-10.9,8.1-21.8,16.2-32.7,24.4
		c-10.6,7.9-21.2,15.8-31.7,23.8c-9.3,7-18.7,14-28,21l-21.5,16.1l-12,9l-1.5,1.2C242.5,265.5,244.3,268.8,245.5,267.8z"></path><path class="st1" d="M370.8,204.4c0,0,89.2,75.6,88.5,91.5c-1.9,48.1-50.8,57.3-50.8,57.3s-37.1-43.1-42.2-44.8c0,0-13,7.6-33,2.4
		s-46.2-16-60.6-25.6s-16.9-27,0-26.6s34,8.1,40.7,4.6s1.4-17,1.4-17"></path><path class="st0" d="M368.5,205.2c1.9,1.6,3.8,3.2,5.7,4.9c4.8,4.2,9.7,8.4,14.4,12.6c6.5,5.8,13,11.6,19.3,17.5
		c6.8,6.3,13.6,12.8,20.2,19.4c5.9,5.9,11.7,11.9,17.2,18.2c3.8,4.4,7.7,9,10.3,14.2c0.8,1.5,1.3,3.2,1.3,4.9
		c-0.2,5.7-1.2,11.4-3,16.9c-3,9-8.3,17-15.4,23.3c-3,2.7-6.2,5.1-9.7,7.2c-1.5,0.9-3,1.8-4.6,2.6c-0.8,0.4-1.5,0.8-2.3,1.1
		l-1.1,0.5l-0.3,0.1l-0.6,0.2c-1.3,0.6-2.7,1.1-4.1,1.6c0,0,0.4-0.1-0.1,0l-0.4,0.1l-0.9,0.3c-0.5,0.2-1.1,0.4-1.6,0.5l-0.7,0.2
		c0.8-0.2,0.1,0-0.2,0l-1.2,0.3l-1,0.2c-0.5,0.1,0.7-0.1,0.2,0l-0.3,0.1l-0.6,0.1h1.9c-7.6-8.8-15.3-17.6-23.2-26.2
		c-4.8-5.1-9.6-10.4-14.8-15.2c-1.2-1.1-2.6-2.7-4.2-3.3c-1.1-0.4-2.8,0.1-3.8,0.6c-0.2,0.1-1.3,0.7-0.5,0.2
		c-0.1,0.1-0.2,0.1-0.3,0.1l-1,0.5c-0.5,0.2,0.3-0.1-0.3,0.1l-1,0.4l-0.5,0.2l-0.2,0.1l-1.2,0.4c-0.7,0.2,0.5-0.1-0.2,0.1l-0.7,0.2
		l-1.1,0.3c-2.4,0.5-4.9,0.8-7.4,0.9c-6.6,0.2-13-1.1-19.4-3c-12.7-3.7-25.1-8.3-37.1-13.9c-5.4-2.5-10.6-5.2-15.7-8.2
		c-4.5-2.7-8.7-5.8-11.7-10.2c-2.2-3.3-4-7.5-3.2-11.5c0.3-1.6,1.1-3.1,2.4-4.2c0.5-0.4,1.1-0.8,1.7-1.1c-0.4,0.1,0.5-0.1,0,0
		c0.8-0.2-0.4,0,0.4-0.1c0.5-0.1,1.1-0.1,1.6-0.1c6.9-0.2,14,1.4,20.6,2.8c5.5,1.2,11.2,2.8,16.9,2.7c4.2,0,9.8-1.2,11.4-5.7
		c1.2-3.6,0.4-7.8-0.6-11.3c-0.2-0.8-0.5-1.6-0.8-2.4s-5,0.7-4.8,1.3c1.4,3.7,2.5,8.1,1.9,12c-0.2,1.3-0.7,2.5-1.5,3.5
		c-0.4,0.4-0.8,0.7-1.2,1c-0.3,0.2,0.1,0,0.3-0.1s0,0-0.1,0c-3.2,0.3-6.6-0.4-9.8-1c-8.9-1.8-17.7-4.1-26.9-4.4
		c-5.4-0.2-13.7,1-15.9,6.8c-2,5.1,0.9,10.9,4.1,14.9c4.5,5.6,11.1,9.1,17.3,12.4c15.3,8,31.4,14.4,48,18.9c8,2.4,16.5,3.1,24.9,1.9
		c4.9-0.7,9.7-2.1,14.1-4.2c0.3-0.1,0.6-0.3,0.9-0.5l-4.5,1c1,0.4,1.8,1,2.6,1.8c1.5,1.3,2.9,2.6,4.2,4c3.9,3.9,7.7,7.9,11.4,12
		c7.2,7.9,14.3,15.9,21.3,24c0.7,0.8,1.5,1.7,2.2,2.5s1.4,0.5,2.4,0.4c2.1-0.4,4.2-1,6.2-1.6c8.6-2.6,16.7-6.7,24-12
		c10-7.3,17.4-17.7,21-29.6c1-3.6,1.8-7.3,2.1-11c0.2-2,0.6-4.1,0.1-6c-0.9-2.8-2.2-5.4-4-7.6c-5.5-8-12.4-15.1-19.1-22.1
		c-8.6-8.7-17.4-17.2-26.4-25.6c-8.1-7.5-16.3-14.9-24.6-22.2c-4.5-4-9.1-7.9-13.6-11.8l-0.6-0.6c-0.6-0.5-2.5,0.2-3.1,0.4
		C369.8,204.1,368,204.7,368.5,205.2L368.5,205.2z"></path><path class="st0" d="M312,199c-2.3-1.9-4.7-3.8-7.1-5.5c-0.7-0.5-1.4-1-2.2-1.5c-0.9-0.6-1.9-1.1-2.9-1.4c-0.3-0.2-0.8-0.2-1.1-0.1
		c-0.3,0-0.5,0.3-0.4,0.6c0.1,0.5,0.3,0.9,0.6,1.3c0.4,0.6,0.8,1.2,1.3,1.7c1.3,1.4,2.7,2.7,4.3,3.9c1.2,1,2.6,1.7,4,2.3h0.1
		l-1.1-0.5l0.2,0.1l-1.3-0.8c0.2,0.1,0.5,0.3,0.7,0.4l-1.5-1c1.6,1.1,3.1,2.3,4.6,3.5l-1.6-1.2l1.1,0.9c1.3,1.2,2.8,2.2,4.4,3
		c0.5,0.3,1,0.5,1.6,0.6c0.3,0.1,0.7,0.1,1-0.1l0.1-0.5c-0.2-0.7-0.5-1.3-0.9-1.9C314.7,201.4,313.4,200.1,312,199z"></path></g></svg>