<svg transform="scale(1)" version="1.1" id="uZBq7NPPf1" xmlns="http://www.w3.org/2000/svg" xmlns:xlink="http://www.w3.org/1999/xlink" x="0px" y="0px" viewBox="0 0 500 500" xml:space="preserve" class="pbimage_pbimage__wrapper__image__0LEis false"><title>Order Completed</title><style type="text/css"> .st0{fill:#FFFFFF;} .st1{fill:#000005;} .st2{fill:#59BE4C;}
 .st2{fill:#000000;}
 .st1{fill:#2828bc;}
 .st0{fill:#FFFFFF;}</style><g id="hand"><path class="st0" d="M265.3,185.6c-9.1,0.6-18.2-0.4-27-2.8c-11.9-3.2-19-24.9-19-24.9s-38.6-30-11.9-35.2c0,0-6.1-21.2,15.7-18.4
		c0,0,1.2-24.2,17.9-12s17.1,15.2,17.1,15.2s22.6-45.4,32.5-34.5s-3.6,24.3-2.3,44s15.4,64.1,15.4,64.1L265.3,185.6z" fill="#FFFFFF"></path><path class="st1" d="M265.1,184.4c0.2,0,0.3,0,0.5,0C265.4,184.4,265.2,184.4,265.1,184.4c-0.7,0-1.3,0.1-1.9,0.1
		c-2.2,0.1-4.4,0-6.5-0.1c-3.3-0.2-6.6-0.6-9.9-1.2c-3-0.5-6.3-1-9.1-2.4c-4.1-2.1-7.1-6-9.6-9.9c-2.1-3.4-3.9-7-5.4-10.7
		c-0.5-1.2-0.7-2.7-1.8-3.5c-1.6-1.3-3-2.5-4.4-3.7c-5.1-4.6-10.2-9.6-13.7-15.5c-1.3-2.3-2.6-5.2-2.4-7.8c0.1-1.1,0.6-2.2,1.4-3.1
		l0.3-0.3c0.2-0.2,0.1-0.1,0.1-0.1c0.3-0.3,0.7-0.5,1-0.7c0.3-0.2,0.1,0,0.2-0.1l0.5-0.3l0.6-0.2c0.1-0.1,0.2-0.1,0.3-0.1
		c0.5-0.2,1-0.3,1.5-0.5l0.7-0.2c0.3-0.1,0.1,0,0,0l0.5-0.1c0.6-0.1,2.6-0.6,2.3-1.6c-0.6-2.1-0.8-4.3-0.8-6.5c0-1.8,0.3-3.6,1-5.3
		c0.7-1.7,1.9-3.2,3.5-4.1l0.7-0.3l0.4-0.2c-0.4,0.2,0.2-0.1,0.2-0.1c0.6-0.2,1.2-0.3,1.8-0.4c1.8-0.2,3.5-0.2,5.3,0.1
		c1.1,0.1,3.5-0.2,3.6-1.7c0-0.1,0-0.3,0-0.4s0-0.3,0-0.5s0,0.3,0-0.1c0-0.1,0-0.3,0-0.4c0.2-1.3,0.4-2.6,0.7-3.8
		c0.4-1.6,1-3.1,1.7-4.5c0.3-0.7,0.7-1.3,1.1-1.8c0.4-0.5,0.9-1,1.4-1.4c0.1-0.1,0.3-0.2,0.5-0.3s-0.1,0.1-0.1,0.1
		c0.1-0.1,0.2-0.1,0.3-0.2c0.4-0.2,0.1-0.1,0.1-0.1l0.6-0.2c-0.7,0.2-0.1,0,0.1,0c0.4,0-0.5,0-0.1,0h0.3c0.4,0-0.3-0.1,0.2,0
		c0.3,0,0.5,0.1,0.8,0.1c2.1,0.4,4.7,2.2,6.7,3.7c4.7,3.3,9.1,6.9,13.3,10.9c0.8,0.8,1.6,1.7,2.2,2.6c0.1,0.1,0.4,0.7,0.2,0.4
		s0-0.1,0,0c0.1,0.9,1.7,0.9,2.3,0.9c1,0,2-0.5,2.6-1.3c3.2-6.5,6.8-12.7,10.8-18.8c2.8-4.5,6.1-8.7,9.8-12.5c0.7-0.7,1.5-1.4,2.3-2
		c0.4-0.3,0.7-0.5,1.1-0.8c0.1-0.1,0.7-0.4,0.4-0.3s0.4-0.2,0.5-0.2l0.5-0.2c-0.2,0.1-0.3,0.1,0.1,0c0.2-0.1,0.8-0.1,0,0
		c0.3,0,0.9,0,0.1,0c0.2,0,0.3,0,0.5,0c-0.8-0.1-0.2,0,0,0c0.6,0.1-0.4-0.1,0.1,0s0.4,0.2,0.2,0.1c0.8,0.4,1.4,1,1.9,1.7
		c1,1.2,1.8,2.6,2.3,4.1c0.8,3,0.9,6.1,0.1,9.1c-0.7,3.6-1.9,7.1-2.9,10.6c-1.2,4-2,8.1-2.5,12.3c-0.6,6.8,0.5,13.5,1.8,20.1
		c1.4,7.1,3.1,14.1,4.9,21c1.7,6.3,3.4,12.7,5.3,19c1,3.4,1.9,7,3.2,10.4c0.1,0.1,0.1,0.3,0.1,0.5l2.3-1.6l-33.7,4.1L265.1,184.4
		c-0.7,0.2-2.4,0.7-2.2,1.7s2,0.9,2.7,0.8l33.7-4.1l4.7-0.6c0.6-0.1,2.6-0.7,2.3-1.6c-2.7-8.6-5.2-17.3-7.6-26
		c-2-7.2-3.8-14.5-5.3-21.9c-1.4-6.5-2.7-13.2-2.6-19.9c0.2-8.4,3.3-16.1,5.2-24.2c1.4-6,1.4-13.2-4-17.4c-3.6-2.8-8.7-0.9-11.9,1.5
		c-4.2,3-7.4,7.3-10.4,11.4c-5.1,7.3-9.7,15-13.7,22.9c-0.1,0.2-0.1,0.3-0.2,0.5l4.9-0.4c-0.2-1.2-1.5-2.4-2.2-3.1
		c-4-4.3-8.9-7.9-13.6-11.4s-10.2-6.7-16.1-4.1c-3.5,1.5-5.5,5-6.6,8.6c-0.8,2.5-1.2,5-1.4,7.6l3.5-1.7c-6.1-0.8-14.1-0.2-17.8,5.6
		c-2.2,3.4-2.5,7.8-2,11.7c0.1,0.9,0.3,1.8,0.6,2.7l2.3-1.6c-4.1,0.8-9,2.3-11,6.3c-1.5,3-0.4,6.4,0.9,9.2c3.4,7,9.5,12.7,15.2,17.8
		c1.6,1.4,3.2,2.8,4.9,4.1l-0.4-0.6c2,6,4.9,11.7,8.6,16.8c2.6,3.5,5.8,6.7,9.9,8.4c3.3,1.1,6.7,1.9,10.1,2.4c3,0.5,6.1,0.9,9.2,1.1
		c3.6,0.3,7.2,0.3,10.8-0.1c0.7-0.1,2.4-0.6,2.3-1.6S265.8,184.3,265.1,184.4z" fill="#2828bc"></path><path class="st0" d="M230.2,146c0,0,6.5,14.3-5.6,14.1s-41.7-22.8-26.2-32" fill="#FFFFFF"></path><path class="st1" d="M227.8,146.6c1.2,2.5,1.8,5.3,1.7,8.1c0,0.8-0.3,1.7-0.7,2.4c-0.1,0.2,0,0,0,0s-0.1,0.2-0.2,0.3
		c-0.1,0.1-0.2,0.2-0.2,0.3c0.1-0.1,0.3-0.3,0,0c-0.1,0.1-0.6,0.4-0.4,0.3s-0.9,0.4-0.3,0.1c-1,0.3-2,0.4-3,0.3
		c-0.4,0-0.9-0.1-1.3-0.2l-0.4-0.1c0.1,0,0.4,0.1,0,0l-0.8-0.2c-4.9-1.5-9.6-3.9-13.6-7.1c-4.1-3-8.1-6.7-10.6-11.2
		c-1.1-1.8-1.5-3.8-1.4-5.9c0-0.4,0.1-0.8,0.3-1.1c0.1-0.2,0.2-0.5,0.3-0.7l0.2-0.3c0.1-0.2-0.1,0.2,0.1-0.1s0.4-0.4,0.6-0.7
		c0.1-0.1,0.1-0.2,0.2-0.2c0.4-0.5-0.3,0.3,0.2-0.2c0.6-0.4,1.2-0.9,1.8-1.2c0.7-0.3,1-1.2,0.7-1.9c-0.1-0.2-0.2-0.4-0.4-0.5
		c-1-0.8-2.5-0.3-3.5,0.3c-2.3,1.2-4,3.3-4.9,5.7c-0.6,2.2-0.5,4.5,0.4,6.5c2.1,5.3,6.5,9.6,10.9,13.1c4.6,3.7,9.8,6.6,15.4,8.5
		c5,1.5,12.7,1.8,15.1-4c1.5-3.6,0.4-8.1-1.1-11.5c-0.6-1-1.8-1.4-2.9-1C229,144.6,227.3,145.6,227.8,146.6L227.8,146.6z" fill="#2828bc"></path><path class="st1" d="M233,130.8c1.9,1.9,3.4,4.1,4.5,6.6c0.4,0.8,0.6,1.6,0.7,2.5c0.1,0.6,0,1.3-0.4,1.9c0,0-0.4,0.5-0.5,0.5
		c-0.3,0.3-0.7,0.5-1.2,0.7c-0.1,0-0.7,0.3-0.3,0.1s-0.2,0-0.3,0.1c-0.4,0.1-0.7,0.2-1.1,0.2c0.4-0.1,0.1,0-0.1,0h-0.7
		c-0.4,0-0.9,0-1.3,0c0.4,0-0.1,0-0.2,0l-0.6-0.1c-0.5-0.1-0.9-0.2-1.4-0.3c-1.9-0.5-3.7-1.2-5.3-2.1c-4.1-2.3-7.5-5.4-10.2-9.3
		c-3.5-5-5.3-10.9-5.2-17c0.1-3-4.7-2.5-4.8,0.2c-0.2,12.1,6.2,23.4,16.6,29.5c3.8,2.2,8.4,3.9,12.8,3.4c5.1-0.6,9.8-4.4,8.6-9.9
		c-0.8-3.8-3.4-7.4-6-10.1C235,125.7,231,128.8,233,130.8L233,130.8z" fill="#2828bc"></path><path class="st1" d="M245.9,114.4c0.1,0.2,0.3,0.4,0.4,0.6s0.3,0.5,0.4,0.7c0.2,0.2,0.3,0.5,0.4,0.7c1,1.7,1.8,3.6,2.4,5.5
		c0.7,1.9,0.8,3.9,0.2,5.8c-0.3,0.9-0.9,1.7-1.7,2.2c-0.4,0.3-0.9,0.5-1.4,0.7l-0.2,0.1c-0.2,0.1-0.5,0.1-0.7,0.2l-0.5,0.1
		c-0.5,0.1,0.1,0-0.3,0s-0.9,0-1.3,0s0.3,0.1-0.2,0c-0.2,0-0.5-0.1-0.7-0.1l-0.6-0.1l-0.4-0.1c-0.4-0.1,0.4,0.1,0,0
		s-0.9-0.3-1.3-0.5l-0.7-0.3h0.1l-0.4-0.2c-0.9-0.5-1.8-1-2.6-1.6c-3.9-2.9-6.9-6.9-8.7-11.4c-2.5-6.5-2.7-13.6-0.6-20.2
		c0.6-2.1-4.1-3.8-4.7-1.8c-2.1,6.7-2.1,13.8,0.1,20.5c1.9,5.5,5.4,10.4,9.9,14.1c3.8,3,8.7,5.4,13.7,5.1c2.5-0.1,4.9-1.1,6.6-2.9
		c1.5-1.9,2.1-4.3,1.7-6.6c-0.7-4.1-2.4-8-4.9-11.4c-0.8-1-2.1-1.5-3.3-1.2c-0.7,0.1-1.2,0.7-1.1,1.4
		C245.6,114,245.7,114.2,245.9,114.4L245.9,114.4z" fill="#2828bc"></path><path class="st2" d="M214.2,81.6l-5.9-9.8c-0.8-1-2.2-1.2-3.3-0.7c-0.9,0.4-1.9,1.5-1.3,2.6l5.9,9.8c0.8,1,2.2,1.2,3.3,0.7
		C213.9,83.8,214.8,82.7,214.2,81.6L214.2,81.6z" fill="#000000"></path><path class="st2" d="M200.8,90.7c-1.9-1.8-4.4-3-7-3.3c-0.7-0.1-1.3,0-1.9,0.4c-0.5,0.3-0.9,0.8-1.1,1.4c-0.2,0.5-0.1,1.1,0.2,1.6
		c0.4,0.5,0.9,0.8,1.5,0.8c0.5,0.1,1,0.2,1.4,0.3l-0.6-0.2c0.8,0.2,1.7,0.6,2.4,1l-0.5-0.3c0.8,0.4,1.5,0.9,2.1,1.5
		c0.5,0.4,1.1,0.5,1.7,0.5c0.7-0.1,1.3-0.3,1.8-0.8c0.4-0.4,0.7-0.9,0.7-1.5l-0.1-0.6C201.4,91.2,201.1,90.9,200.8,90.7L200.8,90.7z
		" fill="#000000"></path></g><g id="box"><rect class="st0" x="251.6" y="189.4" transform="matrix(0.2487 -0.9686 0.9686 0.2487 19.515 497.7534)" width="158.1" height="93.7"></rect><path class="st2" d="M358.7,324.3l3.9-15.3l9.4-36.6l11.4-44.2l9.8-38.2l3.2-12.6c0.5-2,1.1-3.9,1.5-5.9c0-0.1,0-0.2,0.1-0.3
		c0.2-1-0.6-1.5-1.4-1.8l-9-2.3l-21.7-5.6l-26.1-6.7L317,149l-7.5-1.9c-1.2-0.3-2.4-0.7-3.5-0.9h-0.1c-1.5-0.2-2.9,0.7-3.3,2.2
		l-3.9,15.3l-9.4,36.6l-11.3,44.2l-9.8,38.2l-3.2,12.6c-0.5,2-1.1,3.9-1.5,5.9c0,0.1,0,0.2-0.1,0.3c-0.2,1,0.6,1.5,1.4,1.8l9,2.3
		l21.7,5.6l26.1,6.7l22.7,5.8l7.5,1.9c1.2,0.3,2.4,0.7,3.6,0.9h0.1c2.3,0.6,4.9-3.1,1.9-3.9l-9-2.3l-21.7-5.6l-26.1-6.6l-22.7-5.8
		l-7.5-1.9c-1.2-0.4-2.3-0.7-3.5-0.9h-0.2l1.4,1.7l3.9-15.3l9.4-36.6l11.4-44.2l9.8-38.2l3.2-12.6c0.5-2,1.1-3.9,1.5-5.9
		c0-0.1,0-0.2,0.1-0.3l-3.3,2.2l9,2.3l21.7,5.6l26.1,6.7l22.7,5.8l7.5,1.9c1.2,0.4,2.3,0.7,3.5,0.9c0,0,0.1,0,0.1,0l-1.4-1.8
		l-3.9,15.4l-9.4,36.5l-11.4,44.2l-9.8,38.2l-3.2,12.6c-0.5,2-1.1,4-1.5,5.9c0,0.1,0,0.2-0.1,0.3c-0.3,1.2,1,1.8,2,1.8
		C357.3,326.4,358.3,325.5,358.7,324.3z"></path><path class="st2" d="M273,254c1.4,0.6,2.9,1.1,4.3,1.4c2.6,0.7,5.1,1.4,7.7,2.1c7.8,2,15.6,4,23.4,5.9c9.2,2.3,18.4,4.5,27.6,6.7
		c8.2,1.9,16.3,3.9,24.5,5.9c4.6,1.1,9.3,2.2,13.8,3.4l0.6,0.2c1.9,0.6,5.2-3,2.6-3.8c-3.9-1.2-7.9-2-11.9-3
		c-7.8-1.9-15.7-3.8-23.5-5.7c-9.2-2.2-18.3-4.4-27.5-6.6c-8.1-2-16.2-4-24.3-6.1c-4.6-1.2-9.2-2.4-13.7-3.8c-0.5-0.2,0.3,0.1,0,0
		l-0.3-0.1c-1.1-0.4-2.4,0-3.1,0.9C272.8,251.9,271.9,253.4,273,254L273,254z"></path><path class="st2" d="M377.5,165.3c-1.2,5.9-3.1,11.7-4.6,17.6c-3.4,12.7-6.8,25.4-10.2,38.1l-12.3,45.5
		c-3.6,13.2-7.2,26.5-10.7,39.7c-1.9,6.9-3.8,13.9-5.5,20.8c0,0.2-0.1,0.4-0.1,0.6c-0.2,1.2,1,1.8,2,1.7c1.3-0.1,2.3-1,2.7-2.2
		c1.2-5.9,3.1-11.7,4.6-17.5c3.4-12.7,6.8-25.4,10.2-38.1c4.1-15.2,8.2-30.3,12.3-45.5c3.6-13.2,7.1-26.5,10.7-39.7
		c1.9-6.9,3.8-13.9,5.5-20.8l0.1-0.6c0.2-1.2-1-1.8-2-1.7C378.9,163.2,377.9,164.1,377.5,165.3L377.5,165.3z"></path><path class="st2" d="M382.6,167c5.6-4.3,10.3-9.7,13.7-15.9c1.9-3.3,3.5-6.7,4.8-10.3c1.1-3,2.4-6.4,2-9.7c0-1.1-0.5-2.2-1.5-2.8
		c-1.6-0.8-3.7,0.5-5,1.4c-3.2,2.3-5.5,6-7.5,9.3c-2.1,3.4-4.1,6.9-5.8,10.5c-1.8,3.6-3.8,7.4-4.8,11.3c-0.4,1.7-0.7,3.7,0.2,5.4
		c0.6,1.3,2.2,1.8,3.5,1.1c3.6-1.4,5-4.7,5-8.3c0-4-0.8-8.2-1.2-12.2c-0.5-4.3-0.9-8.6-1.5-12.9c-0.4-3-1.4-7.1-4.9-7.8
		s-7,1.9-9.1,4.4c-5.2,6.1-4.6,14.4-2.5,21.6c1.1,3.9,2.5,7.7,4.1,11.4c0.6,1.4,1.3,3.6,2.7,4.5c1.7,1.1,4.1-0.8,5.2-2
		c2.3-2.7,2.6-6.7,0.6-9.7c-1-1.2-2.3-2.2-3.8-2.8c-1.8-0.9-3.7-1.7-5.6-2.3c-1.9-0.6-3.9-1.1-5.9-1.5c-1.1,0-2.2,0.4-2.9,1.2
		c-0.2,0.2-1.7,1.8-0.8,2c3.2,0.6,6.4,1.5,9.4,2.8c2.5,1.1,5.4,2.3,6.3,5.1c0.4,1.3,0.4,2.7,0.1,4c-0.1,0.3-0.4,0.8-0.4,1.1l1.8-0.9
		c-0.2-0.1-0.4-0.3-0.5-0.5c-0.5-0.7-0.8-1.4-1.1-2.1c-1.4-2.8-2.6-5.8-3.6-8.8c-2-5.9-3.9-12.5-2.2-18.7c0.4-1.4,1-2.8,1.8-4
		c0.4-0.6,1-1.5,1.7-1.7c2.9-0.8,4.6,2.9,5.1,5.1c0.6,3.1,1,6.3,1.2,9.5l1.2,10.8c0.3,2.9,1,5.9,0.5,8.9c-0.1,0.5-0.3,1-0.5,1.5
		l-0.1,0.1c-0.6,0.8,0,0.5,1.7-0.9c-0.1-0.1-0.4-0.2-0.6-0.4c-1.1-1-1-3-0.7-4.3c0.6-3.2,2.2-6.3,3.6-9.2s2.8-5.9,4.4-8.7
		c1.5-2.8,3.3-5.4,5.1-8c0.4-0.6,0.8-1.1,1.3-1.6c0.3-0.3,0.6-0.6,0.8-0.9l0.2-0.2c0.2-0.2,0.1-0.2-0.4,0.1c0-0.2,0.8,0.6,0.8,0.6
		c0.3,0.5,0.4,1,0.4,1.5c0.3,2.9-0.7,5.9-1.7,8.7c-1.2,3.3-2.6,6.5-4.3,9.6c-2.9,5.1-6.5,10.2-11.3,13.7c-0.5,0.3-2,1.5-1.5,2.2
		S382.2,167.3,382.6,167L382.6,167z"></path><rect class="st2" x="165.4" y="167.8" transform="matrix(0.9974 -7.219376e-02 7.219376e-02 0.9974 -17.1727 17.2495)" width="129.2" height="156.8"></rect><path class="st0" d="M291.1,189.3c-4.3,0.3-8.7,0.3-13.1,0.4c-9.7,0.3-19.3,0.6-29,0.9c-11.8,0.4-23.6,0.9-35.4,1.5
		c-10.9,0.6-21.7,1.2-32.5,2.2c-4.1,0.4-8.3,0.8-12.4,1.4c-2.8,0.3-5.5,0.9-8.2,1.6c-0.4,0.1-0.8,0.3-1.2,0.4
		c-0.8,0.3,1.6,4.6,2.9,4.1c2.2-0.8,4.5-1.3,6.8-1.6c3.8-0.6,7.6-1,11.4-1.4c10.5-1.1,21.1-1.7,31.6-2.3c11.8-0.6,23.7-1.2,35.5-1.6
		c10-0.4,20-0.7,30.1-1c5.1-0.1,10.3-0.1,15.4-0.4h0.4C294.5,193.4,292.4,189.2,291.1,189.3L291.1,189.3z"></path><path class="st0" d="M176.8,167.7c0.1,6.9,0.6,13.8,1,20.7c0.7,12.2,1.4,24.4,2.1,36.6c0.9,14.1,1.8,28.2,2.7,42.4
		c0.9,12.6,1.7,25.2,2.8,37.9c0.6,7.7,1.1,15.5,2.2,23.1c0.1,0.5,0.1,0.9,0.2,1.4c0.2,1.1,1.4,1.8,2.3,2.2c0.4,0.1,2.4,0.7,2.2-0.3
		c-1.2-6.8-1.5-13.8-2.1-20.6c-1-12.2-1.9-24.4-2.7-36.6c-1-14.1-1.9-28.2-2.8-42.4c-0.8-12.6-1.5-25.3-2.2-37.9
		c-0.4-7.8-0.9-15.5-1.1-23.2v-1.4C181.4,168.1,176.9,166.1,176.8,167.7L176.8,167.7z"></path><path class="st0" d="M182.5,196.9c2.1-3.6,4.5-6.9,7.2-10c2.5-2.8,5.4-6.3,9-7.8c0.8-0.4,1.6-0.5,2.5-0.5c0.5,0,0.9,0.1,1.4,0.3
		c0.2,0.1,0.4,0.2,0.6,0.3l0.2,0.2l-1.2-1.6c-0.1,0.2,0.2,0.8,0.3,1c0,0.4,0,0.7,0,1.1c0,0.8-0.2,1.6-0.5,2.3
		c-1.4,3.4-5.2,4.9-8.4,6.1c-5,1.9-10,3.7-15,5.5c-0.4,0.2,2.1,3.9,2.8,4.1c5.1,1.2,9.9,3.5,14.1,6.6c2,1.5,3.8,3.1,5.5,5
		c0.7,0.8,1.3,1.6,1.9,2.4c0.8,1.1,1.6,2.3,0.3,3.3c-2,1.6-5.1,1.6-7.4,1c-2.6-0.7-4.8-2.3-6.5-4.4c-1.6-2.2-3-4.4-4.3-6.8
		c-1.6-2.7-3.2-5.4-4.8-8c-2.8-4.6-6.6-10.8-12.5-11.5c-0.6-0.1,0.4,1.4,0.4,1.5c0.5,0.9,1.2,1.7,2,2.4l1.2,1c0.8,0.7,0.1-0.9,0-1.1
		c-0.5-1-1.3-1.9-2.1-2.7l-1.2-1l2.4,3.9c5.9,0.7,8.3,6.7,10.9,11.2c3.5,5.8,6.7,12.3,12,16.7c2.1,1.8,4.7,2.9,7.5,3.2
		c2,0.1,6.6-0.5,6.1-3.4c-0.4-1.5-1.1-2.9-2.1-4.1c-0.9-1.3-1.8-2.6-2.8-3.9c-1.9-2.4-4-4.6-6.3-6.6c-4.9-4.3-10.7-7.3-17-8.8
		l2.8,4.1c5.1-1.9,10.1-3.7,15.2-5.6c3.6-1.4,7.8-3.2,8.6-7.4c0.3-1.7,0.1-3.5-0.8-5c-1-1.8-2.4-3.9-4.3-4.9c-4.1-2-8.4,2.5-11,5.2
		c-3.7,3.8-7,8.1-9.7,12.7c-0.3,0.5,0.8,1.9,1.1,2.3C180.7,195.3,182.3,197.1,182.5,196.9L182.5,196.9z"></path><path class="st0" d="M177.3,197.3c-1.3,1.8-2.7,3.6-4.3,5.2c-0.8,0.8-1.6,1.6-2.4,2.3l-1.1,0.9l-0.4,0.3c-0.1,0.1-0.4,0.3-0.1,0.1
		l-0.7,0.6c-0.1,0.1-1.5,1.2-0.6,0.8c1-0.5,2-1.1,2.9-1.8c4.1-3.1,7.7-6.8,10.7-10.9c0.2-0.2-0.3,0-0.3,0c-0.5,0.2-0.9,0.5-1.3,0.7
		c-0.5,0.3-1.1,0.7-1.6,1.1C177.8,196.7,177.5,197,177.3,197.3L177.3,197.3z"></path></g><g id="cart"><path class="st1" d="M173.4,331.4l14.7-0.1c12.1-0.1,24.1-0.2,36.2-0.3c15.5-0.1,31.1-0.3,46.6-0.5c15.3-0.2,30.5-0.3,45.8-0.6
		c11.3-0.2,22.6-0.3,33.9-0.6c3-0.1,6-0.1,8.9-0.3c1.6-0.1,2.6,0,3.5-1.5c1.5-2.9,2.6-5.8,3.5-8.9c1.7-5.3,3.3-10.6,4.7-16
		c4-14.4,7.6-28.9,11.2-43.4s7-28.9,10.4-43.3c1.9-8.3,3.9-16.7,5.7-25l0.3-1.1c0.3-1.3-2.6-2.9-3.7-2.9h-6.8l-18.4-0.1l-27.3-0.1
		l-33.1-0.1l-36.5-0.1l-36.6-0.1l-34.4-0.1l-28.9-0.1l-20.9-0.1c-3.3,0-6.6-0.1-9.8,0h-0.4c-1.1,0-0.2,1.1,0.1,1.4
		c0.8,0.9,1.8,1.4,3,1.6h6.8h18.4l27.3,0.1l33.1,0.1l36.5,0.1l36.6,0.1l34.4,0.1l28.9,0.1l20.9,0.1c3.3,0,6.6,0.1,9.8,0h0.4
		l-3.6-2.8c-1.3,5.9-2.7,11.7-4,17.6c-3.1,13.5-6.3,27-9.6,40.5c-3.6,15.1-7.4,30.1-11.3,45c-2.8,10.4-5.4,21.1-9.3,31.2
		c-0.4,1.2-1,2.3-1.5,3.4c-0.2,0.3-0.4,0.6-0.6,0.9c-0.2,0.2,0,0.1-0.1,0.1c-0.1,0-0.2,0.1-0.2,0.1l-0.8,0.1h-0.3h-0.7
		c-1.3,0.1-2.5,0.1-3.8,0.2c-9.8,0.4-19.5,0.5-29.3,0.6c-14.7,0.2-29.3,0.4-44,0.6c-15.8,0.2-31.6,0.3-47.4,0.5
		c-13.2,0.1-26.4,0.2-39.7,0.4l-20.8,0.2h-0.9c-1.1,0-0.3,1.1,0.1,1.4C171.1,330.6,172.2,331.2,173.4,331.4L173.4,331.4z"></path><path class="st1" d="M189.5,412.9H202l29.8-0.1l36.2-0.1l31.2-0.1h10.3h3.1c0.6,0.1,1.1,0.1,1.7,0c0.1,0,0.1,0,0.2,0
		c0.1-0.1,0.1-0.3,0-0.4l-1.8-14.4c-0.2-0.9-0.6-1.8-1.1-2.6c-0.2-0.4-0.7-1.5-1.1-1.5h-14.3c-11.1,0-22.2,0-33.2,0
		c-12.6,0-25.1,0.1-37.6,0.2c-9.3,0.1-18.7,0.2-28,0.6c-1.2,0.1-2.5,0.1-3.7,0.2c-0.7,0-1.4,0.1-2,0.2c-0.2,0.1-0.2,0-0.3,0.3
		c-0.1,0.2-0.1,0.5-0.1,0.8c-0.1,0.6-0.3,1.2-0.5,1.9c-0.8,3-1.9,6-2.9,9c-0.2,0.6-0.4,1.3-0.6,1.9s0.8,2.3,1.1,2.9
		C188.4,411.7,189.3,413.3,189.5,412.9c0.8-2.2,1.5-4.3,2.2-6.5c0.5-1.5,1-3,1.4-4.6c0.1-0.5,0.3-1.1,0.4-1.6c0-0.2,0.2-1,0.1-0.8
		c0.2-0.2,0.9-0.2,1.2-0.3c1-0.1,2-0.2,3-0.2c8.6-0.5,17.2-0.5,25.8-0.6c12.4-0.1,24.8-0.2,37.2-0.2c11.5,0,22.9,0,34.4,0h11.7
		c1.9,0,3.8,0.1,5.6,0c0.1,0,0.2,0,0.2,0l-2.2-4.1l1.8,14.4V408h-12.5l-29.8,0.1l-36.2,0.1l-31.2,0.1h-10.3h-3.1
		c-0.6-0.1-1.1-0.1-1.7,0c-0.1,0-0.1,0-0.2,0c-0.3,0,0.7,2.3,0.7,2.4C188.2,411.2,188.9,412.9,189.5,412.9z"></path><path class="st1" d="M409.2,182.4H402l-19.5,0.1l-28.9,0.1l-35.1,0.2l-38.5,0.2l-39,0.2l-36.2,0.2l-30.7,0.1l-22,0.1
		c-3.5,0-7,0-10.4,0h-0.4c-2.3,0-4.7,0.3-6.9,0.9c-1,0.3-3.3,0.9-4,1.9c-1.6,2.6,5.8,2.7,6.6,2.7h7.2l19.5-0.1l28.9-0.1l35.1-0.2
		l38.5-0.2l39-0.2l36.2-0.2l30.7-0.1l22-0.1c3.5,0,7,0,10.4,0h0.5c2.3,0,4.7-0.3,6.9-0.9c1-0.3,3.3-0.9,4-1.9
		C417.4,182.5,409.9,182.3,409.2,182.4L409.2,182.4z"></path><path class="st1" d="M408.5,181.6l-61.2,0.3l-61.4,0.3l-61.3,0.3l-61.8,0.3l-15.1,0.1c-4.8,0-9.7-0.3-14.4,0.8
		c-1.3,0.3-7,1.5-5.5,3.9c0.5,0.9,1.9,1.2,2.9,1.5c1.4,0.3,2.7,0.6,4.1,0.7c3.5,0.3,7,0.1,10.4,0.1l15-0.1l30.8-0.1l61.4-0.3
		l61.6-0.3l61.5-0.3c10.1,0,20.2,0.1,30.3-0.1c3.6-0.1,8.1-0.4,11.3-2.3c0.8-0.5,1.7-1.4,1-2.4s-2-1.2-2.9-1.5
		C413,181.9,410.8,181.6,408.5,181.6c-0.4,0-2.1,0-1.8,0.7s2.5,0.7,3,0.7h0.5h0.4l0.8,0.1c-0.4,0,0.2,0,0.4,0.1
		c0.2,0,0.4,0.1,0.5,0.1c0.3,0,0.5,0.1,0.7,0.3c2.1,1.8-5.4,3.3-6.1,3.4c-4.5,0.6-9.2,0.2-13.8,0.2l-14.7,0.1l-59,0.3l-58.8,0.3
		l-58.9,0.3l-58.8,0.3c-2.3,0-4.6,0.1-6.9,0c-0.2,0-0.8,0-0.5,0s-0.3,0-0.4,0l-0.8-0.1c-0.6,0-1.3-0.1-1.8-0.5
		c-0.9-0.9,0.6-1.8,1.3-2.1c3.7-1.6,7.8-1.4,11.7-1.4l14.5-0.1l58.9-0.3l58.8-0.3l58.8-0.3l58.7-0.3l14.1-0.1c0.4,0,2.1,0,1.8-0.7
		S409,181.6,408.5,181.6z"></path><path class="st1" d="M140.4,191.7c1.3,5.5,2.7,11.1,4,16.6c3.1,12.9,6.1,25.7,9,38.6c3.3,14.5,6.5,29,9.4,43.6
		c2.1,10.4,4.4,21,5.4,31.6s1.4,21.6,1.9,32.4c0.3,7.2,0.6,14.4,0.7,21.6v1.1c0,1.3,1.8,1.4,2.7,1.1c1.2-0.3,2-1.4,2-2.7
		c-0.4-16.2-1.1-32.4-2.2-48.6c-0.9-11.2-2.5-22.3-4.9-33.2c-2.8-14.4-5.9-28.7-9.1-43c-3-13.4-6.1-26.8-9.3-40.1
		c-1.6-6.8-3.1-13.6-4.9-20.3c0-0.1,0-0.2-0.1-0.3C144.5,187.5,139.9,189.4,140.4,191.7L140.4,191.7z"></path><path class="st1" d="M187.8,184.2l1.5,14l3.5,33.5l4.3,40.4l3.7,35l1.2,11.6c0.2,1.8,0.3,3.7,0.6,5.5c0,0.1,0,0.2,0,0.2
		c0.2,1.5,4.4,4,4.1,1.7l-1.5-14l-3.6-33.5l-4.3-40.4l-3.7-35l-1.2-11.6c-0.2-1.8-0.3-3.7-0.6-5.5v-0.2
		C191.8,184.4,187.6,181.9,187.8,184.2L187.8,184.2z"></path><path class="st1" d="M226.4,184.7l0.5,14l1.2,33.4l1.5,40.6l1.3,34.9c0.2,5.7,0.2,11.4,0.6,17.1c0,0.1,0,0.2,0,0.2
		c0.1,1.3,1.1,2.4,2.4,2.6c1,0.2,1.9-0.5,2.1-1.5c0-0.1,0-0.3,0-0.5l-0.5-14l-1.2-33.4l-1.5-40.6l-1.3-34.9
		c-0.2-5.7-0.2-11.4-0.6-17.1c0-0.1,0-0.2,0-0.2c-0.1-1.3-1.1-2.4-2.4-2.6c-1-0.2-1.9,0.5-2.1,1.5
		C226.4,184.4,226.4,184.6,226.4,184.7L226.4,184.7z"></path><path class="st1" d="M256.6,185.1l0.1,14l0.1,33.7l0.2,40.7l0.2,35.2l0,11.5c-0.1,1.8-0.1,3.7,0,5.5c0,0.1,0,0.2,0,0.2
		c0,1.2,4.8,1.9,4.8,1.4l-0.1-14l-0.1-33.7l-0.2-40.6l-0.2-35.3l0-11.5c0.1-1.8,0.1-3.7,0-5.5c0-0.1,0-0.2,0-0.2
		C261.5,185.2,256.6,184.6,256.6,185.1L256.6,185.1z"></path><path class="st1" d="M300.4,184.3c-0.5,4.5-1,9-1.6,13.5c-1.3,10.8-2.5,21.7-3.8,32.5c-1.5,13.3-3.1,26.6-4.6,39.9
		c-1.3,11.9-2.7,23.8-4,35.8c-0.7,6.6-1.6,13.2-1.9,19.8c0,0.3,0,0.5,0,0.8c0,0.9,0.9,2,1.4,2.8c0.1,0.2,1.1,1.6,1.1,1.4
		c0-1.9,0.3-3.8,0.4-5.7c0.4-3.8,0.7-7.6,1.1-11.4c1.2-11.5,2.5-22.9,3.8-34.4c1.5-13.3,3-26.7,4.6-40c1.3-11.4,2.7-22.8,4-34.1
		c0.4-3.7,0.9-7.4,1.3-11.1c0.3-1.7,0.5-3.5,0.6-5.3c0-0.1,0-0.2,0-0.2c0.1-0.8-1-2.1-1.4-2.8C301.4,185.5,300.5,184.1,300.4,184.3
		L300.4,184.3z"></path><path class="st1" d="M337.1,184.3c-0.8,3.8-1.6,7.6-2.3,11.5c-1.9,9.5-3.8,18.9-5.7,28.4c-2.4,12.1-4.7,24.2-7,36.3
		c-2.2,11.8-4.4,23.6-6.4,35.4c-1.4,8.4-2.9,16.9-3.7,25.4c-0.1,0.7-0.1,1.4-0.2,2s1,2.1,1.5,2.7c0.1,0.2,1.3,1.6,1.3,1.2
		c0.6-7.9,2-15.8,3.2-23.6c1.9-11.5,4-23,6.1-34.5c2.3-12.3,4.6-24.5,7-36.8c2-9.9,4-19.8,6-29.7c0.6-3.2,1.3-6.4,1.9-9.6
		c0.3-1.4,0.7-3,0.9-4.4c0-0.1,0-0.1,0-0.2c0.1-0.7-0.8-1.8-1.1-2.3c-0.3-0.5-0.6-1-1-1.4C337.7,184.8,337.2,184.2,337.1,184.3
		L337.1,184.3z"></path><path class="st1" d="M142.4,179.9c-6.5-5.9-13.4-11.4-20.5-16.6c-4.9-3.8-10.2-7-15.8-9.7c-1.2-0.6-2.5-1-3.7-1.5l-1-0.3
		c-0.2-0.1-0.4-0.1-0.6-0.2c0.1,0,0.3,0.1-0.1-0.1c-0.3-0.1-0.6-0.3-0.8-0.4l-0.4-0.2c0.2,0.1,0.3,0.2,0.1,0s-0.6-0.5-0.2-0.1
		c-0.3-0.3-0.1-0.4-0.1-0.1c0-0.5-0.1,0.2,0,0c0-0.1,0-0.2,0-0.2c0,0.4,0,0.2,0,0.1s0.1-0.4,0.1-0.4c-0.2,0.6,0,0.1,0.1-0.1
		s0.2-0.3,0.3-0.5c-0.3,0.4,0.1-0.1,0.2-0.2c0.4-0.4,0.8-0.8,1.2-1.1l0.7-0.5l0,0l0.4-0.3c1-0.6,2-1.2,3-1.8s2.4-1.2,3.6-1.7l-3-0.4
		c9.6,7.6,18.6,16,26.9,25c2.7,2.9,5.2,6.1,7.3,9.5c1.4,2.4,5.8,0.6,4.2-2.1c-4.1-6.8-9.9-12.5-15.4-18c-5.2-5.1-10.6-9.9-16.1-14.6
		c-1.1-0.9-2.2-1.9-3.4-2.8c-0.8-0.7-2-0.9-3-0.4c-3.2,1.2-6.2,3-8.9,5.1c-1.6,1.3-3.3,3.2-3.1,5.4c0.2,3,3.3,4.4,5.8,5.3
		c0.6,0.2,1.2,0.4,1.9,0.6l0.5,0.2c0.4,0.1-0.4-0.1,0,0l1,0.4c1.3,0.6,2.6,1.2,3.8,1.9c2.8,1.5,5.5,3.3,8.2,5.1
		c5.2,3.6,10.4,7.6,15.3,11.7c2.8,2.3,5.6,4.7,8.3,7.1c2.2,2,5.8-0.9,3.4-3L142.4,179.9z"></path><ellipse class="st1" cx="95.5" cy="145" rx="11.4" ry="10.5"></ellipse><path class="st1" d="M104.5,144.5c-0.1,4-2.6,7.6-6.3,9.1c-3.3,1.4-7.2,0.5-9.5-2.2c-2.5-3-2.9-7.2-1-10.6c1.9-3.3,5.6-5.2,9.5-4.9
		C101.3,136.4,104.4,140.4,104.5,144.5c0,1.8,4.9,2.5,4.9,1c-0.2-11.9-17.2-16.2-24.8-8.3c-3.5,3.7-3.9,9.3-1,13.5
		c3.2,4.7,9.5,6.7,14.9,6c5.7-0.8,10.8-5.1,10.9-11.1C109.4,143.8,104.5,143,104.5,144.5z"></path><ellipse class="st1" cx="171.9" cy="404" rx="25.5" ry="24.9"></ellipse><path class="st1" d="M195.7,402.3c-0.1,10-6.3,19-15.6,22.7c-8.9,3.6-20.3,1.9-26.9-5.3s-6.6-18.4-1.7-26.5
		c5.3-8.6,15.2-13.3,25.3-11.9c5.1,0.6,9.9,3,13.5,6.7C193.9,391.9,195.8,397,195.7,402.3c0.1,1.1,0.7,2.1,1.5,2.8
		c0.2,0.1,1.9,1.5,1.9,0.6c-0.1-11.5-7.8-22.1-18.3-26.5c-10.4-4.3-22.3-1.6-29.9,6.6c-7.4,8.5-8.4,20.8-2.5,30.4
		c5.9,9.8,17,16.1,28.6,14.4c12.3-1.8,22-12.3,22-24.9c-0.1-1.1-0.7-2.1-1.5-2.7C197.5,402.7,195.7,401.4,195.7,402.3z"></path><path class="st1" d="M164.1,407c-0.5,1.8,1,3.5,2.7,4.2c2.1,0.8,4.5,0.7,6.5-0.5c1.9-1.2,3.3-3.1,3.8-5.4c0.4-1.5,0.2-3.1-0.6-4.4
		c-0.8-1.3-2.3-2-3.9-1.8"></path><path class="st0" d="M162,405.7c-0.7,2.9,1,5.5,3.5,7c2.4,1.3,5.2,1.6,7.7,0.7c4.7-1.7,7.2-6.8,5.8-11.6c-0.9-3-4.1-5.5-7.4-4.8
		c-2.8,0.6-0.4,4.8,1.9,4.3c0.1,0,0.2-0.1,0.4-0.1l0,0h0.4c-0.3,0-0.3,0,0,0s0.2,0.1-0.1,0l0.2,0.1c0.2,0.1,0.1,0.1-0.1-0.1l0.3,0.2
		c-0.2-0.3-0.2-0.3-0.1-0.1c0.1,0.1,0.1,0.2,0.2,0.3c-0.3-0.6,0.2,0.6,0,0.1c0.1,0.2,0.1,0.4,0.1,0.6s0,0.3,0,0.4c0-0.2,0-0.1,0,0.1
		c0,0.9-0.2,1.9-0.6,2.7c-0.1,0.2-0.2,0.4-0.3,0.5c-0.1,0.1-0.1,0.2-0.2,0.4v0.1c-0.3,0.4-0.6,0.8-1,1.1c-0.2,0.2-0.3,0.3-0.5,0.5
		l-0.1,0.1l-0.3,0.2c-0.4,0.3-0.9,0.5-1.3,0.6h-0.1l-0.4,0.1c-0.3,0.1-0.6,0.1-0.8,0.1c-0.1,0-0.7,0-0.3,0c-0.3,0-0.6,0-0.8,0
		l-0.4-0.1c0.2,0,0.2,0,0,0l-0.6-0.2c-0.3-0.1-0.3-0.1,0,0l-0.3-0.2c-0.2-0.2-0.2-0.1,0.1,0.1l-0.3-0.2c-0.4-0.3,0.2,0.3-0.1-0.1
		l-0.2-0.3c0.1,0.3,0.2,0.3,0,0s-0.1-0.2,0,0c0-0.1-0.1-0.2-0.1-0.4c0.1,0.5,0.1-0.5,0,0c0.3-1.2-0.3-2.4-1.4-3
		c-0.8-0.4-2.5-0.7-2.9,0.5L162,405.7z"></path><ellipse class="st1" cx="330" cy="402" rx="25.5" ry="24.9"></ellipse><path class="st1" d="M353.1,401.6c-0.1,9.7-6.2,18.2-15.3,21.5c-9.1,3.3-19.4,0.7-25.8-6.6c-6.1-7.3-6.9-17.8-1.9-25.9
		c5.2-8.3,14.9-12.5,24.6-10.8C345.2,381.8,352.9,390.9,353.1,401.6c0,1.3,0.9,2.4,2.2,2.7c1.1,0.3,2.2-0.4,2.5-1.5
		c0-0.1,0-0.2,0-0.3c-0.1-11.6-7.5-21.9-18.4-25.9c-11-4-23.2-0.8-31,7.9c-7.5,8.8-8.5,21.4-2.5,31.2c6.2,9.9,17.8,15.1,29.3,13.1
		c12.7-2.3,22.5-13.2,22.6-26.3c0-1.3-0.9-2.5-2.2-2.7c-1.1-0.3-2.2,0.4-2.5,1.5C353.1,401.4,353.1,401.5,353.1,401.6z"></path><path class="st1" d="M322.1,405c-0.5,1.8,1,3.5,2.6,4.2c2.1,0.9,4.5,0.7,6.5-0.5c1.9-1.2,3.3-3.1,3.8-5.4c0.4-1.5,0.2-3.1-0.6-4.4
		c-0.8-1.3-2.3-2.1-3.9-1.8"></path><path class="st0" d="M320.7,403.1c-0.2,1.3,0.1,2.7,0.9,3.8c0.8,1.5,1.8,2.8,3.1,3.8c1.8,1.2,4.2,1.6,6.3,0.9
		c4.3-1.5,6.7-6.2,5.2-10.5c0-0.1-0.1-0.2-0.1-0.3c-1-2.6-3.6-6.4-6.9-5.7c-0.5,0.1,0.8,2.2,0.9,2.4c0.3,0.5,0.7,1,1.1,1.4
		c0.2,0.2,0.5,0.5,0.7,0.4c0.8-0.1,1.7,0,2.4,0.5c0.3,0.3,0.2,0.2-0.2-0.3c-0.3-0.3-0.5-0.6-0.6-1c0,0.1,0.1,0.3,0.1,0.4
		c0.1,0.5,0.1,1,0.1,1.4c-0.2,2-1.1,3.9-2.5,5.3c-1.5,1.4-3.5,2.1-5.5,2c-1,0-1.9-0.3-2.7-0.8c-0.1-0.1-0.3-0.3-0.4-0.4
		c0.4,0.1,0.5,1,0.9,1.3s0,0.3,0.1-0.1c0-0.2,0-0.5,0.1-0.7c0.1-0.3-0.2-0.9-0.3-1.1c-0.3-0.6-0.6-1.1-1-1.6
		C322.1,404,320.8,402.5,320.7,403.1L320.7,403.1z"></path><path class="st2" d="M133.5,404.8c-0.4,4.8-0.8,9.8,0.8,14.4c1.5,4.1,4.5,7.5,8.4,9.6c1.1,0.6,5-2.1,4.1-2.6
		c-3.7-2-6.6-5.3-8.1-9.3c-1.6-4.5-1.1-9.3-0.7-14C138.1,402,133.6,403.5,133.5,404.8z"></path><path class="st2" d="M125.6,410c-1,3.2-0.9,6.6,0.2,9.8c1.2,3.9,3.5,7.3,6.5,10c0.8,0.6,0.1-0.8,0-1.1c-0.4-1.1-1-2.1-1.8-2.9
		c-0.5-0.4-0.9-0.8-1.3-1.2c-0.1-0.1-0.4-0.4-0.4-0.5s-0.2-0.3-0.2-0.4c0.1,0.2,0,0,0-0.1c0.2,0.1,0.1,0.3,0,0c0.1,0.2,0.1,0.2,0,0
		c0.1,0.3-0.1-0.3-0.1-0.3c-0.2-0.5-0.4-1.1-0.5-1.7c-0.6-2.5-0.4-5.1,0.4-7.5c0.1-0.2-0.3-1-0.4-1.1c-0.3-0.6-0.6-1.2-0.9-1.7
		C126.8,411.1,125.8,409.6,125.6,410L125.6,410z"></path><path class="st2" d="M353.2,377.3c1.4,0.3,2.8,1,4,1.8c0.3,0.2,0.5,0.4,0.7,0.6c0.3,0.3,0.6,0.5,0.9,0.8l0.4,0.4
		c0,0,0.4,0.5,0.3,0.3s0.2,0.3,0.3,0.3s0.3,0.3,0.4,0.5c1.8,2.7,3.1,5.7,3.7,8.9c0.2,1,1.2,2.4,2.4,2.3s1.4-1.5,1.2-2.5
		c-1.7-7.7-6.1-16-14.4-18c-1.2-0.3-1.8,0.8-1.8,1.8C351.3,375.7,352,376.8,353.2,377.3L353.2,377.3z"></path><path class="st2" d="M363.8,375.5c0.1,0,0.5,0.4,0.7,0.3c-0.1,0-0.4-0.3-0.1-0.1l0.3,0.2c0.2,0.2,0.1,0.1,0,0l0.3,0.3l0.2,0.3
		c0.1,0.1,0.1,0.1,0,0c0.3,0.4,0.6,0.8,0.8,1.2c0,0.1,0.1,0.2,0,0.1c0,0.1,0.1,0.2,0.2,0.3s0.2,0.5,0.3,0.8c0.7,2.3,1,4.7,0.9,7.1
		c0,1.1,1.3,2,2.3,2.3c0.6,0.2,2.4,0.5,2.3-0.7c0-2.8-0.1-5.8-1.2-8.5c-1.1-2.7-3.1-4.8-5.7-6c-0.7-0.3-2.3-0.9-2.9,0.1
		S363.1,375.2,363.8,375.5L363.8,375.5z"></path><path class="st1" d="M161,275.3c0.8-0.1,1.6-0.1,2.4-0.2c0.6,0-0.7,0-0.1,0h0.6l1.1-0.1l2.8-0.1c5.4-0.2,10.8-0.4,16.2-0.5
		c7.6-0.2,15.2-0.4,22.7-0.6l27.4-0.6l29.7-0.6l29.9-0.6l28.1-0.6l24.1-0.5l17.9-0.3c3.2,0,6.5-0.1,9.7-0.1h0.9
		c1.3,0.1,2.4-0.7,2.6-2c0-1.3-1.1-2.3-2.4-2.3c-2.5,0-4.9,0.1-7.4,0.1c-5.4,0.1-10.8,0.2-16.2,0.3l-22.9,0.4
		c-9.1,0.2-18.2,0.4-27.2,0.5c-10,0.2-19.9,0.4-29.9,0.6l-30,0.6c-9.4,0.2-18.7,0.4-28.1,0.7c-8,0.2-16,0.4-24.1,0.6
		c-6,0.2-12,0.3-17.9,0.5c-3.4,0.1-6.9,0.2-10.2,0.5c-0.3,0-0.6,0-0.9,0.1c-1.2,0.1-2.1,1.2-1.9,2.4c0,0,0,0.1,0,0.1
		C158.4,274.8,159.7,275.5,161,275.3L161,275.3z"></path></g></svg>