<svg transform="scale(1)" version="1.1" id="YapXtjlv71" xmlns="http://www.w3.org/2000/svg" xmlns:xlink="http://www.w3.org/1999/xlink" x="0px" y="0px" viewBox="0 0 500 500" xml:space="preserve" class="pbimage_pbimage__wrapper__image__0LEis false"><title>Payment Processed 1</title><style type="text/css"> .st0{fill:#000005;} .st1{fill:#FFFFFF;} .st2{fill:#59BE4C;}
 .st2{fill:#3560ba;}
 .st1{fill:#FFFFFF;}
 .st0{fill:#000005;}</style><g id="device"><path class="st0" d="M342.2,109.8c3-5.6,6.3-10.9,10.1-16c7.5-10.4,16.4-20.3,27.1-27.6c6.2-4.3,13.2-7.3,20.6-8.7
		c0.9-0.2,1.1-0.8,0.3-1.4c-1-0.7-2.2-1-3.4-0.9C383,57.6,371.2,66,361.5,75.8c-7.9,8.1-14.9,17.1-20.7,26.9c-1.2,2-2.4,3.9-3.4,6
		C336.8,109.6,341.4,111.3,342.2,109.8L342.2,109.8z" fill="#000005"></path><path class="st0" d="M395.3,140.3c-0.1-5.5,2.4-10.7,5.4-15.2c2.8-4.2,5.8-8.2,9.2-11.9c10.6-11.9,23.7-21.3,38.4-27.5
		c1.4-0.6-0.3-2-0.9-2.3c-3.6-1.8-7.2-3.6-10.6-5.6c-2.4-1.4-5.4-3.1-5.9-6.1c-0.2-1.2,0.2-2.4,0.9-3.4c0.4-0.4,0.8-0.8,1.2-1.1
		c-0.2,0.2,0.4-0.2,0.4-0.2c-0.3,0-0.5-0.1-0.7-0.2c0.1,0,0.1,0.1,0.2,0.1c0.3,0.5,0.5,1.1,0.7,1.7c0.1,0.6,0,1.3-0.2,1.9
		c-0.6,1.5-1.8,2.7-3.3,3.4c-2.4,1.3-5.2,1.6-7.8,0.7c-2.6-1.1-4.5-3.4-5-6.2c-0.5-2.6,0-5.8,2.3-7.4c0.1-0.1,1.4-0.6,1.4-0.6
		c0.1-0.2-0.5-0.2-0.5-0.2s0.4,0.6,0.4,0.6c0.5,1.3,0.2,2.7-0.6,3.8c-1.7,2.3-5.2,3.3-8,3.2c-0.9,0-1.9-0.2-2.7-0.6
		c-0.9-0.6-1.6-1.5-1.7-2.6c-0.3-1.7-5.2-2.6-4.8-0.7c0.8,4,4.9,6,8.6,6.6c4,0.7,8.2-0.1,11.6-2.4c3.6-2.6,3.5-7.8-0.6-9.8
		c-3.6-1.7-7.9-0.1-9.6,3.5c-0.2,0.5-0.4,1.1-0.5,1.6c-0.8,4.1,0.7,8.4,3.9,11.1c3.8,3.1,8.7,4.3,13.5,3.3c3.9-0.8,8.8-3.4,8.4-8
		s-6.4-7-10-4.3c-1.6,1.3-2.5,3.3-2.4,5.3c0.2,2.4,1.9,4.5,3.7,5.9c2.2,1.7,4.5,3.2,7,4.4c2.9,1.6,5.8,3.1,8.8,4.5l-0.9-2.3
		c-19.4,8.1-36,21.7-47.7,39.1c-3.5,5.2-6.4,10.8-6.2,17.2C390.4,141.4,395.3,142.4,395.3,140.3L395.3,140.3z" fill="#000005"></path><path class="st1" d="M390.4,433.8c0,0,16.7-15.2,8.5-77.4s-83.3-88.5-116.3-86.3s-72.8,45-44.3,81.8s51.7,55.5,51.7,55.5
		s5.3,17.9,0.8,30.9" fill="#FFFFFF"></path><path class="st0" d="M391.8,434.8c2.9-2.7,4.8-6.9,6.2-10.5c4.6-12,5.5-25.3,5.5-38.1c-0.1-10.8-0.9-21.6-2.5-32.4
		c-1.2-8-3.6-15.8-7.2-23.2c-6.7-13.9-17.2-25.7-29.4-35c-11.9-8.9-25.2-15.9-39.3-20.6c-11.6-4-23.9-6.8-36.2-7.1
		c-6.8-0.2-13.6,1-20,3.3c-8.1,3-15.5,7.5-21.9,13.2c-12.6,11.2-22.1,27.5-20.6,44.9c0.4,4.5,1.5,8.8,3.3,12.9
		c2.1,4.6,4.8,8.9,8,12.8c7.1,9,14.5,17.8,22.2,26.2c8.4,9.4,17.5,18.3,27,26.6c0.4,0.4,0.8,0.7,1.3,1.1l-0.5-0.8
		c1,3.4,1.7,6.8,2.1,10.3c0.8,6.5,1,13.5-1.1,19.7c-1,2.9,3.5,2.1,4.2,0.1c3.1-9,2.3-19,0.3-28.1c-0.2-1.1-0.5-2.2-0.8-3.3
		c-0.1-0.5-0.3-0.9-0.6-1.3c-0.6-0.6-1.4-1.1-2-1.7c-11.1-9.7-21.5-20.2-31.1-31.4c-4-4.5-7.9-9.1-11.6-13.7
		c-3.8-4.7-7.9-9.4-10.8-14.7c-4.5-7.9-6.2-17.1-4.9-26.1c2.7-17.2,15.6-31.8,30.5-39.9c6.6-3.7,14-5.8,21.6-6.3
		c5.5-0.1,11,0.2,16.5,1.2c14.1,2.3,27.7,6.8,40.5,13.3c14.1,7.1,27.3,16.6,37.4,28.8c5.2,6.2,9.6,13.2,12.9,20.6
		c3.7,8.4,5.5,17.2,6.5,26.2c2.1,17.7,3,36.3-1,53.8c-0.3,1.3-0.6,2.6-1,3.8c-0.2,0.6-0.3,1.1-0.5,1.7l-0.2,0.8
		c0.1-0.4-0.2,0.5-0.2,0.6c-0.6,1.8-1.3,3.5-2.1,5.2c-0.3,0.7-0.6,1.3-1,1.9l-0.5,0.8c-0.3,0.4,0.3-0.5,0-0.1
		c-0.1,0.1-0.2,0.3-0.2,0.4c-0.4,0.6-0.9,1.3-1.4,1.9c-0.5,0.6,0.2-0.2,0,0l-0.1,0.1c-0.7,0.6-1.4,1.9-0.4,2.6s2.5,0,3.2-0.6
		L391.8,434.8z" fill="#000005"></path><path class="st0" d="M404.9,145.7l-12.1-8.2c-10.8-5.1-74-18.4-80.7-8.5L204,288.9c-7.5,11.1-4.5,26.2,6.6,33.7
		c0.2,0.2,0.5,0.3,0.7,0.5l65.4,40.8c11.4,7.1,26.3,3.6,33.4-7.8c0.1-0.2,0.2-0.4,0.4-0.6l100.8-173
		C418.5,170.1,426.7,161.1,404.9,145.7z" fill="#000005"></path><path class="st0" d="M406.5,145.1l-6.4-4.3c-2.1-1.4-4.1-3.1-6.4-4.3c-2-1-4.1-1.8-6.3-2.3c-3.1-1-6.3-1.8-9.5-2.6
		c-7.8-1.9-15.7-3.5-23.6-4.8c-8-1.4-16.2-2.3-24.3-2.8c-3.4-0.2-6.8-0.1-10.2,0.2c-2.4,0.1-4.8,0.7-7.1,1.6c-1.6,0.8-2.9,2-3.8,3.6
		L297.6,146L277,176.6l-24.8,36.7L228,249.1l-18.4,27.3c-2.6,3.9-5.2,7.7-7.8,11.6c-5.2,7.8-5.6,17.8-1.1,26
		c2.3,4.1,5.6,7.6,9.7,10.1l2.1,1.3l30.6,19.1l30.5,19c5,3.1,10.2,5.4,16.1,5.5c9.5,0.3,18.4-4.6,23.2-12.7
		c2.3-3.8,4.5-7.7,6.8-11.6l16.2-27.9l21.4-36.7l22.6-38.8l19.4-33.3l12.3-21.1l2.1-3.6c3-5.2,7-10.5,7.6-16.6
		C422.2,157.2,413.3,150,406.5,145.1c-0.9-0.6-2.4-1.2-3.4-0.7s-0.5,1.5,0.2,2c6.7,4.7,15.1,11.6,12.9,20.8
		c-1.2,5.3-4.7,9.9-7.4,14.5c-2.5,4.3-5,8.6-7.5,12.8L385,222.6l-21.3,36.6l-22.2,38.1l-19.1,32.8l-12.1,20.7
		c-0.7,1.2-1.4,2.4-2.1,3.6c-4.2,7.3-12,11.7-20.4,11.5c-3.6-0.2-7-1.3-10.1-3.2c-0.8-0.5-1.6-1-2.5-1.5l-12.7-7.9l-36-22.5
		l-12.1-7.5c-0.7-0.4-1.4-0.8-2.1-1.3c-3.6-2.4-6.4-5.7-8.2-9.7c-3.2-7.5-2.4-16.1,2.2-22.8c0.8-1.2,1.7-2.5,2.5-3.7l13.9-20.6
		l21.9-32.4l24.8-36.7l23-34.1l16.5-24.4l4.3-6.4l0.9-1.3c0.3-0.4-0.2,0.2,0.1-0.1c0.2-0.3,0.5-0.5,0.7-0.7l0.5-0.3
		c0.3-0.2-0.3,0.2,0,0l0.3-0.2c0.4-0.2,0.8-0.4,1.3-0.5l0.7-0.2l0.4-0.1c0.5-0.1,0,0,0.3-0.1c1.2-0.3,2.5-0.5,3.7-0.6
		c3.1-0.3,6.2-0.3,9.3-0.2c7.8,0.4,15.6,1.3,23.4,2.6c7.8,1.3,15.6,2.9,23.4,4.8c1.6,0.4,3.1,0.8,4.7,1.2l2.1,0.6l0.4,0.1l1.2,0.4
		c1.1,0.3,2.2,0.7,3.2,1.1l1.3,0.5l0.5,0.2c0.8,0.3-0.5-0.3-0.5-0.4c2.1,1.3,4.2,2.8,6.2,4.2l5.9,4c0.9,0.6,2.3,1.2,3.4,0.8
		S407.2,145.6,406.5,145.1z" fill="#000005"></path><path class="st1" d="M386.9,133.5l-58.2-27.5c-10.8-5.1-23.8-1.6-30.5,8.3l-108,159.8c-7.5,11.1-4.6,26.2,6.5,33.7
		c0.3,0.2,0.5,0.3,0.8,0.5l65.4,40.7c11.4,7.1,26.3,3.6,33.4-7.7c0.1-0.2,0.3-0.4,0.4-0.6l100.9-173c6.7-11.6,2.8-26.4-8.7-33.2
		C388.1,134.1,387.5,133.8,386.9,133.5z" fill="#FFFFFF"></path><path class="st0" d="M386.6,131.4l-26.1-12.3l-31.4-14.8c-7.1-3.5-15.4-3.7-22.6-0.4c-4.4,2.2-8.2,5.5-10.9,9.7l-10.6,15.7
		l-20.1,29.7l-24.5,36.3L216.4,231l-19,28.1c-3,4.4-5.9,8.8-8.9,13.1c-4.2,6.2-5.5,13.9-3.6,21.1c1.9,7.2,6.6,13.4,13,17.3l27.4,17
		l32.9,20.5c3.2,2,6.3,4.1,9.8,5.4c9.8,3.4,20.6,0.6,27.5-7.1c3.3-3.8,5.6-8.7,8.1-13l15-25.8l20.8-35.6l22.5-38.6l20.2-34.5
		l13.7-23.4l3.1-5.4c2.7-4.5,4.1-9.7,3.9-14.9C402,144.9,395.9,135.8,386.6,131.4c-1-0.5-1.8,0.3-1.7,1.3c0.2,1.2,1,2.3,2.1,2.8
		c8.4,4.1,13,13.2,11.5,22.4c-0.6,3.3-1.9,6.5-3.7,9.4l-9.8,16.7l-17.6,30.2l-21.6,37.1l-21.8,37.4l-17.9,30.8l-10.3,17.6
		c-1.2,2.2-2.6,4.3-4.3,6.2c-7,7.2-17.8,9.2-26.8,4.9c-2.5-1.2-4.8-2.9-7.2-4.4l-14.8-9.2l-35.1-21.9l-9.4-5.9
		c-6-3.5-9.8-9.8-10.2-16.7c-0.3-5.4,1.3-10.6,4.4-15l3.4-5.1l15.1-22.3l22.3-33l24.7-36.6l22.4-33.1l15.5-22.9l3.7-5.4
		c2.7-4.2,6.7-7.5,11.3-9.4c4.7-1.8,9.9-2.1,14.8-0.7c1.6,0.5,3.2,1.2,4.7,1.9l12.7,6l36.9,17.4l7.4,3.5c1,0.5,1.8-0.3,1.7-1.3
		C388.6,133,387.8,131.9,386.6,131.4z" fill="#000005"></path><path class="st1" d="M319,373.6c0,0-10.1-41.1,27.6-43.9c0,0-35.5-32.1-19.7-43.9s110.9,35.1,62.4,157.8" fill="#FFFFFF"></path><path class="st0" d="M321.4,373c-1-4.4-1.4-9-1.2-13.5c0.3-8.4,2.8-17.1,9.3-22.8c4.7-4.1,10-5.6,16.1-6.1c0.5,0,4.3-0.9,3.3-1.8
		c-4.3-3.9-8.2-8.1-11.9-12.6c-3.1-3.6-5.8-7.5-8.1-11.6c-1.9-3.5-3.7-7.5-3.6-11.6c0-1.7,0.5-3.4,1.3-4.9c0.4-0.7,1-1.4,1.6-1.9
		c0.3-0.3,0.7-0.6,1.1-0.8c0.5-0.3-0.4,0.2,0,0c0.2-0.1,0.3-0.1,0.5-0.2c-0.1,0.1-0.5,0.2,0,0c0.7-0.2-0.3,0.1,0,0l0.5-0.1
		c0.4-0.1-0.8,0.1,0,0l0.6-0.1c0.5-0.1-0.6,0,0.1,0c0.5,0,0.9-0.1,1.4-0.1h0.2h0.7c0.5,0,1,0.1,1.5,0.1l0.7,0.1h0.1l0.4,0.1
		c2.4,0.4,4.7,1,7,1.8c5.6,2,10.9,4.7,15.8,8c6,4.1,11.6,8.9,16.5,14.3c5.6,6.2,10.3,13.2,14.1,20.7c4.3,8.7,7.4,17.9,9.2,27.4
		c2,11.3,2.5,22.7,1.5,34.1c-1.4,14-4.4,27.9-9,41.2c-1.3,3.8-2.7,7.5-4.1,11.2c-0.3,0.8,1.6,0.6,1.9,0.5c0.7-0.1,2.5-0.5,2.8-1.3
		c5.7-14.1,9.8-28.8,12.1-43.8c1.9-12.1,2.1-24.3,0.6-36.4c-1.2-10.1-3.9-20-8-29.4c-3.5-8.1-8.2-15.6-13.8-22.4
		c-4.9-5.9-10.4-11.2-16.6-15.8c-5.2-3.8-10.8-6.9-16.8-9.3c-4.4-1.9-9.2-2.9-14-3.1c-5,0-10.5,1.3-13.4,5.8
		c-2.1,3.2-1.8,7.3-0.7,10.8c1.5,4.4,3.7,8.5,6.4,12.2c4.6,6.4,9.8,12.4,15.6,17.8l1,1l3.3-1.8c-11.7,0.9-23.5,5.6-28.9,16.8
		c-3.4,7.2-4,15.6-3.1,23.4c0.2,1.8,0.5,3.6,0.9,5.4C316.8,375.4,321.6,374.1,321.4,373L321.4,373z" fill="#000005"></path><path class="st0" d="M367.9,145c2.2,0.1,4.1-1.6,4.2-3.8c0.1-1.7-0.9-3.2-2.4-3.9l-32.4-16.1c-2-1-4.4-0.2-5.4,1.8
		s-0.2,4.4,1.8,5.4l32.4,16.1C366.6,144.9,367.3,145,367.9,145z" fill="#000005"></path><circle class="st1" cx="335.6" cy="124.6" r="0.9" fill="#FFFFFF"></circle><path class="st1" d="M332.4,125.5c0,0.2,0.1,0.4,0.2,0.6c0.1,0.1,0.2,0.3,0.4,0.3c0.2,0.1,0.4,0.2,0.5,0.2h0.2c0.2,0,0.4,0,0.5,0
		c0.7,0,1.4-0.2,2-0.4c0.2-0.1,0.5-0.2,0.7-0.3c0.3-0.1,0.6-0.3,0.9-0.5c0.1-0.1,0.2-0.1,0.3-0.2c0.1-0.1,0.3-0.2,0.4-0.4
		c0.1-0.1,0.2-0.2,0.2-0.3c0,0,0.1-0.1,0.1-0.1c0-0.1,0.1-0.2,0.1-0.3c0-0.3,0-0.5-0.1-0.8c-0.1-0.1-0.2-0.3-0.3-0.4
		c-0.1-0.1-0.2-0.1-0.3-0.2c-0.2-0.1-0.4-0.1-0.6-0.1c-0.2,0-0.4,0-0.5,0c-0.4,0-0.8,0.1-1.2,0.2c-0.5,0.1-0.9,0.3-1.4,0.5
		c-0.2,0.1-0.4,0.2-0.7,0.3c-0.2,0.1-0.3,0.2-0.5,0.3c0,0,0,0-0.1,0c-0.1,0.1-0.3,0.2-0.4,0.4c-0.1,0.1-0.2,0.2-0.3,0.4
		c0,0.1-0.1,0.1-0.1,0.2C332.4,125,332.4,125.2,332.4,125.5c0.1,0,0.2,0.1,0.3,0.1c0.2,0.1,0.4,0.1,0.6,0.1c0.3,0,0.5,0,0.8-0.1
		c0.3-0.1,0.6-0.1,0.9-0.3l0.6-0.2c0.4-0.1,0.7-0.3,1-0.6l0.3-0.3c0.1-0.1,0.2-0.3,0.2-0.5l0,0v0.2c0-0.2,0.1-0.3,0.1-0.4l-0.2,0.3
		c0-0.1,0.1-0.1,0.1-0.2l-0.3,0.3l0.1-0.1l-0.4,0.3h0.1l-0.5,0.3h0.1l-0.6,0.2h0.1l-0.6,0.2h0.1l-0.6,0.1h0.1l-0.5,0.1h-0.3
		c0.1,0,0.2,0,0.2,0l-0.3-0.1c0.1,0,0.3,0.1,0.4,0.2l-0.1-0.2c0.2,0.2,0.2,0.4,0.2,0.7v-0.2c0,0.2-0.1,0.3-0.1,0.4l0.2-0.2l-0.1,0.2
		l0.3-0.3l-0.1,0.1l0.4-0.3h-0.1l0.5-0.3h-0.1l0.6-0.2h-0.1l0.6-0.2h-0.1l0.6-0.1h-0.1h0.5H337h0.4c-0.1,0-0.2,0-0.2,0l0.3,0.1
		c-0.1,0-0.3-0.1-0.4-0.2l0.1,0.2c-0.1-0.2-0.2-0.4-0.2-0.6c-0.1-0.1-0.2-0.2-0.3-0.2c-0.2-0.1-0.4-0.1-0.6-0.1
		c-0.3,0-0.5,0.1-0.8,0.1c-0.3,0.1-0.6,0.1-0.9,0.3l-0.6,0.2c-0.4,0.1-0.7,0.3-1,0.6l-0.3,0.3C332.4,125.1,332.3,125.3,332.4,125.5z
		" fill="#FFFFFF"></path><ellipse class="st2" cx="319.4" cy="180.1" rx="27.1" ry="23.9" fill="#3560ba"></ellipse><path class="st2" d="M344,180.4c-0.1,9.7-7.2,17.9-16.2,20.8c-9.5,3-20.6,0.4-27.4-7c-6.6-7.1-7.4-17.8-2-25.9
		c5.6-8.2,16.1-11.9,25.7-10.1C334.9,160.2,344,169,344,180.4c0,1.9,5,1.5,5-0.6c-0.1-11.5-9-20.4-19.6-23.6
		c-11.4-3.4-24.8-0.5-33.1,8.2c-7.6,7.9-8.6,20-2.4,29c6.8,9.7,19.7,13.6,31,11.6c12.5-2.2,23.9-11.7,24-25.1
		C349,177.9,344,178.3,344,180.4z" fill="#3560ba"></path><path class="st1" d="M304.8,177v6c-0.1,2-0.1,4,0,6c0.2,1.8,2.9,1,4.1,0.8c1.8-0.4,3.5-1.2,5.1-2.2l21.6-11.4
		c0.3-0.2-1.6-0.2-1.8-0.2c-1,0-2,0.2-3,0.6l-12.5,6.6l-6.1,3.2l-3.1,1.6c-1,0.6-2.1,1.2-3.2,1.6l2.1-0.4h-0.3l2.4-0.1
		c-0.9-0.2-0.6-2.1-0.6-2.8v-10C309.8,176.1,304.9,176.3,304.8,177L304.8,177z" fill="#FFFFFF"></path><path class="st2" d="M258,268.5c0.4-4.1-5.4-4.4-8.2-4c-3.2,0.4-6,1.8-6.4,5.3c-0.4,3.3,1.9,5.5,3.5,8.1c0.9,1.4,1.6,3.2,1.1,4.9
		c-0.5,1.4-1.6,2.6-3,3.1c-1.4,0.5-2.9-0.2-4-1c-1.4-1-2.4-2.6-2.6-4.3c-0.1-1-5.1-0.3-4.9,0.6c1,7.8,12.4,7.7,17.3,4
		c1.2-0.8,2.1-2.1,2.4-3.6c0.1-1.7-0.4-3.4-1.4-4.8c-1.7-2.6-3.9-4.9-3.3-8.2c0.1-0.7,0.4-1.4,0.9-2c0.2-0.3,0.4-0.5,0.7-0.7
		c0.4-0.4,0.2,0-0.1-0.1c0.2,0.1,0.6,0.1,0.9,0.1c0.4,0.1,0.9,0.3,1.2,0.6c0.8,0.6,1.2,1.6,1.1,2.6C253.1,269.9,258,269.8,258,268.5
		L258,268.5z" fill="#3560ba"></path><path class="st2" d="M235.9,292.5l3.2-4.5c0.2-0.3,0.1-1,0-1.3c-0.2-0.6-0.4-1.2-0.8-1.8c-0.3-0.5-0.6-0.9-1.1-1.1
		c-0.3-0.1-0.5-0.2-0.8,0.1l-3.2,4.5c-0.2,0.3-0.1,1,0,1.3c0.2,0.6,0.4,1.2,0.8,1.8c0.3,0.5,0.6,0.9,1.1,1.1
		C235.4,292.7,235.7,292.8,235.9,292.5z" fill="#3560ba"></path><path class="st2" d="M256,264.2l3.2-3.4c0.2-0.2,0.3-0.5,0.1-0.8c-0.1-0.1-0.3-0.2-0.5-0.2c-0.2-0.1-0.5-0.1-0.7-0.1
		c-0.6,0-1.3,0.1-1.9,0.3c-0.5,0.1-1,0.4-1.4,0.7l-3.2,3.4c-0.2,0.2-0.3,0.5-0.1,0.8c0.1,0.1,0.3,0.2,0.5,0.2
		c0.2,0.1,0.5,0.1,0.7,0.1c0.6,0,1.3-0.1,1.9-0.3C255.2,264.8,255.7,264.6,256,264.2L256,264.2z" fill="#3560ba"></path><path class="st2" d="M277.5,278.9c0.3-3.8-4.8-4.2-7.3-3.3c-3,1-6.4,2.6-6.9,6.1s2.1,5.7,3.7,8.4c1,1.4,1.3,3.1,0.9,4.8
		c-0.3,0.7-0.7,1.4-1.3,1.9c-0.2,0.2-0.4,0.3-0.5,0.5c-0.4,0.4,1.3-0.7,1.4-0.7c-0.6,0.1-1.2,0.2-1.7,0.3c-3.8,0.3-7.5-2-8-5.9
		c-0.8,0.2-1.6,0.5-2.4,0.9c-0.3,0.1-2.2,0.9-2.1,1.3c0.5,3.1,3,5.5,6.2,5.9c1.9,0.2,3.8-0.1,5.5-0.9c2-0.7,3.9-1.7,5.5-3
		c1.2-0.9,2-2.3,2-3.9c-0.1-1.8-0.8-3.4-2-4.8c-1.8-2.5-3.7-5.1-2.5-8.4c0.3-0.7,0.7-1.3,1.2-1.8l0.2-0.1l-2.6,1.3
		c0.3,0,0.6-0.1,0.9-0.1c0.5,0,0.9,0,1.4,0c2,0.2,4,1.5,3.8,3.7c0.8-0.2,1.6-0.5,2.4-0.9C275.7,280.1,277.4,279.5,277.5,278.9
		L277.5,278.9z" fill="#3560ba"></path><path class="st2" d="M256.6,302.8l3.2-4.5c0.2-0.3-0.2-0.8-0.3-1c-0.4-0.4-0.9-0.8-1.4-1.1c-0.5-0.3-1.1-0.5-1.7-0.5
		c-0.4-0.1-0.7,0-1,0.3l-3.2,4.5c-0.2,0.3,0.2,0.8,0.3,1c0.8,0.9,1.9,1.5,3.1,1.6C255.9,303.2,256.3,303.1,256.6,302.8L256.6,302.8z
		" fill="#3560ba"></path><path class="st2" d="M275.3,277.1l3.2-3.4c0.2-0.2,0.4-0.4,0.5-0.7c0.1-0.2,0.2-0.5,0.2-0.8c-0.1-0.6-0.3-1.2-0.8-1.6
		c-0.5-0.5-1.1-0.8-1.7-0.9h-0.6c-0.4,0-0.7,0.2-1,0.4l-3.2,3.4c-0.2,0.2-0.4,0.4-0.5,0.7c-0.1,0.2-0.2,0.5-0.2,0.8
		c0.1,0.6,0.3,1.2,0.8,1.6c0.5,0.5,1.1,0.8,1.7,0.9h0.6C274.7,277.5,275,277.4,275.3,277.1L275.3,277.1z" fill="#3560ba"></path><path class="st0" d="M266.8,222c1.3-1.5,2.7-2.8,4.3-4c0.8-0.6,1.6-1.1,2.5-1.6l0.6-0.3l-0.6,0.1c-0.8,0.1-0.8,0.1-0.1,0.1
		c0.3,0.1,0.7,0.2,1,0.4c3,1.5,3.3,5.6,1.8,8.2c-0.9,1.5-2.2,2.8-3.6,3.7c-0.4,0.3-0.8,0.5-1.2,0.8c-0.2,0.1-0.3,0.1-0.5,0.2
		l1.1-0.3c1.2-0.1,1.5-0.2,0.9-0.4c-0.5-0.7-0.9-1-0.5-2c0.4-0.8,1-1.4,1.7-1.7c0.2-0.1,0.3-0.2,0.5-0.2c0.4-0.4-0.6,0.2-0.7,0.1
		c0.5,0.1,1,0.1,1.5,0.1c1.6,0.2,3.1,1,4.1,2.3c1.9,2.3,1.8,6.7-1,8.3l4.6-0.9c-0.8-1.4-0.5-3.1,0.8-4.1c0.2-0.2,0.4-0.3,0.7-0.4
		l-1.2,0.3c0.3,0,0.7,0,1,0.1c0.7,0.1,1.3,0.3,1.9,0.6c2.6,1.1,4.4,3.4,4.9,6.2c0.1,0.8,0,1.6-0.4,2.3c-0.9,1,0.1,0.9,3-0.5
		c-0.2-0.1-0.4-0.2-0.5-0.4c-0.2-0.3-0.2-0.6-0.2-0.9c0-0.4,0.2-0.7,0.4-1c0.1-0.1,0.2-0.2,0.4-0.3c-1.5,0.2-1.9,0.3-1.3,0.3
		c0.6,0.2,1.4,0.1,2.1,0.2c2.8,0.7,5.2,2.7,6.3,5.3c0.3,0.7,5-0.9,4.9-1.1c-1.5-3.3-4.6-5.5-8.2-5.7c-2.3-0.1-4.6,0.2-6.8,1.1
		c-1.2,0.4-3.7,1.8-2.4,3.4c0.6,0.7,1.6,0.5,2.4,0.4c1.4-0.1,2.7-0.5,3.9-1.1c1.6-0.9,1.4-3.2,0.8-4.7c-1.3-3.2-4.4-5.3-7.8-5.4
		c-2.6,0-5.2,0.5-7.5,1.7c-1.8,0.9-3.3,3-2,5c0.2,0.3,1.6-0.1,1.9-0.1c0.9-0.1,1.9-0.4,2.7-0.8c3.7-2.1,3.8-7.6,0.3-10
		c-2.1-1.3-4.6-1.7-7-1.1c-2.5,0.4-6,1.1-7.8,3c-0.6,0.6-1.2,1.6-0.7,2.5c0.6,1.1,2.1,0.9,3.1,0.7c2.9-0.4,5.6-1.6,7.8-3.4
		c1.8-1.5,3.5-3.6,3.6-6.1c0.1-2.1-0.9-4.1-2.7-5.3c-1.2-0.6-2.7-0.8-4-0.4c-1.9,0.3-3.8,0.8-5.6,1.7c-2.9,1.5-5.5,3.5-7.6,6
		c-0.3,0.4,1.7,0,1.8,0c0.7-0.1,2.4-0.3,2.9-0.9L266.8,222z" fill="#000005"></path><path class="st0" d="M304,247.2v1.2c0,0.2,0,0.5,0.2,0.7c0.1,0.2,0.3,0.4,0.5,0.5c0.2,0.1,0.5,0.2,0.8,0.3c0.3,0.1,0.6,0.1,0.9,0
		l0.6-0.1c0.4-0.1,0.8-0.3,1.1-0.6l0.4-0.4c0.2-0.3,0.4-0.6,0.4-0.9v-1.2c0-0.2,0-0.5-0.2-0.7c-0.1-0.2-0.3-0.4-0.5-0.5
		c-0.2-0.1-0.5-0.2-0.8-0.3c-0.3-0.1-0.6-0.1-0.9,0l-0.7,0.1c-0.4,0.1-0.8,0.3-1.1,0.6l-0.4,0.4C304.2,246.6,304,246.9,304,247.2
		L304,247.2z" fill="#000005"></path><path class="st2" d="M383.8,85.5c0.4-4.3-4.2-6.3-7.9-5.8c-3.5,0.3-6.3,3.1-6.7,6.6c-0.2,1.5,0.1,3.1,0.7,4.5
		c0.8,1.5,1.8,3,2.9,4.4c0.7,1.1,1.6,2.7,1,4c-0.6,1-1.6,1.8-2.7,2c-3.1,0.9-6.6-0.7-7-4.1c-0.2-1.3-1.7-1.8-2.8-1.5
		c-1.3,0.3-2.1,1.5-2,2.8c0.6,3.4,3,6.1,6.2,7.1c3.7,1.1,7.8,0.2,10.8-2.3c3-2.7,3.1-6.6,1.1-9.9c-0.9-1.4-2-2.7-2.8-4.2
		c-0.5-1-0.7-2.1-0.5-3.1c0.1-0.3,0.2-0.7,0.4-1c-0.1,0.3,0.5-0.6,0.1-0.2c0.1-0.1,0.2-0.2,0.4-0.3c-0.2,0.2,0,0,0.1,0
		c-0.1,0.1,0.5-0.2,0.6-0.2c1.1-0.2,3.4,0,3.2,1.6C378.6,88.9,383.5,88.4,383.8,85.5L383.8,85.5z" fill="#3560ba"></path><path class="st2" d="M362.4,108.8l3.2-4.5c0.4-0.5,0.5-1,0.4-1.6c-0.1-0.6-0.5-1.2-1-1.5c-0.5-0.4-1.2-0.6-1.9-0.6
		c-0.6,0-1.2,0.3-1.6,0.7l-3.2,4.5c-0.2,0.2-0.3,0.5-0.4,0.8c-0.1,0.3-0.1,0.6,0,0.9c0.1,0.6,0.5,1.2,1,1.5c0.5,0.4,1.2,0.6,1.9,0.6
		C361.4,109.5,362,109.2,362.4,108.8z" fill="#3560ba"></path><path class="st2" d="M381.6,82.4l3.3-3.4c0.4-0.4,0.6-1,0.5-1.5c-0.1-0.6-0.4-1.1-0.9-1.4c-0.5-0.4-1.2-0.6-1.9-0.5
		c-0.6,0-1.2,0.3-1.6,0.7l-3.3,3.4c-0.4,0.4-0.6,1-0.5,1.5c0.1,0.6,0.4,1.1,0.9,1.4c0.5,0.4,1.2,0.6,1.9,0.5
		C380.6,83.1,381.2,82.8,381.6,82.4L381.6,82.4z" fill="#3560ba"></path><path class="st2" d="M400.6,96.7c0.2-2-1.2-4.1-2.6-5.5c-1.1-1.3-2.7-2.1-4.5-2.2c-1.5-0.2-3,0.3-4.2,1.3c-0.9,0.9-1.4,2-1.5,3.3
		c-0.4,3.5,1.8,6.5,3.8,9.2c0.9,1.1,1.2,2.6,0.8,4c-0.6,1.5-1.8,2.7-3.3,3.3c-1.9,0.9-4,1.1-6,0.5c-0.4-0.1-0.9-0.3-1.3-0.5
		c-0.3-0.2-0.6-0.6-0.9-0.6s0.2,0.2,0.2,0.2s-0.2-1-0.2-1.1c-0.3-1.1-0.9-2.1-1.8-2.9c-0.3-0.3-1.4-1.3-1.2-0.2
		c0.7,3.6,2.9,6.8,6.1,8.6c3.1,1.6,6.7,1.3,9.5-0.8c1.2-0.9,2-2.2,2.2-3.7c0-1.8-0.5-3.5-1.4-5c-0.9-1.5-2.1-2.8-2.9-4.4
		c-0.5-1.1-0.6-2.4-0.3-3.5c0.3-1.5,1.3-2.7,2.7-3.2c0.9-0.3,1.9-0.4,2.9-0.2c0.5,0,1,0.2,1.5,0.4c0.2,0.1,0.3,0.2,0.5,0.3
		c-0.8-1.7-1.2-2.1-1.1-1.3c0,0.2,0,0.3,0,0.5c-0.1,1,0.9,2.1,1.4,2.8C399.1,95.9,400.6,97.4,400.6,96.7L400.6,96.7z" fill="#3560ba"></path><path class="st2" d="M380.1,118l3.2-4.5c0.1-0.2-0.2-0.7-0.3-0.8c-0.4-0.5-0.8-0.9-1.2-1.3c-0.4-0.4-0.9-0.7-1.5-1
		c-0.2-0.1-0.7-0.4-0.8-0.2l-3.2,4.5c-0.1,0.2,0.2,0.7,0.3,0.8c0.4,0.5,0.8,0.9,1.2,1.3c0.4,0.4,0.9,0.7,1.5,1
		C379.4,117.9,379.9,118.2,380.1,118z" fill="#3560ba"></path><path class="st2" d="M399,92.1l3.2-3.4c0.2-0.3,0.1-0.7,0-1c-0.2-0.6-0.6-1.1-1-1.5c-0.3-0.5-0.8-0.8-1.2-1.1
		c-0.2-0.1-0.7-0.4-1-0.1l-3.2,3.4c-0.2,0.3-0.1,0.7,0,1c0.2,0.6,0.6,1.1,1,1.5c0.4,0.5,0.8,0.9,1.4,1.2c0.2,0.1,0.7,0.4,1,0.1
		L399,92.1z" fill="#3560ba"></path></g><g id="hand"><path class="st1" d="M53.6,186.9c5.5-62.4,24.9-107.4,37.4-116c25.7-17.7,19.6,51.2,19.6,51.2s9.8-12.7,38.8-20.1
		c30.7-7.8,23.4,26.8,23.4,26.8c33.4,2.6,17.7,32.5,17.7,32.5c38.4,16.1-28.6,49.1-28.6,49.1s-36.1,32-54.9,33.1"></path><path class="st0" d="M55.9,187.8c1.9-22.6,6-45,12.4-66.7c2.4-8.1,5.3-16.1,8.6-23.9c2.5-5.9,5.5-11.5,9-16.8
		c2.2-3.2,5-6.6,8.4-8.5c1-0.5,2-1,3.1-1.3c-0.6,0.2,0.2,0,0.3,0s0.5-0.1,0.7-0.1s0.4,0,0.7,0c0.6-0.1-0.3-0.1,0.2,0l1.2,0.2
		c0.4,0.1-0.4-0.2-0.2,0c0.1,0,0.2,0,0.3,0.1l0.6,0.2c0.4,0.2,0.4,0.3,0,0c0.2,0.1,0.3,0.2,0.5,0.3l0.5,0.4c0.5,0.4-0.4-0.4,0.1,0.1
		c0.3,0.3,0.6,0.6,0.8,0.9s0.3,0.4,0.4,0.5c-0.6-0.7,0,0,0.1,0.2c0.5,0.8,1,1.7,1.4,2.6c0.2,0.5-0.1-0.4,0.1,0.2l0.3,0.8
		c0.2,0.6,0.4,1.2,0.6,1.8c0.4,1.2,0.7,2.3,0.9,3.5c0.1,0.6,0.2,1.1,0.3,1.7l0.2,1c-0.1-0.5,0,0,0,0.1l0.1,0.7
		c0.2,1.3,0.4,2.7,0.5,4c0.3,2.8,0.5,5.5,0.6,8.3c0.2,5,0.2,10,0,15.1c-0.1,1.8-0.2,3.6-0.3,5.4l-0.1,1.9c0,0.2,0,0.5,0,0.7
		c0,0.6,0-0.6,0,0c0,0.1,0,0.3,0,0.4c-0.2,2.2,2.6,4.5,4.2,2.3c-0.7,0.9-0.1,0.1,0.1-0.1c0.4-0.5,0.9-0.9,1.3-1.4
		c1.8-1.7,3.8-3.3,5.8-4.8c7.7-5.4,17.1-9.2,26.3-11.9c4.4-1.3,9.3-2.6,13.6-2.1c0.7,0.1,1.5,0.2,2.2,0.3c0.1,0,0.7,0.2,0.2,0
		l0.6,0.2c0.4,0.1,0.7,0.3,1.1,0.4s0.6,0.3,0.9,0.4c0.6,0.3-0.4-0.3,0.1,0.1c0.2,0.1,0.3,0.2,0.5,0.3s0.5,0.3,0.7,0.5s1,0.8,0.4,0.3
		c0.5,0.4,0.9,0.9,1.3,1.4c0.1,0.1,0.7,0.9,0.2,0.3c0.2,0.3,0.4,0.6,0.6,0.9c0.3,0.5,0.6,1,0.8,1.6c0.1,0.1,0.3,0.7,0,0
		c0.1,0.2,0.1,0.3,0.2,0.5c0.1,0.3,0.2,0.6,0.4,1c0.2,0.6,0.4,1.2,0.5,1.8c0.1,0.3,0.1,0.6,0.2,0.8s0.1,0.3,0.1,0.5
		c0.1,0.5-0.1-0.4,0,0.1c0.2,1.2,0.3,2.5,0.4,3.7c0.1,1.3,0.1,2.6,0,3.8c0,0.3,0,0.6-0.1,0.9s-0.1,1.1,0,0.3c0,0.5-0.1,1-0.1,1.5
		c-0.1,1-0.2,2-0.4,3c-0.1,1.5,0.9,2.8,2.3,3c2.7,0.2,5.3,0.6,7.9,1.3c1.9,0.5,3.8,1.4,5.5,2.5c0.4,0.2,0.7,0.5,1.1,0.8l0.5,0.4
		c-0.4-0.3,0,0,0.2,0.2c0.3,0.3,0.6,0.6,0.8,0.9c0.1,0.2,0.3,0.3,0.4,0.5l0.3,0.3l0.2,0.3l0.3,0.5c0.2,0.3,0.4,0.7,0.6,1.1
		c0.1,0.2,0.1,0.3,0.2,0.5c-0.2-0.4-0.1-0.1,0,0.1c0.1,0.4,0.3,0.8,0.4,1.2s0.2,0.7,0.3,1l0.1,0.5c0,0.1,0,0.2,0,0.3
		c0.1,0.3-0.1-0.4,0-0.1c0.1,0.7,0.2,1.4,0.2,2.2s0,1.5,0,2.2v0.5c0-0.4,0-0.1,0,0.1c0,0.4-0.1,0.7-0.1,1.1c-0.4,2.5-1,5-1.9,7.4
		c-0.1,0.3-0.1,0.3,0,0l-0.1,0.4c-0.1,0.2-0.2,0.5-0.3,0.7s-0.3,0.7-0.5,1.1s-0.3,0.6-0.5,1c-0.6,1.4,0.1,3,1.5,3.5c0,0,0,0,0,0
		c0.7,0.3,1.5,0.6,2.2,1c0.5,0.3,1.1,0.5,1.6,0.8c1.1,0.6,2.1,1.4,3.1,2.2c0.3,0.3-0.3-0.3,0.2,0.2l0.5,0.5c0.4,0.4,0.7,0.8,1.1,1.2
		s-0.3-0.6-0.1-0.1c0.1,0.1,0.1,0.2,0.2,0.3s0.2,0.4,0.3,0.5s0.2,0.4,0.3,0.5s0.1,0.2,0.2,0.3c0.1,0.3-0.2-0.5,0-0.1
		s0.3,0.8,0.4,1.2c0.1,0.3,0.1,0.6,0,0.1c0,0.2,0.1,0.5,0.1,0.7c0,0.4,0,0.9,0,1.3s0-0.1,0,0.1s-0.1,0.5-0.1,0.7
		c-0.1,0.4-0.2,0.8-0.3,1.2c-0.1,0.2-0.1,0.4-0.2,0.6c0,0.1-0.1,0.2-0.1,0.3c-0.1,0.4,0.2-0.4,0,0.1c-0.4,0.9-0.8,1.7-1.3,2.5
		c-0.5,0.9-1.1,1.7-1.7,2.6c-0.2,0.2-0.3,0.4-0.5,0.6s0.2-0.2,0,0l-0.3,0.4c-0.4,0.4-0.7,0.9-1.1,1.3c-1.6,1.8-3.3,3.4-5.1,5
		c-3.8,3.3-7.9,6.3-12.2,9.1l-1.1,0.7l-1.6,1c-0.9,0.6-1.9,1.2-2.8,1.7c-1.7,1-3.4,2-5.2,3c-1.9,1.1-3.9,2-5.8,3.1
		c-1.6,1.1-3.1,2.3-4.4,3.6c-4.2,3.5-8.4,6.8-12.7,10.1c-5.4,4.1-11.1,7.9-17,11.4c-2.9,1.7-5.9,3.3-8.9,4.6
		c-2.5,1.2-5.2,2.1-7.8,2.8c-1.2,0.3-2.4,0.4-3.6,0.5c-1,0.2-1.7,1.1-1.6,2.2c0,0.1,0.1,0.2,0.1,0.4c0.4,1.2,1.6,2.1,2.8,2
		c5.9-0.4,11.7-3,16.9-5.7c6.4-3.4,12.6-7.3,18.5-11.6c5-3.6,9.8-7.3,14.6-11.2c1.5-1.2,2.9-2.4,4.4-3.7l1.2-1
		c0.7-0.6,0.1,0-0.1-0.1c0.1,0.1,1.2-0.6,1.3-0.7c1.1-0.6,2.3-1.2,3.4-1.8c3.7-2,7.4-4.2,10.9-6.5c8.4-5.4,17.3-11.5,22.8-19.9
		c2.3-3.5,3.7-7.6,2.9-11.7c-1-4.8-4.9-8.3-8.9-10.6c-1.4-0.8-2.9-1.6-4.5-2.2l1.6,3.5c1.8-3.5,3-7.2,3.6-11.1
		c1.1-7.4-0.7-14.8-6.7-19.6c-4.7-3.7-10.9-5-16.7-5.5l2.3,3.2c0.6-3.1,0.9-6.2,0.8-9.3c-0.1-5.7-1.3-11.7-5.1-16.1
		c-5-6-13.3-6.5-20.4-5c-11,2.3-21.5,6.5-31,12.4c-3.9,2.5-8,5.3-10.8,9l4.2,2.3c0.6-7,0.8-14.1,0.6-21.1
		c-0.1-5.7-0.5-11.3-1.4-16.9c-0.8-4.8-2-9.9-4.8-14c-2.5-3.6-6.5-6.1-11-5.1s-8.3,3.9-11.2,7.3c-3.7,4.6-6.8,9.6-9.3,15
		c-3.6,7.5-6.8,15.2-9.3,23.1c-7.1,21.1-11.4,43.2-13.9,65.3c-0.4,3.1-0.7,6.3-0.9,9.4c-0.2,1.3,0.6,2.5,1.8,3
		C54.2,189.4,55.8,189.1,55.9,187.8L55.9,187.8z"></path><path class="st1" d="M149.4,189.3c0,0-14.2,19.5,4.1,22.9s57.8-14.9,49.2-39.8"></path><path class="st0" d="M147.1,188.2c-2.6,3.5-4.4,7.5-5.1,11.8c-0.5,2.9,0.3,5.9,2.2,8.1c3.1,3.3,8.1,4.9,12.4,5.4
		c7.3,0.9,15.1-1,21.9-3.6c7.6-2.9,15-7.3,20.5-13.3c2.9-3.1,5.1-6.8,6.3-10.9c1.1-4.1,0.9-8.5-0.5-12.5c-0.3-0.8-1.9-1.4-2.6-1.7
		c-0.2-0.1-2.1-0.7-1.9-0.1c5.4,15.7-8.9,28.3-21.7,34.3c-6.6,3.1-13.9,5.4-21.2,5.6c-1.5,0.1-3.1,0-4.6-0.2
		c-0.7-0.1-1.5-0.2-2.2-0.4c-0.4-0.1-0.8-0.2-1.1-0.4c0.4,0.1-0.4-0.3,0,0c-0.4-0.2,0.1,0.1-0.3-0.2c-2.1-1.5-3-4.4-2.8-7
		c0.3-4.6,2.6-9.2,5.2-12.9C152,189.9,147.8,187.3,147.1,188.2L147.1,188.2z"></path><path class="st1" d="M155,150.9c0,0-27.9,25.5-15.5,34.5s48.2-3.9,54.1-35.9"></path><path class="st0" d="M153,150.6c-3.9,3.6-7.6,7.6-10.9,11.8c-2.7,3.2-4.9,6.8-6.6,10.7c-1.3,3-2.3,6.7-1,9.9
		c2.6,6.5,11.9,7.2,17.8,6.6c9.3-1.1,18-4.8,25.3-10.7c8.4-6.5,14.4-15.4,17.4-25.6c0.4-1.4,0.7-2.8,1-4.2c0.4-1.9-4.4-0.8-4.8,0.9
		c-1.8,9.8-6.9,18.8-14.3,25.5c-3.2,2.9-6.7,5.3-10.6,7.2c-3.4,1.7-6.9,2.9-10.6,3.6c-1.6,0.3-3.2,0.5-4.8,0.4c-0.7,0-1.4,0-2.1-0.1
		c-0.8-0.1-1.6-0.2-2.4-0.4c-1.3-0.3-2.5-0.7-3.6-1.3c-1.1-0.6-2.1-1.4-2.9-2.5c-1.7-2.5-1.2-5.7-0.3-8.3c1.4-3.5,3.2-6.8,5.5-9.7
		c3.5-4.8,7.5-9.2,11.9-13.2c0.8-0.7,0.3-1.6-0.6-1.8C155.1,149.3,153.9,149.7,153,150.6L153,150.6z"></path><path class="st1" d="M132.7,135.8c0,0-19.8,18.4-6.4,27.2c14.1,9.2,49.7-10.1,46-47.4"></path><path class="st0" d="M130.8,134.2c-4.2,3.9-7.6,8.5-10,13.8c-1.5,3.6-2.2,7.7-0.6,11.3s5.1,6.2,8.9,7.5c6.4,2.1,13.6,0.4,19.6-2.4
		c7.5-3.5,13.8-9.1,18.4-16c6.3-9.7,9-21.3,7.7-32.8c-0.3-2.9-5-3.1-4.7,0.1c1,9.3-0.9,18.8-5.4,27c-3.7,6.7-9.2,12.2-15.8,16
		c-2.8,1.7-5.9,2.9-9.1,3.6c-1.3,0.3-2.6,0.5-4,0.6c-0.7,0-1.4,0-2.1,0l-0.9-0.1c0.6,0.1-0.5-0.1-0.6-0.1c-0.6-0.1-1.3-0.2-1.9-0.4
		c-0.3-0.1-0.5-0.2-0.8-0.2c0.7,0.2-0.4-0.2-0.6-0.3c-0.5-0.2-1-0.5-1.5-0.8c0.5,0.3-0.2-0.2-0.3-0.2c-0.2-0.2-0.4-0.3-0.7-0.5
		L126,160c-0.1-0.1-0.3-0.2-0.4-0.4c0.2,0.2,0.2,0.2,0-0.1c-0.9-1-1.5-2.3-1.6-3.7c0-0.2,0-0.4,0-0.6c0,0.4,0-0.1,0-0.2
		c0-0.4,0-0.8,0.1-1.2c0.1-0.8,0.3-1.5,0.5-2.2c1.8-5.4,5.7-10.2,9.9-14.2c0.9-0.9,0.4-2.6-0.5-3.3
		C133.2,133.2,131.8,133.3,130.8,134.2L130.8,134.2z"></path><path class="st2" d="M171.5,87.8c-0.2-3.7,0.7-7.4,2.6-10.6c0.6-1-0.3-1.9-1.1-2.3c-0.6-0.3-1.2-0.4-1.9-0.4
		c-0.4,0-1.1,0.1-1.4,0.6c-2.3,3.6-3.4,7.9-3.1,12.2c0.1,1.1,1.7,1.8,2.7,1.9S171.6,89,171.5,87.8z"></path><path class="st2" d="M189.4,97.8c2.5-6.4,6.4-12.1,11.3-16.9c0.5-0.4,0.6-1.1,0.2-1.6c-0.2-0.2-0.4-0.4-0.7-0.4
		c-1.2-0.4-2.5-0.1-3.5,0.7c-5.4,5.2-9.6,11.5-12.3,18.5c-0.4,1.1,1.4,1.5,2.1,1.5C187.8,99.5,188.9,98.9,189.4,97.8L189.4,97.8z"></path><path class="st2" d="M198.1,118.8c4.7-1,9.1-3.1,12.9-6c0.6-0.5,1.5-1.8,0.6-2.4s-2.4,0.2-3.1,0.8l-0.3,0.2
		c0.3-0.2,0.3-0.2,0.1-0.1l-0.6,0.4c-0.4,0.2-0.8,0.5-1.2,0.7s-0.9,0.5-1.4,0.8c0.6-0.3-0.2,0.1-0.3,0.1l-0.6,0.3
		c-0.4,0.2-0.9,0.4-1.3,0.6c-0.2,0.1-0.5,0.2-0.7,0.3c-0.1,0-0.7,0.2-0.4,0.2s-0.4,0.1-0.4,0.1c-0.2,0.1-0.5,0.2-0.8,0.2
		c-0.5,0.1-1,0.2-1.5,0.4c-1.2,0.2-2.2,1.1-2.6,2.2C196.1,118.8,197.3,119,198.1,118.8L198.1,118.8z"></path></g></svg>