<svg transform="scale(1)" version="1.1" id="SwtgfJpone" xmlns="http://www.w3.org/2000/svg" xmlns:xlink="http://www.w3.org/1999/xlink" x="0px" y="0px" viewBox="0 0 500 500" xml:space="preserve" class="pbimage_pbimage__wrapper__image__0LEis false"><title>Delivery Van</title><style type="text/css"> .st0{fill:#000005;} .st1{fill:#59BE4C;} .st2{fill:#FFFFFF;}
 .st2{fill:#FFFFFF;}
 .st1{fill:#3560ba;}
 .st0{fill:#000005;}</style><g id="truck"><ellipse class="st0" cx="176.3" cy="399.5" rx="24.7" ry="25.2" fill="#000005"></ellipse><path class="st0" d="M198.6,398.9c0,9.8-5.9,18.7-15,22.4c-8.7,3.4-18.7,0.8-24.6-6.5c-6.1-7.6-6.6-18.6-1.8-27
		c4.7-8.1,14.2-13.1,23.6-11.3C191.3,378.5,198.5,388.3,198.6,398.9c0,2.2,4.7,3.6,4.7,1.1c-0.1-11.4-7.1-21.6-17.8-25.8
		c-10.6-4-22.9-1.3-30.2,7.5c-7.2,8.8-8.1,21.2-2.4,31c5.9,9.9,17.4,15.2,28.8,13.2c12.5-2.5,21.5-13.3,21.5-26
		C203.4,397.9,198.6,396.4,198.6,398.9z" fill="#000005"></path><ellipse class="st0" cx="335.4" cy="397.1" rx="24.7" ry="25.2" fill="#000005"></ellipse><path class="st0" d="M357.7,396.5c0,9.8-5.9,18.7-15,22.4c-8.7,3.4-18.7,0.8-24.5-6.5c-6.1-7.6-6.6-18.6-1.8-27
		c4.7-8.1,14.2-13.1,23.6-11.3C350.5,376.1,357.6,385.9,357.7,396.5c0,2.2,4.8,3.6,4.8,1.1c-0.1-11.4-7.1-21.6-17.8-25.8
		c-10.6-4-22.9-1.3-30.2,7.5c-7.2,8.8-8.1,21.2-2.4,31c5.9,10,17.4,15.3,28.9,13.3c12.5-2.5,21.5-13.4,21.5-26
		C362.5,395.5,357.7,394,357.7,396.5z" fill="#000005"></path><rect class="st0" x="58.2" y="376.3" width="283.1" height="10.3" fill="#000005"></rect><path class="st0" d="M340.4,384.6H68.8c-3.7,0-7.3-0.1-11,0h-0.5l3.1,2.4v-10.3l-1.5,1.5h271.6c3.7,0,7.4,0.1,11,0h0.5l-3.1-2.4
		v10.2c0,2.2,4.6,3.7,4.6,0.9v-10.2c0-1.4-1.9-2.4-3.1-2.4H68.8c-3.7,0-7.3-0.1-11,0h-0.5c-0.8,0-1.4,0.6-1.5,1.4c0,0.1,0,0.1,0,0.2
		v10.2c0,1.4,1.9,2.4,3.1,2.4h271.6c3.7,0,7.3,0.1,11,0h0.5c0.8,0,1.4-0.6,1.5-1.4c0-0.2,0-0.5-0.1-0.7
		C342.9,385.3,341.7,384.6,340.4,384.6z" fill="#000005"></path><path class="st1" d="M176.6,264.5c0,0-60.7-1.2-68.6,0.6s-54.5,60.7-55.7,62.5s-4.3,52.7-1.2,52.7s122.1,1.2,122.1-1
		C173,374.4,176.6,264.5,176.6,264.5z" fill="#3560ba"></path><path class="st1" d="M177,263c-5.4-0.1-10.9-0.2-16.3-0.2c-10.5-0.1-21.1-0.2-31.6-0.1c-4.4,0-8.9,0.1-13.3,0.3
		c-2.8,0.1-6,0-8.7,0.9c-2.3,0.7-4.3,2.5-6.1,4.1c-3,2.6-5.7,5.5-8.4,8.4c-7,7.5-13.7,15.4-20.3,23.3c-5.9,7-11.6,14.1-17.3,21.3
		c-1.5,1.8-2.9,3.7-4.3,5.5c-0.8,1.1-1.2,2.5-1.2,3.8c-1.1,8.7-1.5,17.6-1.8,26.3c-0.2,4.8-0.3,9.6-0.2,14.4c0,2.8-0.1,6,0.7,8.8
		c0.6,1.9,2.1,2,3.8,2l5.6,0l21.5,0.1c9.8,0.1,19.7,0.1,29.5,0.1c10.1,0,20.2,0,30.3-0.1c7.9-0.1,15.8-0.1,23.8-0.4
		c2.6-0.1,5.2-0.2,7.9-0.4c1.5-0.1,3.2-0.1,4.5-1s0.9-2.7,0.9-4.1c0.1-2.5,0.1-4.9,0.2-7.4c0.2-8.2,0.5-16.5,0.7-24.7l1-30.8
		c0.3-9.6,0.6-19.1,0.9-28.6c0.2-6,0.4-12,0.6-18c0-0.8,0-1.7,0.1-2.5c0.1-1.9-4.9-1.4-5,0.7c-0.1,3.3-0.2,6.5-0.3,9.8
		c-0.2,8-0.5,16-0.8,24c-0.3,10.1-0.6,20.2-0.9,30.2c-0.3,9.5-0.6,19-0.9,28.6c-0.2,6.3-0.4,12.6-0.5,19c0,0.8,0,1.5,0,2.3
		c0,0.2,0,0.5,0,0.7c0,0.1,0,0.2,0,0.2c-0.1-0.2,0.3-0.8,0.5-1c0.1-0.1,1.2-0.6,0.6-0.4c-0.1,0,0.8-0.1,0.3-0.1l-0.4,0.1
		c-0.7,0.1-1.5,0.2-2.2,0.2l-0.7,0c-0.3,0-1.1,0.1-0.3,0l-1.7,0.1c-1.4,0.1-2.8,0.1-4.2,0.1c-3.6,0.1-7.1,0.2-10.7,0.2
		c-9.2,0.1-18.4,0.2-27.6,0.2c-10.1,0-20.2,0-30.3,0c-8.7,0-17.4,0-26.1-0.1l-15.2-0.3c-0.4,0-0.8,0-1.2,0h-0.1
		c0.1-0.2,1.3,0.4,1.4,0.4s0.1,0.3,0.2,0.2s-0.3-0.6-0.1-0.2s-0.1-0.3-0.1-0.4c-0.7-3-0.6-6.2-0.6-9.2c-0.1-9.7,0.4-19.4,1.1-29
		c0.2-3.5,0.5-6.9,0.9-10.4c0.1-0.7,0.4-1.6,0.4-2.3c0,0.3-0.2,0.4,0,0c0.2-0.2,0.3-0.4,0.5-0.6c4-5.1,8.1-10.2,12.1-15.2
		c6.5-8,13.1-15.9,19.9-23.7c5.7-6.6,11.3-13.1,17.6-18.8c1-0.9,2-1.7,3-2.5l0.3-0.2c0.1,0-0.5,0.3-0.1,0.1c0.2-0.1,0.4-0.2,0.6-0.3
		c0.5-0.3,0,0-0.1,0c0.6-0.2,0.1,0-0.1,0c1-0.1,2.1-0.3,3.2-0.4l1.1-0.1h0.5h0.2l2.7-0.1c9.8-0.4,19.7-0.3,29.6-0.3
		c8.8,0,17.5,0.1,26.3,0.3l4.2,0.1c1,0,2.6-0.4,2.9-1.5S177.9,263,177,263z" fill="#3560ba"></path><path class="st2" d="M152.1,279.2c0,0-0.6,52.7-2.4,53.9s-60,3.7-62.5,0.6s-2.4-15.3-2.4-15.3s31.2-39.2,34.9-39.2H152.1z" fill="#FFFFFF"></path><path class="st1" d="M149.7,279.6c-0.1,7.5-0.2,15.1-0.4,22.6c-0.1,5.8-0.3,11.6-0.6,17.4c-0.1,4-0.4,8.1-0.9,12.1
		c0,0.1-0.1,0.3-0.1,0.4c0,0.4,0.1-0.5,0-0.1c-0.1,0.2-0.1,0.4-0.2,0.6c-0.1,0.4,0.2-0.4,0.3-0.4c0.3-0.4,0.7-0.7,1.2-0.9h-0.2
		c0.5-0.2,0.6-0.1,0.1-0.1l-0.7,0.1c-0.6,0.1-1.2,0.1-1.8,0.2c-4.4,0.4-8.8,0.6-13.2,0.9c-11.4,0.5-22.8,0.9-34.4,0.6
		c-2.1-0.1-4.2-0.1-6.3-0.3c-0.8-0.1-1.6-0.1-2.3-0.3l-0.8-0.1c0.7,0.1,0,0-0.2-0.1s-0.7-0.4-0.1,0c-0.5-0.4,0.3,0.6-0.1-0.1
		c-0.5-1.1-0.9-2.3-1.1-3.5c-0.5-2.9-0.8-5.8-0.8-8.8c0-0.6,0-1.1,0-1.7l-0.8,1.6c7-8.8,14.2-17.5,21.6-26c2.2-2.6,4.5-5.1,6.8-7.6
		c0.9-1,1.8-1.9,2.8-2.8c0.4-0.4,0.8-0.7,1.1-1.1c0.2-0.2,0.4-0.3,0.6-0.5c-0.7,0.6-0.1,0.1,0.1,0c0.3-0.2,0.5-0.3,0.8-0.5
		c0.1-0.1-0.7,0.3-0.2,0.1c-0.3,0.1-0.5,0.2-0.8,0.1c0.9,0.1,1.9,0.1,2.8,0h29.6c1.3,0.1,2.5-0.7,3-2c0.3-0.9-0.1-1.9-1-2.2
		c-0.2-0.1-0.3-0.1-0.5-0.1h-30c-1.3-0.1-2.7-0.1-4,0.2c-2.5,0.9-4.6,3.4-6.4,5.2c-6.7,6.9-12.8,14.3-18.8,21.7
		c-2.6,3.1-5.2,6.3-7.7,9.4l-2.2,2.7c-0.7,0.7-1.2,1.5-1.4,2.4c-0.1,1.6,0,3.3,0.2,4.9c0.1,2.8,0.5,5.6,1.2,8.3
		c0.4,1.6,1.1,3.4,2.7,4.1c1,0.4,2.1,0.6,3.2,0.7c3.5,0.4,7,0.6,10.5,0.6c4.9,0.1,9.8,0,14.7-0.1c9.4-0.2,18.8-0.5,28.2-1.2
		c2.2-0.2,4.9-0.1,7-0.9c2.5-0.9,2.6-3.7,2.8-6c0.9-8.6,1-17.4,1.2-26c0.2-7.7,0.4-15.4,0.5-23.1c0-0.4,0-0.9,0-1.3
		C154.4,275.9,149.7,277.1,149.7,279.6z" fill="#3560ba"></path><path class="st0" d="M94.9,316.5c1,4.7,3.6,10.8,9.3,10.7c1.9,0,3.8-0.8,5-2.3c0.8-1.3,1.1-2.9,0.8-4.4c-0.5-3.3-2.2-6.3-4.6-8.5
		c-2.3-1.9-5.6-2.8-8.3-1.2c-2.2,1.3-2.6,3.8-2,6.1c0.1,0.4,0.8,0.8,1.2,0.9c0.6,0.2,1.3,0.3,1.9,0.1c1-0.2,2-0.8,1.7-2
		c0,0.2,0-0.3-0.1-0.4s0-0.4,0-0.6s0-0.3,0-0.5s0-0.2,0-0.3c0,0.2,0,0.1,0,0s0.1-0.3,0.2-0.5s0.3-0.5,0.1-0.2
		c0.1-0.1,0.2-0.3,0.3-0.4l0.2-0.1c-0.2,0.2-0.2,0.1,0,0s-0.2,0.1-0.2,0.1s0.3-0.1,0.3-0.1s-0.5,0.1-0.2,0.1s-0.3,0-0.3,0
		c0.4,0-0.2,0.1-0.2,0h0.2c0.3,0.1-0.2,0-0.2,0c0.2,0,0.3,0.1,0.4,0.1l0,0l0.4,0.2l0.4,0.2c0.3,0.2-0.3-0.3,0,0l0.4,0.3
		c0.5,0.4,0.9,0.9,1.3,1.4c0.2,0.3-0.1-0.2,0.1,0.1l0.3,0.4c0.2,0.3,0.4,0.6,0.6,1c0.3,0.6,0.6,1.2,0.9,1.9c0.1,0.3,0.2,0.6,0.3,1
		c0,0.1,0.1,0.3,0.1,0.4c0.1,0.3,0,0.1,0,0l0.1,0.3c0.1,0.6,0.2,1.2,0.2,1.8c0,0.1,0,0.3,0,0.4c0,0.2-0.1,0.4,0,0.1
		c-0.1,0.3-0.2,0.5-0.3,0.8c-0.1,0.1-0.3,0.4,0,0c-0.1,0.1-0.1,0.2-0.2,0.2s-0.3,0.4-0.1,0.1s-0.1,0.1-0.2,0.1c-0.3,0.3,0.4-0.1,0,0
		c-0.1,0-0.6,0.2-0.2,0.1s0,0-0.1,0c-0.3,0.1,0.6,0,0.3,0c-0.1,0-0.1,0-0.2,0c-0.5,0,0.5,0.1,0.2,0c-0.1,0-0.6-0.1-0.1,0
		s0,0-0.1-0.1c-0.3-0.1,0.5,0.3,0,0l-0.3-0.2c-0.1,0-0.4-0.3-0.2-0.1s-0.1-0.1-0.2-0.1s-0.2-0.2-0.3-0.3c-0.2-0.2-0.3-0.4-0.5-0.6
		l-0.2-0.3c0.2,0.3,0,0-0.1-0.1c-0.3-0.5-0.6-1-0.8-1.5c-0.5-1-0.9-2.1-1.2-3.2c-0.1-0.4-0.2-0.7-0.3-1.1c0-0.1,0-0.1-0.1-0.2
		c-0.1-0.2,0.1,0.5,0.1,0.2c0,0,0-0.1,0-0.1c-0.4-1-1.4-1.7-2.5-1.5c-0.6,0-1.2,0.2-1.8,0.5C95.3,315.6,94.8,316,94.9,316.5z" fill="#000005"></path><path class="st0" d="M91.6,334.3l8-9.1l1.1-1.3c0.7-0.8,0-2-0.6-2.7c-0.3-0.5-0.8-0.9-1.3-1.2c-0.3-0.1-0.9-0.4-1.1-0.1l-8,9.1
		l-1.1,1.3c-0.7,0.8,0,2,0.5,2.7c0.4,0.5,0.8,0.9,1.3,1.2C90.8,334.4,91.4,334.6,91.6,334.3L91.6,334.3z" fill="#000005"></path><path class="st2" d="M132.9,347.9h5.1c0.3,0,0.1-0.4,0-0.5c-0.3-0.4-0.7-0.7-1.1-1c-0.5-0.4-1.1-0.7-1.6-1
		c-0.3-0.2-0.7-0.3-1.1-0.4H129c-0.3,0-0.1,0.4,0,0.5c0.3,0.4,0.7,0.7,1.1,1c0.5,0.4,1.1,0.7,1.6,1
		C132.1,347.7,132.5,347.8,132.9,347.9L132.9,347.9z" fill="#FFFFFF"></path><path class="st2" d="M147.1,341.4v29.1l0.2-0.2l-11.1,1.3l3.4,3.1c-1-2.2-2.5-4.1-4.4-5.7c-4-3.7-8.9-6.3-14.2-7.5
		c-7.4-1.8-15.7-2.1-23.1,0.1c-4.7,1.3-8.8,4.1-11.7,8c-1.4,1.9-2.3,4-2.7,6.3c-0.1,0.8,1.3,2,1.9,2.5c0.2,0.2,1.7,1.4,1.8,0.6
		c0.7-5.5,5.6-10.2,10.4-12.5c6.3-3,13.9-3.1,20.7-2.4c3.2,0.3,6.4,1.1,9.4,2.1c1.1,0.4,2.2,0.9,3.2,1.5c0.8,0.4,1.6,0.9,2.4,1.5
		c0.5,0.4-0.1-0.1,0.3,0.2l0.5,0.4c0.5,0.4-0.3-0.4,0.1,0.1c0.1,0.1,0.3,0.3,0.4,0.4s-0.4-0.5,0,0c0.1,0.1,0.2,0.3,0.4,0.4
		s-0.3-0.4,0,0l0.3,0.4c0.3,0.5-0.2-0.3,0.1,0.2c0.1,0.2,0.2,0.3,0.3,0.5c0.2,0.4-0.1-0.4,0.1,0.1c0.4,0.8,0.9,1.5,1.6,2
		c0.4,0.3,1.2,1.2,1.8,1.1l11.1-1.3c0.1,0,0.2-0.1,0.2-0.2c0,0,0,0,0-0.1v-29.2c0-0.9-1.2-2-1.9-2.5
		C148.7,341.9,147.1,340.7,147.1,341.4L147.1,341.4z" fill="#FFFFFF"></path><path class="st1" d="M125.2,314.5l9.4-8.8c0.8-0.8,0.7-2.2-0.1-3c0,0-0.1-0.1-0.1-0.1c-0.9-0.8-2.4-1.2-3.4-0.3l-9.4,8.8
		c-0.8,0.8-0.7,2.2,0.1,3c0,0,0.1,0.1,0.1,0.1C122.7,315,124.2,315.4,125.2,314.5L125.2,314.5z" fill="#3560ba"></path><path class="st1" d="M128.9,324.7l4.8-4.4c0.2-0.2,0.6-0.6,0.4-1s-0.6-0.5-0.9-0.6c-0.6-0.1-1.2,0-1.8,0.2
		c-0.6,0.2-1.1,0.5-1.6,0.9l-4.8,4.3c-0.2,0.2-0.6,0.6-0.4,1s0.6,0.5,1,0.6c0.6,0.1,1.2,0,1.8-0.2
		C127.9,325.4,128.5,325.1,128.9,324.7L128.9,324.7z" fill="#3560ba"></path><rect class="st2" x="41.7" y="376.3" width="25" height="14.9" fill="#FFFFFF"></rect><path class="st0" d="M64.8,389.6h-25l4,2.9v-13.1c0-0.5,0-1,0-1.5c0-0.2,0-0.3,0-0.3c0.4-0.2,1.7,0,2.2,0h22.7l-4-2.9v14.9
		c0,0.6,1.4,1.4,1.8,1.7c0.7,0.4,1.5,0.8,2.3,1.1v-14.9c0-0.6-1.2-1.3-1.6-1.5c-0.6-0.4-1.6-1.4-2.4-1.4h-25h-0.1v14.9
		c0,0.6,1.2,1.3,1.6,1.5c0.6,0.4,1.6,1.4,2.4,1.4h25c0.5,0-1.1-1.3-1.2-1.4C66.9,390.7,65.7,389.6,64.8,389.6z" fill="#000005"></path><ellipse class="st0" cx="114.4" cy="398.6" rx="24.7" ry="25.2" fill="#000005"></ellipse><path class="st0" d="M136.7,398c0,9.8-5.9,18.7-15,22.4c-8.7,3.4-18.7,0.8-24.6-6.5c-6.1-7.6-6.6-18.6-1.8-27
		c4.7-8.1,14.3-13.1,23.6-11.3C129.5,377.6,136.6,387.3,136.7,398c0,2.2,4.8,3.6,4.8,1.1c-0.1-11.4-7.1-21.6-17.8-25.8
		c-10.6-4-22.9-1.3-30.2,7.5c-7.2,8.8-8.1,21.2-2.4,31c5.9,10,17.4,15.3,28.9,13.3c12.5-2.5,21.5-13.3,21.5-26
		C141.5,397,136.7,395.5,136.7,398z" fill="#000005"></path><path class="st2" d="M111,391c-3.6-0.9-7.3,1.5-8.7,4.9c-1.4,3.6,0.1,7.9,2.6,10.6c2.8,3,7.2,4.9,11.1,2.4c2.8-1.8,4.3-5.4,4.6-8.6
		c0.4-3.8-1.1-7.7-4.6-9.5c-1.1-0.5-2.5-0.1-3,1c0,0,0,0.1,0,0.1c-0.4,1.3,0.3,2.6,1.5,3.1c0.4,0.2-0.1-0.1-0.1-0.1s0.2,0.2,0.3,0.2
		c0.1,0.1,0.2,0.2,0.3,0.3c0.3,0.2-0.3-0.4-0.1-0.1c0.1,0.2,0.3,0.4,0.4,0.5c0.2,0.3-0.2-0.4-0.1-0.1c0,0.1,0.1,0.3,0.2,0.4
		s0.1,0.3,0.2,0.4s-0.1-0.4,0-0.1s0.1,0.5,0.2,0.7s0.1,0.5,0.1,0.8s0,0.5,0,0.1v0.5c0,0.5-0.1,1-0.1,1.5l-0.1,0.5c0-0.1,0.1-0.4,0,0
		s-0.2,0.5-0.2,0.8c-0.2,0.6-0.4,1.1-0.7,1.7c0.2-0.4-0.2,0.3-0.3,0.4c-0.2,0.3-0.4,0.6-0.7,0.8c-0.1,0.1-0.2,0.2-0.3,0.3
		c0.1-0.1,0.3-0.3,0,0c-0.2,0.2-0.4,0.3-0.7,0.5c-0.1,0-0.4,0.2,0,0c-0.1,0-0.2,0.1-0.4,0.1c-0.1,0-0.3,0.1-0.4,0.1
		c0.5-0.1-0.3,0-0.3,0s-0.4,0-0.1,0l-0.5-0.1c-0.1,0-0.4-0.1-0.1,0l-0.4-0.2c-0.1,0-0.9-0.5-0.5-0.2c-0.4-0.2-0.7-0.5-1-0.7
		c-0.1-0.1-0.2-0.2-0.4-0.3c0.1,0.1,0.3,0.3,0,0s-0.4-0.5-0.6-0.7s-0.4-0.5-0.5-0.8c0.2,0.4,0,0,0-0.1s-0.2-0.4-0.3-0.6
		c-0.1-0.3-0.2-0.6-0.3-0.9c0.1,0.4,0,0,0-0.1s-0.1-0.3-0.1-0.5s0-0.3-0.1-0.5c-0.1-0.7,0,0.2,0-0.2s0-0.7,0.1-1s0-0.2,0-0.1
		c0-0.2,0.1-0.4,0.2-0.6s0.1-0.2,0.2-0.4c0.2-0.6-0.2,0.3,0.1-0.2c0.2-0.3,0.4-0.5,0.6-0.7c0,0,0.3-0.4,0.1-0.2s0.2-0.2,0.2-0.2
		c0.1-0.1,0.3-0.2,0.4-0.3c0.2-0.1,0.4-0.2,0.1-0.1c0.3-0.1,0.6-0.3,0.9-0.4c-0.1,0-0.4,0.1,0,0h0.6c-0.1,0-0.4-0.1,0,0l0.6,0.1
		c1.2,0.2,2.3-0.5,2.5-1.7c0-0.1,0-0.2,0-0.2C113.4,392.4,112.4,391.2,111,391z" fill="#FFFFFF"></path><path class="st2" d="M174.9,227.1c0,0,206.2-4,211.3,2.5s2,149.5,2,149.5L173,379.3C173,379.3,167,227.2,174.9,227.1z" fill="#FFFFFF"></path><path class="st1" d="M174.7,229.2l4-0.1l11-0.2l16.6-0.3l21-0.3c7.8-0.1,16-0.2,23.5-0.2c8.5-0.1,17-0.1,25.5-0.2
		c8.5,0,17,0,25.6,0c8.2,0,16.3,0.1,24.5,0.2c7.3,0.1,14.6,0.2,21.9,0.4c6,0.1,12.1,0.3,18.1,0.7c4.2,0.2,8.5,0.5,12.7,1
		c1.3,0.2,2.6,0.4,3.9,0.6c0.6,0.1-0.5-0.2,0.2,0.1l0.6,0.2c0.1,0,0.3,0.1,0.5,0.2c0.5,0.1-0.4-0.3-0.1,0s-0.1-0.4-0.1-0.2
		c0.1,0.2,0.1,0.3,0.2,0.4c-0.1-0.1-0.2-0.6-0.1-0.2c0,0.1,0.1,0.2,0.1,0.3c0.1,0.3,0.1,0.5,0.2,0.8c0.3,1.5,0.5,3.1,0.7,4.7
		c0.2,2.3,0.4,4.6,0.5,6.9c0,0.7,0.1,1.4,0.1,2.1c0,0.3,0,0.7,0,1c0-0.4,0,0.6,0,0.8c0.1,1.5,0.1,3.1,0.2,4.6
		c0.3,7.3,0.4,14.6,0.5,22c0.1,8.4,0.1,16.9,0.1,25.3c0,8.7,0,17.3-0.1,26c-0.1,7.8-0.2,15.7-0.3,23.5c-0.1,6.1-0.2,12.3-0.3,18.4
		c-0.1,3.5-0.1,7-0.2,10.5v1.4l3.1-2.4h-21.4h-23.1h-28.2h-30.9H254h-29.1h-24.6h-17.7c-2.8,0-5.6-0.2-8.4,0h-0.4l1.6,1.8
		c-0.2-5-0.4-10-0.5-15c-0.4-12-0.7-24-1-36c-0.3-14.5-0.6-29.1-0.6-43.6c0-12.7,0-25.4,0.6-38c0.2-4.3,0.5-8.6,1.1-12.8
		c0.1-0.8,0.2-1.5,0.4-2.2c0.1-0.3,0.1-0.6,0.2-0.9s0.2-0.8,0,0l0.1-0.4c0.1-0.5,0.3-0.9,0.4-1.4c0-0.1,0.1-0.2,0.1-0.2
		c0.1-0.4-0.3,0.6-0.1,0.2s0.6-0.6-0.1,0.1c0.4-0.4-0.5,0.3-0.2,0.2s-0.8,0.3-0.4,0.2S174.4,229.2,174.7,229.2
		c2.7-0.1,3.7-4.3,0.4-4.2c-3,0.1-3.9,3.7-4.4,6c-0.7,3.6-1.1,7.2-1.3,10.9c-0.9,12-0.9,24.1-0.9,36.1c0,14.8,0.2,29.5,0.5,44.3
		c0.3,12.8,0.6,25.5,1,38.2c0.2,6.2,0.4,12.5,0.7,18.7c0,0.1,0,0.2,0,0.3c-0.1,0.9,0.6,1.7,1.6,1.8h21.4h23.1h28.2H276h31.3h29.1
		H361h17.7h8.8c1.3,0,3.1-0.8,3.1-2.4c0-1.9,0.1-3.8,0.1-5.6c0.1-5,0.2-10.1,0.3-15.1c0.1-7.2,0.2-14.4,0.3-21.6
		c0.1-8.4,0.2-16.8,0.2-25.2c0-8.7,0-17.4,0-26.1c0-8-0.1-16-0.3-23.9c-0.1-6.5-0.3-12.9-0.7-19.4c-0.1-3.8-0.5-7.6-1.3-11.4
		c-0.1-1-0.6-2-1.3-2.7c-0.9-0.6-1.9-1-3-1.1c-3.1-0.6-6.2-1-9.4-1.2c-5.2-0.4-10.4-0.6-15.6-0.8c-6.7-0.2-13.4-0.4-20.1-0.5
		c-7.8-0.1-15.6-0.2-23.4-0.3c-8.5-0.1-17-0.1-25.5-0.1c-8.6,0-17.2,0-25.8,0.1c-8.4,0.1-16.9,0.1-25.3,0.2
		c-7.6,0.1-15.1,0.2-22.7,0.3c-6.4,0.1-12.8,0.2-19.2,0.3l-14,0.2l-7.6,0.1h-1C172.5,225.1,171.5,229.2,174.7,229.2z" fill="#3560ba"></path><rect class="st1" x="170.4" y="362.3" width="143.8" height="19.2" fill="#3560ba"></rect><path class="st1" d="M314.6,382H169.9v-20.2h144.8V382z M170.9,381h142.8v-18.2H170.9V381z" fill="#3560ba"></path><path class="st1" d="M381.1,263c0,0-65.7-1.7-66.1,0s0,116.1,0,116.1l66.1-0.1V263z" fill="#3560ba"></path><path class="st1" d="M381.1,261.2l-11.7-0.3c-8.3-0.2-16.7-0.3-25-0.4c-7.6-0.1-15.2-0.2-22.8,0c-2.2,0-4.3,0.1-6.5,0.4
		c-1.6,0.3-2.6,1.1-2.6,2.7c-0.1,3.6-0.1,7.3-0.1,11c0,7,0,13.9,0,20.9c0,8.7,0,17.3,0,26l0.1,25.8c0,6.9,0,13.9,0,20.8
		c0,3.5,0,7,0,10.6v0.5c0,1.2,1.5,1.9,2.5,1.9h22.4l35.7,0h8.1c1.1,0,2.5-0.7,2.5-1.9V277.3c0-4.7,0.2-9.4,0-14.1c0-0.1,0-0.1,0-0.2
		c0-2.5-5-2.5-5,0.1v111.3c0,1.5-0.1,3.1,0,4.6v0.2l2.5-1.9h-22.4h-35.6H315l2.5,1.9c0-2.4,0-4.8,0-7.2l-0.1-18.4
		c0-8.2,0-16.5,0-24.7c0-8.7,0-17.4,0-26.1c0-7.6,0-15.1,0-22.7c0-4.8,0-9.6,0.1-14.4c0.1-0.9,0.2-1.7,0.1-2.6
		c0.5,0.4-1.3,1.9-1.5,1.6c0,0,0.6-0.1,0.7-0.1c0.6-0.1,0-0.1-0.1,0c0.1-0.1,0.5,0,0.6-0.1l1.4-0.1c6.7-0.4,13.5-0.3,20.2-0.2
		c8.5,0.1,17.1,0.2,25.6,0.4c5.3,0.1,10.7,0.2,16,0.4h0.8c1.1,0,2.5-0.7,2.5-1.9S382.1,261.2,381.1,261.2z" fill="#3560ba"></path><path class="st2" d="M315,379.1c0,0,71.9,45.2,74.1,45.9s71,2.1,69.1-0.3s-77.1-45.7-77.1-45.7L315,379.1z" fill="#FFFFFF"></path><path class="st1" d="M313.8,381c7,4.4,14,8.8,21,13.2c12.4,7.8,24.8,15.5,37.2,23.2c4.3,2.6,8.5,5.3,12.8,7.8
		c1.1,0.6,2.2,1.4,3.3,1.9c0.8,0.3,1.6,0.5,2.5,0.5c12,0.8,24.2,0.8,36.3,0.9c6.9,0,13.8,0.1,20.7-0.1c2.4-0.1,4.8-0.1,7.1-0.3
		c1.4,0,2.9-0.2,4.2-0.7c2.3-1,1.5-3.5-0.1-4.7c-1-0.8-2-1.4-3.1-2c-4.4-2.8-8.8-5.4-13.3-8c-12.7-7.6-25.5-15.1-38.4-22.5l-15.6-9
		c-2.3-1.3-4.5-2.9-7-4c-0.9-0.2-1.8-0.3-2.7-0.2h-5.6h-19.3h-37.4h-2.3c-1.3,0-1.9,1.5-1.7,2.6c0.3,1.3,1.5,2.2,2.8,2.1h22.4h35.6
		h8.1l-1.2-0.2l13.5,7.7c9.6,5.5,19.1,11.1,28.7,16.7c8.9,5.2,17.3,10.1,26.2,15.6c2.4,1.5,4.9,2.9,7.2,4.5l0.8,0.6
		c0.4,0.3-0.1-0.1-0.3-0.3c-0.6-0.8-0.6-1.8-0.2-2.6c-0.1,0.1,0.5-0.5,0.3-0.4s0.7-0.4,0.3-0.2s-0.7,0,0.1,0c-0.4,0-0.9,0.2-1.3,0.2
		c-3.5,0.4-7,0.5-10.4,0.5c-5.3,0.1-10.6,0.1-15.9,0.1c-10.7,0-21.4-0.2-32-0.5l-2.8-0.1H394c-0.6,0,0.1,0-0.2,0l-1.1,0
		c-1,0-2-0.1-3-0.2c-0.1,0-0.2,0-0.3,0c-0.4,0,0.3,0.1,0.4,0.1c-0.1-0.1-0.5-0.2-0.6-0.3c-0.3-0.2-0.7-0.4-1-0.5l-0.6-0.4
		c-0.2-0.1-0.7-0.4,0.1,0l-0.4-0.2c-7.5-4.5-15-9.1-22.4-13.7c-9.7-6-19.5-12.1-29.1-18.2L317.1,378l-0.9-0.6
		c-1-0.6-2.4-0.8-3.2,0.3C312.4,378.9,312.8,380.3,313.8,381z" fill="#3560ba"></path><path class="st1" d="M297.4,228.9V378c0,2.7,4.9,3.3,4.9,0.4V229.2C302.3,226.5,297.4,225.9,297.4,228.9z" fill="#3560ba"></path><path class="st1" d="M316.3,258.8v-15l-2.8,2.7l38.3-0.9l19.4-0.5l4.5-0.1c0.3,0,1.5-0.2,1.8,0c-0.3-0.2,0,0.6,0,0.9
		c0.1,1.6,0.2,3.2,0.3,4.9c0.2,4.3,0.3,8.7,0.7,13c0.3,2.9,5.1,1.7,4.9-1c-0.4-4-0.5-8-0.7-12c-0.1-1.8-0.2-3.6-0.3-5.5
		c0-1.2-0.4-2.4-1.1-3.4c-1.1-1-2.5-1.4-3.9-1.3c-13.4,0.1-26.9,0.7-40.3,1l-22.9,0.6c-1.5-0.1-2.7,1.1-2.8,2.6c0,0,0,0.1,0,0.1v15
		c0,1.3,1.6,1.9,2.7,1.7C315.4,261.2,316.3,260.1,316.3,258.8L316.3,258.8z" fill="#3560ba"></path><path class="st1" d="M316.4,254.6c7,0,14,0.1,21.1,0.2l31.5,0.3c2.8,0,5.6,0.1,8.5,0.1s3.5-4.5,0.3-4.5c-7,0-14-0.1-21.1-0.2
		l-31.5-0.3c-2.8,0-5.6-0.1-8.5-0.1S313.1,254.6,316.4,254.6L316.4,254.6z" fill="#3560ba"></path><path class="st1" d="M194.3,242.6c0,4.5,0.1,9,0.1,13.5c0.1,9.1,0.1,18.3,0.2,27.4l0.2,32.4l0.2,28.6c0,5.2,0.1,10.4,0.1,15.6v0.6
		c0,2.1,4.7,0.5,4.7-1.4c0-4.5-0.1-9-0.1-13.5c-0.1-9.1-0.1-18.3-0.2-27.4l-0.2-32.4l-0.2-28.6c0-5.2-0.1-10.4-0.1-15.6v-0.6
		C199,239.2,194.3,240.7,194.3,242.6L194.3,242.6z" fill="#3560ba"></path><path class="st1" d="M219.3,243.4c0,4.3,0,8.6,0.1,12.9c0.1,9,0.1,18,0.2,27c0.1,10.6,0.1,21.2,0.2,31.9c0.1,9.3,0.1,18.7,0.2,28
		c0,5.1,0.1,10.1,0.1,15.2v0.5c0,1.3,0.8,2.4,2.1,2.8c1,0.3,2.4,0,2.4-1.3c0-4.3,0-8.6-0.1-12.9c0-9-0.1-18-0.2-27
		c-0.1-10.6-0.1-21.2-0.2-31.9c-0.1-9.3-0.1-18.7-0.2-28c0-5.1-0.1-10.1-0.1-15.2v-0.5c0-1.3-0.8-2.4-2.1-2.8
		C220.7,241.7,219.3,242,219.3,243.4L219.3,243.4z" fill="#3560ba"></path><path class="st1" d="M243.4,243.3c0,4.2,0,8.4-0.1,12.6c-0.1,9-0.1,18-0.2,27c-0.1,10.8-0.1,21.6-0.2,32.3
		c-0.1,9.4-0.1,18.8-0.2,28.1c0,5-0.2,9.9-0.1,14.9v0.5c0,2.6,4.9,3.2,4.9,0.3c0-4.2,0-8.4,0.1-12.6c0-9,0.1-18,0.2-27
		c0.1-10.8,0.1-21.6,0.2-32.3c0.1-9.4,0.1-18.8,0.2-28.1c0-5,0.2-9.9,0.1-14.9v-0.4C248.3,241,243.4,240.4,243.4,243.3L243.4,243.3z
		" fill="#3560ba"></path><path class="st1" d="M268.3,242.3c0,4.3,0,8.6,0.1,12.8c0.1,8.9,0.1,17.8,0.2,26.8c0.1,10.6,0.1,21.2,0.2,31.8
		c0.1,9.3,0.1,18.6,0.2,27.9c0,5,0.1,10,0.1,15v0.5c0,1.2,1.1,1.9,2.2,2.1c0.8,0.1,2.8,0,2.8-1.2c0-4.3,0-8.6-0.1-12.8
		c-0.1-8.9-0.1-17.8-0.2-26.8c-0.1-10.6-0.1-21.2-0.2-31.8c-0.1-9.3-0.1-18.6-0.2-27.9c0-5-0.1-10-0.1-15v-0.5c-0.1-1.1-1-2-2.2-2.1
		C270.3,241,268.3,241.1,268.3,242.3L268.3,242.3z" fill="#3560ba"></path><ellipse class="st0" cx="273.5" cy="398.2" rx="24.7" ry="25.2" fill="#000005"></ellipse><path class="st0" d="M295.9,397.6c0,9.8-5.9,18.7-15,22.4c-8.7,3.4-18.7,0.8-24.6-6.5c-6.1-7.6-6.6-18.6-1.8-27
		c4.7-8.1,14.2-13.1,23.6-11.3C288.6,377.2,295.8,387,295.9,397.6c0,2.2,4.8,3.6,4.8,1.1c-0.1-11.4-7.2-21.6-17.8-25.7
		c-10.6-4-22.9-1.3-30.2,7.5c-7.2,8.8-8.1,21.2-2.4,31c5.9,9.9,17.4,15.2,28.8,13.2c12.5-2.5,21.5-13.4,21.5-26
		C300.6,396.6,295.9,395.1,295.9,397.6z" fill="#000005"></path><path class="st2" d="M272.1,391.8c-1.9-0.5-3.9,0.4-5.6,1.2c-1.8,0.7-3.4,1.9-4.5,3.5c-1.8,2.9-0.8,6.5,1.3,9
		c1.1,1.3,2.5,2.2,4,2.8c2.2,0.6,4.5-0.4,6.4-1.4c1.7-0.8,3.1-1.9,4.1-3.5c0.8-1.2,1.3-2.6,1.6-4c0.5-2.9,0-6.5-2.9-7.9
		c-0.2-0.1-0.6,0-0.8,0.1c-0.6,0.2-1.1,0.4-1.6,0.7c-0.5,0.2-1.1,0.5-1.6,0.8c-0.1,0-0.7,0.5-0.6,0.5c4.2,2.1,3.5,8.5,1.4,11.8
		c-0.3,0.5-0.7,0.9-1.1,1.3c-0.2,0.2-0.4,0.3-0.6,0.5c3-2.5,3-1.1,2-1c-0.2,0-0.4,0-0.7,0c-1.4-0.1-2.8-0.6-3.9-1.6
		c-2.1-1.6-3.4-4.1-3.6-6.8c-0.1-1.4,0.4-2.8,1.2-3.9c0.2-0.3,0.4-0.5,0.7-0.7c0.1-0.1,0.2-0.2,0.3-0.2c0,0-1.9,0.9-1.9,0.9
		c0.6-0.1,1.3-0.1,1.9,0.1c0.4,0,0.8-0.1,1.1-0.3c0.6-0.2,1.2-0.5,1.8-0.8c0.5-0.2,0.9-0.5,1.3-0.8
		C272.1,392,272.4,391.8,272.1,391.8L272.1,391.8z" fill="#FFFFFF"></path><path class="st2" d="M302.3,378.3c-2.3-5.1-6.2-9.2-11.1-11.6c-4.9-2.3-10.3-3.4-15.8-3.4c-5-0.2-10.1,0.5-14.9,1.9
		c-6,1.7-11.7,4.1-17.1,7.3c-1.9,1.1-3.7,2.4-5.1,4.1l1.9-0.3h-75.2c-0.3,0-1.9-0.1-1.8,0.4s2.8,0.4,3.1,0.4H240c0.5,0,1,0,1.5,0
		c0.7,0.1,1.4,0,2-0.4c0.3-0.2,0.5-0.5,0.8-0.8c4.1-3.7,9.4-6,14.5-8c3.6-1.4,7.2-2.6,11-3.3c1.4-0.2,2.7-0.4,4.1-0.5
		c1.1-0.1,2.3-0.1,3.4,0c6.8,0.6,13,3.9,17.2,9.2c1.1,1.5,2.1,3.1,2.9,4.9c0.2,0.5,2,0.4,2.5,0.4
		C300.7,378.6,301.6,378.5,302.3,378.3L302.3,378.3z" fill="#FFFFFF"></path><polyline class="st2" points="316.6,324.5 366.8,324.5 366.8,376.7 316.6,376.7 	" fill="#FFFFFF"></polyline><path class="st0" d="M318.3,326.2h50.2l-3.7-3.2v52.2l0.2-0.2h-50.2c-0.8,0,0.7,1.7,0.8,1.8c0.6,0.6,1.7,1.6,2.7,1.6h50.2
		c0.2,0,0.2-0.1,0.2-0.3v-52.2c0-0.7-1.1-1.6-1.5-1.9c-0.6-0.6-1.3-1-2.2-1.2h-50.2c-0.8,0,0.7,1.7,0.8,1.8
		C316.3,325.2,317.3,326.2,318.3,326.2L318.3,326.2z" fill="#000005"></path><polyline class="st2" points="316.6,324.5 351.4,324.5 351.4,290.2 316.6,290.2 	" fill="#FFFFFF"></polyline><path class="st0" d="M317.1,326.4h34.8c0.8,0,1.9-0.5,1.9-1.5v-34.2c0-1.5-1.6-2.5-2.9-2.5H316c-1.1,0-2.1,0.8-1.8,2
		c0.4,1.2,1.6,2,2.9,2h34.8l-2.9-2.5V324l1.9-1.5H316c-1.1,0-2.1,0.8-1.8,2C314.6,325.7,315.8,326.5,317.1,326.4L317.1,326.4z" fill="#000005"></path><rect class="st0" x="335.1" y="325.2" width="11.5" height="49" fill="#000005"></rect><path class="st0" d="M346.7,374.8h-11.5c-0.3,0-0.5-0.2-0.5-0.5v-49c0-0.3,0.2-0.5,0.5-0.5h11.5c0.3,0,0.5,0.2,0.5,0.5v49
		C347.2,374.5,346.9,374.8,346.7,374.8z M335.7,373.8h10.5v-48h-10.5L335.7,373.8z" fill="#000005"></path><rect class="st0" x="329.2" y="290.2" width="7.7" height="10.2" fill="#000005"></rect><path class="st0" d="M336.9,301h-7.7c-0.3,0-0.5-0.2-0.5-0.5v-10.3c0-0.3,0.2-0.5,0.5-0.5h7.7c0.3,0,0.5,0.2,0.5,0.5v10.2
		C337.4,300.7,337.2,301,336.9,301C336.9,301,336.9,301,336.9,301z M329.7,300h6.7v-9.2h-6.7V300z" fill="#000005"></path><path class="st2" d="M354.3,357.9c0,0-6.2,32.6-5,34.8s28.7,17.2,30.1,17.1s5.9-40.6,5.9-40.6L354.3,357.9z" fill="#FFFFFF"></path><path class="st0" d="M352.9,355.9c-1.5,7.7-2.8,15.4-4,23.1c-0.4,2.3-0.7,4.6-0.9,6.9c-0.2,1.5-0.3,2.9-0.2,4.4
		c0.3,3.7,3.9,5.8,6.6,7.6c4.3,2.7,8.8,5.2,13.3,7.7c3.8,2,7.5,4.2,11.4,5.9c0.6,0.3,1.4,0.8,1.8,0.2c0.4-0.9,0.7-1.8,0.7-2.7
		c0.8-4.2,1.4-8.5,2-12.7c1.1-8.1,2.2-16.3,3-24.5c0-0.1,0-0.3,0-0.5c-0.1-1.7-1.1-3.2-2.5-4.1l-27-10l-3.9-1.4
		c-0.7-0.3,0.2,1.8,0.2,1.9c0.4,0.8,1.1,2.1,2,2.4l27,10l3.9,1.4l-2.5-4.1c-0.7,6.7-1.5,13.3-2.4,20c-0.6,4.6-1.2,9.3-1.9,13.9
		c-0.2,1.6-0.5,3.2-0.9,4.7c-0.1,0.5-0.2,0.9-0.4,1.4c0,0.1-0.1,0.3-0.2,0.4c0-0.1,0.1,0-0.1,0c0.2-0.1,0.1,0-0.1-0.1
		c-0.2-0.1-0.4-0.1-0.5-0.2c-0.6-0.2-1.1-0.5-1.6-0.8c-1.8-0.8-3.5-1.7-5.2-2.6c-4.5-2.4-9-4.9-13.4-7.5c-1.9-1.1-3.8-2.2-5.6-3.4
		c-0.7-0.4-1.3-0.9-2-1.3l-0.6-0.5c0.3,0.2-0.3-0.4,0.1,0.1s1.6,2.1,1.3,2.5c0,0.1,0,0.2,0,0c0-0.2,0-0.3,0-0.5c0-0.7,0-1.3,0.1-2
		c0.2-2,0.4-4,0.7-6c1.2-8.4,2.7-16.7,4.3-25c0-0.2,0.1-0.4,0.1-0.5c0.2-0.9-0.7-2.2-1.2-2.9C354.3,356.8,353,355.2,352.9,355.9z" fill="#000005"></path><path class="st2" d="M423.1,367.9l-37.9,1.4l-5.9,40.6c0,0,39.8-3.7,40.2-6.7S423.1,367.9,423.1,367.9z" fill="#FFFFFF"></path><path class="st0" d="M422.5,365.6l-33.3,1.2l-4.7,0.2c-0.8,0.1-1.4,0.6-1.5,1.4l-5.2,35.6l-0.7,5c-0.2,1.6,0.9,3,2.4,3.2
		c0.1,0,0.3,0,0.4,0c10.7-1,21.5-2.1,32.1-4.1c2.4-0.4,4.8-0.9,7.1-1.7c1.5-0.4,2.6-1.7,2.6-3.2c0.7-6.1,1.3-12.1,1.9-18.2
		c0.5-5.4,1.1-10.8,1.6-16.1c0.2-1.3-0.5-2.5-1.7-3c-0.9-0.4-2.5-0.1-2.7,1.2c-1.1,10.8-2.1,21.7-3.3,32.5c-0.1,0.8-0.2,1.6-0.3,2.4
		s0.2,0,0.2-0.1s0.2-0.2,0,0s0.5-0.2,0.1,0c-0.8,0.3-1.5,0.6-2.3,0.8l-0.8,0.2c-0.3,0.1,0.5-0.1,0,0l-0.4,0.1
		c-0.6,0.1-1.3,0.3-1.9,0.4c-6.5,1.3-13.2,2.1-19.8,2.9c-4.6,0.5-9.2,1-13.8,1.5l2.9,3.2l5.2-35.6l0.7-5l-1.5,1.4l33.3-1.2l4.7-0.2
		c1-0.2,1.7-1.1,1.6-2.1c0-0.1-0.1-0.2-0.1-0.4C425,366.5,423.8,365.6,422.5,365.6z" fill="#000005"></path><path class="st2" d="M354.3,357.9c0,0,34.8-3.9,35.6-3.5s33.3,13.5,33.3,13.5l-37.9,1.4L354.3,357.9z" fill="#FFFFFF"></path><path class="st0" d="M353.9,359.1c10.2-1.1,20.5-2.3,30.8-3.2c1-0.1,2-0.2,3-0.2l1-0.1c0.6,0-0.6-0.1,0.1,0c0,0-1.1-0.4-0.7-0.1
		c0.2,0.1,0.4,0.2,0.6,0.3l2.2,0.9c5.7,2.3,11.4,4.6,17.1,6.9l13.2,5.4l2.4-2.2l-33.3,1.2l-4.7,0.2l1.6,0.2l-27-10l-3.9-1.4
		c-1.1-0.4-2.4-0.2-3.4,0.3c-0.5,0.3-1.6,1.3-0.5,1.7l29,10.7c1.1,0.5,2.4,0.8,3.6,0.9l4.5-0.2l19.2-0.7l14-0.5c0.9,0,1.8-0.4,2.5-1
		c0.4-0.4,0.6-1-0.1-1.3c-9.7-3.8-19.4-7.8-29.1-11.7c-1.4-0.6-2.7-1.2-4.1-1.7s-3.1-0.2-4.5-0.1c-6.1,0.5-12.2,1.2-18.3,1.8
		c-4.8,0.5-9.6,1-14.4,1.6c-0.8,0.1-2.6,0.4-2.8,1.4S353.3,359.2,353.9,359.1z" fill="#000005"></path><polygon class="st0" points="365,369.1 366.1,362.3 402.7,359.6 412.1,363.4 375.2,365.6 373.6,373.2 	" fill="#000005"></polygon><path class="st0" d="M393.4,385.5c2.5-0.9,4.3-3.1,4.7-5.6c0.1-0.7-0.8-1.1-1.3-1.3c-0.9-0.4-1.8-0.5-2.7-0.3
		c-1.1,0.2-1.9,1.1-2.1,2.2c-0.1,1.1,0.3,2.2,1,3c1.8,1.9,4,3.3,6.5,4c0.6,0.2,1.3,0.3,1.9,0.3c0.5,0,0.9-0.1,1.3-0.4
		c0.7-0.8-0.9-1.5-1.4-1.7l-0.7-0.2c-0.1,0-0.4-0.2-0.1,0s-0.1,0-0.1-0.1l-0.6-0.3l-0.3-0.2l-0.1-0.1c0.3,0.2-0.1-0.1-0.2-0.1
		l-0.2-0.2l-0.6-0.4l-0.5-0.4c0.1,0.1,0.1,0.1,0,0l-0.2-0.2l-0.4-0.4c0-0.1-0.2-0.3-0.1-0.1c0-0.1-0.1-0.2-0.1-0.2
		c-0.1-0.2-0.2-0.4-0.2-0.6c0,0,0-0.2,0-0.1s0-0.2,0-0.2c0-0.2,0-0.3,0.1-0.5c0-0.1,0-0.1,0.1-0.2s0.1-0.2,0-0.1s0.1-0.1,0.1-0.1
		s0.1-0.1,0.1-0.2s-0.1,0.1,0,0s0.4-0.1-0.1,0l-4-1.6c-0.1,0.6-0.2,1.1-0.5,1.6c-0.1,0.2-0.2,0.4-0.3,0.6c-0.1,0.2-0.3,0.5-0.5,0.7
		c-0.4,0.4-0.8,0.8-1.2,1.2c0.2-0.1-0.1,0-0.1,0.1l-0.3,0.2c-0.3,0.1-0.6,0.3-0.8,0.4c-0.3,0.1-0.5,0.5-0.4,0.8
		c0.1,0.4,0.7,0.7,1,0.9C391,385.8,392.2,385.9,393.4,385.5L393.4,385.5z" fill="#000005"></path><path class="st0" d="M65,332.5c0,0-10-6.2-11-7.7s-2.3-20.9-1.2-21.3s9.8-2.1,9.1,0s-2,19.9-2,19.9s6.9,4.8,7,6.9
		C67,331.3,66.2,332.4,65,332.5C65,332.5,65,332.5,65,332.5z" fill="#000005"></path><path class="st0" d="M67.4,331.9c-2-1.2-4-2.5-5.9-3.8c-1.3-0.9-2.7-1.8-3.9-2.8c-0.7-0.5-1.1-0.8-1.2-1.5c-0.6-2.5-0.9-5-1-7.5
		c-0.3-3.2-0.5-6.4-0.4-9.6c0-1,0-2.1,0.2-3.1c0-0.2,0.1-0.1,0.1-0.2s0.1-0.1,0.1-0.1s-1.9,0.9-0.9,0.5c0.5-0.2-0.5,0.1,0.1,0
		l0.9-0.2l0.7-0.1l1.1-0.2c0.5-0.1-0.6,0,0.2,0h0.5h0.6h0.4c0.2,0,0.5,0,0.6,0.1s0,0.4,0,0.8c-0.5,2.5-0.8,5-0.9,7.5
		c-0.3,3.1-0.6,6.3-0.8,9.4c-0.2,0.8-0.3,1.7-0.2,2.5c0.2,0.6,1.4,1.2,1.9,1.6c1.5,1.1,2.9,2.3,4.2,3.7c0.4,0.4,0.8,1,0.9,1.6
		c0.1,0.6-0.3,0.9-0.4,1.4c0,0-0.2,0.2-0.2,0.2c0-0.2,1.7-0.4,1.8-0.4c-0.7,0.1-2.6,0.2-3,1s1.6,0.6,1.9,0.6
		c1.7-0.2,4.2-0.6,4.8-2.6c0.4-1.6-0.8-2.8-1.8-3.8c-1.3-1.2-2.7-2.4-4.1-3.4c-0.4-0.2-0.7-0.4-1-0.7c0.2,0.2,0.1,0,0.1-0.3
		c0.4-2.8,0.5-5.7,0.7-8.5c0.3-3.2,0.5-6.5,1-9.7c0.1-0.8,0.6-1.6-0.1-2.2c-1.2-0.9-3.6-0.6-4.9-0.5c-2,0.1-4,0.4-5.9,0.9
		c-1,0.2-2.5,0.4-3,1.5c-0.3,1-0.4,2-0.3,3c0,1.6,0,3.3,0.1,4.9c0.2,3.5,0.4,7,0.9,10.4c0,1,0.2,1.9,0.6,2.9c0.6,1.2,2.2,2,3.3,2.8
		c2.6,1.8,5.2,3.5,7.9,5.1c0.8,0.5,2.2,0.2,3.1,0C66,333,68.1,332.3,67.4,331.9z" fill="#000005"></path><path class="st0" d="M160.9,426.8h5.8l14-0.1l20.4-0.1l24.5-0.1l26.7-0.1l26.8-0.1l25-0.1l21.1-0.1l15.1-0.1c2.4,0,4.8,0.1,7.2,0
		h0.3c1.2-0.2,2.2-0.7,3.1-1.6c0.4-0.3,1.3-1.3,0.3-1.3h-4.9l-13.4,0.1l-19.9,0.1l-24.2,0.1l-26.6,0.1l-26.9,0.1l-25.2,0.1
		l-21.5,0.1l-15.8,0.1h-8h-0.5c-1.2,0.2-2.2,0.7-3.1,1.6C160.8,425.8,159.8,426.8,160.9,426.8L160.9,426.8z" fill="#000005"></path><path class="st0" d="M87.1,425.9h58.8c0.5,0,2.5-0.1,2.5-0.9s-2.1-0.7-2.5-0.7H87.1c-0.5,0-2.5,0.1-2.5,0.9S86.7,425.9,87.1,425.9
		L87.1,425.9z" fill="#000005"></path></g><g id="sun"><circle class="st1" cx="317.4" cy="105.6" r="21.9"></circle><path class="st1" d="M337.2,104.4c0,8.7-5.3,16.5-13.3,19.8c-7.4,3.1-16.5,1.5-21.7-4.7c-5.4-6.7-6.1-16.1-1.7-23.5
		c4.3-7.5,12.8-11.6,21.4-10.4C331,87,337.1,95.2,337.2,104.4c0,1.1,1.1,2,2,2.5c0.5,0.2,2.3,0.9,2.3-0.2
		c-0.1-10.3-6.8-19.2-16.2-23c-9.2-3.8-19.8-1.4-26.4,6c-6.4,7.5-7.3,18.3-2.2,26.8c5.2,8.7,15.6,14.1,25.6,12.5
		c11-1.8,19.1-11.2,19.2-22.3c0-1.1-1.1-2-2-2.5C339,104,337.2,103.3,337.2,104.4z"></path><path class="st1" d="M314.7,74.7v2.6c0.1,0.1,0.2,0.3,0.3,0.3c0.2,0.1,0.4,0.2,0.6,0.2c0.3,0,0.6,0,0.8,0c0.3,0,0.6-0.1,0.9-0.2
		c0.6-0.2,1.1-0.4,1.6-0.8l0.3-0.3c0.1-0.2,0.2-0.4,0.2-0.6v-2.6c0-0.2-0.2-0.3-0.3-0.3c-0.2-0.1-0.4-0.2-0.6-0.2
		c-0.3,0-0.6,0-0.8,0c-0.3,0-0.6,0.1-0.9,0.2c-0.6,0.2-1.1,0.4-1.6,0.8l-0.3,0.3C314.7,74.2,314.6,74.4,314.7,74.7L314.7,74.7z"></path><path class="st1" d="M313.6,132.4v2.9c0,0.2,0.1,0.4,0.3,0.6c0.1,0.2,0.3,0.4,0.6,0.5c0.3,0.2,0.5,0.3,0.8,0.4
		c0.3,0.1,0.7,0.2,1,0.3l0.6,0.1c0.3,0,0.7-0.1,1-0.2l0.3-0.2c0.2-0.2,0.3-0.4,0.2-0.7v-2.9c0-0.2-0.1-0.4-0.3-0.6
		c-0.1-0.2-0.3-0.4-0.6-0.5c-0.3-0.2-0.5-0.3-0.8-0.4c-0.3-0.1-0.7-0.2-1-0.3h-0.6c-0.3,0-0.7,0.1-1,0.2l-0.3,0.2
		C313.6,131.9,313.5,132.2,313.6,132.4L313.6,132.4z"></path><path class="st1" d="M287.3,106.4h2.5c0.2,0,0.5,0,0.7-0.1c0.2,0,0.4-0.2,0.5-0.4c0.1-0.2,0.2-0.4,0.2-0.6c0-0.2,0-0.5-0.1-0.7
		c-0.3-0.6-0.7-1-1.2-1.4l-0.6-0.3c-0.4-0.2-0.7-0.3-1.1-0.3h-2.5c-0.2,0-0.5,0-0.7,0.1c-0.2,0-0.4,0.2-0.5,0.4
		c-0.1,0.2-0.2,0.4-0.2,0.6c0,0.2,0,0.5,0.1,0.7c0.3,0.6,0.7,1,1.2,1.4l0.6,0.3C286.5,106.2,286.9,106.3,287.3,106.4L287.3,106.4z"></path><path class="st1" d="M345.3,107.5h2.9c0.6,0,1.3-0.2,1.8-0.6c0.2-0.2,0.4-0.4,0.5-0.6c0.2-0.2,0.2-0.5,0.2-0.7c0-0.5-0.3-1-0.7-1.4
		c-0.5-0.4-1.1-0.6-1.8-0.6h-2.9c-0.6,0-1.3,0.2-1.8,0.5c-0.2,0.2-0.4,0.4-0.5,0.6c-0.2,0.2-0.2,0.5-0.2,0.8c0,0.5,0.3,1,0.7,1.4
		C344,107.3,344.7,107.5,345.3,107.5z"></path><path class="st1" d="M337.3,81.3l-1.8,1.8c-0.1,0.1-0.1,0.2,0,0.3c0.1,0.2,0.1,0.3,0.2,0.5c0.1,0.2,0.3,0.4,0.5,0.7
		c0.2,0.2,0.4,0.5,0.6,0.7c0.4,0.4,0.8,0.8,1.3,1.2l0.3,0.2c0.1,0.1,0.3,0.1,0.4,0.1l1.8-1.8c0.1-0.1,0.1-0.2,0-0.3
		c-0.1-0.2-0.1-0.3-0.2-0.5c-0.1-0.2-0.3-0.4-0.5-0.7c-0.2-0.2-0.4-0.5-0.6-0.7c-0.4-0.4-0.8-0.8-1.3-1.2l-0.3-0.2
		C337.6,81.3,337.5,81.2,337.3,81.3z"></path><path class="st1" d="M294.6,122.6l-2.1,2.1c-0.2,0.1-0.3,0.3-0.3,0.6c-0.1,0.2-0.1,0.5,0,0.7c0.1,0.2,0.2,0.5,0.4,0.7
		c0.2,0.2,0.4,0.4,0.7,0.6l0.6,0.3c0.4,0.2,0.8,0.3,1.2,0.3c0.5,0.1,1-0.1,1.4-0.4l2.1-2c0.2-0.1,0.3-0.3,0.3-0.6
		c0.1-0.2,0.1-0.4,0-0.7c-0.1-0.3-0.2-0.5-0.4-0.7c-0.2-0.2-0.4-0.4-0.7-0.6l-0.6-0.3c-0.4-0.2-0.8-0.3-1.2-0.3
		C295.5,122.2,295,122.3,294.6,122.6L294.6,122.6z"></path><path class="st1" d="M293.9,82.1l1.8,1.8c0.4,0.5,0.9,0.9,1.5,1.2c0.2,0.1,0.4,0.3,0.6,0.3c0.2,0.1,0.3,0.1,0.5,0.1l0.2-0.1
		c0.1-0.2,0.1-0.3,0-0.5l-0.2-0.4c-0.2-0.3-0.5-0.6-0.7-0.9l-1.8-1.8c-0.4-0.5-0.9-0.9-1.5-1.2c-0.2-0.1-0.4-0.3-0.6-0.3
		c-0.2-0.1-0.3-0.1-0.5-0.1l-0.2,0.1c-0.1,0.2-0.1,0.3,0,0.5l0.2,0.4C293.3,81.6,293.6,81.8,293.9,82.1z"></path><path class="st1" d="M335.4,125.9l2.1,2.1c0.2,0.2,0.4,0.3,0.6,0.4c0.3,0.1,0.5,0.2,0.8,0.3c0.3,0.1,0.7,0.1,1,0.1
		c0.3,0,0.6,0,0.9-0.1l0.5-0.1c0.3-0.1,0.5-0.3,0.7-0.5l0.1-0.3c0-0.2-0.1-0.5-0.3-0.6l-2-2.1c-0.2-0.2-0.4-0.3-0.6-0.4
		c-0.3-0.1-0.5-0.2-0.8-0.3c-0.3-0.1-0.7-0.1-1-0.1c-0.3,0-0.6,0-0.9,0.1l-0.5,0.2c-0.3,0.1-0.5,0.3-0.7,0.5l-0.1,0.3
		C335.2,125.5,335.3,125.7,335.4,125.9L335.4,125.9z"></path></g><g id="cloud"><path class="st2" d="M110.7,153c0,0-6.9-7.8-16.8-5.3c-2.2,0.5-4.1,1.7-5.5,3.5c-4.2,5.3,0.7,12.3,8.2,12.3l85.5-0.1
		c6.2,0,8.9-6.7,4-9.8c-5.9-3.7-13.6-0.6-13.6-0.6s13.4-16.1-2.4-32.7s-38.8-0.7-36.4,16.6C133.8,136.9,108.7,124.1,110.7,153z"></path><path class="st1" d="M112.9,153.5c-4.5-5-12.2-8.2-18.8-7.4c-4.3,0.5-9.2,3.3-9.4,8.1c-0.2,4.3,3.3,7.4,6.9,9
		c3.3,1.5,6.5,1.5,9.9,1.5h12.3l37.5-0.1h29.5c3.1,0,6.4,0.3,8.8-2.1c2.9-2.9,1.5-6.8-1.6-8.9c-5.2-3.2-11.6-3.9-17.4-1.7l4.5,2
		c2-2.5,3.5-5.5,4.3-8.6c1.9-6.7,0.8-13.9-3-19.8c-4.4-6.9-11.6-12.2-19.8-13.3c-6.3-0.8-12.7,1.2-17.5,5.4
		c-5.4,4.5-8.1,11.5-7.4,18.4l3.2,0.2c-7.1-3.6-19.3-6.6-24.2,1.8c-2.4,4.1-2.5,9.4-2.1,14c0.1,1.2,4.7,2.7,4.6,1.5
		c-0.4-6.1,0-14.7,6.6-17.6c2-0.8,4.1-1.1,6.3-0.8l0.8,0.1c0.4,0,0,0-0.1,0l0.4,0.1l1.6,0.3l0.4,0.1c-0.6-0.1-0.3-0.1-0.2-0.1
		l0.8,0.2l1.3,0.4l0.3,0.1c0.5,0.2-0.6-0.2-0.2-0.1l0.6,0.2c0.3,0.1,0.6,0.2,0.9,0.4c0.4,0.2,0.9,0.4,0.1,0l0.2,0.1
		c0.4,0.2,3.4,1.5,3.2,0.3c-1.5-11.5,8.5-22.7,20-23.1c6.8-0.2,11.9,4.4,15.5,9.8c3.7,5.4,4.8,12.2,3.1,18.5
		c-0.8,3.4-2.4,6.5-4.5,9.2c-0.8,0.9,3.7,2.4,4.4,2.1c2.6-1,5.4-1.4,8.2-1c1.5,0.1,2.8,1.1,3.3,2.6c0.4,1.4,0.1,2.9-0.8,4.1
		c-1.9,2.5-4.5,2.3-7.2,2.3h-25.8l-35.2,0.1H96c-1.2,0.1-2.3-0.1-3.4-0.5c-2.7-1.3-3.9-5.2-2.7-8c1.8-4.2,6.8-5.8,11-5.3
		c2.6,0.3,5,1.4,6.8,3.2c0.3,0.3,0.6,0.5,0.9,0.8s-0.2-0.3,0,0.1c0.8,0.8,1.9,1.4,3,1.6C112,154.3,113.7,154.3,112.9,153.5z"></path><path class="st2" d="M336.2,188.3c0,0,4.3-5.3,10.3-3.6c1.4,0.4,2.6,1.2,3.4,2.4c2.6,3.6-0.4,8.4-5,8.4l-52.5-0.1
		c-3.8,0-5.5-4.5-2.4-6.6c3.6-2.5,8.3-0.4,8.3-0.4s-8.2-11,1.5-22.2s23.8-0.5,22.3,11.3C322,177.4,337.5,168.6,336.2,188.3z"></path><path class="st1" d="M338.1,189.9c2-2.4,5.5-4.2,8.7-3.4c1.8,0.5,2.2,2.4,1.5,4c-0.8,1.9-2.7,3-4.8,3c-3.5,0.1-7.1,0-10.6,0
		l-38.8-0.1c-1.2,0.1-2.5,0.1-3.7-0.2c0,0,0.2,0.1,0.2,0.1l-0.1-0.1c0.1,0,0.1,0.1,0.1,0.1c-0.1-0.3-0.2-0.7-0.2-1
		c0.1-1.3,1.3-2.1,2.5-2.6c1.8-0.6,3.8-0.5,5.5,0.3c0.6,0.3,1.5,0.3,1.9-0.4s-0.2-1.5-0.6-2.1c0.7,1,0.2,0.3,0.1,0.1s-0.4-0.6-0.6-1
		l-0.4-0.7c-0.2-0.3,0.2,0.5,0-0.1c-0.1-0.1-0.1-0.3-0.2-0.4c-0.3-0.7-0.5-1.3-0.7-2c-1.1-3.7-0.9-7.6,0.7-11.1c1.7-3.9,5.1-8,9.4-9
		c3-0.7,6.2,0.2,8.5,2.3c2.7,2.7,4,6.5,3.6,10.3c-0.2,1.5,2.1,4,3.7,3.1c0.4-0.2,0.9-0.5,1.4-0.6c0.5-0.2,1-0.4,1.5-0.6l0.8-0.2h0.2
		l0.5-0.1c0.6-0.1,1.3-0.2,2-0.2c0.1,0,0.6,0,0.4,0s0.3,0,0.3,0l0.4,0.1c0.2,0,0.6,0.1,0.2,0l0.4,0.1c0.1,0,0.6,0.3,0.3,0.1
		s0.2,0.2,0.3,0.2s0.4,0.2,0,0s0.1,0,0.1,0.1c0.2,0.2,0.2,0.3,0,0c0.1,0.1,0.3,0.3,0.4,0.4c-0.3-0.4,0.4,0.6,0.4,0.6
		c1.2,2.3,1.2,5.8,1,8.5c-0.1,1.8,4.1,4.2,4.2,1.6c0.3-5.4-0.5-11.7-5.8-14.5c-3.1-1.7-6.7-1.3-10-0.1c-0.7,0.3-1.5,0.6-2.1,1
		l3.7,3.1c1-9.1-6.3-18.9-15.8-19.2c-10.4-0.4-17,12.1-15.2,21.2c0.6,3,1.8,5.9,3.6,8.4l1.2-2.4c-3.8-1.7-11.7-1.6-11.9,4
		c-0.1,4.1,4.1,6.7,7.8,6.8h16.1h24.1h8.7c1.4,0.1,2.8,0.1,4.2-0.1c2.6-0.4,4.7-2.2,5.5-4.7c0.9-2.9-0.7-5.9-2.9-7.8
		c-4.4-3.8-10.7-2.7-14.7,1.1c-0.3,0.3-0.5,0.5-0.8,0.8C333,188.3,336.8,191.5,338.1,189.9z"></path></g></svg>